<svg id="Layer_1" data-name="Layer 1" xmlns="http://www.w3.org/2000/svg" xmlns:xlink="http://www.w3.org/1999/xlink" viewBox="0 0 80 80"><defs><style>.cls-1{fill:none;}.cls-2{clip-path:url(#clip-path);}.cls-3{fill:#1f5abc;}</style><clipPath id="clip-path"><rect class="cls-1" width="80" height="80"/></clipPath></defs><title>Artboard 2</title><g class="cls-2"><g id="Mask_Group_50" data-name="Mask Group 50"><path id="Path_16918" data-name="Path 16918" class="cls-3" d="M58.07,39.64c0-5.18,2.31-9.1,7.06-12-2.66-3.8-6.67-5.9-12-6.3-5-.4-10.5,2.92-12.51,2.92s-7-2.78-10.8-2.78c-7.88.12-16.26,6.29-16.26,18.82a35.39,35.39,0,0,0,2,11.48C17.43,57,24,69.7,30.77,69.49,34.34,69.41,36.85,67,41.49,67c4.49,0,6.82,2.53,10.8,2.53,6.87-.1,12.77-11.66,14.5-16.86-9.22-4.34-8.72-12.72-8.72-13Zm-8-23.2A13.34,13.34,0,0,0,53.46,6.19a15,15,0,0,0-9.6,4.93,13.52,13.52,0,0,0-3.62,10.16c3.69.29,7.06-1.61,9.83-4.85Z"/></g></g></svg>