<svg id="Layer_1" data-name="Layer 1" xmlns="http://www.w3.org/2000/svg" viewBox="0 0 176 176"><defs><style>.cls-1{fill:#cbd4c3;}.cls-2,.cls-4{fill:none;stroke-linecap:round;stroke-linejoin:round;stroke-width:5px;}.cls-2{stroke:#223b55;}.cls-3{fill:#1f5abc;}.cls-4{stroke:#1f5abc;}</style></defs><title>ic_profit</title><circle class="cls-1" cx="87.99" cy="115.32" r="36.21"/><path class="cls-2" d="M139.79,116.58a51.8,51.8,0,1,1-24.45-45.26"/><line class="cls-2" x1="87.13" y1="63.52" x2="87.13" y2="17.37"/><path class="cls-3" d="M83.3,11.09,74.49,26.35A4.43,4.43,0,0,0,78.32,33H95.94a4.43,4.43,0,0,0,3.84-6.65L91,11.09A4.43,4.43,0,0,0,83.3,11.09Z"/><line class="cls-2" x1="139.8" y1="115.32" x2="139.8" y2="42.91"/><path class="cls-3" d="M136,36.63l-8.81,15.26A4.43,4.43,0,0,0,131,58.54h17.62a4.43,4.43,0,0,0,3.83-6.65l-8.81-15.26A4.43,4.43,0,0,0,136,36.63Z"/><line class="cls-2" x1="36.2" y1="115.32" x2="36.2" y2="42.91"/><path class="cls-3" d="M32.37,36.63,23.56,51.89a4.43,4.43,0,0,0,3.83,6.65H45a4.43,4.43,0,0,0,3.84-6.65L40,36.63A4.43,4.43,0,0,0,32.37,36.63Z"/><path class="cls-4" d="M80.18,129.48a9.49,9.49,0,0,0,16.49-6.41,9.34,9.34,0,0,0-2.93-6.73c-2.37-2.25-5.83-2.59-8.76-3.82-3.17-1.33-5.67-3.86-5.67-7.48a8.54,8.54,0,0,1,14.58-6"/><line class="cls-4" x1="87.85" y1="96.5" x2="87.85" y2="90.73"/><line class="cls-4" x1="87.85" y1="139.91" x2="87.85" y2="132.85"/></svg>