<svg id="Layer_1" data-name="Layer 1" xmlns="http://www.w3.org/2000/svg" viewBox="0 0 176 176"><defs><style>.cls-1{fill:#fdc11f;}.cls-2,.cls-3{fill:none;stroke-linecap:round;stroke-linejoin:round;stroke-width:9px;}.cls-2{stroke:#223b55;}.cls-3{stroke:#00ad43;}.cls-4{fill:#00ad43;}.cls-5{fill:#223b55;}</style></defs><title>ic_sessions</title><path class="cls-1" d="M134.33,86.55H41.67a5.37,5.37,0,0,0-5.33,6l5.09,40.69a7.24,7.24,0,0,0,7.18,6.34H67.89l-2.58-23.31a8.39,8.39,0,0,1,8.38-8.81h28.62a8.39,8.39,0,0,1,8.38,8.81l-2.58,23.31h19.28a7.24,7.24,0,0,0,7.18-6.34l5.09-40.69A5.37,5.37,0,0,0,134.33,86.55Z"/><path class="cls-2" d="M106.63,160.54H69.37L64.5,116.42a8.69,8.69,0,0,1,8.68-9.12h29.64a8.69,8.69,0,0,1,8.68,9.12Z"/><line class="cls-2" x1="42.75" y1="160.54" x2="133.25" y2="160.54"/><path class="cls-3" d="M75.45,20.67A17.88,17.88,0,0,1,88,15.46c10.29,0,18.63,8.94,18.63,20s-8.34,20-18.63,20-18.63-8.94-18.63-20A21.1,21.1,0,0,1,71,27.32a1.75,1.75,0,0,1,2.39.12c2.63,2.57,9.32,9.32,20,6.66"/><path class="cls-4" d="M89.33,64.71c-15.52,0-29.63,3.87-37.47,12h73C117.81,68.58,104.85,64.71,89.33,64.71Z"/><circle class="cls-5" cx="88" cy="125.68" r="8.24"/><path class="cls-2" d="M146.05,76.69H30a7.5,7.5,0,0,0-7.44,8.43L28.62,134a7.49,7.49,0,0,0,7.44,6.57h31.1L64.5,116.42a8.69,8.69,0,0,1,8.68-9.12h29.64a8.69,8.69,0,0,1,8.68,9.12l-2.66,24.15h31.1a7.49,7.49,0,0,0,7.44-6.57l6.11-48.88A7.5,7.5,0,0,0,146.05,76.69Z"/></svg>