<svg id="Layer_1" data-name="Layer 1" xmlns="http://www.w3.org/2000/svg" viewBox="0 0 176 176"><defs><style>.cls-1{fill:#fdbe20;}.cls-2,.cls-4{fill:none;stroke-linecap:round;stroke-linejoin:round;stroke-width:9px;}.cls-2{stroke:#223b55;}.cls-3{fill:#00ad43;}.cls-4{stroke:#00ad43;}</style></defs><title>ic_total</title><rect class="cls-1" x="125.89" y="45.63" width="22.59" height="81.48" rx="1.97"/><rect class="cls-1" x="80.7" y="72.54" width="22.59" height="55.56" rx="1.97"/><rect class="cls-1" x="35.52" y="96.12" width="22.59" height="30" rx="1.97"/><line class="cls-2" x1="49.11" y1="135.12" x2="49.11" y2="105.12"/><polyline class="cls-2" points="49.11 105.12 26.52 105.12 26.52 135.13"/><polyline class="cls-2" points="94.3 135.12 94.3 82.53 71.7 82.53 71.7 135.12"/><polyline class="cls-2" points="139.48 154.56 139.48 81.96 139.48 56.6 116.89 56.6 116.89 135.13"/><path class="cls-3" d="M121.65,17.76,100.1,24.39a3.49,3.49,0,0,0-1.35,5.88l16.52,15.35A3.48,3.48,0,0,0,121,43.85l5-22A3.48,3.48,0,0,0,121.65,17.76Z"/><path class="cls-4" d="M110,34.67A136.16,136.16,0,0,1,58.51,66.53a137.77,137.77,0,0,1-32,6.92"/><line class="cls-2" x1="139.62" y1="154.58" x2="26.65" y2="154.58"/></svg>