<svg xmlns="http://www.w3.org/2000/svg" xmlns:xlink="http://www.w3.org/1999/xlink" viewBox="0 0 128 128"><defs><linearGradient id="a" x1="3.35" y1="106.44" x2="125.04" y2="106.44" gradientUnits="userSpaceOnUse"><stop offset="0" stop-color="#003eca"/><stop offset="1" stop-color="#3a69ff"/></linearGradient><linearGradient id="b" x1="45.18" y1="-6.41" x2="60.44" y2="34.13" gradientUnits="userSpaceOnUse"><stop offset="0" stop-color="#007bff"/><stop offset="0.87" stop-color="#3a69ff"/></linearGradient><linearGradient id="c" x1="38.55" y1="91.22" x2="89.84" y2="91.22" gradientUnits="userSpaceOnUse"><stop offset="0" stop-color="#fd7ce9"/><stop offset="1" stop-color="#f632b6"/></linearGradient><linearGradient id="d" x1="12.48" y1="114.07" x2="22.96" y2="114.07" gradientUnits="userSpaceOnUse"><stop offset="0" stop-color="#50a7ff"/><stop offset="1" stop-color="#22d9ff"/></linearGradient><linearGradient id="e" x1="19.89" y1="114.06" x2="15.42" y2="114.06" xlink:href="#d"/><linearGradient id="f" x1="44.02" y1="121.03" x2="54.5" y2="121.03" xlink:href="#d"/><linearGradient id="g" x1="51.43" y1="121.02" x2="46.97" y2="121.02" xlink:href="#d"/><linearGradient id="h" x1="27.48" y1="92.35" x2="37.96" y2="92.35" xlink:href="#d"/><linearGradient id="i" x1="34.89" y1="92.34" x2="30.43" y2="92.34" xlink:href="#d"/><linearGradient id="j" x1="99.54" y1="98.57" x2="110.01" y2="98.57" xlink:href="#d"/><linearGradient id="k" x1="106.94" y1="98.56" x2="102.48" y2="98.56" xlink:href="#d"/><linearGradient id="l" x1="89.98" y1="117.18" x2="100.46" y2="117.18" xlink:href="#d"/><linearGradient id="m" x1="97.39" y1="117.17" x2="92.93" y2="117.17" xlink:href="#d"/></defs><title>airdrop</title><path d="M119.91,127.77H8.48a5.12,5.12,0,0,1-4.58-7.41L19.17,89.82a8.53,8.53,0,0,1,7.63-4.71h74.79a8.52,8.52,0,0,1,7.63,4.71l15.27,30.54A5.12,5.12,0,0,1,119.91,127.77Z" fill="url(#a)"/><path d="M109.33,90h-13a4.73,4.73,0,1,0,0,9.44h9.44a4.73,4.73,0,1,0,0,9.43h13Z" fill="#003eca"/><path d="M88.86,119.35a4.89,4.89,0,0,0,5,4.72h30.92a5,5,0,0,0-.34-3.71l-2.86-5.72H93.91A4.89,4.89,0,0,0,88.86,119.35Z" fill="#003eca"/><path d="M55.16,120.89a4.89,4.89,0,0,0-5-4.72l-23,0a4.73,4.73,0,1,0,0-9.43H41.85a4.73,4.73,0,1,0,0-9.44H34.51a4.73,4.73,0,1,0,0-9.43h-14a8.36,8.36,0,0,0-1.38,2L3.9,120.36a5.1,5.1,0,0,0,.4,5.25H50.13A4.88,4.88,0,0,0,55.16,120.89Z" fill="#003eca"/><path d="M116.3,46.91a19.75,19.75,0,0,0-7.45-6,24.38,24.38,0,0,0-10.31-2.25,23.26,23.26,0,0,0-14.4,4.77.69.69,0,0,0-.25.68.68.68,0,0,0,.49.53,36.62,36.62,0,0,1,6.26,2.46c.35.17-25.75,39.93-25.75,39.93S65.6,46.63,66,46.4c4.38-2.71,9.59-3.53,15.51-2.42a.69.69,0,0,0,.6-1.19c-4.47-4.07-11-6.41-17.87-6.41s-13.41,2.34-17.88,6.41a.72.72,0,0,0-.16.83.7.7,0,0,0,.75.37c5.91-1.11,11.1-.31,15.48,2.37.37.24,1.11,40.7,1.11,40.7s-26-39.8-25.59-40A35.62,35.62,0,0,1,44,44.68a.69.69,0,0,0,.24-1.21,23.2,23.2,0,0,0-14.4-4.78A24.16,24.16,0,0,0,19.52,41a19.61,19.61,0,0,0-7.46,6,.7.7,0,0,0,.56,1.1.71.71,0,0,0,.47-.18,19.39,19.39,0,0,1,7-3.73,15.38,15.38,0,0,1,13.51,2.3c.6.42,30,43.26,30,43.26l.05.07h0s0,0,0,0l0,0,0,0h0l.07,0h0l.07,0h0L64,90h.36l.06,0h0l.06,0h0l.07,0h0l.05,0,0,0,0,0h0l0-.07S93.72,47.25,94.08,47A15.5,15.5,0,0,1,108,44.05a19.61,19.61,0,0,1,7.31,3.8.7.7,0,0,0,1-.94Z" fill="#0e58dd"/><path d="M64.2,90.09a.78.78,0,0,1-.48-.17L12.14,48A.77.77,0,0,1,12,46.89c.27-.32,2-2,2.29-1.74A161.26,161.26,0,0,0,28.83,59.37c6.27,5.58,35.37,29,35.37,29S85.53,70.88,97.25,61.4s16.18-15.77,16.18-15.77c.32-.26,2.67.94,2.93,1.26a.75.75,0,0,1-.11,1.07l-51.57,42A.78.78,0,0,1,64.2,90.09Z" fill="#3a69ff"/><path d="M64.2,90.09a.75.75,0,0,1-.7-.46S51.71,64.32,48.86,57.5s-5.58-13.21-5.58-13.21c-.17-.39,1.1.26,1.49.1s1.88-1.3,2-.91c0,0,2,6.88,4.47,13.82S64.2,87.42,64.2,87.42,74.23,67.67,77,59.86A134.53,134.53,0,0,0,81.47,44c.17-.38,1.77.24,2.15.41s1.94-.12,1.77.27c0,0-2.93,8.23-5.86,14.09S64.89,89.63,64.89,89.63A.75.75,0,0,1,64.2,90.09Z" fill="#3a69ff"/><path d="M12.62,47.37c3.51-4.78,9.92-8,17.24-8a22.12,22.12,0,0,1,15.21,5.7c4.07-4.82,11.11-8,19.13-8s15,3.18,19.12,8a22.13,22.13,0,0,1,15.22-5.71c7.31,0,13.72,3.21,17.23,8C114.57,21.31,91.94.53,64.2.53S13.83,21.31,12.62,47.37Z" fill="url(#b)"/><path d="M115.77,48.13a.77.77,0,0,1-.61-.31c-3.48-4.73-9.85-7.68-16.62-7.68a21.47,21.47,0,0,0-14.7,5.5.76.76,0,0,1-1.1-.07c-4.09-4.84-11-7.73-18.54-7.73s-14.46,2.89-18.55,7.73a.75.75,0,0,1-.54.27.76.76,0,0,1-.56-.2,21.46,21.46,0,0,0-14.69-5.5c-6.78,0-13.15,3-16.63,7.68a.76.76,0,0,1-1.37-.48A47.47,47.47,0,0,1,16.6,28.73,49.81,49.81,0,0,1,28,13.62a54.36,54.36,0,0,1,72.5,0,49.78,49.78,0,0,1,11.34,15.11,47.3,47.3,0,0,1,4.74,18.61.76.76,0,0,1-.5.75A.78.78,0,0,1,115.77,48.13ZM64.2,1.29c-26.49,0-48.29,19.07-50.66,43.82a20.25,20.25,0,0,1,5.95-4.21,24.31,24.31,0,0,1,10.37-2.28A23.21,23.21,0,0,1,45,44c4.42-4.82,11.53-7.68,19.19-7.68S79,39.18,83.38,44a23.21,23.21,0,0,1,15.16-5.38,24.34,24.34,0,0,1,10.37,2.28,20.33,20.33,0,0,1,5.94,4.21C112.48,20.36,90.68,1.29,64.2,1.29Z" fill="#3a69ff"/><path d="M76.86,2C75.38,5.84,70.27,8.65,64.2,8.65S53,5.84,51.53,2A54.57,54.57,0,0,1,76.86,2Z" fill="#fff"/><path d="M64.2,9.41a17.93,17.93,0,0,1-8.41-2,10.34,10.34,0,0,1-5-5.15.77.77,0,0,1,0-.63.75.75,0,0,1,.5-.38A55.3,55.3,0,0,1,77,1.28a.75.75,0,0,1,.5.38.81.81,0,0,1,0,.63,10.34,10.34,0,0,1-5,5.15A18,18,0,0,1,64.2,9.41ZM52.62,2.55A9.63,9.63,0,0,0,56.5,6.1a16.5,16.5,0,0,0,7.7,1.79A16.49,16.49,0,0,0,71.89,6.1a9.57,9.57,0,0,0,3.88-3.55,53.8,53.8,0,0,0-23.15,0Z" fill="#3a69ff"/><path d="M83.32,45.09c-4.07-4.83-11.11-8-19.12-8s-15.06,3.18-19.13,8c0-.21-1.22-21,12.27-37.75A17.73,17.73,0,0,0,64.2,8.65a17.72,17.72,0,0,0,6.85-1.32C84.61,24.2,83.32,45.09,83.32,45.09Z" fill="#fff"/><path d="M83.32,45.09c-4.07-4.83-11.11-8-19.12-8s-15.06,3.18-19.13,8h0c0-.21-1.22-21,12.27-37.75A17.73,17.73,0,0,0,64.2,8.65a18.71,18.71,0,0,0,3.13-.26,16.41,16.41,0,0,0,3.72-1.06C84.61,24.2,83.32,45.09,83.32,45.09Z" fill="#fff"/><path d="M83.32,45.84a.74.74,0,0,1-.58-.27c-4.09-4.84-11-7.73-18.54-7.73s-14.46,2.89-18.55,7.73a.76.76,0,0,1-1.34-.44,57.5,57.5,0,0,1,1.08-12.85A63.1,63.1,0,0,1,49,20,53.39,53.39,0,0,1,56.75,6.86a.75.75,0,0,1,.88-.23A17.05,17.05,0,0,0,64.2,7.89a17,17,0,0,0,6.56-1.26.75.75,0,0,1,.88.23,53.43,53.43,0,0,1,7.75,13.2A63,63,0,0,1,83,32.39a57.2,57.2,0,0,1,1.06,12.74.76.76,0,0,1-.52.68A1,1,0,0,1,83.32,45.84Zm-.76-.8ZM64.2,36.32c7.21,0,13.94,2.54,18.39,6.87a61.2,61.2,0,0,0-1.07-10.56A56.82,56.82,0,0,0,70.81,8.25,18.9,18.9,0,0,1,64.2,9.41a19,19,0,0,1-6.62-1.16A56.65,56.65,0,0,0,46.89,32.56,61.61,61.61,0,0,0,45.8,43.19C50.25,38.86,57,36.32,64.2,36.32Z" fill="#3a69ff"/><circle cx="64.2" cy="91.22" r="25.65" fill="url(#c)"/><path d="M70.65,86.54l-1.05.6L68,88.1l9.4,5.42V82.67Z" fill="#edb4ed"/><path d="M63.53,90.6v16l13.82-8Z" fill="#f7c9f5"/><path d="M63.53,90.6l-13.83-8v16Z" fill="#f7dff6"/><path d="M62.09,86.39a2.84,2.84,0,0,1,2.87,0l3,1.71,9.42-5.43L65,75.51a2.88,2.88,0,0,0-2.87,0L49.7,82.67l9.42,5.43Z" fill="#fff"/><path d="M64.2,113.83C51.41,113.83,41,103.69,41,91.22s10.4-22.6,23.19-22.6,23.18,10.14,23.18,22.6S77,113.83,64.2,113.83Zm0-43.59c-11.9,0-21.57,9.41-21.57,21s9.67,21,21.57,21,21.56-9.42,21.56-21S76.09,70.24,64.2,70.24Z" fill="#f9bbf3"/><path d="M118.4,12.12h-3.63V8.49a1.22,1.22,0,1,0-2.43,0v3.63h-3.63a1.21,1.21,0,1,0,0,2.42h3.63v3.63a1.22,1.22,0,0,0,2.43,0V14.54h3.63a1.21,1.21,0,0,0,0-2.42Z" fill="#c4bdff"/><path d="M15.07,11.51H11.44V7.88A1.21,1.21,0,1,0,9,7.88v3.63H5.38a1.21,1.21,0,1,0,0,2.42H9v3.63a1.21,1.21,0,0,0,2.42,0V13.93h3.63a1.21,1.21,0,0,0,0-2.42Z" fill="#ffb8fc"/><path d="M26.86,72.29H23.23V68.66a1.22,1.22,0,0,0-2.43,0v3.63H17.17a1.22,1.22,0,0,0,0,2.43H20.8v3.63a1.22,1.22,0,0,0,2.43,0V74.72h3.63a1.22,1.22,0,0,0,0-2.43Z" fill="#cc9cff"/><g style="isolation:isolate"><ellipse cx="17.72" cy="114.07" rx="5.24" ry="4.24" fill="url(#d)"/></g><ellipse cx="17.72" cy="114.06" rx="2.25" ry="1.82" fill="url(#e)"/><g style="isolation:isolate"><ellipse cx="49.26" cy="121.03" rx="5.24" ry="4.24" fill="url(#f)"/></g><ellipse cx="49.26" cy="121.02" rx="2.25" ry="1.82" fill="url(#g)"/><g style="isolation:isolate"><ellipse cx="32.72" cy="92.35" rx="5.24" ry="4.24" fill="url(#h)"/></g><ellipse cx="32.72" cy="92.34" rx="2.25" ry="1.82" fill="url(#i)"/><g style="isolation:isolate"><ellipse cx="104.77" cy="98.57" rx="5.24" ry="4.24" fill="url(#j)"/></g><ellipse cx="104.77" cy="98.56" rx="2.25" ry="1.82" fill="url(#k)"/><g style="isolation:isolate"><ellipse cx="95.22" cy="117.18" rx="5.24" ry="4.24" fill="url(#l)"/></g><ellipse cx="95.22" cy="117.17" rx="2.25" ry="1.82" fill="url(#m)"/><path d="M92.73,27.62H89.1V24a1.22,1.22,0,0,0-2.43,0v3.64H83A1.21,1.21,0,0,0,83,30h3.63v3.63a1.22,1.22,0,0,0,2.43,0V30h3.63a1.21,1.21,0,0,0,0-2.42Z" fill="#ffb8fc"/><path d="M115.85,75.56h-3.63V71.93a1.21,1.21,0,1,0-2.42,0v3.63h-3.63a1.22,1.22,0,0,0,0,2.43h3.63v3.63a1.21,1.21,0,1,0,2.42,0V78h3.63a1.22,1.22,0,0,0,0-2.43Z" fill="#cc9cff"/></svg>