<svg width="218" height="65" viewBox="0 0 218 65" fill="none" xmlns="http://www.w3.org/2000/svg">
<g filter="url(#filter0_b)">
<path d="M209.426 63.2461H8.19141C4.11328 63.2461 0.808594 59.9414 0.808594 55.8633V8.19141C0.808594 4.11328 4.11328 0.808594 8.19141 0.808594H209.426C213.504 0.808594 216.809 4.11328 216.809 8.19141V55.8633C216.809 59.9414 213.504 63.2461 209.426 63.2461Z" fill="white" fill-opacity="0.1"/>
</g>
<path opacity="0.1" d="M8.1875 1.61719C4.5625 1.61719 1.61328 4.56641 1.61328 8.19141V55.8633C1.61328 59.4883 4.5625 62.4375 8.1875 62.4375H209.426C213.051 62.4375 216 59.4883 216 55.8633V8.19141C216 4.56641 213.051 1.61719 209.426 1.61719H8.1875ZM209.426 64.0547H8.1875C3.67188 64.0547 0 60.3789 0 55.8633V8.19141C0 3.67578 3.67188 0 8.1875 0H209.426C213.941 0 217.613 3.67578 217.613 8.19141V55.8633C217.613 60.3789 213.941 64.0547 209.426 64.0547Z" fill="#A7A9AC"/>
<path d="M75.4609 16.7656L74.6328 14.1719C74.4297 13.5312 74.2578 12.8164 74.1016 12.207H74.0703C73.918 12.8164 73.7578 13.5469 73.5742 14.1719L72.7617 16.7656H75.4609ZM72.4492 18.2148L71.543 21.1992H69.5586L72.9336 10.6758H75.3828L78.8008 21.1992H76.7422L75.7891 18.2148" fill="white"/>
<path d="M81.6719 13.5977L82.9062 17.4492C83.125 18.1211 83.2773 18.7305 83.418 19.3555H83.4648C83.6055 18.7305 83.7773 18.1367 83.9805 17.4492L85.1992 13.5977H87.2109L84.3086 21.1992H82.4219L79.5938 13.5977" fill="white"/>
<path d="M93.0039 17.4805C91.6445 17.4648 90.3477 17.7461 90.3477 18.9023C90.3477 19.6523 90.832 19.9961 91.4414 19.9961C92.2188 19.9961 92.7695 19.4961 92.9531 18.9492C93.0039 18.8086 93.0039 18.668 93.0039 18.5273V17.4805ZM94.875 19.3711C94.875 20.0586 94.9062 20.7305 95 21.1953H93.2656L93.1289 20.3555H93.0781C92.6289 20.9453 91.832 21.3672 90.832 21.3672C89.3008 21.3672 88.4453 20.2617 88.4453 19.1055C88.4453 17.1992 90.1445 16.2188 92.9531 16.2344V16.1094C92.9531 15.6094 92.7539 14.7812 91.4102 14.7812C90.6602 14.7812 89.8789 15.0156 89.3633 15.3438L88.9883 14.0938C89.5508 13.75 90.5352 13.4258 91.7383 13.4258C94.1719 13.4258 94.875 14.9688 94.875 16.6406" fill="white"/>
<path d="M97.5898 13.5977H99.5078V21.1992H97.5898V13.5977ZM98.5391 12.5039C97.9023 12.5039 97.4805 12.0352 97.4805 11.4727C97.4805 10.8789 97.9141 10.4258 98.5586 10.4258C99.2109 10.4258 99.6172 10.8789 99.6328 11.4727C99.6328 12.0352 99.2109 12.5039 98.5586 12.5039" fill="white"/>
<path d="M102.27 21.1992H104.191V10.0977H102.27V21.1992Z" fill="white"/>
<path d="M110.996 17.4805C109.637 17.4648 108.34 17.7461 108.34 18.9023C108.34 19.6523 108.824 19.9961 109.434 19.9961C110.215 19.9961 110.762 19.4961 110.949 18.9492C110.996 18.8086 110.996 18.668 110.996 18.5273V17.4805ZM112.867 19.3711C112.867 20.0586 112.898 20.7305 112.992 21.1953H111.262L111.121 20.3555H111.074C110.621 20.9453 109.824 21.3672 108.824 21.3672C107.297 21.3672 106.438 20.2617 106.438 19.1055C106.438 17.1992 108.141 16.2188 110.949 16.2344V16.1094C110.949 15.6094 110.746 14.7812 109.402 14.7812C108.652 14.7812 107.871 15.0156 107.359 15.3438L106.984 14.0938C107.547 13.75 108.527 13.4258 109.73 13.4258C112.164 13.4258 112.867 14.9688 112.867 16.6406" fill="white"/>
<path d="M117.504 18.0586C117.504 18.2148 117.52 18.3711 117.551 18.5117C117.754 19.293 118.426 19.8555 119.25 19.8555C120.453 19.8555 121.188 18.9023 121.188 17.3594C121.188 16.0156 120.547 14.9219 119.266 14.9219C118.484 14.9219 117.77 15.4844 117.566 16.3281C117.535 16.4688 117.504 16.6406 117.504 16.8281V18.0586ZM115.582 10.0977H117.504V14.6406H117.535C118.004 13.9062 118.828 13.4258 119.969 13.4258C121.828 13.4258 123.152 14.9688 123.137 17.2812C123.137 20.0117 121.406 21.3711 119.688 21.3711C118.703 21.3711 117.832 20.9961 117.285 20.0586H117.254L117.16 21.1992H115.52C115.551 20.6836 115.582 19.8398 115.582 19.0742" fill="white"/>
<path d="M125.398 21.1992H127.316V10.0977H125.398V21.1992Z" fill="white"/>
<path d="M134.793 16.5938C134.809 15.8906 134.496 14.7344 133.219 14.7344C132.031 14.7344 131.531 15.8125 131.453 16.5938H134.793ZM131.453 17.9336C131.5 19.3086 132.578 19.9023 133.797 19.9023C134.684 19.9023 135.309 19.7617 135.902 19.5586L136.184 20.8672C135.527 21.1523 134.621 21.3516 133.531 21.3516C131.062 21.3516 129.609 19.8398 129.609 17.5156C129.609 15.4062 130.891 13.4258 133.328 13.4258C135.793 13.4258 136.605 15.4531 136.605 17.125C136.605 17.4844 136.574 17.7656 136.543 17.9336" fill="white"/>
<path d="M146.141 19.9805C147.23 19.9805 147.996 18.918 147.996 17.375C147.996 16.1875 147.465 14.8125 146.156 14.8125C144.797 14.8125 144.25 16.1406 144.25 17.4062C144.25 18.8711 144.984 19.9805 146.121 19.9805H146.141ZM146.078 21.3711C143.938 21.3711 142.27 19.9023 142.27 17.4531C142.27 14.9531 143.906 13.4258 146.203 13.4258C148.465 13.4258 149.98 15.0156 149.98 17.3281C149.98 20.1211 148.012 21.3711 146.094 21.3711" fill="white"/>
<path d="M152.238 15.8594C152.238 14.9844 152.211 14.25 152.18 13.5938H153.848L153.941 14.7344H153.988C154.332 14.1406 155.16 13.4258 156.426 13.4258C157.75 13.4258 159.125 14.2812 159.125 16.6875V21.1953H157.203V16.9062C157.203 15.8125 156.797 14.9844 155.754 14.9844C154.988 14.9844 154.457 15.5312 154.254 16.1094C154.191 16.2656 154.16 16.5 154.16 16.7188V21.1953H152.238" fill="white"/>
<path d="M167.973 11.6445V13.5938H169.797V15.0312H167.973V18.3711C167.973 19.3086 168.223 19.7773 168.953 19.7773C169.297 19.7773 169.484 19.7617 169.703 19.6992L169.734 21.1484C169.453 21.2617 168.938 21.3516 168.344 21.3516C167.629 21.3516 167.051 21.1172 166.691 20.7305C166.27 20.293 166.082 19.5898 166.082 18.5898V15.0312H165.004V13.5938H166.082V12.1758" fill="white"/>
<path d="M171.934 10.0977H173.855V14.625H173.887C174.121 14.2656 174.449 13.9688 174.84 13.7656C175.23 13.5508 175.68 13.4258 176.164 13.4258C177.461 13.4258 178.816 14.2812 178.816 16.7188V21.1992H176.898V16.9219C176.898 15.8281 176.492 14.9844 175.43 14.9844C174.684 14.9844 174.152 15.4844 173.934 16.0625C173.871 16.2344 173.855 16.4375 173.855 16.6406V21.1992H171.934" fill="white"/>
<path d="M186.246 16.5938C186.262 15.8906 185.949 14.7344 184.668 14.7344C183.48 14.7344 182.984 15.8125 182.906 16.5938H186.246ZM182.906 17.9336C182.953 19.3086 184.027 19.9023 185.246 19.9023C186.137 19.9023 186.762 19.7617 187.352 19.5586L187.637 20.8672C186.98 21.1523 186.074 21.3516 184.98 21.3516C182.516 21.3516 181.062 19.8398 181.062 17.5156C181.062 15.4062 182.344 13.4258 184.777 13.4258C187.242 13.4258 188.055 15.4531 188.055 17.125C188.055 17.4844 188.023 17.7656 187.992 17.9336" fill="white"/>
<path d="M48.5663 31.4008C48.5155 26.1938 52.828 23.6586 53.0272 23.5414C50.5858 19.9789 46.8007 19.4945 45.4686 19.4555C42.2928 19.1234 39.2108 21.3617 37.5936 21.3617C35.9413 21.3617 33.4452 19.4906 30.7616 19.5453C27.3007 19.6 24.0663 21.6039 22.2928 24.7094C18.6366 31.0492 21.3632 40.3617 24.871 45.4867C26.6288 47.9945 28.6757 50.7992 31.3592 50.6977C33.9842 50.5883 34.9647 49.0258 38.1327 49.0258C41.2733 49.0258 42.1952 50.6977 44.9335 50.6352C47.7499 50.5883 49.5233 48.1156 51.2147 45.5805C53.246 42.7055 54.0585 39.8734 54.0897 39.7289C54.0233 39.7055 48.621 37.643 48.5663 31.4008Z" fill="white"/>
<path d="M43.3946 16.0898C44.8047 14.3242 45.7774 11.918 45.504 9.48047C43.461 9.57422 40.9063 10.8945 39.4336 12.6211C38.1329 14.1445 36.9649 16.6406 37.2696 18.9844C39.5665 19.1562 41.9219 17.8281 43.3946 16.0898Z" fill="white"/>
<path d="M80.2461 41.3438L78.4336 35.7461C78.2422 35.1758 77.8828 33.8281 77.3516 31.7109H77.2891C77.0781 32.6211 76.7344 33.9688 76.2695 35.7461L74.4883 41.3438H80.2461ZM86.5117 50.2852H82.8516L80.8477 43.9883H73.8867L71.9766 50.2852H68.4141L75.3203 28.8477H79.5781" fill="white"/>
<path d="M100.762 42.4922C100.762 40.9844 100.422 39.7461 99.7422 38.7695C99 37.7539 98.0039 37.2422 96.7539 37.2422C95.9062 37.2422 95.1328 37.5273 94.4492 38.0859C93.7617 38.6523 93.3086 39.3867 93.0938 40.3008C92.9883 40.7227 92.9375 41.0703 92.9375 41.3438V43.9219C92.9375 45.0469 93.2812 45.9961 93.9688 46.7695C94.6602 47.5469 95.5547 47.9297 96.6562 47.9297C97.9531 47.9297 98.9609 47.4336 99.6758 46.4336C100.402 45.4375 100.762 44.125 100.762 42.4922ZM104.262 42.3633C104.262 44.9922 103.551 47.0742 102.129 48.5977C100.855 49.957 99.2734 50.6328 97.3906 50.6328C95.3516 50.6328 93.8906 49.8984 93 48.4375H92.9375V56.582H89.5V39.9141C89.5 38.2617 89.4609 36.5664 89.375 34.8242H92.3945L92.5859 37.2773H92.6523C93.7969 35.4297 95.5352 34.5078 97.8672 34.5078C99.6875 34.5078 101.215 35.2305 102.43 36.6719C103.648 38.1172 104.262 40.0117 104.262 42.3633Z" fill="white"/>
<path d="M118.539 42.4922C118.539 40.9844 118.199 39.7461 117.52 38.7695C116.777 37.7539 115.781 37.2422 114.531 37.2422C113.684 37.2422 112.914 37.5273 112.227 38.0859C111.535 38.6523 111.09 39.3867 110.879 40.3008C110.77 40.7227 110.719 41.0703 110.719 41.3438V43.9219C110.719 45.0469 111.059 45.9961 111.746 46.7695C112.438 47.5469 113.332 47.9297 114.438 47.9297C115.73 47.9297 116.738 47.4336 117.457 46.4336C118.176 45.4375 118.539 44.125 118.539 42.4922ZM122.035 42.3633C122.035 44.9922 121.328 47.0742 119.906 48.5977C118.633 49.957 117.055 50.6328 115.168 50.6328C113.133 50.6328 111.672 49.8984 110.777 48.4375H110.719V56.582H107.281V39.9141C107.281 38.2617 107.238 36.5664 107.156 34.8242H110.176L110.367 37.2773H110.434C111.574 35.4297 113.312 34.5078 115.645 34.5078C117.469 34.5078 118.988 35.2305 120.211 36.6719C121.43 38.1172 122.035 40.0117 122.035 42.3633Z" fill="white"/>
<path d="M141.918 44.2734C141.918 46.0938 141.285 47.5781 140.012 48.7266C138.613 49.9766 136.672 50.6016 134.176 50.6016C131.867 50.6016 130.016 50.1562 128.613 49.2656L129.41 46.4062C130.922 47.3164 132.574 47.7695 134.379 47.7695C135.672 47.7695 136.68 47.4805 137.402 46.8984C138.121 46.3125 138.48 45.5312 138.48 44.5547C138.48 43.6875 138.188 42.9492 137.594 42.3555C137 41.7617 136.012 41.2109 134.633 40.6992C130.879 39.2969 129.004 37.2461 129.004 34.5508C129.004 32.7891 129.66 31.3438 130.977 30.2188C132.289 29.0938 134.039 28.5273 136.223 28.5273C138.176 28.5273 139.797 28.8711 141.09 29.5469L140.23 32.3477C139.023 31.6914 137.656 31.3594 136.129 31.3594C134.918 31.3594 133.977 31.6562 133.301 32.25C132.73 32.7812 132.441 33.4297 132.441 34.1914C132.441 35.0391 132.766 35.7383 133.426 36.2891C133.996 36.7969 135.035 37.3477 136.543 37.9453C138.387 38.6875 139.742 39.5547 140.613 40.5508C141.48 41.5469 141.918 42.7891 141.918 44.2734Z" fill="white"/>
<path d="M153.27 37.4023H149.484V44.9062C149.484 46.8164 150.152 47.7695 151.492 47.7695C152.102 47.7695 152.613 47.7188 153.016 47.6133L153.109 50.2188C152.438 50.4766 151.543 50.6016 150.441 50.6016C149.086 50.6016 148.023 50.1875 147.258 49.3633C146.496 48.5352 146.113 47.1445 146.113 45.1953V37.4023H143.855V34.8242H146.113V31.9961L149.484 30.9766V34.8242H153.27" fill="white"/>
<path d="M166.789 42.5391C166.789 41.1133 166.48 39.8945 165.863 38.8711C165.148 37.6367 164.117 37.0195 162.781 37.0195C161.402 37.0195 160.352 37.6367 159.633 38.8711C159.016 39.8945 158.715 41.1367 158.715 42.6055C158.715 44.0312 159.016 45.25 159.633 46.2695C160.375 47.5039 161.414 48.1211 162.754 48.1211C164.062 48.1211 165.094 47.4961 165.836 46.2383C166.473 45.1992 166.789 43.9648 166.789 42.5391ZM170.352 42.4297C170.352 44.8047 169.676 46.7539 168.316 48.2812C166.895 49.8516 165.008 50.6328 162.656 50.6328C160.383 50.6328 158.578 49.8789 157.23 48.375C155.887 46.8711 155.215 44.9727 155.215 42.6836C155.215 40.2852 155.906 38.3242 157.297 36.8008C158.684 35.2695 160.555 34.5078 162.906 34.5078C165.176 34.5078 167.004 35.2617 168.379 36.7656C169.695 38.2344 170.352 40.1172 170.352 42.4297Z" fill="white"/>
<path d="M181.516 37.8477C181.176 37.7852 180.816 37.7539 180.434 37.7539C179.227 37.7539 178.289 38.2109 177.633 39.1211C177.062 39.9297 176.777 40.9453 176.777 42.1719V50.2852H173.344L173.371 39.6953C173.371 37.9102 173.328 36.2891 173.246 34.8242H176.238L176.363 37.7852H176.453C176.816 36.7695 177.391 35.9492 178.172 35.3359C178.938 34.7852 179.766 34.5078 180.656 34.5078C180.973 34.5078 181.262 34.5313 181.516 34.5703" fill="white"/>
<path d="M193.598 40.9336C193.621 39.918 193.398 39.0352 192.934 38.293C192.34 37.3398 191.422 36.8594 190.195 36.8594C189.074 36.8594 188.16 37.3281 187.461 38.2617C186.891 39.0039 186.547 39.8945 186.449 40.9336H193.598ZM196.871 41.8242C196.871 42.4414 196.832 42.957 196.75 43.3828H186.449C186.484 44.9102 186.984 46.0781 187.941 46.8828C188.809 47.6055 189.934 47.9609 191.312 47.9609C192.836 47.9609 194.227 47.7188 195.48 47.2305L196.02 49.6172C194.555 50.25 192.828 50.5742 190.832 50.5742C188.438 50.5742 186.555 49.8672 185.188 48.4531C183.824 47.0469 183.137 45.1523 183.137 42.7773C183.137 40.4453 183.77 38.5039 185.047 36.957C186.379 35.3008 188.184 34.4766 190.449 34.4766C192.676 34.4766 194.367 35.3008 195.512 36.957C196.422 38.2695 196.871 39.8945 196.871 41.8242Z" fill="white"/>
<defs>
<filter id="filter0_b" x="-39.1914" y="-39.1914" width="296" height="142.438" filterUnits="userSpaceOnUse" color-interpolation-filters="sRGB">
<feFlood flood-opacity="0" result="BackgroundImageFix"/>
<feGaussianBlur in="BackgroundImage" stdDeviation="20"/>
<feComposite in2="SourceAlpha" operator="in" result="effect1_backgroundBlur"/>
<feBlend mode="normal" in="SourceGraphic" in2="effect1_backgroundBlur" result="shape"/>
</filter>
</defs>
</svg>
