<svg xmlns="http://www.w3.org/2000/svg" xmlns:xlink="http://www.w3.org/1999/xlink" viewBox="0 0 256 256"><defs><clipPath id="a"><rect width="256" height="256" fill="none"/></clipPath></defs><title>app_store_icon</title><g clip-path="url(#a)"><path d="M186.12,108.17c-.09-16.68,7.46-29.27,22.74-38.56-8.55-12.22-21.47-19-38.52-20.27-16.14-1.28-33.78,9.41-40.24,9.41-6.82,0-22.47-9-34.75-9C70,50.19,43,70,43,110.36a113.37,113.37,0,0,0,6.55,36.92C55.39,164,76.4,204.89,98.32,204.21c11.45-.27,19.55-8.14,34.46-8.14,14.46,0,22,8.14,34.75,8.14,22.1-.32,41.11-37.52,46.66-54.25-29.65-14-28.06-40.93-28.06-41.79ZM160.38,33.51A42.8,42.8,0,0,0,171.3.54a48.24,48.24,0,0,0-30.89,15.87A43.49,43.49,0,0,0,128.77,49.1c11.88.91,22.7-5.18,31.62-15.59Z" fill="#021136"/></g></svg>