<svg xmlns="http://www.w3.org/2000/svg" xmlns:xlink="http://www.w3.org/1999/xlink" width="593.394" height="401.397" viewBox="0 0 593.394 401.397">
  <defs>
    <linearGradient id="linear-gradient" x1="26.335" y1="0.893" x2="26.601" y2="0.107" gradientUnits="objectBoundingBox">
      <stop offset="0" stop-color="#005bff"/>
      <stop offset="1" stop-color="#0093ff"/>
    </linearGradient>
    <clipPath id="clip-path">
      <path id="Path_15821" data-name="Path 15821" d="M-1327.779,642.566l.455,10.577c-.142-3.283-2.405-6.5-6.9-9.1-10.688-6.171-29.915-6.5-42.95-.748-7.546,3.331-11.365,7.972-11.172,12.488l-.453-10.578c-.193-4.515,3.627-9.155,11.171-12.486,13.036-5.755,32.261-5.425,42.95.746C-1330.183,636.065-1327.92,639.282-1327.779,642.566Z" transform="translate(1388.81 -628.614)" fill="#d7640b"/>
    </clipPath>
    <clipPath id="clip-path-2">
      <path id="Path_15845" data-name="Path 15845" d="M-1316.968,639.716l.453,10.577c.252,5.869-4.71,11.9-14.518,16.232-16.944,7.481-41.944,7.046-55.828-.97-5.852-3.379-8.8-7.565-8.982-11.837l-.453-10.578c.183,4.273,3.13,8.459,8.982,11.838,13.884,8.016,38.883,8.451,55.828.97C-1321.679,651.618-1316.716,645.584-1316.968,639.716Z" transform="translate(1396.296 -639.716)" fill="#d7640b"/>
    </clipPath>
    <linearGradient id="linear-gradient-2" x1="48.461" y1="0.5" x2="49.461" y2="0.5" xlink:href="#linear-gradient"/>
    <linearGradient id="linear-gradient-3" x1="38.58" y1="0.5" x2="39.58" y2="0.5" xlink:href="#linear-gradient"/>
    <linearGradient id="linear-gradient-4" x1="87.6" y1="0.81" x2="87.197" y2="0.19" xlink:href="#linear-gradient"/>
    <linearGradient id="linear-gradient-5" x1="96.091" y1="0.81" x2="95.688" y2="0.19" xlink:href="#linear-gradient"/>
    <linearGradient id="linear-gradient-6" x1="78.169" y1="0.81" x2="77.766" y2="0.19" xlink:href="#linear-gradient"/>
    <linearGradient id="linear-gradient-7" x1="54.301" y1="0.81" x2="53.897" y2="0.19" xlink:href="#linear-gradient"/>
    <linearGradient id="linear-gradient-8" x1="20.759" y1="47.474" x2="19.968" y2="47.474" xlink:href="#linear-gradient"/>
    <clipPath id="clip-path-3">
      <path id="Path_15914" data-name="Path 15914" d="M-1257.819,585.89a5,5,0,0,1,4.5.187c1.333.768,1.477,1.933.324,2.6a5.005,5.005,0,0,1-4.5-.187C-1258.828,587.719-1258.972,586.555-1257.819,585.89Zm7.74,6.777a5.005,5.005,0,0,0,4.5.187c1.154-.667,1.009-1.83-.324-2.6a5,5,0,0,0-4.5-.187C-1251.556,590.734-1251.412,591.9-1250.079,592.667Zm7.417,4.178a5.006,5.006,0,0,0,4.5.187c1.153-.666,1.009-1.83-.324-2.6a5.006,5.006,0,0,0-4.5-.187C-1244.14,594.912-1243.995,596.075-1242.662,596.844Z" transform="translate(1258.597 -585.44)" fill="none"/>
    </clipPath>
    <linearGradient id="linear-gradient-9" x1="9.477" y1="0.854" x2="9.892" y2="0.146" gradientUnits="objectBoundingBox">
      <stop offset="0" stop-color="#501779" stop-opacity="0.502"/>
      <stop offset="1" stop-color="#004bff"/>
    </linearGradient>
    <linearGradient id="linear-gradient-10" x1="9.834" y1="1.031" x2="9.543" y2="-0.037" gradientUnits="objectBoundingBox">
      <stop offset="0" stop-color="#123083"/>
      <stop offset="1" stop-color="#10166b"/>
    </linearGradient>
    <linearGradient id="linear-gradient-11" x1="9.83" y1="1.034" x2="9.539" y2="-0.034" gradientUnits="objectBoundingBox">
      <stop offset="0" stop-color="#2f3db2"/>
      <stop offset="1" stop-color="#1f39e5"/>
    </linearGradient>
    <linearGradient id="linear-gradient-12" x1="94.927" y1="35.926" x2="96.058" y2="35.926" gradientUnits="objectBoundingBox">
      <stop offset="0" stop-color="#101c82"/>
      <stop offset="1" stop-color="#10148e"/>
    </linearGradient>
    <linearGradient id="linear-gradient-13" x1="9.99" y1="1" x2="9.99" gradientUnits="objectBoundingBox">
      <stop offset="0" stop-color="#4198ff"/>
      <stop offset="1" stop-color="#05e3eb"/>
    </linearGradient>
    <linearGradient id="linear-gradient-14" x1="11.933" y1="0.809" x2="11.993" y2="0.093" gradientUnits="objectBoundingBox">
      <stop offset="0" stop-color="#fff" stop-opacity="0.302"/>
      <stop offset="1" stop-color="#fff" stop-opacity="0.051"/>
    </linearGradient>
    <linearGradient id="linear-gradient-15" x1="10.205" y1="0.703" x2="10.229" y2="0.212" xlink:href="#linear-gradient-14"/>
    <linearGradient id="linear-gradient-16" x1="23.798" y1="1.075" x2="24.183" y2="-0.075" gradientUnits="objectBoundingBox">
      <stop offset="0" stop-color="#fff" stop-opacity="0.502"/>
      <stop offset="1" stop-color="#fff" stop-opacity="0.2"/>
    </linearGradient>
    <linearGradient id="linear-gradient-17" x1="58.082" y1="0.5" x2="59.082" y2="0.5" xlink:href="#linear-gradient-16"/>
    <linearGradient id="linear-gradient-18" x1="24.405" y1="1.075" x2="24.79" y2="-0.075" xlink:href="#linear-gradient-16"/>
    <linearGradient id="linear-gradient-19" x1="59.611" y1="0.5" x2="60.611" y2="0.5" xlink:href="#linear-gradient-16"/>
    <linearGradient id="linear-gradient-20" x1="28.801" y1="1.075" x2="29.457" y2="-0.075" xlink:href="#linear-gradient"/>
    <linearGradient id="linear-gradient-21" x1="52.928" y1="1.004" x2="53.737" y2="-0.004" xlink:href="#linear-gradient"/>
    <linearGradient id="linear-gradient-22" x1="109.811" y1="0.848" x2="109.458" y2="0.172" xlink:href="#linear-gradient"/>
    <clipPath id="clip-path-4">
      <path id="Path_15953" data-name="Path 15953" d="M-1099.993,518.085a3.565,3.565,0,0,1-1.718-2.709c0-.948.77-1.273,1.718-.726a3.565,3.565,0,0,1,1.717,2.709C-1098.275,518.307-1099.045,518.632-1099.993,518.085Zm-3.5-3.81a3.563,3.563,0,0,0-1.716-2.709c-.949-.547-1.718-.222-1.718.726a3.561,3.561,0,0,0,1.718,2.709C-1104.258,515.548-1103.49,515.223-1103.49,514.275Zm-5.214-3.084a3.561,3.561,0,0,0-1.717-2.709c-.948-.547-1.716-.222-1.716.726a3.561,3.561,0,0,0,1.716,2.709C-1109.472,512.463-1108.7,512.138-1108.7,511.191Z" transform="translate(1112.137 -508.215)" fill="none"/>
    </clipPath>
    <linearGradient id="linear-gradient-23" x1="23.78" y1="0.746" x2="23.552" y2="0.254" xlink:href="#linear-gradient"/>
    <linearGradient id="linear-gradient-24" x1="265.162" y1="0.829" x2="264.67" y2="0.171" xlink:href="#linear-gradient"/>
    <linearGradient id="linear-gradient-25" x1="43.705" y1="0.665" x2="43.59" y2="0.335" xlink:href="#linear-gradient"/>
    <linearGradient id="linear-gradient-26" x1="27.535" y1="0.738" x2="27.285" y2="0.244" xlink:href="#linear-gradient"/>
    <linearGradient id="linear-gradient-27" x1="309.603" y1="0.829" x2="309.111" y2="0.171" xlink:href="#linear-gradient"/>
    <linearGradient id="linear-gradient-28" x1="50.735" y1="0.665" x2="50.62" y2="0.335" xlink:href="#linear-gradient"/>
    <linearGradient id="linear-gradient-29" x1="13.721" y1="23.813" x2="12.933" y2="23.813" xlink:href="#linear-gradient"/>
    <clipPath id="clip-path-5">
      <path id="Path_16044" data-name="Path 16044" d="M-1152.369,760.454c2.008-1.159,5.516-1.014,7.835.325s2.572,3.365.563,4.524-5.516,1.014-7.836-.325S-1154.378,761.614-1152.369,760.454Zm13.47,11.795c2.318,1.34,5.827,1.485,7.836.325s1.757-3.184-.563-4.523-5.828-1.484-7.836-.325S-1141.219,770.91-1138.9,772.249Zm12.908,7.272c2.318,1.339,5.827,1.484,7.835.325s1.757-3.184-.562-4.525-5.828-1.484-7.836-.325S-1128.311,778.182-1125.991,779.521Z" transform="translate(1153.725 -759.671)" fill="none"/>
    </clipPath>
    <clipPath id="clip-path-6">
      <path id="Path_16067" data-name="Path 16067" d="M-1028.648,721.042l.453,10.577c-.141-3.284-2.405-6.5-6.9-9.1-10.688-6.171-29.914-6.5-42.95-.746-7.544,3.331-11.365,7.972-11.171,12.486l-.453-10.577c-.194-4.515,3.625-9.155,11.171-12.486,13.036-5.755,32.262-5.425,42.95.746C-1031.054,714.541-1028.789,717.757-1028.648,721.042Z" transform="translate(1089.679 -707.09)" fill="#d7640b"/>
    </clipPath>
    <clipPath id="clip-path-7">
      <path id="Path_16091" data-name="Path 16091" d="M-1017.838,718.192l.454,10.577c.252,5.868-4.711,11.9-14.518,16.231-16.945,7.481-41.944,7.046-55.828-.97-5.852-3.379-8.8-7.565-8.982-11.838l-.454-10.577c.183,4.273,3.129,8.458,8.982,11.837,13.885,8.017,38.885,8.452,55.83.971C-1022.548,730.093-1017.586,724.06-1017.838,718.192Z" transform="translate(1097.166 -718.192)" fill="#d7640b"/>
    </clipPath>
  </defs>
  <g id="Group_2187" data-name="Group 2187" transform="translate(1396.304 -462.002)">
    <g id="Group_1831" data-name="Group 1831" transform="translate(-916.463 740.913)">
      <g id="Group_1830" data-name="Group 1830" transform="translate(0 0)">
        <path id="Path_15798" data-name="Path 15798" d="M-946.755,756.881a10.709,10.709,0,0,1-5.364-1.433l-49.494-28.574a3.7,3.7,0,0,1-1.869-3.238,3.7,3.7,0,0,1,1.869-3.236l49.6-28.634a10.745,10.745,0,0,1,10.725,0h0l49.494,28.575a3.7,3.7,0,0,1,1.869,3.237,3.7,3.7,0,0,1-1.869,3.236l-49.595,28.634A10.711,10.711,0,0,1-946.755,756.881Zm.1-65.326a9.5,9.5,0,0,0-4.752,1.268l-49.6,28.634a2.492,2.492,0,0,0-1.258,2.179,2.493,2.493,0,0,0,1.258,2.182l49.494,28.574a9.531,9.531,0,0,0,9.5,0l49.595-28.634a2.493,2.493,0,0,0,1.258-2.179,2.493,2.493,0,0,0-1.258-2.18L-941.9,692.824A9.5,9.5,0,0,0-946.653,691.556Z" transform="translate(1003.481 -690.333)" fill="url(#linear-gradient)"/>
      </g>
    </g>
    <ellipse id="Ellipse_286" data-name="Ellipse 286" cx="40.923" cy="23.444" rx="40.923" ry="23.444" transform="translate(-1027.381 774.781) rotate(-1.696)" fill="#cfbfda" opacity="0.55" style="mix-blend-mode: multiply;isolation: isolate"/>
    <path id="Path_16093" data-name="Path 16093" d="M40.923,0c22.6,0,40.923,10.5,40.923,23.444S63.524,46.887,40.923,46.887,0,36.391,0,23.444,18.322,0,40.923,0Z" transform="translate(-1395.193 679.932) rotate(-1.696)" fill="#cfbfda" opacity="0.55" style="mix-blend-mode: multiply;isolation: isolate"/>
    <g id="Group_1841" data-name="Group 1841" transform="translate(-1396.304 660.94)">
      <g id="Group_1840" data-name="Group 1840" transform="translate(0 0)">
        <g id="Group_1839" data-name="Group 1839" style="isolation: isolate">
          <g id="Group_1834" data-name="Group 1834" transform="translate(9.154 4.582)">
            <path id="Path_15799" data-name="Path 15799" d="M-1327.779,642.566l.455,10.577c-.142-3.283-2.405-6.5-6.9-9.1-10.688-6.171-29.915-6.5-42.95-.748-7.546,3.331-11.365,7.972-11.172,12.488l-.453-10.578c-.193-4.515,3.627-9.155,11.171-12.486,13.036-5.755,32.261-5.425,42.95.746C-1330.183,636.065-1327.92,639.282-1327.779,642.566Z" transform="translate(1388.81 -628.614)" fill="#d7640b"/>
            <g id="Group_1833" data-name="Group 1833" clip-path="url(#clip-path)">
              <g id="Group_1832" data-name="Group 1832" transform="translate(0 0)" style="isolation: isolate">
                <path id="Path_15800" data-name="Path 15800" d="M-1336.7,642.092l.455,10.577c-.142-3.283-2.405-6.5-6.9-9.1a29.717,29.717,0,0,0-4.936-2.243l-.453-10.577a29.789,29.789,0,0,1,4.935,2.241c4.5,2.6,6.762,5.813,6.9,9.1" transform="translate(1397.731 -628.141)" fill="#d7640b"/>
                <path id="Path_15801" data-name="Path 15801" d="M-1347.975,630.926l.453,10.577c-1-.354-2.034-.672-3.1-.954l-.454-10.577c1.07.282,2.107.6,3.1.954" transform="translate(1397.168 -628.313)" fill="#d7640b"/>
                <path id="Path_15802" data-name="Path 15802" d="M-1350.594,630.084l.455,10.577q-1.308-.346-2.676-.619l-.455-10.577c.911.182,1.806.388,2.676.619" transform="translate(1396.683 -628.426)" fill="#d7640b"/>
                <path id="Path_15803" data-name="Path 15803" d="M-1352.818,629.544l.455,10.577q-1.228-.246-2.494-.432l-.454-10.578q1.266.189,2.494.434" transform="translate(1396.23 -628.504)" fill="#d7640b"/>
                <path id="Path_15804" data-name="Path 15804" d="M-1354.876,629.164l.454,10.578q-1.189-.176-2.406-.3l-.453-10.577q1.215.125,2.405.3" transform="translate(1395.794 -628.559)" fill="#d7640b"/>
                <path id="Path_15805" data-name="Path 15805" d="M-1356.85,628.9l.453,10.577c-.785-.081-1.579-.145-2.377-.194l-.454-10.577q1.2.073,2.378.194" transform="translate(1395.363 -628.594)" fill="#d7640b"/>
                <path id="Path_15806" data-name="Path 15806" d="M-1358.794,628.723l.454,10.577q-1.191-.073-2.394-.1l-.453-10.577q1.2.024,2.393.1" transform="translate(1394.929 -628.612)" fill="#d7640b"/>
                <path id="Path_15807" data-name="Path 15807" d="M-1360.743,628.627l.453,10.577q-1.218-.026-2.447,0l-.453-10.578c.817-.015,1.634-.015,2.447,0" transform="translate(1394.485 -628.614)" fill="#d7640b"/>
                <path id="Path_15808" data-name="Path 15808" d="M-1362.726,628.623l.453,10.578q-1.277.024-2.557.1l-.453-10.577c.851-.052,1.705-.087,2.557-.1" transform="translate(1394.022 -628.612)" fill="#d7640b"/>
                <path id="Path_15809" data-name="Path 15809" d="M-1364.783,628.708l.453,10.577q-1.382.084-2.758.231l-.453-10.577q1.374-.147,2.758-.231" transform="translate(1393.522 -628.594)" fill="#d7640b"/>
                <path id="Path_15810" data-name="Path 15810" d="M-1366.978,628.9l.453,10.577c-1.042.111-2.079.25-3.105.415l-.454-10.577q1.541-.249,3.106-.415" transform="translate(1392.958 -628.552)" fill="#d7640b"/>
                <path id="Path_15811" data-name="Path 15811" d="M-1369.373,629.237l.454,10.577c-1.328.214-2.638.474-3.923.778l-.453-10.578c1.285-.3,2.6-.563,3.922-.777" transform="translate(1392.247 -628.476)" fill="#d7640b"/>
                <path id="Path_15812" data-name="Path 15812" d="M-1371.172,629.873l.453,10.578a45.022,45.022,0,0,0-7.773,2.569,32,32,0,0,0-3.934,2.056l-.453-10.578a32.275,32.275,0,0,1,3.933-2.055,45.087,45.087,0,0,1,7.774-2.57" transform="translate(1390.124 -628.335)" fill="#d7640b"/>
                <path id="Path_15813" data-name="Path 15813" d="M-1382.427,633.659l.453,10.578a23.269,23.269,0,0,0-2.492,1.768l-.453-10.577a23.307,23.307,0,0,1,2.492-1.769" transform="translate(1389.672 -627.497)" fill="#d7640b"/>
                <path id="Path_15814" data-name="Path 15814" d="M-1384.638,635.107l.453,10.577a18.066,18.066,0,0,0-1.547,1.417l-.454-10.577a18.032,18.032,0,0,1,1.548-1.417" transform="translate(1389.391 -627.176)" fill="#d7640b"/>
                <path id="Path_15815" data-name="Path 15815" d="M-1385.983,636.267l.454,10.577a14.534,14.534,0,0,0-1.119,1.3l-.454-10.577a14.622,14.622,0,0,1,1.119-1.3" transform="translate(1389.188 -626.919)" fill="#d7640b"/>
                <path id="Path_15816" data-name="Path 15816" d="M-1386.952,637.33l.455,10.577a12.057,12.057,0,0,0-.83,1.237l-.453-10.577a12.005,12.005,0,0,1,.828-1.237" transform="translate(1389.038 -626.684)" fill="#d7640b"/>
                <path id="Path_15817" data-name="Path 15817" d="M-1387.671,638.343l.453,10.577a10.3,10.3,0,0,0-.6,1.209l-.454-10.577a10.319,10.319,0,0,1,.6-1.209" transform="translate(1388.929 -626.459)" fill="#d7640b"/>
                <path id="Path_15818" data-name="Path 15818" d="M-1388.2,639.333l.454,10.577a8.887,8.887,0,0,0-.4,1.206l-.453-10.577a8.843,8.843,0,0,1,.4-1.206" transform="translate(1388.856 -626.24)" fill="#d7640b"/>
                <path id="Path_15819" data-name="Path 15819" d="M-1388.564,640.32l.453,10.577a8.3,8.3,0,0,0-.216,1.224l-.453-10.577a7.932,7.932,0,0,1,.216-1.224" transform="translate(1388.817 -626.021)" fill="#d7640b"/>
                <path id="Path_15820" data-name="Path 15820" d="M-1388.773,641.322l.453,10.577a7.891,7.891,0,0,0-.029,1.073l-.453-10.578a7.5,7.5,0,0,1,.029-1.071" transform="translate(1388.81 -625.799)" fill="#d7640b"/>
              </g>
            </g>
          </g>
          <g id="Group_1835" data-name="Group 1835">
            <path id="Path_15822" data-name="Path 15822" d="M-1325.943,631.175c13.885,8.016,11.4,20.583-5.541,28.063s-41.945,7.046-55.828-.97-11.41-20.588,5.533-28.068S-1339.834,623.154-1325.943,631.175Zm-54.29,23.967c10.681,6.167,29.906,6.5,42.942.743s14.952-15.418,4.269-21.585-29.914-6.5-42.95-.746-14.95,15.419-4.262,21.589" transform="translate(1396.304 -624.863)" fill="#ffa414"/>
          </g>
          <g id="Group_1838" data-name="Group 1838" transform="translate(0.009 18.144)">
            <path id="Path_15823" data-name="Path 15823" d="M-1316.968,639.716l.453,10.577c.252,5.869-4.71,11.9-14.518,16.232-16.944,7.481-41.944,7.046-55.828-.97-5.852-3.379-8.8-7.565-8.982-11.837l-.453-10.578c.183,4.273,3.13,8.459,8.982,11.838,13.884,8.016,38.883,8.451,55.828.97C-1321.679,651.618-1316.716,645.584-1316.968,639.716Z" transform="translate(1396.296 -639.716)" fill="#d7640b"/>
            <g id="Group_1837" data-name="Group 1837" clip-path="url(#clip-path-2)">
              <g id="Group_1836" data-name="Group 1836" style="isolation: isolate">
                <path id="Path_15824" data-name="Path 15824" d="M-1331.347,639.716l.453,10.577a10.055,10.055,0,0,1-.038,1.4l-.453-10.577a10.073,10.073,0,0,0,.038-1.395" transform="translate(1410.675 -639.716)" fill="#d7640b"/>
                <path id="Path_15825" data-name="Path 15825" d="M-1331.334,640.858l.453,10.577a10.485,10.485,0,0,1-.281,1.59l-.453-10.577a10.51,10.51,0,0,0,.281-1.59" transform="translate(1410.624 -639.463)" fill="#d7640b"/>
                <path id="Path_15826" data-name="Path 15826" d="M-1331.52,642.16l.453,10.577a11.6,11.6,0,0,1-.525,1.568l-.453-10.577a11.827,11.827,0,0,0,.526-1.568" transform="translate(1410.529 -639.175)" fill="#d7640b"/>
                <path id="Path_15827" data-name="Path 15827" d="M-1331.9,643.444l.453,10.577a13.1,13.1,0,0,1-.783,1.572l-.453-10.577a13.321,13.321,0,0,0,.783-1.572" transform="translate(1410.387 -638.89)" fill="#d7640b"/>
                <path id="Path_15828" data-name="Path 15828" d="M-1332.491,644.731l.453,10.577a15.711,15.711,0,0,1-1.076,1.61l-.455-10.578a15.388,15.388,0,0,0,1.078-1.609" transform="translate(1410.192 -638.605)" fill="#d7640b"/>
                <path id="Path_15829" data-name="Path 15829" d="M-1333.3,646.048l.454,10.578a18.953,18.953,0,0,1-1.455,1.687l-.453-10.577a18.927,18.927,0,0,0,1.454-1.688" transform="translate(1409.928 -638.313)" fill="#d7640b"/>
                <path id="Path_15830" data-name="Path 15830" d="M-1334.393,647.43l.453,10.577a23.736,23.736,0,0,1-2.011,1.843l-.454-10.578a23.5,23.5,0,0,0,2.012-1.842" transform="translate(1409.563 -638.007)" fill="#d7640b"/>
                <path id="Path_15831" data-name="Path 15831" d="M-1335.818,648.938l.455,10.578a30.518,30.518,0,0,1-3.238,2.3l-.453-10.577a30.285,30.285,0,0,0,3.237-2.3" transform="translate(1408.976 -637.673)" fill="#d7640b"/>
                <path id="Path_15832" data-name="Path 15832" d="M-1336.3,650.819l.453,10.577a41.448,41.448,0,0,1-5.111,2.669,58.453,58.453,0,0,1-10.1,3.338l-.454-10.577a58.444,58.444,0,0,0,10.1-3.338,41.761,41.761,0,0,0,5.111-2.669" transform="translate(1406.218 -637.256)" fill="#d7640b"/>
                <path id="Path_15833" data-name="Path 15833" d="M-1350.581,655.737l.454,10.577c-1.67.4-3.374.733-5.1,1.01l-.453-10.577c1.725-.277,3.429-.614,5.1-1.01" transform="translate(1405.293 -636.167)" fill="#d7640b"/>
                <path id="Path_15834" data-name="Path 15834" d="M-1354.948,656.564l.453,10.577q-2,.324-4.037.54l-.453-10.577q2.032-.216,4.037-.54" transform="translate(1404.561 -635.984)" fill="#d7640b"/>
                <path id="Path_15835" data-name="Path 15835" d="M-1358.334,657.006l.453,10.577q-1.786.192-3.586.3l-.453-10.578q1.8-.11,3.586-.3" transform="translate(1403.911 -635.886)" fill="#d7640b"/>
                <path id="Path_15836" data-name="Path 15836" d="M-1361.318,657.252l.453,10.578q-1.662.1-3.325.133l-.454-10.577q1.662-.033,3.326-.134" transform="translate(1403.307 -635.832)" fill="#d7640b"/>
                <path id="Path_15837" data-name="Path 15837" d="M-1364.067,657.362l.455,10.577q-1.6.031-3.182,0l-.453-10.577q1.585.033,3.181,0" transform="translate(1402.731 -635.807)" fill="#d7640b"/>
                <path id="Path_15838" data-name="Path 15838" d="M-1366.683,657.383l.453,10.577q-1.564-.031-3.112-.127l-.454-10.577q1.548.1,3.114.127" transform="translate(1402.166 -635.83)" fill="#d7640b"/>
                <path id="Path_15839" data-name="Path 15839" d="M-1369.236,657.3l.454,10.577q-1.559-.093-3.093-.252l-.453-10.578q1.534.157,3.092.253" transform="translate(1401.605 -635.876)" fill="#d7640b"/>
                <path id="Path_15840" data-name="Path 15840" d="M-1371.76,657.12l.453,10.578q-1.581-.163-3.128-.392l-.453-10.578q1.544.231,3.129.392" transform="translate(1401.038 -635.947)" fill="#d7640b"/>
                <path id="Path_15841" data-name="Path 15841" d="M-1374.3,656.83l.453,10.578q-1.647-.244-3.244-.563l-.453-10.578q1.6.321,3.244.563" transform="translate(1400.45 -636.05)" fill="#d7640b"/>
                <path id="Path_15842" data-name="Path 15842" d="M-1376.914,656.413l.453,10.578q-1.775-.356-3.479-.805l-.453-10.577q1.7.449,3.479.8" transform="translate(1399.819 -636.195)" fill="#d7640b"/>
                <path id="Path_15843" data-name="Path 15843" d="M-1379.661,655.834l.453,10.577q-2.085-.55-4.033-1.24l-.455-10.577q1.946.689,4.035,1.24" transform="translate(1399.087 -636.42)" fill="#d7640b"/>
                <path id="Path_15844" data-name="Path 15844" d="M-1380.9,657.269l.454,10.577a38.682,38.682,0,0,1-6.411-2.912c-5.852-3.379-8.8-7.565-8.982-11.837l-.453-10.578c.183,4.273,3.13,8.459,8.982,11.838a38.857,38.857,0,0,0,6.409,2.912" transform="translate(1396.296 -639.095)" fill="#d7640b"/>
              </g>
            </g>
          </g>
        </g>
      </g>
      <path id="Path_15846" data-name="Path 15846" d="M-1334.7,635.468c-10.688-6.171-29.914-6.5-42.95-.746-6.684,2.951-10.437,6.931-11.073,10.94.481,2.971,2.719,5.845,6.811,8.206,10.681,6.167,29.906,6.5,42.942.743,6.687-2.951,10.438-6.932,11.074-10.941C-1328.377,640.7-1330.614,637.828-1334.7,635.468Z" transform="translate(1397.983 -623.589)" fill="#ffb725"/>
      <path id="Path_1" data-name="Path 1" d="M-1356.428,640.517l-1.25.318-1.977.5,8.254,4.77,2.972-7.623Z" transform="translate(1404.422 -621.846)" fill="#d7640b"/>
      <g id="Group_2" data-name="Group 2" transform="translate(35.132 20.803)">
        <g id="Group_1" data-name="Group 1">
          <path id="Path_2" data-name="Path 2" d="M-1363.174,641.893l-4.369,11.209,16.507-4.2Z" transform="translate(1367.543 -641.893)" fill="#e67b28"/>
        </g>
      </g>
      <g id="Group_3" data-name="Group 3" transform="translate(22.992 13.79)">
        <path id="Path_3" data-name="Path 3" d="M-1360.973,643.164l-12.139-7.012-4.368,11.209Z" transform="translate(1377.481 -636.152)" fill="#ffc62c"/>
      </g>
      <path id="Path_4" data-name="Path 4" d="M-1362.1,640.76a4.134,4.134,0,0,1,2.977.293l2.609,1.507,11.245-2.858-10.879-6.283a4.134,4.134,0,0,0-2.977-.293l-14.793,3.761,8.27,4.776Z" transform="translate(1401.263 -623.065)" fill="#ffa414"/>
    </g>
    <g id="Group_1879" data-name="Group 1879" transform="translate(-1349.061 462.002)">
      <g id="Group_1842" data-name="Group 1842" transform="translate(142.468 2.43)">
        <path id="Path_15847" data-name="Path 15847" d="M-997.168,662.835l27.894,16.1a1.762,1.762,0,0,1,0,3.053l-27.951,16.137a5.7,5.7,0,0,1-5.7,0l-27.893-16.1a1.761,1.761,0,0,1,0-3.051l27.951-16.139A5.7,5.7,0,0,1-997.168,662.835Z" transform="translate(1287.36 -420.112)" opacity="0.19" fill="url(#linear-gradient-2)"/>
        <path id="Path_15848" data-name="Path 15848" d="M-1186.448,478.98l75.023,43.315a13.709,13.709,0,0,1,6.855,11.872v27.327a4.82,4.82,0,0,1-7.23,4.174l-75.023-43.315a13.709,13.709,0,0,1-6.855-11.872V483.154A4.82,4.82,0,0,1-1186.448,478.98Z" transform="translate(1251.479 -460.816)" opacity="0.19" fill="url(#linear-gradient-3)"/>
        <path id="Path_15849" data-name="Path 15849" d="M-1103.568,548.847l25.845,14.922a11.629,11.629,0,0,1,5.814,10.07v23.178a4.088,4.088,0,0,1-6.132,3.54l-25.845-14.922a11.628,11.628,0,0,1-5.814-10.07V552.387A4.088,4.088,0,0,1-1103.568,548.847Z" transform="translate(1270.082 -445.316)" opacity="0.19" fill="url(#linear-gradient-4)"/>
        <path id="Path_15850" data-name="Path 15850" d="M-1234.865,464.546l25.845,14.921a11.628,11.628,0,0,1,5.813,10.07v23.178a4.088,4.088,0,0,1-6.132,3.54l-25.845-14.921a11.629,11.629,0,0,1-5.813-10.07V468.085A4.088,4.088,0,0,1-1234.865,464.546Z" transform="translate(1240.997 -463.991)" opacity="0.19" fill="url(#linear-gradient-5)"/>
        <path id="Path_15851" data-name="Path 15851" d="M-957.644,637.037-931.8,651.96a11.626,11.626,0,0,1,5.814,10.07v23.178a4.088,4.088,0,0,1-6.132,3.54l-25.845-14.921a11.629,11.629,0,0,1-5.813-10.07V640.579A4.088,4.088,0,0,1-957.644,637.037Z" transform="translate(1302.407 -425.781)" opacity="0.19" fill="url(#linear-gradient-6)"/>
        <path id="Path_15852" data-name="Path 15852" d="M-1028.829,571.915l39.42,22.758a17.735,17.735,0,0,1,8.868,15.359v35.353a6.235,6.235,0,0,1-9.353,5.4l-39.42-22.759a17.735,17.735,0,0,1-8.867-15.359V577.314A6.234,6.234,0,0,1-1028.829,571.915Z" transform="translate(1285.925 -440.271)" opacity="0.19" fill="url(#linear-gradient-7)"/>
      </g>
      <g id="Group_1847" data-name="Group 1847" transform="translate(106.037 140.728)">
        <g id="Group_1843" data-name="Group 1843">
          <path id="Path_15853" data-name="Path 15853" d="M-1236.863,609.234a26.7,26.7,0,0,1-13.355-3.567l-8.607-4.968-10.349-.908a.612.612,0,0,1-.544-.476.61.61,0,0,1,.291-.661l3.53-2.039-.81-.468a8.145,8.145,0,0,1-4.115-7.129,8.147,8.147,0,0,1,4.115-7.129l1.931-1.114a26.781,26.781,0,0,1,26.708,0l16.488,9.519a8.146,8.146,0,0,1,4.115,7.128,8.145,8.145,0,0,1-4.115,7.129l-1.931,1.115A26.7,26.7,0,0,1-1236.863,609.234Zm-30.275-10.49,8.556.75a.594.594,0,0,1,.252.081l8.724,5.036a25.56,25.56,0,0,0,25.487,0l1.931-1.115a6.94,6.94,0,0,0,3.5-6.072,6.941,6.941,0,0,0-3.5-6.071l-16.488-9.519a25.566,25.566,0,0,0-25.487,0l-1.931,1.115a6.938,6.938,0,0,0-3.5,6.071,6.94,6.94,0,0,0,3.5,6.072l1.726,1a.609.609,0,0,1,.305.529.609.609,0,0,1-.305.529Z" transform="translate(1270.821 -577.209)" fill="url(#linear-gradient-8)"/>
        </g>
        <g id="Group_1846" data-name="Group 1846" transform="translate(14.931 10.054)">
          <g id="Group_1845" data-name="Group 1845">
            <g id="Group_1844" data-name="Group 1844" clip-path="url(#clip-path-3)">
              <path id="Path_15854" data-name="Path 15854" d="M-1246.629,592.1l-.133.077V592.1Z" transform="translate(1261.219 -583.964)" fill="#0082ff"/>
              <path id="Path_15855" data-name="Path 15855" d="M-1245.933,592.1l-.828.478v-.4l.133-.077Z" transform="translate(1261.219 -583.964)" fill="#0083ff"/>
              <path id="Path_15856" data-name="Path 15856" d="M-1245.237,592.1l-1.524.88v-.4l.828-.478Z" transform="translate(1261.219 -583.964)" fill="#0084ff"/>
              <path id="Path_15857" data-name="Path 15857" d="M-1244.542,592.1l-2.22,1.282v-.4l1.524-.88Z" transform="translate(1261.219 -583.964)" fill="#0085ff"/>
              <path id="Path_15858" data-name="Path 15858" d="M-1243.846,592.1l-2.915,1.683v-.4l2.22-1.282Z" transform="translate(1261.219 -583.964)" fill="#0086ff"/>
              <path id="Path_15859" data-name="Path 15859" d="M-1243.15,592.1l-3.611,2.085v-.4l2.915-1.683Z" transform="translate(1261.219 -583.964)" fill="#0087ff"/>
              <path id="Path_15860" data-name="Path 15860" d="M-1242.455,592.1l-4.307,2.487v-.4l3.611-2.085Z" transform="translate(1261.219 -583.964)" fill="#08f"/>
              <path id="Path_15861" data-name="Path 15861" d="M-1241.759,592.1l-5,2.888v-.4l4.307-2.487Z" transform="translate(1261.219 -583.964)" fill="#0089ff"/>
              <path id="Path_15862" data-name="Path 15862" d="M-1241.063,592.1l-5.7,3.29v-.4l5-2.888Z" transform="translate(1261.219 -583.964)" fill="#008aff"/>
              <path id="Path_15863" data-name="Path 15863" d="M-1240.368,592.1l-6.394,3.692v-.4l5.7-3.29Z" transform="translate(1261.219 -583.964)" fill="#008bff"/>
              <path id="Path_15864" data-name="Path 15864" d="M-1239.672,592.1l-7.089,4.093v-.4l6.394-3.692Z" transform="translate(1261.219 -583.964)" fill="#008cff"/>
              <path id="Path_15865" data-name="Path 15865" d="M-1239.628,592.479l-6.481,3.742h-.652V596.2l7.089-4.093h.044Z" transform="translate(1261.219 -583.964)" fill="#008dff"/>
              <path id="Path_15866" data-name="Path 15866" d="M-1239.746,592.813l-5.786,3.341h-.7l6.482-3.742Z" transform="translate(1261.338 -583.895)" fill="#008eff"/>
              <path id="Path_15867" data-name="Path 15867" d="M-1239.873,593.141l-5.09,2.939h-.7l5.786-3.341Z" transform="translate(1261.464 -583.823)" fill="#008fff"/>
              <path id="Path_15868" data-name="Path 15868" d="M-1240,593.47l-4.395,2.537h-.7l5.09-2.939Z" transform="translate(1261.59 -583.75)" fill="#0090ff"/>
              <path id="Path_15869" data-name="Path 15869" d="M-1240.125,593.8l-3.7,2.136h-.7l4.395-2.537Z" transform="translate(1261.716 -583.677)" fill="#0091ff"/>
              <path id="Path_15870" data-name="Path 15870" d="M-1240.251,594.128l-3,1.734h-.7l3.7-2.136Z" transform="translate(1261.842 -583.604)" fill="#0092ff"/>
              <path id="Path_15871" data-name="Path 15871" d="M-1240.377,594.457l-2.308,1.332h-.7l3-1.734Z" transform="translate(1261.968 -583.531)" fill="#0093ff"/>
              <path id="Path_15872" data-name="Path 15872" d="M-1242.811,595.716l2.308-1.332v1.332Z" transform="translate(1262.094 -583.458)" fill="#0093ff"/>
              <path id="Path_15873" data-name="Path 15873" d="M-1252.656,588.683l-.177.1v-.1Z" transform="translate(1259.874 -584.721)" fill="#006cff"/>
              <path id="Path_15874" data-name="Path 15874" d="M-1251.96,588.683l-.873.5v-.4l.177-.1Z" transform="translate(1259.874 -584.721)" fill="#006dff"/>
              <path id="Path_15875" data-name="Path 15875" d="M-1251.265,588.683l-1.568.906v-.4l.873-.5Z" transform="translate(1259.874 -584.721)" fill="#006eff"/>
              <path id="Path_15876" data-name="Path 15876" d="M-1250.569,588.683l-2.264,1.307v-.4l1.568-.906Z" transform="translate(1259.874 -584.721)" fill="#006fff"/>
              <path id="Path_15877" data-name="Path 15877" d="M-1249.874,588.683l-2.959,1.709v-.4l2.264-1.307Z" transform="translate(1259.874 -584.721)" fill="#0070ff"/>
              <path id="Path_15878" data-name="Path 15878" d="M-1249.178,588.683l-3.655,2.111v-.4l2.959-1.709Z" transform="translate(1259.874 -584.721)" fill="#0071ff"/>
              <path id="Path_15879" data-name="Path 15879" d="M-1248.482,588.683l-4.351,2.512v-.4l3.655-2.111Z" transform="translate(1259.874 -584.721)" fill="#0072ff"/>
              <path id="Path_15880" data-name="Path 15880" d="M-1247.786,588.683l-5.047,2.914v-.4l4.351-2.512Z" transform="translate(1259.874 -584.721)" fill="#0073ff"/>
              <path id="Path_15881" data-name="Path 15881" d="M-1247.091,588.683l-5.742,3.315v-.4l5.047-2.914Z" transform="translate(1259.874 -584.721)" fill="#0074ff"/>
              <path id="Path_15882" data-name="Path 15882" d="M-1246.4,588.683l-6.438,3.717V592l5.742-3.315Z" transform="translate(1259.874 -584.721)" fill="#0075ff"/>
              <path id="Path_15883" data-name="Path 15883" d="M-1245.7,588.683l-7.133,4.119h0v-.4l6.438-3.717Z" transform="translate(1259.874 -584.721)" fill="#0076ff"/>
              <path id="Path_15884" data-name="Path 15884" d="M-1245.7,589.084l-6.438,3.717h-.7l7.133-4.119h0Z" transform="translate(1259.874 -584.721)" fill="#0078ff"/>
              <path id="Path_15885" data-name="Path 15885" d="M-1245.826,589.413l-5.742,3.315h-.7l6.438-3.717Z" transform="translate(1260 -584.648)" fill="#0079ff"/>
              <path id="Path_15886" data-name="Path 15886" d="M-1245.952,589.742l-5.047,2.914h-.7l5.742-3.315Z" transform="translate(1260.127 -584.575)" fill="#007aff"/>
              <path id="Path_15887" data-name="Path 15887" d="M-1246.078,590.071l-4.351,2.512h-.7l5.046-2.914Z" transform="translate(1260.253 -584.503)" fill="#007bff"/>
              <path id="Path_15888" data-name="Path 15888" d="M-1246.2,590.4l-3.655,2.11h-.7L-1246.2,590Z" transform="translate(1260.379 -584.43)" fill="#007cff"/>
              <path id="Path_15889" data-name="Path 15889" d="M-1246.33,590.728l-2.959,1.709h-.7l3.655-2.11Z" transform="translate(1260.505 -584.357)" fill="#007dff"/>
              <path id="Path_15890" data-name="Path 15890" d="M-1246.456,591.057l-2.264,1.307h-.7l2.959-1.709Z" transform="translate(1260.631 -584.284)" fill="#007eff"/>
              <path id="Path_15891" data-name="Path 15891" d="M-1246.583,591.386l-1.568.905h-.7l2.264-1.307Z" transform="translate(1260.757 -584.211)" fill="#007fff"/>
              <path id="Path_15892" data-name="Path 15892" d="M-1246.709,591.715l-.873.5h-.7l1.568-.905Z" transform="translate(1260.883 -584.138)" fill="#0080ff"/>
              <path id="Path_15893" data-name="Path 15893" d="M-1246.835,592.044l-.177.1h-.7l.873-.5Z" transform="translate(1261.01 -584.066)" fill="#0081ff"/>
              <path id="Path_15894" data-name="Path 15894" d="M-1247.138,592.073l.177-.1v.1Z" transform="translate(1261.136 -583.993)" fill="#0082ff"/>
              <path id="Path_15895" data-name="Path 15895" d="M-1256.6,585.262l-2.308,1.333v-1.333Z" transform="translate(1258.529 -585.479)" fill="#005bff"/>
              <path id="Path_15896" data-name="Path 15896" d="M-1255.9,585.262l-3,1.734v-.4l2.308-1.333Z" transform="translate(1258.529 -585.479)" fill="#005bff"/>
              <path id="Path_15897" data-name="Path 15897" d="M-1255.205,585.262l-3.7,2.136V587l3-1.734Z" transform="translate(1258.529 -585.479)" fill="#005cff"/>
              <path id="Path_15898" data-name="Path 15898" d="M-1254.51,585.262l-4.395,2.537v-.4l3.7-2.136Z" transform="translate(1258.529 -585.479)" fill="#005dff"/>
              <path id="Path_15899" data-name="Path 15899" d="M-1253.814,585.262l-5.09,2.939v-.4l4.395-2.537Z" transform="translate(1258.529 -585.479)" fill="#005eff"/>
              <path id="Path_15900" data-name="Path 15900" d="M-1253.118,585.262l-5.786,3.341v-.4l5.09-2.939Z" transform="translate(1258.529 -585.479)" fill="#005fff"/>
              <path id="Path_15901" data-name="Path 15901" d="M-1252.423,585.262-1258.9,589v-.4l5.786-3.341Z" transform="translate(1258.529 -585.479)" fill="#0060ff"/>
              <path id="Path_15902" data-name="Path 15902" d="M-1251.771,585.288l-7.089,4.093h-.044V589l6.482-3.742h.652Z" transform="translate(1258.529 -585.479)" fill="#0061ff"/>
              <path id="Path_15903" data-name="Path 15903" d="M-1251.779,585.685l-6.394,3.691h-.7l7.089-4.093Z" transform="translate(1258.537 -585.474)" fill="#0062ff"/>
              <path id="Path_15904" data-name="Path 15904" d="M-1251.905,586.014l-5.7,3.29h-.7l6.394-3.691Z" transform="translate(1258.664 -585.401)" fill="#0063ff"/>
              <path id="Path_15905" data-name="Path 15905" d="M-1252.031,586.342l-5,2.888h-.7l5.7-3.29Z" transform="translate(1258.79 -585.329)" fill="#0064ff"/>
              <path id="Path_15906" data-name="Path 15906" d="M-1252.157,586.671l-4.307,2.487h-.7l5-2.888Z" transform="translate(1258.916 -585.256)" fill="#0065ff"/>
              <path id="Path_15907" data-name="Path 15907" d="M-1252.284,587l-3.611,2.085h-.7l4.307-2.487Z" transform="translate(1259.042 -585.183)" fill="#06f"/>
              <path id="Path_15908" data-name="Path 15908" d="M-1252.41,587.329l-2.916,1.683h-.7l3.611-2.085Z" transform="translate(1259.168 -585.11)" fill="#0067ff"/>
              <path id="Path_15909" data-name="Path 15909" d="M-1252.536,587.658l-2.22,1.282h-.7l2.916-1.683Z" transform="translate(1259.294 -585.037)" fill="#0068ff"/>
              <path id="Path_15910" data-name="Path 15910" d="M-1252.662,587.987l-1.524.88h-.7l2.22-1.282Z" transform="translate(1259.421 -584.964)" fill="#0069ff"/>
              <path id="Path_15911" data-name="Path 15911" d="M-1252.788,588.315l-.829.478h-.7l1.524-.88Z" transform="translate(1259.547 -584.892)" fill="#006aff"/>
              <path id="Path_15912" data-name="Path 15912" d="M-1252.914,588.644l-.133.077h-.7l.829-.478Z" transform="translate(1259.673 -584.819)" fill="#006bff"/>
              <path id="Path_15913" data-name="Path 15913" d="M-1253.173,588.648l.133-.077v.077Z" transform="translate(1259.799 -584.746)" fill="#006cff"/>
            </g>
          </g>
        </g>
      </g>
      <g id="Group_1855" data-name="Group 1855" transform="translate(0 131.754)">
        <path id="Path_15915" data-name="Path 15915" d="M-1246.573,821.412-1351.895,760.6a11.46,11.46,0,0,1,0-19.851l236.068-136.295a32.78,32.78,0,0,1,32.781,0l105.332,60.813a11.46,11.46,0,0,1,0,19.85l-236.068,136.294A32.785,32.785,0,0,1-1246.573,821.412Z" transform="translate(1357.629 -563.172)" opacity="0.55" fill="url(#linear-gradient-9)" style="mix-blend-mode: multiply;isolation: isolate"/>
        <path id="Path_15916" data-name="Path 15916" d="M-1246.572,800.329l-105.322-60.807a11.354,11.354,0,0,1-5.731-9.9c-.007-3.867,0-10.941,0-10.941l241.8-135.3a32.773,32.773,0,0,1,32.781,0c26.464,15.279,111.06,60.121,111.06,60.121s0,6.758,0,10.616a11.357,11.357,0,0,1-5.731,9.926l-236.068,136.294A32.786,32.786,0,0,1-1246.572,800.329Z" transform="translate(1357.629 -567.842)" fill="url(#linear-gradient-10)"/>
        <path id="Path_15917" data-name="Path 15917" d="M-1246.573,791.209-1351.895,730.4a11.46,11.46,0,0,1,0-19.851l236.068-136.294a32.777,32.777,0,0,1,32.781,0l105.332,60.813a11.46,11.46,0,0,1,0,19.85l-236.068,136.294A32.785,32.785,0,0,1-1246.573,791.209Z" transform="translate(1357.629 -569.862)" fill="url(#linear-gradient-11)"/>
        <path id="Path_15918" data-name="Path 15918" d="M-1087.818,609.116a2.805,2.805,0,0,1-2.8-.137l-21.814-12.514c-.95-.541-1.234-1.36-.635-1.826a2.8,2.8,0,0,1,2.8.136l21.813,12.516a2.3,2.3,0,0,1,.714.6A.82.82,0,0,1-1087.818,609.116Zm-30.388-17.989a1.038,1.038,0,0,0-.327,1.645,1.723,1.723,0,0,0,2.061.194,1.037,1.037,0,0,0,.326-1.645A1.719,1.719,0,0,0-1118.206,591.127Z" transform="translate(1410.531 -565.207)" fill="url(#linear-gradient-12)"/>
        <path id="Path_15919" data-name="Path 15919" d="M-1349.914,714.806l236.069-136.295a26.625,26.625,0,0,1,13.287-3.56,26.6,26.6,0,0,1,13.277,3.556l12.971,7.49a2.413,2.413,0,0,1,0,4.18l-4.213,2.432a2.188,2.188,0,0,0,0,3.789l46.319,26.743a7.44,7.44,0,0,0,7.44,0l2.678-1.546a9.436,9.436,0,0,1,9.436,0l30.7,17.724a5.149,5.149,0,0,1,2.621,4.539,5.155,5.155,0,0,1-2.624,4.544L-1218.022,784.7a26.612,26.612,0,0,1-13.285,3.56,26.612,26.612,0,0,1-13.285-3.56l-105.322-60.807a5.153,5.153,0,0,1-2.623-4.542A5.155,5.155,0,0,1-1349.914,714.806Z" transform="translate(1358.756 -568.735)" fill="url(#linear-gradient-13)"/>
        <g id="Group_1850" data-name="Group 1850" transform="translate(197.016 49.844)">
          <g id="Group_1848" data-name="Group 1848" transform="translate(17.323)">
            <path id="Path_15920" data-name="Path 15920" d="M-1163.735,623.819a18.33,18.33,0,0,1-8.284,2.525,13.173,13.173,0,0,1-7.228-1.676q-3.205-1.847-2.884-4.151t4.553-4.675l4.7-2.636a18.425,18.425,0,0,1,8.284-2.526,13.188,13.188,0,0,1,7.258,1.677q3.173,1.828,2.847,4.147t-4.546,4.68Zm1.058-5.24q2.532-1.418,2.978-2.5t-.931-1.875a5.1,5.1,0,0,0-3.279-.559,12.83,12.83,0,0,0-4.433,1.67l-5.546,3.108q-2.576,1.444-3.023,2.516t.958,1.883a5.092,5.092,0,0,0,3.265.551,12.931,12.931,0,0,0,4.465-1.687Z" transform="translate(1182.16 -610.667)" fill="#fff"/>
            <path id="Path_15921" data-name="Path 15921" d="M-1143.16,627.267a9.5,9.5,0,0,1-3.635,1.119,13.381,13.381,0,0,1-4.147-.209,2.987,2.987,0,0,1,.522,2.63,4.091,4.091,0,0,1-2.1,2.25A11.5,11.5,0,0,1-1159,634.5a14.95,14.95,0,0,1-6.621-2.009q-3.135-1.8-3.478-3.81t2.615-3.662a9.879,9.879,0,0,1,3.988-1.172,14.9,14.9,0,0,1,4.637.333,2.6,2.6,0,0,1-.323-2.359,4.139,4.139,0,0,1,2.018-2.041,11.337,11.337,0,0,1,6.186-1.439,13.642,13.642,0,0,1,6.269,1.838q2.908,1.678,3.148,3.589T-1143.16,627.267Zm-13.169,3.256q1.433-.8,1.493-1.747t-1.217-1.682a5.56,5.56,0,0,0-2.935-.711,6.457,6.457,0,0,0-3.074.837q-1.462.819-1.514,1.743t1.252,1.677a5.589,5.589,0,0,0,2.915.716A6.365,6.365,0,0,0-1156.329,630.523Zm8.889-5.507q1.288-.722,1.418-1.539t-.98-1.455a4.522,4.522,0,0,0-2.526-.581,6.094,6.094,0,0,0-2.719.8c-.888.5-1.383,1.016-1.478,1.555s.236,1.026,1,1.464a4.52,4.52,0,0,0,2.532.569A6.222,6.222,0,0,0-1147.44,625.017Z" transform="translate(1185.046 -608.971)" fill="#fff"/>
            <path id="Path_15922" data-name="Path 15922" d="M-1153.5,638.668l-4.1-2.365,3.749-2.1,4.1,2.365Zm12.828-7.19-4.1-2.364,3.75-2.1,4.1,2.366Z" transform="translate(1187.599 -607.047)" fill="#fff"/>
            <path id="Path_15923" data-name="Path 15923" d="M-1137.457,648.067l-13.969-8.05,2.8-1.567,14.017-.331a39.864,39.864,0,0,0,4.93-.447,8.995,8.995,0,0,0,2.795-.878q1.347-.755,1.507-1.636t-1.116-1.619a5.351,5.351,0,0,0-3.162-.68,8.267,8.267,0,0,0-3.411,1.073l-3.991-2.3.059-.066a13.223,13.223,0,0,1,6.706-1.688,13.729,13.729,0,0,1,7.095,1.816q3.161,1.821,3.253,3.822t-2.763,3.6a12.427,12.427,0,0,1-4.586,1.411q-2.651.328-7.65.461l-7.771.217-.043.057,8.6,4.956Z" transform="translate(1188.968 -606.412)" fill="#fff"/>
            <path id="Path_15924" data-name="Path 15924" d="M-1116.48,651.047a18.336,18.336,0,0,1-8.284,2.526,13.174,13.174,0,0,1-7.228-1.676q-3.2-1.847-2.885-4.152t4.554-4.676l4.7-2.634a18.406,18.406,0,0,1,8.283-2.526,13.182,13.182,0,0,1,7.258,1.677q3.175,1.828,2.849,4.144t-4.546,4.681Zm1.058-5.24q2.531-1.416,2.978-2.5t-.932-1.875a5.1,5.1,0,0,0-3.277-.559,12.791,12.791,0,0,0-4.434,1.671l-5.546,3.106q-2.576,1.446-3.022,2.517t.958,1.882a5.083,5.083,0,0,0,3.265.551,12.936,12.936,0,0,0,4.465-1.687Z" transform="translate(1192.627 -604.636)" fill="#fff"/>
          </g>
          <g id="Group_1849" data-name="Group 1849" transform="translate(0 12.977)">
            <path id="Path_15925" data-name="Path 15925" d="M-1192.535,626.5l-1.2.9.018.012,1.686-.621,8.436-2.709,1.074.618-4.871,4.764-1.135.953.02.011,1.628-.668,8.006-2.956,1.21.7-12.288,4.389-1.08-.623,5.171-5.062.816-.673-.019-.011-1.193.454-9.007,2.852-1.08-.622,7.9-6.917,1.2.694Z" transform="translate(1196.341 -621.291)" fill="#fff"/>
            <path id="Path_15926" data-name="Path 15926" d="M-1185.805,633.943q-1.482-.856-1.318-1.921t1.855-2.016l.311-.175a7.845,7.845,0,0,1,3.563-1,5.8,5.8,0,0,1,3.17.638c.953.548,1.373,1.13,1.255,1.739s-.692,1.206-1.727,1.786l-.838.469-4.664-2.687a2.614,2.614,0,0,0-1.321,1.351c-.132.459.119.87.745,1.233a5.234,5.234,0,0,0,1.33.546,6.812,6.812,0,0,0,1.408.189l-.377.75a7.022,7.022,0,0,1-1.648-.2A6.429,6.429,0,0,1-1185.805,633.943Zm6.541-3.887a3.1,3.1,0,0,0-1.738-.337,6.325,6.325,0,0,0-2.124.506l3.42,1.97.18-.1a1.766,1.766,0,0,0,.968-1.014C-1178.474,630.715-1178.708,630.376-1179.264,630.056Z" transform="translate(1198.379 -619.622)" fill="#fff"/>
            <path id="Path_15927" data-name="Path 15927" d="M-1179.452,633.339a9.665,9.665,0,0,1,3.641-1.235,5,5,0,0,1,3.125.564,2.213,2.213,0,0,1,.875.789,1.092,1.092,0,0,1,.078.878l.027.007,4.152-2.326,1.2.694-10.812,6.058-1.048-.6.833-.584a5.707,5.707,0,0,1-1.654-.035,4.394,4.394,0,0,1-1.444-.528q-1.306-.753-1.043-1.713a3.664,3.664,0,0,1,1.923-1.886Zm1.058.774a3.017,3.017,0,0,0-1.422,1.3q-.244.636.706,1.182a3.228,3.228,0,0,0,1.292.423,5.345,5.345,0,0,0,1.476-.073l3.478-1.949a1.026,1.026,0,0,0,.12-.82,1.422,1.422,0,0,0-.711-.734,3.27,3.27,0,0,0-2.21-.351,7.811,7.811,0,0,0-2.583.944Z" transform="translate(1199.614 -618.915)" fill="#fff"/>
            <path id="Path_15928" data-name="Path 15928" d="M-1174.4,638.963a6.346,6.346,0,0,1-1.709.618,8.192,8.192,0,0,1-2.042.2l-.185-.673a9.235,9.235,0,0,0,1.47-.3,6.155,6.155,0,0,0,1.242-.525l1.047-.586,1.2.693Z" transform="translate(1200.329 -617.657)" fill="#fff"/>
            <path id="Path_15929" data-name="Path 15929" d="M-1157.506,638.547l1.2.7-7.292,4.085a5.806,5.806,0,0,1-2.952.76,5.742,5.742,0,0,1-2.859-.762q-1.387-.8-1.449-1.661t1.407-1.687l1.2.693c-.646.363-.974.716-.982,1.063s.277.682.854,1.015a3.249,3.249,0,0,0,1.716.406,3.941,3.941,0,0,0,1.86-.519Z" transform="translate(1201.986 -617.469)" fill="#fff"/>
            <path id="Path_15930" data-name="Path 15930" d="M-1160.164,647.449l-.012-.016a5.878,5.878,0,0,1-1.763.033,4.233,4.233,0,0,1-1.539-.526q-1.173-.674-1.036-1.467t1.826-1.739l4.413-2.475,1.21.7-4.428,2.482q-1.233.691-1.35,1.14c-.077.3.129.591.619.872a3.8,3.8,0,0,0,1.475.508,4.518,4.518,0,0,0,1.555-.1l5.393-3.022,1.2.694-7.5,4.2-1.08-.621Z" transform="translate(1203.388 -616.868)" fill="#fff"/>
            <path id="Path_15931" data-name="Path 15931" d="M-1150.765,645.456l-1.037.678.012.015a6.358,6.358,0,0,1,1.811-.019,4.2,4.2,0,0,1,1.558.52c.768.441,1.124.91,1.07,1.4s-.588,1.025-1.6,1.592l-4.733,2.653-1.209-.7,4.707-2.637q1.032-.577,1.08-1.024t-.739-.9a3.346,3.346,0,0,0-1.322-.423,5.22,5.22,0,0,0-1.531.063l-5.441,3.048-1.21-.7,7.5-4.2Z" transform="translate(1204.535 -616.077)" fill="#fff"/>
            <path id="Path_15932" data-name="Path 15932" d="M-1144.5,657.708l-6.1-3.514.908-.509,6.783-.274a22.192,22.192,0,0,0,2.741-.228,4.754,4.754,0,0,0,1.5-.5,1.547,1.547,0,0,0,.883-.972c.062-.352-.15-.669-.635-.949a3.817,3.817,0,0,0-2.019-.558,4.336,4.336,0,0,0-2.011.593l-1.2-.7a6.281,6.281,0,0,1,3.059-.773,6.192,6.192,0,0,1,3.213.851c.86.495,1.277,1.031,1.258,1.606s-.451,1.1-1.287,1.567a6.207,6.207,0,0,1-2.1.661,28.742,28.742,0,0,1-3.114.256l-5.488.187,4.65,2.678Z" transform="translate(1206.473 -615.082)" fill="#fff"/>
            <path id="Path_15933" data-name="Path 15933" d="M-1137.3,655.563l1.086.625a3.144,3.144,0,0,0,1.73.476,3.765,3.765,0,0,0,1.663-.506c.6-.333.909-.664.933-.991s-.238-.65-.8-.971a3.4,3.4,0,0,0-1.72-.457,3.473,3.473,0,0,0-1.737.449l-1.2-.694a5.493,5.493,0,0,1,2.792-.656,5.867,5.867,0,0,1,2.907.773q1.338.773,1.369,1.621t-1.369,1.632a4.611,4.611,0,0,1-1.614.5,5.66,5.66,0,0,1-2.028-.1,1.1,1.1,0,0,1,.307,1.232,2.493,2.493,0,0,1-1.083,1.014,5.7,5.7,0,0,1-3.012.741,6.17,6.17,0,0,1-2.946-.818q-1.312-.757-1.421-1.659c-.07-.6.339-1.149,1.23-1.649l1.211.7q-.824.462-.828,1t.841,1.029a3.621,3.621,0,0,0,1.8.506,3.785,3.785,0,0,0,1.892-.528c.641-.36.969-.7.977-1.036s-.3-.675-.922-1.035l-1.086-.627Z" transform="translate(1208.057 -614.302)" fill="#fff"/>
          </g>
        </g>
        <path id="Path_15934" data-name="Path 15934" d="M-1305.719,683.3l181.5-104.792a26.625,26.625,0,0,1,13.287-3.56,26.6,26.6,0,0,1,13.277,3.556l12.971,7.49a2.413,2.413,0,0,1,0,4.18l-4.213,2.432a2.188,2.188,0,0,0,0,3.789l46.319,26.743a7.441,7.441,0,0,0,7.44,0l2.678-1.546a9.436,9.436,0,0,1,9.436,0l22.939,13.244Z" transform="translate(1369.128 -568.735)" fill="url(#linear-gradient-14)" style="mix-blend-mode: screen;isolation: isolate"/>
        <path id="Path_15935" data-name="Path 15935" d="M-1025.979,659.951l-322.175,51.085-1.76-1.016a5.153,5.153,0,0,1-2.623-4.542,5.155,5.155,0,0,1,2.623-4.543l13.986-8.074,348.72-55.293Z" transform="translate(1358.756 -554.864)" opacity="0.55" fill="url(#linear-gradient-15)" style="mix-blend-mode: screen;isolation: isolate"/>
        <g id="Group_1851" data-name="Group 1851" transform="translate(61.239 169.846)">
          <path id="Path_15936" data-name="Path 15936" d="M-1306.778,710.891a3.256,3.256,0,0,0,2.928.121c.751-.434.657-1.19-.21-1.691a3.252,3.252,0,0,0-2.928-.121C-1307.739,709.633-1307.645,710.39-1306.778,710.891Z" transform="translate(1307.495 -708.907)" fill="#fff" opacity="0.23"/>
          <path id="Path_15937" data-name="Path 15937" d="M-1302.469,711.677a3.256,3.256,0,0,1,2.928.122c.866.5.961,1.257.21,1.691a3.255,3.255,0,0,1-2.928-.121C-1303.126,712.868-1303.22,712.111-1302.469,711.677Z" transform="translate(1308.496 -708.358)" fill="#fff" opacity="0.45"/>
          <path id="Path_15938" data-name="Path 15938" d="M-1297.808,714.234a3.255,3.255,0,0,1,2.928.122c.868.5.962,1.257.21,1.69a3.255,3.255,0,0,1-2.928-.121C-1298.465,715.425-1298.559,714.668-1297.808,714.234Z" transform="translate(1309.529 -707.792)" fill="#fff"/>
        </g>
        <g id="Group_1853" data-name="Group 1853" transform="translate(126.65 62.831)">
          <path id="Path_15939" data-name="Path 15939" d="M-1253.143,640.965l32.987-19.045a4.637,4.637,0,0,1,4.639,0l110.79,63.964a1.607,1.607,0,0,1,0,2.783l-32.987,19.046a4.642,4.642,0,0,1-4.639,0l-110.79-63.964A1.607,1.607,0,0,1-1253.143,640.965Z" transform="translate(1253.947 -621.299)" fill="url(#linear-gradient-16)" style="mix-blend-mode: screen;isolation: isolate"/>
          <path id="Path_15940" data-name="Path 15940" d="M-1188.062,649.454l1.617-.933a4.64,4.64,0,0,1,4.676.021l51.609,30.427a1.606,1.606,0,0,1-.012,2.775l-1.617.933a4.64,4.64,0,0,1-4.676-.021l-51.609-30.427A1.606,1.606,0,0,1-1188.062,649.454Z" transform="translate(1268.364 -615.406)" fill="url(#linear-gradient-17)" style="mix-blend-mode: screen;isolation: isolate"/>
          <g id="Group_1852" data-name="Group 1852" transform="translate(13.88 12.409)" opacity="0.35">
            <path id="Path_15941" data-name="Path 15941" d="M-1237.635,634.409l.164-.094a1.169,1.169,0,0,1,1.058,0l102.375,59.081a.322.322,0,0,1,0,.611l-.164.094a1.169,1.169,0,0,1-1.058,0l-102.376-59.081A.322.322,0,0,1-1237.635,634.409Z" transform="translate(1243.632 -630.853)" fill="#fff"/>
            <path id="Path_15942" data-name="Path 15942" d="M-1242.365,637.14l.164-.094a1.17,1.17,0,0,1,1.058,0l102.375,59.081a.322.322,0,0,1,0,.611l-.162.094a1.169,1.169,0,0,1-1.058,0l-102.376-59.081A.322.322,0,0,1-1242.365,637.14Z" transform="translate(1242.584 -630.248)" fill="#fff"/>
            <path id="Path_15943" data-name="Path 15943" d="M-1129.309,691.277l-.164.094a1.17,1.17,0,0,1-1.058,0L-1232.9,632.289a.322.322,0,0,1,0-.611l.165-.094a1.17,1.17,0,0,1,1.058,0l102.375,59.083A.322.322,0,0,1-1129.309,691.277Z" transform="translate(1244.68 -631.457)" fill="#fff"/>
          </g>
        </g>
        <g id="Group_1854" data-name="Group 1854" transform="translate(81.169 89.009)">
          <path id="Path_15944" data-name="Path 15944" d="M-1290.376,662.4l32.987-19.045a4.636,4.636,0,0,1,4.639,0l110.79,63.964a1.606,1.606,0,0,1,0,2.783l-32.987,19.046a4.642,4.642,0,0,1-4.639,0l-110.79-63.964A1.607,1.607,0,0,1-1290.376,662.4Z" transform="translate(1291.18 -642.73)" fill="url(#linear-gradient-18)" style="mix-blend-mode: screen;isolation: isolate"/>
          <path id="Path_15945" data-name="Path 15945" d="M-1225.3,670.885l1.618-.933a4.639,4.639,0,0,1,4.676.021l51.609,30.427a1.607,1.607,0,0,1-.012,2.775l-1.617.933a4.64,4.64,0,0,1-4.676-.021l-51.609-30.427A1.606,1.606,0,0,1-1225.3,670.885Z" transform="translate(1305.597 -636.837)" fill="url(#linear-gradient-19)" style="mix-blend-mode: screen;isolation: isolate"/>
          <path id="Path_15946" data-name="Path 15946" d="M-1234.092,672.7l.164-.094a1.17,1.17,0,0,1,1.058,0l60.9,35.147a.322.322,0,0,1,0,.611l-.164.094a1.166,1.166,0,0,1-1.058,0l-60.9-35.147A.322.322,0,0,1-1234.092,672.7Zm-11.392,6.577-.162.094a.322.322,0,0,0,0,.611l60.9,35.148a1.169,1.169,0,0,0,1.058,0l.163-.094a.322.322,0,0,0,0-.611l-60.9-35.148A1.17,1.17,0,0,0-1245.484,679.28Zm5.778-3.336-.163.1a.321.321,0,0,0,0,.61l60.9,35.148a1.17,1.17,0,0,0,1.058,0l.164-.094a.322.322,0,0,0,0-.611l-60.9-35.148A1.169,1.169,0,0,0-1239.706,675.944Z" transform="translate(1301.218 -636.139)" fill="#fff" opacity="0.35"/>
        </g>
      </g>
      <g id="Group_1863" data-name="Group 1863" transform="translate(237.804 0.186)">
        <g id="Group_1856" data-name="Group 1856">
          <path id="Path_15947" data-name="Path 15947" d="M-1053.294,577.218a6.827,6.827,0,0,1-3.423-.928l-97.06-56.037a18.4,18.4,0,0,1-9.174-15.888V469.012a6.777,6.777,0,0,1,3.424-5.929,6.775,6.775,0,0,1,6.845,0h0l97.06,56.037a18.4,18.4,0,0,1,9.174,15.888v35.353a6.774,6.774,0,0,1-3.423,5.928A6.83,6.83,0,0,1-1053.294,577.218ZM-1156.1,463.378a5.609,5.609,0,0,0-2.812.762,5.568,5.568,0,0,0-2.813,4.871v35.352a17.176,17.176,0,0,0,8.563,14.832l97.059,56.037a5.57,5.57,0,0,0,5.625,0,5.57,5.57,0,0,0,2.812-4.871V535.008a17.172,17.172,0,0,0-8.563-14.831l-97.06-56.037A5.616,5.616,0,0,0-1156.1,463.378Z" transform="translate(1162.95 -462.154)" fill="url(#linear-gradient-20)"/>
        </g>
        <g id="Group_1857" data-name="Group 1857" transform="translate(141.613 115.661)">
          <path id="Path_15948" data-name="Path 15948" d="M-995,638.626a6.825,6.825,0,0,1-3.423-.928l-39.42-22.758a18.4,18.4,0,0,1-9.172-15.888V563.7a6.774,6.774,0,0,1,3.423-5.928,6.77,6.77,0,0,1,6.845,0h0l39.42,22.759a18.4,18.4,0,0,1,9.174,15.888v35.352a6.774,6.774,0,0,1-3.424,5.928A6.822,6.822,0,0,1-995,638.626Zm-45.169-80.562a5.613,5.613,0,0,0-2.812.762,5.567,5.567,0,0,0-2.812,4.871v35.353a17.175,17.175,0,0,0,8.562,14.831l39.42,22.759a5.568,5.568,0,0,0,5.624,0,5.568,5.568,0,0,0,2.813-4.871V596.417a17.175,17.175,0,0,0-8.563-14.832l-39.42-22.759A5.609,5.609,0,0,0-1040.172,558.064Z" transform="translate(1047.018 -556.84)" fill="url(#linear-gradient-21)"/>
        </g>
        <g id="Group_1862" data-name="Group 1862" transform="translate(53.444 44.688)">
          <g id="Group_1858" data-name="Group 1858">
            <path id="Path_15949" data-name="Path 15949" d="M-1098.795,532.785a.613.613,0,0,1-.5-.26l-4.219-6.025-6.092-3.518a19.235,19.235,0,0,1-9.592-16.613v-1.587a5.972,5.972,0,0,1,3.017-5.226,5.967,5.967,0,0,1,6.034,0l11.734,6.775a19.235,19.235,0,0,1,9.593,16.614v1.587a5.971,5.971,0,0,1-3.017,5.224,5.963,5.963,0,0,1-6.036,0l-.312-.178v2.6a.611.611,0,0,1-.427.581A.591.591,0,0,1-1098.795,532.785Zm-14.369-32.822a4.8,4.8,0,0,0-2.406.652,4.764,4.764,0,0,0-2.406,4.168v1.587A18.012,18.012,0,0,0-1109,521.926l6.209,3.585a.615.615,0,0,1,.2.177l3.186,4.55V528.52a.608.608,0,0,1,.305-.528.607.607,0,0,1,.611,0l1.228.709a4.773,4.773,0,0,0,4.814,0,4.767,4.767,0,0,0,2.406-4.168v-1.587a18.012,18.012,0,0,0-8.982-15.556l-11.734-6.775h0A4.8,4.8,0,0,0-1113.164,499.963Z" transform="translate(1119.198 -498.739)" fill="url(#linear-gradient-22)"/>
          </g>
          <g id="Group_1861" data-name="Group 1861" transform="translate(8.625 11.576)">
            <g id="Group_1860" data-name="Group 1860">
              <g id="Group_1859" data-name="Group 1859" clip-path="url(#clip-path-4)">
                <rect id="Rectangle_532" data-name="Rectangle 532" width="0.216" height="4.529" transform="translate(3.218 -0.281)" fill="#0086ff"/>
                <rect id="Rectangle_533" data-name="Rectangle 533" width="0.248" height="4.529" transform="translate(2.97 -0.281)" fill="#0087ff"/>
                <rect id="Rectangle_534" data-name="Rectangle 534" width="0.248" height="4.529" transform="translate(2.722 -0.281)" fill="#08f"/>
                <rect id="Rectangle_535" data-name="Rectangle 535" width="0.248" height="4.529" transform="translate(2.475 -0.281)" fill="#0089ff"/>
                <rect id="Rectangle_536" data-name="Rectangle 536" width="0.248" height="4.529" transform="translate(2.227 -0.281)" fill="#008aff"/>
                <rect id="Rectangle_537" data-name="Rectangle 537" width="0.248" height="4.529" transform="translate(1.98 -0.281)" fill="#008bff"/>
                <rect id="Rectangle_538" data-name="Rectangle 538" width="0.248" height="4.529" transform="translate(1.732 -0.281)" fill="#008cff"/>
                <rect id="Rectangle_539" data-name="Rectangle 539" width="0.248" height="4.529" transform="translate(1.485 -0.281)" fill="#008dff"/>
                <rect id="Rectangle_540" data-name="Rectangle 540" width="0.248" height="4.529" transform="translate(1.237 -0.281)" fill="#008eff"/>
                <rect id="Rectangle_541" data-name="Rectangle 541" width="0.248" height="4.529" transform="translate(0.99 -0.281)" fill="#008fff"/>
                <rect id="Rectangle_542" data-name="Rectangle 542" width="0.248" height="4.529" transform="translate(0.742 -0.281)" fill="#0090ff"/>
                <rect id="Rectangle_543" data-name="Rectangle 543" width="0.248" height="4.529" transform="translate(0.495 -0.281)" fill="#0091ff"/>
                <rect id="Rectangle_544" data-name="Rectangle 544" width="0.248" height="4.529" transform="translate(0.247 -0.281)" fill="#0092ff"/>
                <path id="Path_15950" data-name="Path 15950" d="M-1112.137,510.225v-2.24h.247v4.529h-.247Z" transform="translate(1112.137 -508.266)" fill="#0093ff"/>
                <path id="Path_15951" data-name="Path 15951" d="M-1112.137,507.985v0Z" transform="translate(1112.137 -508.266)" fill="#0093ff"/>
                <rect id="Rectangle_545" data-name="Rectangle 545" width="0.232" height="4.529" transform="translate(8.416 2.803)" fill="#0070ff"/>
                <rect id="Rectangle_546" data-name="Rectangle 546" width="0.248" height="4.529" transform="translate(8.168 2.803)" fill="#0071ff"/>
                <rect id="Rectangle_547" data-name="Rectangle 547" width="0.248" height="4.529" transform="translate(7.921 2.803)" fill="#0072ff"/>
                <rect id="Rectangle_548" data-name="Rectangle 548" width="0.248" height="4.529" transform="translate(7.673 2.803)" fill="#0073ff"/>
                <rect id="Rectangle_549" data-name="Rectangle 549" width="0.248" height="4.529" transform="translate(7.426 2.803)" fill="#0074ff"/>
                <rect id="Rectangle_550" data-name="Rectangle 550" width="0.248" height="4.529" transform="translate(7.178 2.803)" fill="#0075ff"/>
                <rect id="Rectangle_551" data-name="Rectangle 551" width="0.248" height="4.529" transform="translate(6.931 2.803)" fill="#0076ff"/>
                <rect id="Rectangle_552" data-name="Rectangle 552" width="0.248" height="4.529" transform="translate(6.683 2.803)" fill="#0078ff"/>
                <rect id="Rectangle_553" data-name="Rectangle 553" width="0.248" height="4.529" transform="translate(6.436 2.803)" fill="#0079ff"/>
                <rect id="Rectangle_554" data-name="Rectangle 554" width="0.248" height="4.529" transform="translate(6.188 2.803)" fill="#007aff"/>
                <rect id="Rectangle_555" data-name="Rectangle 555" width="0.248" height="4.529" transform="translate(5.94 2.803)" fill="#007bff"/>
                <rect id="Rectangle_556" data-name="Rectangle 556" width="0.248" height="4.529" transform="translate(5.693 2.803)" fill="#007cff"/>
                <rect id="Rectangle_557" data-name="Rectangle 557" width="0.248" height="4.529" transform="translate(5.445 2.803)" fill="#007dff"/>
                <rect id="Rectangle_558" data-name="Rectangle 558" width="0.232" height="4.529" transform="translate(5.214 2.803)" fill="#007eff"/>
                <path id="Path_15952" data-name="Path 15952" d="M-1100.789,517.154v0Z" transform="translate(1114.651 -506.737)" fill="#005bff"/>
                <rect id="Rectangle_559" data-name="Rectangle 559" width="0.248" height="4.529" transform="translate(13.614 5.887)" fill="#005bff"/>
                <rect id="Rectangle_560" data-name="Rectangle 560" width="0.248" height="4.529" transform="translate(13.366 5.887)" fill="#005cff"/>
                <rect id="Rectangle_561" data-name="Rectangle 561" width="0.248" height="4.529" transform="translate(13.119 5.887)" fill="#005dff"/>
                <rect id="Rectangle_562" data-name="Rectangle 562" width="0.248" height="4.529" transform="translate(12.871 5.887)" fill="#005eff"/>
                <rect id="Rectangle_563" data-name="Rectangle 563" width="0.248" height="4.529" transform="translate(12.624 5.887)" fill="#005fff"/>
                <rect id="Rectangle_564" data-name="Rectangle 564" width="0.248" height="4.529" transform="translate(12.376 5.887)" fill="#0060ff"/>
                <rect id="Rectangle_565" data-name="Rectangle 565" width="0.248" height="4.529" transform="translate(12.129 5.887)" fill="#0061ff"/>
                <rect id="Rectangle_566" data-name="Rectangle 566" width="0.248" height="4.529" transform="translate(11.881 5.887)" fill="#0062ff"/>
                <rect id="Rectangle_567" data-name="Rectangle 567" width="0.248" height="4.529" transform="translate(11.634 5.887)" fill="#0063ff"/>
                <rect id="Rectangle_568" data-name="Rectangle 568" width="0.248" height="4.529" transform="translate(11.386 5.887)" fill="#0064ff"/>
                <rect id="Rectangle_569" data-name="Rectangle 569" width="0.248" height="4.529" transform="translate(11.139 5.887)" fill="#0065ff"/>
                <rect id="Rectangle_570" data-name="Rectangle 570" width="0.248" height="4.529" transform="translate(10.891 5.887)" fill="#06f"/>
                <rect id="Rectangle_571" data-name="Rectangle 571" width="0.248" height="4.529" transform="translate(10.644 5.887)" fill="#0067ff"/>
                <rect id="Rectangle_572" data-name="Rectangle 572" width="0.216" height="4.529" transform="translate(10.428 5.887)" fill="#0068ff"/>
              </g>
            </g>
          </g>
        </g>
      </g>
      <g id="Group_1868" data-name="Group 1868" transform="translate(32.48)">
        <path id="Path_15954" data-name="Path 15954" d="M-1316.834,463.285l134.918,77.9a21.418,21.418,0,0,1,10.71,18.55v51.718a9.469,9.469,0,0,1-14.2,8.2l-141.566-81.733-4.064,4.371v-70.8A9.47,9.47,0,0,1-1316.834,463.285Z" transform="translate(1331.039 -462.002)" opacity="0.19" fill="url(#linear-gradient-23)"/>
        <g id="Group_1864" data-name="Group 1864" transform="translate(136.455 84.281)">
          <path id="Path_15955" data-name="Path 15955" d="M-1205.805,539.652v11.227a1.768,1.768,0,0,1-2.652,1.532l-9.022-5.209a3.7,3.7,0,0,1-1.85-3.206V532.769a1.767,1.767,0,0,1,2.652-1.531l9.021,5.207A3.7,3.7,0,0,1-1205.805,539.652Z" transform="translate(1219.33 -530.999)" opacity="0.4" fill="url(#linear-gradient-24)"/>
          <path id="Path_15956" data-name="Path 15956" d="M-1214.33,538.6a3.516,3.516,0,0,1-.917-2.124c0-1.021.828-1.372,1.85-.782a3.834,3.834,0,0,1,1.849,2.917c0,.68-.369,1.062-.916,1.066a6.722,6.722,0,0,1,2.392,4.571v3.268l-6.65-3.839v-3.269A1.715,1.715,0,0,1-1214.33,538.6Z" transform="translate(1219.907 -530.021)" fill="#5fc6ff" opacity="0.75" style="mix-blend-mode: screen;isolation: isolate"/>
        </g>
        <path id="Path_15957" data-name="Path 15957" d="M-1292.179,487.732l81.628,47.127a3.235,3.235,0,0,1,1.617,2.8v12.127a1.48,1.48,0,0,1-2.22,1.281l-81.627-47.127a3.236,3.236,0,0,1-1.617-2.8V489.014A1.479,1.479,0,0,1-1292.179,487.732Z" transform="translate(1339.156 -456.346)" opacity="0.4" fill="url(#linear-gradient-25)"/>
        <path id="Path_15958" data-name="Path 15958" d="M-1299.689,491.244c0,.385-.473.423-1.058.086l-21.088-12.176a2,2,0,0,1-1.058-1.307c0-.385.473-.423,1.058-.086l21.088,12.176A2,2,0,0,1-1299.689,491.244Z" transform="translate(1332.844 -458.562)" fill="#80e4ff"/>
        <path id="Path_15959" data-name="Path 15959" d="M-1218.654,538.261c0,.385-.473.421-1.057.083l-51.111-29.632a2,2,0,0,1-1.057-1.309c0-.385.473-.422,1.057-.083l51.111,29.632A2,2,0,0,1-1218.654,538.261Z" transform="translate(1344.144 -452.014)" fill="#80e4ff"/>
        <g id="Group_1866" data-name="Group 1866" transform="translate(9.903 47.213)" opacity="0.35" style="mix-blend-mode: screen;isolation: isolate">
          <path id="Path_15960" data-name="Path 15960" d="M-1183.961,581.915l-137.913-79.639a2,2,0,0,1-1.058-1.307c0-.385.473-.423,1.058-.086l137.913,79.64a2,2,0,0,1,1.058,1.307C-1182.9,582.214-1183.377,582.253-1183.961,581.915Z" transform="translate(1322.932 -500.653)" fill="#80e4ff"/>
          <path id="Path_15961" data-name="Path 15961" d="M-1198.645,565.881c0,.385-.473.423-1.057.084l-51.111-29.633a2,2,0,0,1-1.056-1.308c0-.385.472-.423,1.056-.084l51.111,29.633A2,2,0,0,1-1198.645,565.881Z" transform="translate(1338.674 -493.109)" fill="#80e4ff"/>
          <path id="Path_15962" data-name="Path 15962" d="M-1284.241,537.329l91.944,53.093a2,2,0,0,1,1.058,1.307c0,.385-.474.423-1.058.086l-91.944-53.093a2,2,0,0,1-1.058-1.307C-1285.3,537.029-1284.825,536.992-1284.241,537.329Z" transform="translate(1331.268 -492.579)" fill="#80e4ff"/>
          <g id="Group_1865" data-name="Group 1865" transform="translate(0 8.989)">
            <path id="Path_15963" data-name="Path 15963" d="M-1243.851,553.3l42.607,24.6a2,2,0,0,1,1.058,1.308c0,.383-.474.423-1.058.086l-42.607-24.6a2,2,0,0,1-1.058-1.307C-1244.909,553-1244.435,552.961-1243.851,553.3Z" transform="translate(1340.216 -498.031)" fill="#80e4ff"/>
            <path id="Path_15964" data-name="Path 15964" d="M-1232.24,560.7c0,.385-.474.423-1.058.086l-88.576-51.15a2,2,0,0,1-1.058-1.307c0-.385.473-.423,1.058-.085l88.576,51.15A2,2,0,0,1-1232.24,560.7Z" transform="translate(1322.932 -508.012)" fill="#80e4ff"/>
          </g>
        </g>
        <g id="Group_1867" data-name="Group 1867" transform="translate(141.082 150.713)">
          <line id="Line_44" data-name="Line 44" y2="62.9" transform="translate(7.981 1.983)" fill="none" stroke="#fff" stroke-linejoin="round" stroke-width="0.5"/>
          <path id="Path_15965" data-name="Path 15965" d="M-1212.042,640.017a7.184,7.184,0,0,0,6.311,1.415c2.134-.572,2.767-2.132,1.415-3.485a7.185,7.185,0,0,0-6.313-1.413C-1212.762,637.1-1213.394,638.665-1212.042,640.017Z" transform="translate(1216.16 -574.099)" fill="#fff" opacity="0.27"/>
          <ellipse id="Ellipse_288" data-name="Ellipse 288" cx="4.222" cy="7.463" rx="4.222" ry="7.463" transform="matrix(0.14, -0.99, 0.99, 0.14, 0, 68.018)" fill="#fff" opacity="0.21"/>
          <path id="Path_15966" data-name="Path 15966" d="M-1210.512,639.252a3.559,3.559,0,0,0,3.128.7c1.058-.283,1.372-1.058.7-1.727a3.561,3.561,0,0,0-3.13-.7C-1210.869,637.808-1211.183,638.582-1210.512,639.252Z" transform="translate(1216.578 -573.856)" fill="#fff"/>
          <path id="Path_15967" data-name="Path 15967" d="M-1206.98,588.357a3.559,3.559,0,0,0-1.717-2.708c-.948-.547-1.716-.222-1.716.726a3.563,3.563,0,0,0,1.716,2.709C-1207.749,589.631-1206.98,589.306-1206.98,588.357Z" transform="translate(1216.678 -585.383)" fill="#fff"/>
        </g>
      </g>
      <g id="Group_1873" data-name="Group 1873" transform="translate(16.962 112.609)">
        <path id="Path_15968" data-name="Path 15968" d="M-1331.495,555.3l118.045,68.154a18.274,18.274,0,0,1,9.137,15.825v66.192l-4.468-9.109-125.825-72.645a18.271,18.271,0,0,1-9.137-15.825v-45.52A8.166,8.166,0,0,1-1331.495,555.3Z" transform="translate(1343.743 -554.189)" opacity="0.19" fill="url(#linear-gradient-26)"/>
        <g id="Group_1869" data-name="Group 1869" transform="translate(119.036 73.593)">
          <path id="Path_15969" data-name="Path 15969" d="M-1234.5,621.985v9.794a1.542,1.542,0,0,1-2.313,1.335l-7.869-4.543a3.228,3.228,0,0,1-1.615-2.8v-9.793a1.543,1.543,0,0,1,2.313-1.336l7.869,4.544A3.229,3.229,0,0,1-1234.5,621.985Z" transform="translate(1246.294 -614.436)" opacity="0.4" fill="url(#linear-gradient-27)"/>
          <path id="Path_15970" data-name="Path 15970" d="M-1241.934,621.071a3.068,3.068,0,0,1-.8-1.853c0-.891.722-1.2,1.614-.682a3.346,3.346,0,0,1,1.612,2.544c0,.594-.321.926-.8.93a5.865,5.865,0,0,1,2.087,3.988v2.851l-5.8-3.349v-2.851A1.5,1.5,0,0,1-1241.934,621.071Z" transform="translate(1246.797 -613.583)" fill="#5fc6ff" opacity="0.75" style="mix-blend-mode: screen;isolation: isolate"/>
        </g>
        <path id="Path_15971" data-name="Path 15971" d="M-1309.843,576.693l71.207,41.112a2.825,2.825,0,0,1,1.411,2.444v10.58a1.291,1.291,0,0,1-1.936,1.118l-71.206-41.112a2.82,2.82,0,0,1-1.412-2.443V577.81A1.291,1.291,0,0,1-1309.843,576.693Z" transform="translate(1350.824 -549.243)" opacity="0.4" fill="url(#linear-gradient-28)"/>
        <path id="Path_15972" data-name="Path 15972" d="M-1244.034,622.219l-58.885-34a1.743,1.743,0,0,1-.923-1.141c0-.335.413-.369.923-.075l58.885,34a1.745,1.745,0,0,1,.922,1.14C-1243.112,622.479-1243.524,622.512-1244.034,622.219Z" transform="translate(1352.582 -546.964)" fill="#80e4ff"/>
        <path id="Path_15973" data-name="Path 15973" d="M-1316.394,579.756c0,.336-.414.369-.924.074l-18.4-10.621a1.744,1.744,0,0,1-.922-1.141c0-.335.413-.369.922-.074l18.4,10.621A1.747,1.747,0,0,1-1316.394,579.756Z" transform="translate(1345.317 -551.176)" fill="#80e4ff"/>
        <g id="Group_1871" data-name="Group 1871" transform="translate(8.68 41.173)" style="mix-blend-mode: screen;isolation: isolate">
          <path id="Path_15974" data-name="Path 15974" d="M-1215.406,658.785l-120.309-69.473a1.744,1.744,0,0,1-.922-1.141c0-.335.413-.369.922-.074l120.309,69.473a1.745,1.745,0,0,1,.922,1.141C-1214.484,659.045-1214.9,659.079-1215.406,658.785Z" transform="translate(1336.637 -587.896)" fill="#80e4ff" opacity="0.35"/>
          <path id="Path_15975" data-name="Path 15975" d="M-1296.457,623.605l72.355,41.782a1.745,1.745,0,0,1,.922,1.141c0,.335-.413.369-.922.075l-72.355-41.783a1.745,1.745,0,0,1-.923-1.14C-1297.381,623.344-1296.967,623.311-1296.457,623.605Z" transform="translate(1345.333 -580.03)" fill="#80e4ff" opacity="0.35"/>
          <g id="Group_1870" data-name="Group 1870" transform="translate(0 7.842)" opacity="0.35">
            <path id="Path_15976" data-name="Path 15976" d="M-1301.068,615.131c0,.336-.413.369-.922.075l-33.725-19.475a1.74,1.74,0,0,1-.922-1.14c0-.336.413-.369.922-.075l33.725,19.475A1.745,1.745,0,0,1-1301.068,615.131Z" transform="translate(1336.637 -594.316)" fill="#80e4ff"/>
            <path id="Path_15977" data-name="Path 15977" d="M-1304.473,612.556l82.147,47.437a1.744,1.744,0,0,1,.922,1.141c0,.335-.413.369-.922.074l-82.147-47.436a1.743,1.743,0,0,1-.923-1.141C-1305.4,612.3-1304.984,612.262-1304.473,612.556Z" transform="translate(1343.557 -590.319)" fill="#80e4ff"/>
          </g>
          <path id="Path_15978" data-name="Path 15978" d="M-1228.216,644.8c0,.336-.413.369-.922.073l-44.585-25.85a1.746,1.746,0,0,1-.922-1.142c0-.335.413-.368.922-.072l44.585,25.849A1.749,1.749,0,0,1-1228.216,644.8Z" transform="translate(1350.369 -581.315)" fill="#80e4ff" opacity="0.35"/>
        </g>
        <g id="Group_1872" data-name="Group 1872" transform="translate(123.492 132.258)">
          <line id="Line_45" data-name="Line 45" y2="62.9" transform="translate(7.414 1.983)" fill="none" stroke="#fff" stroke-linejoin="round" stroke-width="0.5"/>
          <path id="Path_15979" data-name="Path 15979" d="M-1239.61,717.1a7.183,7.183,0,0,0,6.311,1.415c2.134-.572,2.767-2.132,1.415-3.485a7.186,7.186,0,0,0-6.313-1.413C-1240.33,714.184-1240.964,715.744-1239.61,717.1Z" transform="translate(1243.161 -651.178)" fill="#fff" opacity="0.27"/>
          <path id="Path_15980" data-name="Path 15980" d="M-1241.494,718.038c2.193,2.193,6.773,3.219,10.231,2.291s4.483-3.454,2.292-5.647-6.773-3.217-10.23-2.292S-1243.685,715.846-1241.494,718.038Z" transform="translate(1242.646 -651.478)" fill="#fff" opacity="0.21"/>
          <path id="Path_15981" data-name="Path 15981" d="M-1238.081,716.331a3.562,3.562,0,0,0,3.13.7c1.058-.283,1.372-1.057.7-1.727a3.561,3.561,0,0,0-3.129-.7C-1238.438,714.887-1238.752,715.661-1238.081,716.331Z" transform="translate(1243.58 -650.935)" fill="#fff"/>
          <path id="Path_15982" data-name="Path 15982" d="M-1234.548,665.438a3.564,3.564,0,0,0-1.718-2.709c-.948-.547-1.717-.222-1.717.726a3.565,3.565,0,0,0,1.717,2.709C-1235.318,666.71-1234.548,666.385-1234.548,665.438Z" transform="translate(1243.68 -662.462)" fill="#fff"/>
        </g>
      </g>
      <g id="Group_1878" data-name="Group 1878" transform="translate(223.537 346.562)">
        <g id="Group_1874" data-name="Group 1874">
          <path id="Path_15983" data-name="Path 15983" d="M-1115.981,800.55A46.012,46.012,0,0,1-1139,794.4l-15.065-8.7-18.113-1.588a.613.613,0,0,1-.544-.476.613.613,0,0,1,.292-.661l6.822-3.939-2.089-1.206a13.733,13.733,0,0,1-6.937-12.015,13.738,13.738,0,0,1,6.938-12.016l3.359-1.94a46.151,46.151,0,0,1,46.033,0l28.695,16.568h0a13.731,13.731,0,0,1,6.938,12.015,13.733,13.733,0,0,1-6.938,12.016l-3.359,1.94A46.028,46.028,0,0,1-1115.981,800.55Zm-54.157-17.481,16.318,1.43a.6.6,0,0,1,.252.081l15.182,8.764a44.937,44.937,0,0,0,44.812,0l3.359-1.939a12.527,12.527,0,0,0,6.328-10.959,12.526,12.526,0,0,0-6.328-10.958l-28.695-16.566a44.937,44.937,0,0,0-44.811,0l-3.359,1.94a12.526,12.526,0,0,0-6.328,10.958,12.527,12.527,0,0,0,6.326,10.958l3.005,1.735a.611.611,0,0,1,.305.528.611.611,0,0,1-.305.529Z" transform="translate(1174.63 -745.715)" fill="url(#linear-gradient-29)"/>
        </g>
        <g id="Group_1877" data-name="Group 1877" transform="translate(25.535 17.048)">
          <g id="Group_1876" data-name="Group 1876">
            <g id="Group_1875" data-name="Group 1875" clip-path="url(#clip-path-5)">
              <path id="Path_15984" data-name="Path 15984" d="M-1132.9,771.268l-.231.133v-.133Z" transform="translate(1158.288 -757.102)" fill="#0082ff"/>
              <path id="Path_15985" data-name="Path 15985" d="M-1131.684,771.268l-1.442.832v-.7l.231-.133Z" transform="translate(1158.288 -757.102)" fill="#0083ff"/>
              <path id="Path_15986" data-name="Path 15986" d="M-1130.474,771.268l-2.652,1.531v-.7l1.442-.832Z" transform="translate(1158.288 -757.102)" fill="#0084ff"/>
              <path id="Path_15987" data-name="Path 15987" d="M-1129.263,771.268l-3.863,2.23v-.7l2.652-1.531Z" transform="translate(1158.288 -757.102)" fill="#0085ff"/>
              <path id="Path_15988" data-name="Path 15988" d="M-1128.052,771.268l-5.074,2.93v-.7l3.863-2.23Z" transform="translate(1158.288 -757.102)" fill="#0086ff"/>
              <path id="Path_15989" data-name="Path 15989" d="M-1126.842,771.268l-6.284,3.628v-.7l5.074-2.93Z" transform="translate(1158.288 -757.102)" fill="#0087ff"/>
              <path id="Path_15990" data-name="Path 15990" d="M-1125.631,771.268l-7.495,4.327v-.7l6.284-3.628Z" transform="translate(1158.288 -757.102)" fill="#08f"/>
              <path id="Path_15991" data-name="Path 15991" d="M-1124.42,771.268l-8.706,5.026v-.7l7.495-4.327Z" transform="translate(1158.288 -757.102)" fill="#0089ff"/>
              <path id="Path_15992" data-name="Path 15992" d="M-1123.209,771.268l-9.917,5.725v-.7l8.706-5.026Z" transform="translate(1158.288 -757.102)" fill="#008aff"/>
              <path id="Path_15993" data-name="Path 15993" d="M-1122,771.268l-11.127,6.425v-.7l9.917-5.725Z" transform="translate(1158.288 -757.102)" fill="#008bff"/>
              <path id="Path_15994" data-name="Path 15994" d="M-1120.788,771.268l-12.338,7.123v-.7l11.127-6.425Z" transform="translate(1158.288 -757.102)" fill="#008cff"/>
              <path id="Path_15995" data-name="Path 15995" d="M-1120.711,771.923l-11.281,6.513h-1.134v-.044l12.338-7.123h.077Z" transform="translate(1158.288 -757.102)" fill="#008dff"/>
              <path id="Path_15996" data-name="Path 15996" d="M-1120.917,772.5l-10.07,5.814h-1.211l11.281-6.513Z" transform="translate(1158.494 -756.984)" fill="#008eff"/>
              <path id="Path_15997" data-name="Path 15997" d="M-1121.136,773.075l-8.86,5.115h-1.211l10.07-5.814Z" transform="translate(1158.714 -756.857)" fill="#008fff"/>
              <path id="Path_15998" data-name="Path 15998" d="M-1121.356,773.648l-7.649,4.416h-1.211l8.86-5.115Z" transform="translate(1158.933 -756.73)" fill="#0090ff"/>
              <path id="Path_15999" data-name="Path 15999" d="M-1121.575,774.22l-6.438,3.717h-1.211l7.649-4.416Z" transform="translate(1159.153 -756.603)" fill="#0091ff"/>
              <path id="Path_16000" data-name="Path 16000" d="M-1121.8,774.792l-5.227,3.018h-1.211l6.438-3.717Z" transform="translate(1159.372 -756.477)" fill="#0092ff"/>
              <path id="Path_16001" data-name="Path 16001" d="M-1122.015,775.364l-4.017,2.319h-1.211l5.227-3.018Z" transform="translate(1159.592 -756.35)" fill="#0093ff"/>
              <path id="Path_16002" data-name="Path 16002" d="M-1126.251,777.557l4.017-2.319v2.319Z" transform="translate(1159.811 -756.223)" fill="#0093ff"/>
              <path id="Path_16003" data-name="Path 16003" d="M-1143.385,765.316l-.308.178v-.178Z" transform="translate(1155.948 -758.421)" fill="#006cff"/>
              <path id="Path_16004" data-name="Path 16004" d="M-1142.174,765.316l-1.518.877v-.7l.308-.178Z" transform="translate(1155.948 -758.421)" fill="#006dff"/>
              <path id="Path_16005" data-name="Path 16005" d="M-1140.964,765.316l-2.729,1.576v-.7l1.518-.877Z" transform="translate(1155.948 -758.421)" fill="#006eff"/>
              <path id="Path_16006" data-name="Path 16006" d="M-1139.753,765.316l-3.94,2.275v-.7l2.729-1.576Z" transform="translate(1155.948 -758.421)" fill="#006fff"/>
              <path id="Path_16007" data-name="Path 16007" d="M-1138.542,765.316l-5.151,2.974v-.7l3.94-2.275Z" transform="translate(1155.948 -758.421)" fill="#0070ff"/>
              <path id="Path_16008" data-name="Path 16008" d="M-1137.332,765.316l-6.361,3.673v-.7l5.151-2.974Z" transform="translate(1155.948 -758.421)" fill="#0071ff"/>
              <path id="Path_16009" data-name="Path 16009" d="M-1136.121,765.316l-7.572,4.372v-.7l6.361-3.673Z" transform="translate(1155.948 -758.421)" fill="#0072ff"/>
              <path id="Path_16010" data-name="Path 16010" d="M-1134.91,765.316l-8.783,5.071v-.7l7.572-4.372Z" transform="translate(1155.948 -758.421)" fill="#0073ff"/>
              <path id="Path_16011" data-name="Path 16011" d="M-1133.7,765.316l-9.993,5.77v-.7l8.783-5.071Z" transform="translate(1155.948 -758.421)" fill="#0074ff"/>
              <path id="Path_16012" data-name="Path 16012" d="M-1132.489,765.316l-11.2,6.469v-.7l9.993-5.77Z" transform="translate(1155.948 -758.421)" fill="#0075ff"/>
              <path id="Path_16013" data-name="Path 16013" d="M-1131.278,765.316l-12.415,7.168h0v-.7l11.2-6.469Z" transform="translate(1155.948 -758.421)" fill="#0076ff"/>
              <path id="Path_16014" data-name="Path 16014" d="M-1131.277,766.014l-11.2,6.469h-1.211l12.415-7.168h0Z" transform="translate(1155.948 -758.421)" fill="#0078ff"/>
              <path id="Path_16015" data-name="Path 16015" d="M-1131.5,766.587l-9.994,5.77h-1.211l11.2-6.469Z" transform="translate(1156.167 -758.294)" fill="#0079ff"/>
              <path id="Path_16016" data-name="Path 16016" d="M-1131.717,767.159l-8.783,5.071h-1.211l9.994-5.77Z" transform="translate(1156.387 -758.167)" fill="#007aff"/>
              <path id="Path_16017" data-name="Path 16017" d="M-1131.937,767.731l-7.572,4.372h-1.211l8.783-5.071Z" transform="translate(1156.607 -758.041)" fill="#007bff"/>
              <path id="Path_16018" data-name="Path 16018" d="M-1132.156,768.3l-6.361,3.673h-1.211l7.572-4.372Z" transform="translate(1156.826 -757.914)" fill="#007cff"/>
              <path id="Path_16019" data-name="Path 16019" d="M-1132.375,768.876l-5.151,2.974h-1.211l6.362-3.673Z" transform="translate(1157.046 -757.787)" fill="#007dff"/>
              <path id="Path_16020" data-name="Path 16020" d="M-1132.595,769.448l-3.94,2.275h-1.21l5.151-2.974Z" transform="translate(1157.265 -757.66)" fill="#007eff"/>
              <path id="Path_16021" data-name="Path 16021" d="M-1132.814,770.02l-2.73,1.576h-1.211l3.94-2.275Z" transform="translate(1157.484 -757.534)" fill="#007fff"/>
              <path id="Path_16022" data-name="Path 16022" d="M-1133.034,770.593l-1.519.877h-1.211l2.73-1.576Z" transform="translate(1157.704 -757.407)" fill="#0080ff"/>
              <path id="Path_16023" data-name="Path 16023" d="M-1133.254,771.165l-.308.178h-1.211l1.519-.877Z" transform="translate(1157.924 -757.28)" fill="#0081ff"/>
              <path id="Path_16024" data-name="Path 16024" d="M-1133.782,771.216l.308-.178v.178Z" transform="translate(1158.144 -757.153)" fill="#0082ff"/>
              <path id="Path_16025" data-name="Path 16025" d="M-1150.243,759.363l-4.017,2.319v-2.319Z" transform="translate(1153.607 -759.74)" fill="#005bff"/>
              <path id="Path_16026" data-name="Path 16026" d="M-1149.032,759.363l-5.228,3.018v-.7l4.017-2.319Z" transform="translate(1153.607 -759.74)" fill="#005bff"/>
              <path id="Path_16027" data-name="Path 16027" d="M-1147.822,759.363l-6.438,3.717v-.7l5.228-3.018Z" transform="translate(1153.607 -759.74)" fill="#005cff"/>
              <path id="Path_16028" data-name="Path 16028" d="M-1146.611,759.363l-7.649,4.416v-.7l6.438-3.717Z" transform="translate(1153.607 -759.74)" fill="#005dff"/>
              <path id="Path_16029" data-name="Path 16029" d="M-1145.4,759.363l-8.86,5.115v-.7l7.649-4.416Z" transform="translate(1153.607 -759.74)" fill="#005eff"/>
              <path id="Path_16030" data-name="Path 16030" d="M-1144.189,759.363l-10.07,5.814v-.7l8.86-5.115Z" transform="translate(1153.607 -759.74)" fill="#005fff"/>
              <path id="Path_16031" data-name="Path 16031" d="M-1142.979,759.363l-11.281,6.513v-.7l10.07-5.814Z" transform="translate(1153.607 -759.74)" fill="#0060ff"/>
              <path id="Path_16032" data-name="Path 16032" d="M-1141.845,759.407l-12.338,7.124h-.077v-.655l11.281-6.513h1.134Z" transform="translate(1153.607 -759.74)" fill="#0061ff"/>
              <path id="Path_16033" data-name="Path 16033" d="M-1141.858,760.1l-11.128,6.425h-1.211l12.338-7.124Z" transform="translate(1153.621 -759.732)" fill="#0062ff"/>
              <path id="Path_16034" data-name="Path 16034" d="M-1142.078,760.671l-9.917,5.726h-1.211l11.127-6.425Z" transform="translate(1153.841 -759.605)" fill="#0063ff"/>
              <path id="Path_16035" data-name="Path 16035" d="M-1142.3,761.243l-8.706,5.027h-1.211l9.917-5.726Z" transform="translate(1154.06 -759.478)" fill="#0064ff"/>
              <path id="Path_16036" data-name="Path 16036" d="M-1142.517,761.815l-7.5,4.328h-1.211l8.706-5.027Z" transform="translate(1154.28 -759.351)" fill="#0065ff"/>
              <path id="Path_16037" data-name="Path 16037" d="M-1142.737,762.387l-6.285,3.629h-1.211l7.5-4.328Z" transform="translate(1154.499 -759.225)" fill="#06f"/>
              <path id="Path_16038" data-name="Path 16038" d="M-1142.956,762.96l-5.074,2.93h-1.211l6.285-3.629Z" transform="translate(1154.719 -759.098)" fill="#0067ff"/>
              <path id="Path_16039" data-name="Path 16039" d="M-1143.176,763.532l-3.863,2.231h-1.211l5.074-2.93Z" transform="translate(1154.938 -758.971)" fill="#0068ff"/>
              <path id="Path_16040" data-name="Path 16040" d="M-1143.4,764.1l-2.653,1.532h-1.21l3.863-2.231Z" transform="translate(1155.158 -758.844)" fill="#0069ff"/>
              <path id="Path_16041" data-name="Path 16041" d="M-1143.615,764.676l-1.442.833h-1.211l2.653-1.532Z" transform="translate(1155.377 -758.717)" fill="#006aff"/>
              <path id="Path_16042" data-name="Path 16042" d="M-1143.835,765.249l-.231.134h-1.211l1.442-.833Z" transform="translate(1155.597 -758.591)" fill="#006bff"/>
              <path id="Path_16043" data-name="Path 16043" d="M-1144.285,765.255l.231-.134v.134Z" transform="translate(1155.816 -758.464)" fill="#006cff"/>
            </g>
          </g>
        </g>
      </g>
    </g>
    <g id="Group_1889" data-name="Group 1889" transform="translate(-1030.91 756.799)">
      <g id="Group_1888" data-name="Group 1888">
        <g id="Group_1887" data-name="Group 1887" style="isolation: isolate">
          <g id="Group_1882" data-name="Group 1882" transform="translate(9.155 4.583)">
            <path id="Path_16045" data-name="Path 16045" d="M-1028.648,721.042l.453,10.577c-.141-3.284-2.405-6.5-6.9-9.1-10.688-6.171-29.914-6.5-42.95-.746-7.544,3.331-11.365,7.972-11.171,12.486l-.453-10.577c-.194-4.515,3.625-9.155,11.171-12.486,13.036-5.755,32.262-5.425,42.95.746C-1031.054,714.541-1028.789,717.757-1028.648,721.042Z" transform="translate(1089.679 -707.09)" fill="#d7640b"/>
            <g id="Group_1881" data-name="Group 1881" clip-path="url(#clip-path-6)">
              <g id="Group_1880" data-name="Group 1880" transform="translate(0 0)" style="isolation: isolate">
                <path id="Path_16046" data-name="Path 16046" d="M-1037.569,720.569l.453,10.577c-.141-3.283-2.405-6.5-6.9-9.1a29.8,29.8,0,0,0-4.935-2.242l-.453-10.578a29.89,29.89,0,0,1,4.935,2.243c4.5,2.6,6.762,5.813,6.9,9.1" transform="translate(1098.6 -706.616)" fill="#d7640b"/>
                <path id="Path_16047" data-name="Path 16047" d="M-1048.844,709.4l.453,10.578c-1-.354-2.034-.672-3.1-.954l-.453-10.578c1.069.282,2.106.6,3.1.954" transform="translate(1098.037 -706.789)" fill="#d7640b"/>
                <path id="Path_16048" data-name="Path 16048" d="M-1051.463,708.559l.453,10.578c-.871-.231-1.765-.437-2.676-.619l-.453-10.577q1.367.273,2.676.618" transform="translate(1097.552 -706.901)" fill="#d7640b"/>
                <path id="Path_16049" data-name="Path 16049" d="M-1053.687,708.02l.453,10.577q-1.226-.245-2.495-.434l-.453-10.577q1.266.189,2.494.434" transform="translate(1097.099 -706.98)" fill="#d7640b"/>
                <path id="Path_16050" data-name="Path 16050" d="M-1055.745,707.641l.453,10.577q-1.189-.176-2.406-.3l-.453-10.578q1.216.126,2.406.3" transform="translate(1096.663 -707.035)" fill="#d7640b"/>
                <path id="Path_16051" data-name="Path 16051" d="M-1057.72,707.374l.453,10.578q-1.178-.121-2.377-.194l-.453-10.578q1.2.073,2.377.194" transform="translate(1096.232 -707.07)" fill="#d7640b"/>
                <path id="Path_16052" data-name="Path 16052" d="M-1059.663,707.2l.453,10.578q-1.189-.073-2.393-.1l-.453-10.577c.8.016,1.6.049,2.393.1" transform="translate(1095.798 -707.087)" fill="#d7640b"/>
                <path id="Path_16053" data-name="Path 16053" d="M-1061.612,707.1l.453,10.577c-.812-.017-1.63-.017-2.447,0l-.453-10.578q1.226-.024,2.447,0" transform="translate(1095.354 -707.09)" fill="#d7640b"/>
                <path id="Path_16054" data-name="Path 16054" d="M-1063.6,707.1l.453,10.578c-.851.016-1.705.05-2.557.1l-.454-10.578q1.279-.077,2.558-.1" transform="translate(1094.891 -707.088)" fill="#d7640b"/>
                <path id="Path_16055" data-name="Path 16055" d="M-1065.653,707.183l.454,10.578q-1.383.084-2.758.231l-.453-10.577c.915-.1,1.836-.176,2.757-.232" transform="translate(1094.391 -707.069)" fill="#d7640b"/>
                <path id="Path_16056" data-name="Path 16056" d="M-1067.847,707.373l.453,10.577q-1.563.167-3.107.415l-.453-10.577q1.541-.249,3.106-.415" transform="translate(1093.827 -707.027)" fill="#d7640b"/>
                <path id="Path_16057" data-name="Path 16057" d="M-1070.242,707.713l.453,10.577c-1.326.214-2.638.473-3.922.778l-.454-10.578c1.285-.3,2.6-.563,3.923-.777" transform="translate(1093.116 -706.952)" fill="#d7640b"/>
                <path id="Path_16058" data-name="Path 16058" d="M-1072.042,708.349l.454,10.578a44.959,44.959,0,0,0-7.774,2.569,32.128,32.128,0,0,0-3.933,2.055l-.454-10.577a32,32,0,0,1,3.935-2.055,45.038,45.038,0,0,1,7.772-2.57" transform="translate(1090.993 -706.811)" fill="#d7640b"/>
                <path id="Path_16059" data-name="Path 16059" d="M-1083.3,712.135l.454,10.577a23.311,23.311,0,0,0-2.492,1.769l-.454-10.578a23.419,23.419,0,0,1,2.492-1.768" transform="translate(1090.541 -705.972)" fill="#d7640b"/>
                <path id="Path_16060" data-name="Path 16060" d="M-1085.508,713.582l.454,10.578a17.906,17.906,0,0,0-1.548,1.417l-.453-10.577a17.887,17.887,0,0,1,1.547-1.418" transform="translate(1090.26 -705.652)" fill="#d7640b"/>
                <path id="Path_16061" data-name="Path 16061" d="M-1086.852,714.743l.453,10.577a14.58,14.58,0,0,0-1.119,1.3l-.453-10.577a14.41,14.41,0,0,1,1.119-1.3" transform="translate(1090.057 -705.394)" fill="#d7640b"/>
                <path id="Path_16062" data-name="Path 16062" d="M-1087.821,715.806l.453,10.577a12.053,12.053,0,0,0-.828,1.237l-.453-10.577a11.8,11.8,0,0,1,.829-1.237" transform="translate(1089.907 -705.159)" fill="#d7640b"/>
                <path id="Path_16063" data-name="Path 16063" d="M-1088.54,716.819l.453,10.577a10.113,10.113,0,0,0-.6,1.209l-.453-10.577a10.048,10.048,0,0,1,.6-1.209" transform="translate(1089.798 -704.935)" fill="#d7640b"/>
                <path id="Path_16064" data-name="Path 16064" d="M-1089.068,717.809l.453,10.577a9.042,9.042,0,0,0-.4,1.206l-.453-10.577a9.031,9.031,0,0,1,.4-1.206" transform="translate(1089.725 -704.715)" fill="#d7640b"/>
                <path id="Path_16065" data-name="Path 16065" d="M-1089.434,718.8l.453,10.577a8.088,8.088,0,0,0-.215,1.224l-.453-10.578a8.081,8.081,0,0,1,.215-1.223" transform="translate(1089.686 -704.497)" fill="#d7640b"/>
                <path id="Path_16066" data-name="Path 16066" d="M-1089.642,719.8l.453,10.578a7.479,7.479,0,0,0-.029,1.071l-.453-10.577a7.5,7.5,0,0,1,.029-1.072" transform="translate(1089.679 -704.275)" fill="#d7640b"/>
              </g>
            </g>
          </g>
          <g id="Group_1883" data-name="Group 1883">
            <path id="Path_16068" data-name="Path 16068" d="M-1026.812,709.651c13.884,8.016,11.4,20.583-5.541,28.063s-41.945,7.046-55.83-.971-11.409-20.586,5.535-28.067S-1040.7,701.63-1026.812,709.651Zm-54.292,23.967c10.681,6.168,29.908,6.5,42.942.743s14.952-15.419,4.271-21.585-29.914-6.5-42.95-.746-14.952,15.418-4.263,21.589" transform="translate(1097.173 -703.338)" fill="#ffa414"/>
          </g>
          <g id="Group_1886" data-name="Group 1886" transform="translate(0.009 18.144)">
            <path id="Path_16069" data-name="Path 16069" d="M-1017.838,718.192l.454,10.577c.252,5.868-4.711,11.9-14.518,16.231-16.945,7.481-41.944,7.046-55.828-.97-5.852-3.379-8.8-7.565-8.982-11.838l-.454-10.577c.183,4.273,3.129,8.458,8.982,11.837,13.885,8.017,38.885,8.452,55.83.971C-1022.548,730.093-1017.586,724.06-1017.838,718.192Z" transform="translate(1097.166 -718.192)" fill="#d7640b"/>
            <g id="Group_1885" data-name="Group 1885" clip-path="url(#clip-path-7)">
              <g id="Group_1884" data-name="Group 1884" style="isolation: isolate">
                <path id="Path_16070" data-name="Path 16070" d="M-1032.217,718.192l.454,10.577a10.014,10.014,0,0,1-.038,1.395l-.454-10.578a9.815,9.815,0,0,0,.038-1.394" transform="translate(1111.545 -718.192)" fill="#d7640b"/>
                <path id="Path_16071" data-name="Path 16071" d="M-1032.2,719.333l.454,10.578a10.634,10.634,0,0,1-.281,1.59l-.453-10.577a10.619,10.619,0,0,0,.28-1.592" transform="translate(1111.494 -717.939)" fill="#d7640b"/>
                <path id="Path_16072" data-name="Path 16072" d="M-1032.388,720.636l.453,10.577a11.662,11.662,0,0,1-.526,1.568l-.453-10.578a11.593,11.593,0,0,0,.527-1.567" transform="translate(1111.399 -717.651)" fill="#d7640b"/>
                <path id="Path_16073" data-name="Path 16073" d="M-1032.773,721.919l.453,10.578a13.178,13.178,0,0,1-.782,1.572l-.453-10.577a13.247,13.247,0,0,0,.782-1.573" transform="translate(1111.257 -717.366)" fill="#d7640b"/>
                <path id="Path_16074" data-name="Path 16074" d="M-1033.36,723.207l.453,10.577a15.429,15.429,0,0,1-1.078,1.609l-.453-10.577a15.714,15.714,0,0,0,1.077-1.609" transform="translate(1111.062 -717.081)" fill="#d7640b"/>
                <path id="Path_16075" data-name="Path 16075" d="M-1034.173,724.524l.453,10.577a18.824,18.824,0,0,1-1.455,1.688l-.453-10.577a18.815,18.815,0,0,0,1.455-1.688" transform="translate(1110.798 -716.789)" fill="#d7640b"/>
                <path id="Path_16076" data-name="Path 16076" d="M-1035.264,725.906l.453,10.577a23.364,23.364,0,0,1-2.011,1.843l-.453-10.578a23.327,23.327,0,0,0,2.01-1.842" transform="translate(1110.433 -716.483)" fill="#d7640b"/>
                <path id="Path_16077" data-name="Path 16077" d="M-1036.687,727.414l.453,10.578a30.437,30.437,0,0,1-3.237,2.3l-.453-10.578a30.275,30.275,0,0,0,3.237-2.3" transform="translate(1109.846 -716.149)" fill="#d7640b"/>
                <path id="Path_16078" data-name="Path 16078" d="M-1037.166,729.294l.453,10.578a41.754,41.754,0,0,1-5.111,2.669,58.419,58.419,0,0,1-10.1,3.338l-.453-10.577a58.572,58.572,0,0,0,10.1-3.339,41.7,41.7,0,0,0,5.111-2.67" transform="translate(1107.088 -715.733)" fill="#d7640b"/>
                <path id="Path_16079" data-name="Path 16079" d="M-1051.45,734.213l.453,10.577c-1.67.4-3.374.733-5.1,1.01l-.453-10.577c1.725-.278,3.429-.614,5.1-1.01" transform="translate(1106.164 -714.643)" fill="#d7640b"/>
                <path id="Path_16080" data-name="Path 16080" d="M-1055.817,735.04l.453,10.577q-2,.323-4.037.54l-.454-10.577c1.354-.145,2.7-.325,4.038-.54" transform="translate(1105.431 -714.46)" fill="#d7640b"/>
                <path id="Path_16081" data-name="Path 16081" d="M-1059.2,735.482l.454,10.577q-1.788.191-3.586.3l-.453-10.577q1.8-.11,3.585-.3" transform="translate(1104.781 -714.362)" fill="#d7640b"/>
                <path id="Path_16082" data-name="Path 16082" d="M-1062.187,735.728l.453,10.577q-1.662.1-3.326.134l-.453-10.578q1.662-.031,3.326-.133" transform="translate(1104.178 -714.307)" fill="#d7640b"/>
                <path id="Path_16083" data-name="Path 16083" d="M-1064.936,735.837l.453,10.578q-1.594.031-3.181,0l-.454-10.577q1.587.033,3.182,0" transform="translate(1103.601 -714.283)" fill="#d7640b"/>
                <path id="Path_16084" data-name="Path 16084" d="M-1067.554,735.859l.455,10.577q-1.565-.033-3.114-.127l-.453-10.577c1.031.062,2.07.105,3.112.127" transform="translate(1103.036 -714.306)" fill="#d7640b"/>
                <path id="Path_16085" data-name="Path 16085" d="M-1070.105,735.778l.453,10.577q-1.558-.1-3.092-.253l-.453-10.577q1.532.158,3.092.253" transform="translate(1102.476 -714.352)" fill="#d7640b"/>
                <path id="Path_16086" data-name="Path 16086" d="M-1072.63,735.6l.453,10.577q-1.581-.161-3.128-.391l-.455-10.578q1.547.229,3.13.392" transform="translate(1101.908 -714.423)" fill="#d7640b"/>
                <path id="Path_16087" data-name="Path 16087" d="M-1075.171,735.306l.454,10.578q-1.647-.246-3.244-.564l-.453-10.577q1.6.319,3.243.563" transform="translate(1101.32 -714.526)" fill="#d7640b"/>
                <path id="Path_16088" data-name="Path 16088" d="M-1077.783,734.889l.453,10.577q-1.777-.355-3.48-.8l-.453-10.577q1.7.447,3.48.8" transform="translate(1100.689 -714.671)" fill="#d7640b"/>
                <path id="Path_16089" data-name="Path 16089" d="M-1080.532,734.31l.453,10.577c-1.389-.367-2.737-.781-4.033-1.24l-.453-10.578c1.3.461,2.643.873,4.033,1.241" transform="translate(1099.958 -714.896)" fill="#d7640b"/>
                <path id="Path_16090" data-name="Path 16090" d="M-1081.774,735.744l.453,10.578a38.774,38.774,0,0,1-6.409-2.912c-5.852-3.379-8.8-7.565-8.982-11.838l-.454-10.577c.183,4.273,3.129,8.458,8.982,11.837a38.72,38.72,0,0,0,6.411,2.912" transform="translate(1097.166 -717.571)" fill="#d7640b"/>
              </g>
            </g>
          </g>
        </g>
      </g>
      <path id="Path_16092" data-name="Path 16092" d="M-1035.57,713.944c-10.688-6.171-29.914-6.5-42.95-.746-6.686,2.951-10.437,6.931-11.073,10.94.481,2.971,2.719,5.845,6.81,8.206,10.682,6.167,29.908,6.5,42.944.743,6.685-2.952,10.438-6.932,11.074-10.941C-1029.246,719.176-1031.483,716.3-1035.57,713.944Z" transform="translate(1098.852 -702.064)" fill="#ffb725"/>
      <path id="Path_1-2" data-name="Path 1" d="M-1057.3,718.993l-1.248.318-1.976.5,8.254,4.77,2.972-7.624Z" transform="translate(1105.292 -700.321)" fill="#d7640b"/>
      <g id="Group_2-2" data-name="Group 2" transform="translate(35.132 20.802)">
        <g id="Group_1-2" data-name="Group 1">
          <path id="Path_2-2" data-name="Path 2" d="M-1064.044,720.368l-4.368,11.209,16.508-4.2Z" transform="translate(1068.412 -720.368)" fill="#e67b28"/>
        </g>
      </g>
      <g id="Group_3-2" data-name="Group 3" transform="translate(22.992 13.789)">
        <path id="Path_3-2" data-name="Path 3" d="M-1061.842,721.64l-12.14-7.013-4.369,11.209Z" transform="translate(1078.351 -714.627)" fill="#ffc62c"/>
      </g>
      <path id="Path_4-2" data-name="Path 4" d="M-1062.967,719.236a4.133,4.133,0,0,1,2.977.292l2.61,1.508,11.245-2.858-10.879-6.283a4.13,4.13,0,0,0-2.978-.293l-14.792,3.76,8.268,4.777Z" transform="translate(1102.133 -701.54)" fill="#ffa414"/>
    </g>
  </g>
</svg>
