<svg xmlns="http://www.w3.org/2000/svg" width="594.774" height="676.248" viewBox="0 0 594.774 676.248">
  <g id="Group_28" data-name="Group 28" transform="translate(1173.972 1598.396)" opacity="0.151">
    <path id="Path_1" data-name="Path 1" d="M-808.476-1388.195l-22.509,13-35.592,20.548,202.256,116.774v-233.548Z" transform="translate(85.123 35.161)" fill="#f0f0f0"/>
    <g id="Group_2" data-name="Group 2" transform="translate(-876.586 -1265.541)">
      <g id="Group_1" data-name="Group 1">
        <path id="Path_2" data-name="Path 2" d="M-941.078-1337.725v343.392l297.388-171.7Z" transform="translate(941.078 1337.725)" fill="#c1c1c1"/>
      </g>
    </g>
    <g id="Group_3" data-name="Group 3" transform="translate(-1173.972 -1437.236)">
      <path id="Path_3" data-name="Path 3" d="M-876.584-1300.49l-297.388-171.7v343.392Z" transform="translate(1173.972 1472.186)" fill="#e2e2e2"/>
    </g>
    <path id="Path_4" data-name="Path 4" d="M-907.491-1356.233a61.815,61.815,0,0,1,61.809,0l63.933,36.913,202.55-116.941-266.482-153.853a61.8,61.8,0,0,0-61.809,0l-266.48,153.853,202.547,116.941Z" transform="translate(0)" fill="#fff"/>
  </g>
</svg>
