<svg width="219" height="65" viewBox="0 0 219 65" fill="none" xmlns="http://www.w3.org/2000/svg">
<g filter="url(#filter0_b)">
<path d="M210.014 63.2008H8.81406C4.71406 63.2008 1.41406 59.9008 1.41406 55.8008V8.20078C1.41406 4.10078 4.71406 0.800781 8.81406 0.800781H210.014C214.114 0.800781 217.414 4.10078 217.414 8.20078V55.9008C217.414 59.9008 214.114 63.2008 210.014 63.2008Z" fill="white" fill-opacity="0.1"/>
</g>
<path opacity="0.1" d="M210.013 64.1H8.81328C4.31328 64.1 0.613281 60.4 0.613281 55.9V8.2C0.613281 3.7 4.31328 0 8.81328 0H210.013C214.513 0 218.213 3.7 218.213 8.2V55.9C218.213 60.4 214.513 64.1 210.013 64.1ZM8.81328 1.6C5.21328 1.6 2.21328 4.5 2.21328 8.2V55.9C2.21328 59.5 5.11328 62.5 8.81328 62.5H210.013C213.613 62.5 216.613 59.6 216.613 55.9V8.2C216.613 4.6 213.713 1.6 210.013 1.6H8.81328Z" fill="#A7A9AC"/>
<path d="M110.413 34.9977C106.613 34.9977 103.513 37.8977 103.513 41.7977C103.513 45.6977 106.613 48.5977 110.413 48.5977C114.213 48.5977 117.313 45.6977 117.313 41.7977C117.213 37.8977 114.213 34.9977 110.413 34.9977ZM110.413 45.9977C108.313 45.9977 106.513 44.2977 106.513 41.8977C106.513 39.3977 108.313 37.7977 110.413 37.7977C112.513 37.7977 114.313 39.4977 114.313 41.8977C114.213 44.2977 112.413 45.9977 110.413 45.9977ZM95.4133 34.9977C91.6133 34.9977 88.5133 37.8977 88.5133 41.7977C88.5133 45.6977 91.6133 48.5977 95.4133 48.5977C99.2133 48.5977 102.313 45.6977 102.313 41.7977C102.313 37.8977 99.2133 34.9977 95.4133 34.9977ZM95.4133 45.9977C93.3133 45.9977 91.5133 44.2977 91.5133 41.8977C91.5133 39.3977 93.3133 37.7977 95.4133 37.7977C97.5133 37.7977 99.3133 39.4977 99.3133 41.8977C99.3133 44.2977 97.5133 45.9977 95.4133 45.9977ZM77.6133 37.0977V39.9977H84.5133C84.3133 41.5977 83.7133 42.7977 82.9133 43.6977C81.9133 44.6977 80.3133 45.7977 77.5133 45.7977C73.2133 45.7977 69.9133 42.3977 69.9133 38.0977C69.9133 33.7977 73.2133 30.3977 77.5133 30.3977C79.8133 30.3977 81.5133 31.2977 82.7133 32.4977L84.7133 30.4977C83.0133 28.7977 80.7133 27.5977 77.4133 27.5977C71.5133 27.5977 66.6133 32.3977 66.6133 38.1977C66.6133 44.0977 71.5133 48.7977 77.4133 48.7977C80.6133 48.7977 82.9133 47.7977 84.8133 45.7977C86.7133 43.8977 87.3133 41.1977 87.3133 38.9977C87.3133 38.2977 87.2133 37.6977 87.1133 37.1977H77.6133V37.0977ZM150.513 39.3977C149.913 37.8977 148.213 34.9977 144.613 34.9977C141.113 34.9977 138.113 37.7977 138.113 41.7977C138.113 45.5977 141.013 48.5977 144.913 48.5977C148.013 48.5977 149.813 46.6977 150.613 45.5977L148.313 43.9977C147.513 45.0977 146.513 45.8977 144.913 45.8977C143.413 45.8977 142.313 45.1977 141.613 43.7977L150.713 39.9977L150.513 39.3977ZM141.113 41.6977C141.013 39.0977 143.113 37.6977 144.713 37.6977C145.913 37.6977 146.913 38.2977 147.213 39.1977L141.113 41.6977ZM133.713 48.2977H136.713V28.1977H133.713V48.2977ZM128.813 36.5977H128.713C128.013 35.7977 126.713 35.0977 125.113 35.0977C121.713 35.0977 118.513 38.0977 118.513 41.9977C118.513 45.7977 121.613 48.7977 125.113 48.7977C126.713 48.7977 128.013 48.0977 128.713 47.1977H128.813V48.1977C128.813 50.7977 127.413 52.1977 125.113 52.1977C123.313 52.1977 122.113 50.8977 121.713 49.7977L119.113 50.8977C119.913 52.6977 121.813 54.8977 125.213 54.8977C128.713 54.8977 131.713 52.7977 131.713 47.7977V35.3977H128.813V36.5977ZM125.313 45.9977C123.213 45.9977 121.513 44.2977 121.513 41.8977C121.513 39.4977 123.213 37.6977 125.313 37.6977C127.313 37.6977 129.013 39.4977 129.013 41.8977C129.013 44.2977 127.413 45.9977 125.313 45.9977ZM164.513 28.1977H157.313V48.2977H160.313V40.6977H164.513C167.813 40.6977 171.113 38.2977 171.113 34.4977C171.113 30.6977 167.913 28.1977 164.513 28.1977ZM164.613 37.8977H160.313V30.9977H164.613C166.813 30.9977 168.113 32.8977 168.113 34.3977C168.113 35.9977 166.913 37.8977 164.613 37.8977ZM183.213 34.9977C181.013 34.9977 178.813 35.9977 177.813 38.0977L180.513 39.1977C181.113 38.0977 182.113 37.6977 183.213 37.6977C184.813 37.6977 186.313 38.5977 186.413 40.2977V40.4977C185.913 40.1977 184.713 39.6977 183.313 39.6977C180.413 39.6977 177.513 41.2977 177.513 44.1977C177.513 46.8977 179.913 48.5977 182.513 48.5977C184.513 48.5977 185.613 47.6977 186.313 46.5977H186.413V48.1977H189.313V40.4977C189.313 36.9977 186.613 34.9977 183.213 34.9977ZM182.813 45.9977C181.813 45.9977 180.413 45.4977 180.413 44.2977C180.413 42.6977 182.113 42.1977 183.613 42.1977C184.913 42.1977 185.513 42.4977 186.313 42.8977C186.113 44.6977 184.513 45.9977 182.813 45.9977ZM199.813 35.3977L196.413 44.0977H196.313L192.713 35.3977H189.513L194.913 47.5977L191.813 54.3977H194.913L203.213 35.3977H199.813ZM172.813 48.2977H175.813V28.1977H172.813V48.2977Z" fill="white"/>
<path d="M17.6141 12.1977C17.1141 12.6977 16.9141 13.4977 16.9141 14.4977V49.9977C16.9141 50.9977 17.2141 51.7977 17.6141 52.2977L17.7141 52.3977L37.6141 32.3977V32.1977V31.9977L17.7141 12.0977L17.6141 12.1977Z" fill="#5BC9F4"/>
<path d="M44.2133 39.0984L37.6133 32.3984V32.1984V31.9984L44.2133 25.3984L44.3133 25.4984L52.2133 29.9984C54.4133 31.2984 54.4133 33.3984 52.2133 34.5984L44.4133 38.9984L44.2133 39.0984Z" fill="url(#paint0_linear)"/>
<path d="M44.4133 38.9992L37.6133 32.1992L17.6133 52.1992C18.3133 52.9992 19.6133 53.0992 20.9133 52.2992L44.4133 38.9992Z" fill="url(#paint1_linear)"/>
<path d="M44.4133 25.3992L20.9133 12.0992C19.5133 11.2992 18.3133 11.3992 17.6133 12.1992L37.6133 32.1992L44.4133 25.3992Z" fill="url(#paint2_linear)"/>
<path d="M74.5141 13.2992C73.9141 12.7992 73.1141 12.3992 72.2141 12.3992C70.2141 12.3992 68.7141 13.9992 68.7141 15.9992C68.7141 17.9992 70.2141 19.5992 72.2141 19.5992C73.9141 19.5992 75.1141 18.5992 75.2141 16.9992H72.6141V15.9992H76.7141C76.7141 19.2992 74.9141 20.8992 72.2141 20.8992C69.5141 20.8992 67.4141 18.6992 67.4141 16.0992C67.4141 13.3992 69.5141 11.1992 72.2141 11.1992C73.4141 11.1992 74.6141 11.6992 75.4141 12.3992L74.5141 13.2992Z" fill="white"/>
<path d="M84.1133 11.3008V12.5008H79.8133V15.5008H83.6133V16.7008H79.8133V19.6008H84.3133V20.8008H78.6133V11.3008H84.1133Z" fill="white"/>
<path d="M92.4125 11.3008V12.5008H89.5125V20.8008H88.2125V12.5008H85.3125V11.3008H92.4125Z" fill="white"/>
<path d="M98.5148 11.3008V20.8008H97.2148V11.3008H98.5148Z" fill="white"/>
<path d="M107.213 11.3008V12.5008H104.313V20.8008H103.013V12.5008H100.113V11.3008H107.213Z" fill="white"/>
<path d="M116.214 11.1992C118.914 11.1992 121.014 13.3992 121.014 16.0992C121.014 18.7992 118.914 20.8992 116.214 20.8992C113.514 20.8992 111.414 18.6992 111.414 16.0992C111.414 13.3992 113.514 11.1992 116.214 11.1992ZM116.214 19.6992C118.214 19.6992 119.714 18.0992 119.714 16.0992C119.714 14.0992 118.214 12.4992 116.214 12.4992C114.214 12.4992 112.714 14.0992 112.714 16.0992C112.714 18.0992 114.214 19.6992 116.214 19.6992Z" fill="white"/>
<path d="M128.616 20.8008L124.316 13.7008V20.8008H123.016V11.3008H124.316L128.616 18.4008V11.3008H129.916V20.8008H128.616Z" fill="white"/>
<defs>
<filter id="filter0_b" x="-38.5859" y="-39.1992" width="296" height="142.4" filterUnits="userSpaceOnUse" color-interpolation-filters="sRGB">
<feFlood flood-opacity="0" result="BackgroundImageFix"/>
<feGaussianBlur in="BackgroundImage" stdDeviation="20"/>
<feComposite in2="SourceAlpha" operator="in" result="effect1_backgroundBlur"/>
<feBlend mode="normal" in="SourceGraphic" in2="effect1_backgroundBlur" result="shape"/>
</filter>
<linearGradient id="paint0_linear" x1="50.8035" y1="32.211" x2="11.9179" y2="32.211" gradientUnits="userSpaceOnUse">
<stop stop-color="#FEE000"/>
<stop offset="0.1941" stop-color="#FCCF0B"/>
<stop offset="0.5469" stop-color="#FAB318"/>
<stop offset="0.8279" stop-color="#F9A21B"/>
<stop offset="1" stop-color="#F99B1C"/>
</linearGradient>
<linearGradient id="paint1_linear" x1="40.7122" y1="35.8995" x2="4.13858" y2="72.4731" gradientUnits="userSpaceOnUse">
<stop stop-color="#EF4547"/>
<stop offset="1" stop-color="#C6186D"/>
</linearGradient>
<linearGradient id="paint2_linear" x1="3.97558" y1="-8.21379" x2="33.837" y2="21.6476" gradientUnits="userSpaceOnUse">
<stop stop-color="#279E6F"/>
<stop offset="0.3168" stop-color="#4DAB6D"/>
<stop offset="0.7398" stop-color="#6ABA6A"/>
<stop offset="1" stop-color="#74C169"/>
</linearGradient>
</defs>
</svg>
