<svg xmlns="http://www.w3.org/2000/svg" xmlns:xlink="http://www.w3.org/1999/xlink" viewBox="0 0 635.18 732"><defs><clipPath id="a"><polygon points="635.18 549 317.59 732 0 549 0 183 317.59 0 635.18 183 635.18 549" fill="none"/></clipPath></defs><title>hero_background</title><path d="M.42,548.76V183.24L317.59.48,634.76,183.24V548.76L317.59,731.52Z" fill="#232e65"/><path d="M634.34,183.48,317.59,1,.83,183.48v365L317.59,731,634.34,548.52v-365m.84-.48V549L317.59,732,0,549V183L317.59,0Z" fill="#fff"/><g clip-path="url(#a)"><g opacity="0.4"><path d="M333.3,791.1S140.51,393.1,373.65,1.62,333.3-49.77,333.3-49.77L-116,14.1l22.89,598Z" fill="#192355"/></g></g><g clip-path="url(#a)"><g opacity="0.15"><path d="M-95.39,458.64S368.2,585.73,667.92,255s46.72,372.93,46.72,372.93L42.16,845.32Z" fill="#1e5aa0"/></g></g></svg>