<svg xmlns="http://www.w3.org/2000/svg" xmlns:xlink="http://www.w3.org/1999/xlink" width="80" height="80" viewBox="0 0 80 80">
  <defs>
    <clipPath id="clip-path">
      <rect id="Rectangle_1809" data-name="Rectangle 1809" width="80" height="80" transform="translate(-0.335 -0.236)" fill="#fff"/>
    </clipPath>
  </defs>
  <g id="Mask_Group_48" data-name="Mask Group 48" transform="translate(0.335 0.236)" clip-path="url(#clip-path)">
    <path id="Path_16823" data-name="Path 16823" d="M48.476,65.453c-.028-5.187,2.318-9.1,7.066-11.985-2.657-3.8-6.671-5.893-11.971-6.3-5.017-.4-10.5,2.925-12.508,2.925-2.12,0-6.982-2.784-10.8-2.784C12.381,47.433,4,53.6,4,66.131A35.225,35.225,0,0,0,6.035,77.607c1.809,5.187,8.338,17.906,15.15,17.694,3.561-.085,6.077-2.53,10.713-2.53,4.494,0,6.826,2.53,10.8,2.53,6.869-.1,12.776-11.66,14.5-16.861-9.215-4.339-8.72-12.72-8.72-12.988Zm-8-23.206A13.311,13.311,0,0,0,43.869,32a14.986,14.986,0,0,0-9.6,4.932,13.52,13.52,0,0,0-3.618,10.162C34.343,47.377,37.707,45.483,40.477,42.246Z" transform="translate(9.255 -26.047)" fill="#1f5abc"/>
  </g>
</svg>
