<svg xmlns="http://www.w3.org/2000/svg" viewBox="0 0 200 80"><title>ic_coincheckup</title><path d="M58.05,49.82H57V44.61H55.25v-.84h4.57v.84H58.05Z" fill="#1baba1"/><path d="M64.75,49.82h-1V47a1.2,1.2,0,0,0-.19-.74.83.83,0,0,0-.65-.28,1.07,1.07,0,0,0-.93.37,2.08,2.08,0,0,0-.28,1.21v2.23h-.93V43.4h.93v1.68a2.64,2.64,0,0,1-.09.83h.09a1.64,1.64,0,0,1,.56-.56,2.27,2.27,0,0,1,.84-.18,1.48,1.48,0,0,1,1.67,1.67Z" fill="#1baba1"/><path d="M68,49.92a2,2,0,0,1-1.68-.65,2.46,2.46,0,0,1-.55-1.68,2.7,2.7,0,0,1,.55-1.77,1.93,1.93,0,0,1,1.59-.65,1.7,1.7,0,0,1,1.39.56,1.94,1.94,0,0,1,.56,1.49v.56H66.8a1.27,1.27,0,0,0,.37,1,1.08,1.08,0,0,0,.93.37,1.91,1.91,0,0,0,.75-.09,2.25,2.25,0,0,0,.74-.28v.75c-.28.09-.46.18-.74.27A2,2,0,0,1,68,49.92Zm-.09-4a1.1,1.1,0,0,0-.75.28,1.82,1.82,0,0,0-.37.84h2a1.14,1.14,0,0,0-.28-.84A.87.87,0,0,0,67.92,45.91Z" fill="#1baba1"/><path d="M75.83,44.52a1.53,1.53,0,0,0-1.3.56,3.22,3.22,0,0,0,0,3.35,1.64,1.64,0,0,0,1.4.56,1.89,1.89,0,0,0,.74-.1c.28-.09.47-.09.75-.18v.84a4.54,4.54,0,0,1-1.59.27,2.48,2.48,0,0,1-2-.83A3.53,3.53,0,0,1,73,46.66,3.21,3.21,0,0,1,73.41,45a3,3,0,0,1,1-1.12A2.92,2.92,0,0,1,76,43.49a3.31,3.31,0,0,1,1.68.37l-.38.84c-.18-.09-.46-.18-.65-.28A2.69,2.69,0,0,1,75.83,44.52Z" fill="#1baba1"/><path d="M80.68,45.17h.46l-.09.93a4,4,0,0,0-.47-.09,1.08,1.08,0,0,0-.93.37,1.27,1.27,0,0,0-.37,1v2.42h-.93V45.26h.74l.1.84h.09a3.76,3.76,0,0,1,.56-.65A1.48,1.48,0,0,1,80.68,45.17Z" fill="#1baba1"/><path d="M81.7,45.26h1l.93,2.61a2.5,2.5,0,0,1,.28,1h0c0-.18.09-.37.09-.56s.37-1.21,1-3.07h1l-2,5.22a1.84,1.84,0,0,1-1.77,1.39,1.65,1.65,0,0,1-.65-.09V51c.19,0,.28.09.47.09a1.07,1.07,0,0,0,1-.84l.19-.47Z" fill="#1baba1"/><path d="M89.34,49.92a1.69,1.69,0,0,1-1.4-.65h-.09a5.06,5.06,0,0,0,.09.74v1.86H87V45.26h.74a3.06,3.06,0,0,1,.1.65h.09a1.49,1.49,0,0,1,1.4-.65,1.41,1.41,0,0,1,1.3.65,3.11,3.11,0,0,1,.47,1.77,3.28,3.28,0,0,1-.47,1.77A1.83,1.83,0,0,1,89.34,49.92Zm-.28-4a.92.92,0,0,0-.84.38,1.56,1.56,0,0,0-.28,1.11v.19a2.08,2.08,0,0,0,.28,1.21.91.91,0,0,0,.84.37.74.74,0,0,0,.74-.37,2.75,2.75,0,0,0,0-2.42A.73.73,0,0,0,89.06,45.91Z" fill="#1baba1"/><path d="M94,49.08a2.15,2.15,0,0,0,.75-.09v.74a.57.57,0,0,1-.37.09c-.19,0-.38.1-.56.1-.93,0-1.4-.47-1.4-1.49V46h-.65v-.47l.65-.37.37-.93h.56v1h1.31V46H93.34v2.42a1,1,0,0,0,.19.56C93.62,49.08,93.71,49.08,94,49.08Z" fill="#1baba1"/><path d="M99.58,47.5A2.72,2.72,0,0,1,99,49.27a1.93,1.93,0,0,1-1.58.65,2,2,0,0,1-1.12-.28,2.18,2.18,0,0,1-.74-.84,3.11,3.11,0,0,1,.28-3.07,2.21,2.21,0,0,1,1.58-.65,1.9,1.9,0,0,1,1.58.65A2.68,2.68,0,0,1,99.58,47.5Zm-3.35,0c0,1,.37,1.58,1.21,1.58s1.12-.56,1.12-1.58-.38-1.59-1.21-1.59a1.1,1.1,0,0,0-.94.38A4.82,4.82,0,0,0,96.23,47.5Z" fill="#1baba1"/><path d="M104,47.4v2.42h-1v-6h1.68a3.09,3.09,0,0,1,1.77.47,1.69,1.69,0,0,1-.65,2.88l1.67,2.7h-1.11L104.8,47.4Zm0-.83h.65a1.5,1.5,0,0,0,1-.28,1.06,1.06,0,0,0,.28-.75.74.74,0,0,0-.37-.74c-.19-.19-.56-.19-1-.19h-.66v2Z" fill="#1baba1"/><path d="M110.29,49.92a2,2,0,0,1-1.68-.65,2.46,2.46,0,0,1-.55-1.68,2.7,2.7,0,0,1,.55-1.77,1.93,1.93,0,0,1,1.59-.65,1.72,1.72,0,0,1,1.39.56,1.94,1.94,0,0,1,.56,1.49v.56h-3.07a1.27,1.27,0,0,0,.37,1,1.08,1.08,0,0,0,.93.37,1.91,1.91,0,0,0,.75-.09,2.25,2.25,0,0,0,.74-.28v.75c-.28.09-.46.18-.74.27A2.42,2.42,0,0,1,110.29,49.92Zm-.19-4a1.08,1.08,0,0,0-.74.28A1.73,1.73,0,0,0,109,47H111a1.18,1.18,0,0,0-.28-.84A.76.76,0,0,0,110.1,45.91Z" fill="#1baba1"/><path d="M116.25,48.52a1.34,1.34,0,0,1-.47,1,2.28,2.28,0,0,1-1.39.37,3.35,3.35,0,0,1-1.49-.28V48.8a3.17,3.17,0,0,0,1.49.37c.56,0,.93-.18.93-.56a.36.36,0,0,0-.09-.28,1.38,1.38,0,0,0-.38-.27,3.4,3.4,0,0,0-.65-.28,1.75,1.75,0,0,1-1-.66,1.1,1.1,0,0,1-.28-.83,1.29,1.29,0,0,1,.46-.94,2.56,2.56,0,0,1,1.31-.27,2.73,2.73,0,0,1,1.49.37l-.28.74a3.83,3.83,0,0,0-1.21-.28c-.56,0-.75.19-.75.47a.48.48,0,0,0,.19.37,2.31,2.31,0,0,0,.84.37c.37.19.65.28.83.38a1,1,0,0,1,.38.46C116.16,48.15,116.25,48.33,116.25,48.52Z" fill="#1baba1"/><path d="M119.32,49.92a2,2,0,0,1-1.67-.65,2.42,2.42,0,0,1-.56-1.68,2.65,2.65,0,0,1,.56-1.77,1.9,1.9,0,0,1,1.58-.65,1.74,1.74,0,0,1,1.4.56,2,2,0,0,1,.56,1.49v.56h-3.08a1.27,1.27,0,0,0,.38,1,1.06,1.06,0,0,0,.93.37,1.83,1.83,0,0,0,.74-.09,2.3,2.3,0,0,0,.75-.28v.75c-.28.09-.47.18-.75.27A2.42,2.42,0,0,1,119.32,49.92Zm-.18-4a1.1,1.1,0,0,0-.75.28A1.82,1.82,0,0,0,118,47h2a1.14,1.14,0,0,0-.28-.84A.73.73,0,0,0,119.14,45.91Z" fill="#1baba1"/><path d="M125,49.82l-.18-.65h0a1.79,1.79,0,0,1-.65.56,1.93,1.93,0,0,1-.84.19,1.2,1.2,0,0,1-1-.37,1.28,1.28,0,0,1-.37-1,1.07,1.07,0,0,1,.56-1,2.65,2.65,0,0,1,1.58-.38h.84v-.28a1.42,1.42,0,0,0-.18-.65c-.1-.18-.38-.18-.66-.18a1.42,1.42,0,0,0-.65.09c-.18.09-.46.19-.65.28l-.28-.65.84-.28a2.42,2.42,0,0,1,.84-.1,1.81,1.81,0,0,1,1.3.38,1.61,1.61,0,0,1,.47,1.21V50H125Zm-1.49-.65a1,1,0,0,0,1.12-1.11v-.38h-.56a2.55,2.55,0,0,0-1,.19.71.71,0,0,0-.28.65A.7.7,0,0,0,123,49,1.32,1.32,0,0,0,123.51,49.17Z" fill="#1baba1"/><path d="M129.29,45.17h.46l-.09.93a4.16,4.16,0,0,0-.46-.09,1.09,1.09,0,0,0-.94.37,1.27,1.27,0,0,0-.37,1v2.42H127V45.26h.75l.18.75H128a4.92,4.92,0,0,1,.56-.66A2.28,2.28,0,0,1,129.29,45.17Z" fill="#1baba1"/><path d="M132.45,49.92a1.93,1.93,0,0,1-1.58-.65,2.56,2.56,0,0,1-.56-1.77,2.52,2.52,0,0,1,.56-1.77,2.28,2.28,0,0,1,1.68-.65,3.05,3.05,0,0,1,1.3.27l-.28.75a2.35,2.35,0,0,0-1-.28c-.84,0-1.21.56-1.21,1.58a1.61,1.61,0,0,0,.28,1.12.89.89,0,0,0,.83.37,2.58,2.58,0,0,0,1.22-.28v.84a1.29,1.29,0,0,1-.56.19C133,49.92,132.73,49.92,132.45,49.92Z" fill="#1baba1"/><path d="M138.79,49.82h-1V47a1.21,1.21,0,0,0-.18-.74,1.07,1.07,0,0,0-.66-.28,1.08,1.08,0,0,0-.93.37,2.16,2.16,0,0,0-.28,1.21v2.23h-.93V43.4h.93v1.68a2.64,2.64,0,0,1-.09.83h.09a1.73,1.73,0,0,1,.56-.56,1.3,1.3,0,0,1,.84-.18,1.48,1.48,0,0,1,1.68,1.67Z" fill="#1baba1"/><path d="M146.42,45.63a1.71,1.71,0,0,1-.65,1.49,2.47,2.47,0,0,1-1.77.47h-.65v2.23h-1v-6h1.77a2.74,2.74,0,0,1,1.67.47A1.45,1.45,0,0,1,146.42,45.63Zm-3,1.12H144a2,2,0,0,0,1.12-.28.89.89,0,0,0,.37-.84c0-.37-.09-.65-.28-.74a1.46,1.46,0,0,0-1-.28h-.65v2.14Z" fill="#1baba1"/><path d="M148.47,49.82h-.93V43.4h.93Z" fill="#1baba1"/><path d="M152.66,49.82l-.18-.65h0a1.73,1.73,0,0,1-.66.56,1.84,1.84,0,0,1-.83.19,1.2,1.2,0,0,1-1-.37,1.28,1.28,0,0,1-.37-1,1.07,1.07,0,0,1,.56-1,3.53,3.53,0,0,1,1.58-.38h.75v-.28a1.42,1.42,0,0,0-.19-.65c-.09-.18-.37-.18-.65-.18a1.4,1.4,0,0,0-.65.09l-.66.28-.27-.65.83-.28a2.42,2.42,0,0,1,.84-.1,1.83,1.83,0,0,1,1.31.38,1.64,1.64,0,0,1,.46,1.21V50h-.84Zm-1.49-.65a1.12,1.12,0,0,0,.84-.28,1.1,1.1,0,0,0,.28-.83v-.38h-.56a2.51,2.51,0,0,0-1,.19.71.71,0,0,0-.28.65.74.74,0,0,0,.18.47A1.41,1.41,0,0,0,151.17,49.17Z" fill="#1baba1"/><path d="M156.39,49.08a2.09,2.09,0,0,0,.74-.09v.74a.57.57,0,0,1-.37.09c-.19,0-.37.1-.56.1-.93,0-1.4-.47-1.4-1.49V46h-.65v-.47l.65-.37.38-.93h.56v1H157V46h-1.3v2.42a1,1,0,0,0,.18.56A.74.74,0,0,0,156.39,49.08Z" fill="#1baba1"/><path d="M160.49,46h-1.12v3.81h-1V46h-.74v-.47l.74-.28V45a1.58,1.58,0,0,1,.38-1.21,1.47,1.47,0,0,1,1.11-.37,3.67,3.67,0,0,1,1,.19l-.28.74a1.89,1.89,0,0,0-.65-.09.72.72,0,0,0-.47.18,1.15,1.15,0,0,0-.19.66v.27h1.12V46Z" fill="#1baba1"/><path d="M165.33,47.5a2.72,2.72,0,0,1-.56,1.77,1.93,1.93,0,0,1-1.58.65,2,2,0,0,1-1.12-.28,2.29,2.29,0,0,1-.75-.84,2.75,2.75,0,0,1-.28-1.3,2.68,2.68,0,0,1,.56-1.77,2.23,2.23,0,0,1,1.59-.65,1.9,1.9,0,0,1,1.58.65A2.68,2.68,0,0,1,165.33,47.5Zm-3.35,0c0,1,.37,1.58,1.21,1.58s1.11-.56,1.11-1.58-.37-1.59-1.21-1.59a1.09,1.09,0,0,0-.93.38A4.82,4.82,0,0,0,162,47.5Z" fill="#1baba1"/><path d="M168.77,45.17h.47l-.09.93a4.43,4.43,0,0,0-.47-.09,1.08,1.08,0,0,0-.93.37,1.27,1.27,0,0,0-.37,1v2.42h-.93V45.26h.74l.09.84h.1a3.37,3.37,0,0,1,.56-.65A1.45,1.45,0,0,1,168.77,45.17Z" fill="#1baba1"/><path d="M173.9,49.82h-1V47a1.21,1.21,0,0,0-.18-.74A.74.74,0,0,0,172,46a.89.89,0,0,0-.83.37,2.08,2.08,0,0,0-.28,1.21v2.33H170V45.35h.75l.09.56h.1a1,1,0,0,1,.55-.46,2.12,2.12,0,0,1,.84-.19,1.35,1.35,0,0,1,1.4.75h.09a1.56,1.56,0,0,1,.56-.56,2.55,2.55,0,0,1,.84-.19,1.57,1.57,0,0,1,1.21.37,1.7,1.7,0,0,1,.37,1.31v3h-.93v-2.8a1.21,1.21,0,0,0-.18-.74.74.74,0,0,0-.66-.28.89.89,0,0,0-.83.37,1.77,1.77,0,0,0-.28,1.12v2.23Z" fill="#1baba1"/><path d="M22.38,19a15.55,15.55,0,0,0-.09,31.1l8.38-8.38h0l2.42,2.42h0l.84.84a15.41,15.41,0,0,0,4-10.33A15.59,15.59,0,0,0,22.38,19Z" fill="#1baba1"/><g style="isolation:isolate"><path d="M27.69,27.38a7.32,7.32,0,0,1,2.6,4.56H26a3.58,3.58,0,0,0-1.21-2,3.84,3.84,0,0,0-2.33-.75,3.35,3.35,0,0,0-2.7,1.21,5.08,5.08,0,0,0-1.12,3.54,5.08,5.08,0,0,0,1.12,3.54,3.35,3.35,0,0,0,2.7,1.21,3.65,3.65,0,0,0,2.33-.75,3.06,3.06,0,0,0,1.21-2h4.28a7.32,7.32,0,0,1-2.6,4.56,8,8,0,0,1-5.22,1.68,8.75,8.75,0,0,1-4.19-1,6.4,6.4,0,0,1-2.79-2.89,9.81,9.81,0,0,1,0-8.75,7,7,0,0,1,2.79-2.89,8.74,8.74,0,0,1,4.19-1A9.29,9.29,0,0,1,27.69,27.38Z" fill="#fff"/></g><path d="M45.29,41.82H37.93v3.44h4.94L36.16,52,32,47.78a1.8,1.8,0,0,0-2.61,0L18.65,58.58,21.08,61l9.59-9.59,4.19,4.19a1.81,1.81,0,0,0,2.61,0l7.82-7.82v4.84h3.44V41.82H45.29Z" fill="#1baba1"/><path d="M63.08,25A3.58,3.58,0,0,0,60,26.45a7,7,0,0,0-1.12,4.19q0,5.59,4.2,5.59a12.83,12.83,0,0,0,4.19-.84v3a12.07,12.07,0,0,1-4.57.84A6.7,6.7,0,0,1,57.21,37c-1.31-1.49-2-3.54-2-6.33a10,10,0,0,1,.93-4.56,6.49,6.49,0,0,1,2.7-3,8.42,8.42,0,0,1,4.1-1,10.42,10.42,0,0,1,4.84,1.21l-1.11,2.89a14,14,0,0,0-1.87-.74A3.08,3.08,0,0,0,63.08,25Z" fill="#1baba1"/><path d="M80.77,32.5a6.67,6.67,0,0,1-1.68,4.85,6.17,6.17,0,0,1-4.56,1.77,6.28,6.28,0,0,1-3.26-.84A5.2,5.2,0,0,1,69.13,36a8.21,8.21,0,0,1-.75-3.54A7,7,0,0,1,70,27.57a6,6,0,0,1,4.56-1.77,6.28,6.28,0,0,1,3.26.84A5.17,5.17,0,0,1,79.93,29,6.29,6.29,0,0,1,80.77,32.5ZM72,32.5a5.08,5.08,0,0,0,.65,2.89,2.18,2.18,0,0,0,2,.93,2,2,0,0,0,2-.93,5.76,5.76,0,0,0,.65-2.89,4.55,4.55,0,0,0-.65-2.79,2.52,2.52,0,0,0-2-.93,2,2,0,0,0-2,.93A4.38,4.38,0,0,0,72,32.5Z" fill="#1baba1"/><path d="M82.35,22.82c0-1.12.65-1.68,1.87-1.68s1.86.56,1.86,1.68A1.61,1.61,0,0,1,85.61,24a1.63,1.63,0,0,1-1.39.56C82.91,24.59,82.35,24,82.35,22.82Zm3.54,16H82.45V26.17h3.44Z" fill="#1baba1"/><path d="M100.05,38.84H96.6V31.39a4,4,0,0,0-.46-2.05,1.7,1.7,0,0,0-1.59-.65,2.44,2.44,0,0,0-2.14.93,5.64,5.64,0,0,0-.65,3.26v6H88.31V26.17h2.61l.47,1.58h.18a3.25,3.25,0,0,1,1.59-1.39,6.07,6.07,0,0,1,2.32-.47,4.25,4.25,0,0,1,3.36,1.21A5,5,0,0,1,100,30.55v8.29Z" fill="#1baba1"/><path d="M109.82,25a3.57,3.57,0,0,0-3.07,1.49,7,7,0,0,0-1.12,4.19q0,5.59,4.19,5.59a12.83,12.83,0,0,0,4.2-.84v3a12.07,12.07,0,0,1-4.57.84A6.7,6.7,0,0,1,104,37c-1.31-1.49-2-3.54-2-6.33a10,10,0,0,1,.93-4.56,6.49,6.49,0,0,1,2.7-3,8.39,8.39,0,0,1,4.1-1,10.45,10.45,0,0,1,4.84,1.21l-1.11,2.89a14.51,14.51,0,0,0-1.87-.74A2.9,2.9,0,0,0,109.82,25Z" fill="#1baba1"/><path d="M127.89,38.84h-3.44V31.39c0-1.87-.66-2.7-2-2.7a2.55,2.55,0,0,0-2.15,1,5.79,5.79,0,0,0-.65,3.17v6h-3.44V21.14h3.44v3.63c0,.28,0,.94-.09,2l-.09,1h.18a4,4,0,0,1,3.64-1.86,4.23,4.23,0,0,1,3.35,1.21,5,5,0,0,1,1.12,3.45v8.29Z" fill="#1baba1"/><path d="M136,39a6,6,0,0,1-6.52-6.42,7.27,7.27,0,0,1,1.59-4.94,6.46,6.46,0,0,1,8.57-.28,5.66,5.66,0,0,1,1.49,4.19v1.68h-8.2a3.51,3.51,0,0,0,.84,2.33,3.09,3.09,0,0,0,2.33.83,8.2,8.2,0,0,0,2.14-.27,12.23,12.23,0,0,0,2.14-.75v2.7a6.75,6.75,0,0,1-2,.65A5.89,5.89,0,0,1,136,39Zm-.46-10.61a2.73,2.73,0,0,0-1.77.65,3.82,3.82,0,0,0-.75,2h4.85a3,3,0,0,0-.66-2A2,2,0,0,0,135.53,28.41Z" fill="#1baba1"/><path d="M148.19,39c-3.91,0-6-2.14-6-6.52a7.1,7.1,0,0,1,1.59-4.93,6.16,6.16,0,0,1,4.65-1.68,8.6,8.6,0,0,1,3.91.84l-1,2.7c-.56-.19-1-.37-1.49-.56a7.46,7.46,0,0,0-1.4-.18c-1.77,0-2.7,1.3-2.7,3.81s.93,3.73,2.7,3.73a5.85,5.85,0,0,0,1.86-.28,7.33,7.33,0,0,0,1.68-.84v3a6.89,6.89,0,0,1-1.68.75A7.2,7.2,0,0,1,148.19,39Z" fill="#1baba1"/><path d="M157.13,31.94l1.49-2,3.54-3.82h3.91l-5,5.5,5.31,7.17h-4l-3.63-5.13-1.49,1.21v3.92h-3.45V21.14h3.45v7.92l-.1,2.88Z" fill="#1baba1"/><path d="M176.22,38.84l-.46-1.59h-.19a4.59,4.59,0,0,1-1.58,1.4,6.08,6.08,0,0,1-2.33.47,4.22,4.22,0,0,1-3.35-1.22,4.9,4.9,0,0,1-1.12-3.44V26.17h3.45v7.45a3.93,3.93,0,0,0,.46,2.05,1.7,1.7,0,0,0,1.59.65,2.47,2.47,0,0,0,2.14-.93,5.75,5.75,0,0,0,.65-3.26v-6h3.44V38.84Z" fill="#1baba1"/><path d="M188.24,39a4.41,4.41,0,0,1-3.54-1.58h-.19c.1,1,.19,1.68.19,1.86v5.12h-3.45V26.17h2.8l.46,1.68h.19A4.19,4.19,0,0,1,188.33,26a4.06,4.06,0,0,1,3.54,1.77,8.11,8.11,0,0,1,1.3,4.85,10,10,0,0,1-.56,3.54,4.89,4.89,0,0,1-1.67,2.32A6.88,6.88,0,0,1,188.24,39Zm-1-10.33a2.28,2.28,0,0,0-1.86.74A5.57,5.57,0,0,0,184.7,32v.37a4.53,4.53,0,0,0,.65,2.89,2.22,2.22,0,0,0,2,.93c1.58,0,2.32-1.31,2.32-3.82a5.72,5.72,0,0,0-.55-2.79A2.17,2.17,0,0,0,187.21,28.69Z" fill="#1baba1"/></svg>