<svg xmlns="http://www.w3.org/2000/svg" xmlns:xlink="http://www.w3.org/1999/xlink" width="80" height="80" viewBox="0 0 80 80">
  <defs>
    <clipPath id="clip-path">
      <rect id="Rectangle_1793" data-name="Rectangle 1793" width="80" height="80" fill="#fff" stroke="#707070" stroke-width="1"/>
    </clipPath>
  </defs>
  <g id="Mask_Group_38" data-name="Mask Group 38" clip-path="url(#clip-path)">
    <path id="Path_16801" data-name="Path 16801" d="M-297.717,1382.407a35,35,0,0,0-35-35,35,35,0,0,0-35,35,35.013,35.013,0,0,0,23.559,33.085c.128.039.255.078.382.12,1.745.325,2.31-.76,2.31-1.685v-6.515c-9.74,2.12-11.765-4.13-11.765-4.13-1.585-4.045-3.885-5.12-3.885-5.12-3.175-2.175.24-2.13.24-2.13,3.515.25,5.365,3.61,5.365,3.61,3.12,5.35,8.185,3.805,10.185,2.91a7.457,7.457,0,0,1,2.22-4.68c-7.775-.885-15.945-3.885-15.945-17.295a13.536,13.536,0,0,1,3.61-9.4,12.581,12.581,0,0,1,.335-9.26s2.94-.94,9.625,3.585a33.726,33.726,0,0,1,8.765-1.175,33.993,33.993,0,0,1,8.77,1.17c6.68-4.525,9.615-3.585,9.615-3.585a12.593,12.593,0,0,1,.345,9.265,13.532,13.532,0,0,1,3.605,9.4c0,13.445-8.19,16.4-15.99,17.27,1.26,1.085,2.4,3.215,2.4,6.48v9.605c0,.935.57,2.025,2.34,1.68h0A35.015,35.015,0,0,0-297.717,1382.407Z" transform="translate(372.717 -1341.542)" fill="#021136"/>
  </g>
</svg>
