<svg xmlns="http://www.w3.org/2000/svg" viewBox="0 0 200 80"><title>ic_crypto_rating</title><path d="M43.88,34.88a7.21,7.21,0,0,1,2.74-2.74,7.84,7.84,0,0,1,3.9-1,7.6,7.6,0,0,1,4.42,1.3A6.76,6.76,0,0,1,57.6,36H54.12a3.59,3.59,0,0,0-1.45-1.62,4.29,4.29,0,0,0-2.17-.54,4.51,4.51,0,0,0-2.35.62,4.23,4.23,0,0,0-1.59,1.73,6.25,6.25,0,0,0,0,5.26,4.16,4.16,0,0,0,1.59,1.75,4.5,4.5,0,0,0,2.35.61,4.19,4.19,0,0,0,2.17-.55,3.62,3.62,0,0,0,1.45-1.63H57.6A6.8,6.8,0,0,1,55,45.27a8.28,8.28,0,0,1-8.33.3,7.18,7.18,0,0,1-2.74-2.73,8.42,8.42,0,0,1,0-8Z" fill="#0d6efd"/><path d="M64.73,34.83a4.26,4.26,0,0,1,2.15-.54v3.17h-.8a3.11,3.11,0,0,0-2.15.67,3.11,3.11,0,0,0-.72,2.33v6h-3v-12h3v1.86A4.33,4.33,0,0,1,64.73,34.83Z" fill="#0d6efd"/><path d="M80.35,34.46,73,52.08H69.73l2.59-6L67.53,34.46h3.39L74,42.82l3.13-8.36Z" fill="#0d6efd"/><path d="M86.6,34.82A4.88,4.88,0,0,1,89,34.27a5.16,5.16,0,0,1,4.73,2.9,6.84,6.84,0,0,1,.73,3.23,7,7,0,0,1-.73,3.25,5.42,5.42,0,0,1-2,2.19,5.1,5.1,0,0,1-2.77.78,4.86,4.86,0,0,1-2.33-.54A5.2,5.2,0,0,1,85,44.72v7.4H82V34.46h3v1.73A4.64,4.64,0,0,1,86.6,34.82Zm4.28,3.71a3.21,3.21,0,0,0-1.17-1.2,3.13,3.13,0,0,0-1.56-.41,3.06,3.06,0,0,0-1.55.42,3.17,3.17,0,0,0-1.16,1.22,4.15,4.15,0,0,0,0,3.76,3.1,3.1,0,0,0,1.16,1.22,3.06,3.06,0,0,0,1.55.42,3,3,0,0,0,1.56-.43,3.3,3.3,0,0,0,1.17-1.23,3.92,3.92,0,0,0,.44-1.9A3.83,3.83,0,0,0,90.88,38.53Z" fill="#0d6efd"/><path d="M100.13,37v5.78a1.18,1.18,0,0,0,.29.88,1.42,1.42,0,0,0,1,.27h1.4v2.54h-1.89c-2.55,0-3.83-1.23-3.83-3.71V37H95.66V34.46h1.42v-3h3v3h2.67V37Z" fill="#0d6efd"/><path d="M107.19,45.85A5.46,5.46,0,0,1,105,43.68a7,7,0,0,1,0-6.48A5.76,5.76,0,0,1,107.25,35a6.83,6.83,0,0,1,6.26,0,5.72,5.72,0,0,1,2.22,2.17,6.38,6.38,0,0,1,.8,3.24,6.15,6.15,0,0,1-.83,3.24,5.7,5.7,0,0,1-2.24,2.17,6.54,6.54,0,0,1-3.16.77A6.29,6.29,0,0,1,107.19,45.85Zm4.65-2.27A2.81,2.81,0,0,0,113,42.39a4,4,0,0,0,.44-2,3.59,3.59,0,0,0-.9-2.62,3,3,0,0,0-2.19-.92,2.89,2.89,0,0,0-2.17.92,3.67,3.67,0,0,0-.87,2.62,3.73,3.73,0,0,0,.85,2.63,2.8,2.8,0,0,0,2.15.91A3.1,3.1,0,0,0,111.84,43.58Z" fill="#0d6efd"/><path d="M131.67,46.42l-3.33-5.87h-1.42v5.87h-3V31.35h5.65a6.6,6.6,0,0,1,3,.62,4.29,4.29,0,0,1,1.85,1.66A4.54,4.54,0,0,1,135,36a4.34,4.34,0,0,1-3.43,4.34l3.61,6.11Zm-4.75-8.14h2.52a2.51,2.51,0,0,0,1.84-.59,2.23,2.23,0,0,0,.6-1.65,2.12,2.12,0,0,0-.6-1.61,2.6,2.6,0,0,0-1.84-.57h-2.52Z" fill="#0d6efd"/><path d="M137.68,37.18a5.36,5.36,0,0,1,2-2.16,5.23,5.23,0,0,1,2.77-.75,4.87,4.87,0,0,1,2.34.54,4.69,4.69,0,0,1,1.61,1.36V34.46h3v12h-3V44.67a4.42,4.42,0,0,1-1.61,1.4,5,5,0,0,1-2.36.55,5,5,0,0,1-2.75-.78,5.44,5.44,0,0,1-2-2.19A7.07,7.07,0,0,1,137,40.4,7,7,0,0,1,137.68,37.18Zm8.26,1.37a3.17,3.17,0,0,0-1.17-1.21,3.16,3.16,0,0,0-3.13,0,3.16,3.16,0,0,0-1.15,1.2,3.72,3.72,0,0,0-.44,1.87,3.83,3.83,0,0,0,.44,1.89,3.16,3.16,0,0,0,1.16,1.24,3,3,0,0,0,1.55.43,3.11,3.11,0,0,0,1.57-.42,3,3,0,0,0,1.17-1.21,3.83,3.83,0,0,0,.43-1.89A3.88,3.88,0,0,0,145.94,38.55Z" fill="#0d6efd"/><path d="M155.89,37v5.78a1.18,1.18,0,0,0,.29.88,1.44,1.44,0,0,0,1,.27h1.41v2.54h-1.9c-2.55,0-3.82-1.23-3.82-3.71V37h-1.43V34.46h1.43v-3h3v3h2.68V37Z" fill="#0d6efd"/><path d="M161,32.53A1.77,1.77,0,0,1,161,30a2,2,0,0,1,2.66,0,1.77,1.77,0,0,1,0,2.53,2,2,0,0,1-2.66,0Zm2.82,1.93v12h-3v-12Z" fill="#0d6efd"/><path d="M176.83,35.64a5.17,5.17,0,0,1,1.32,3.77v7h-3v-6.6a3.08,3.08,0,0,0-.72-2.19,2.48,2.48,0,0,0-1.94-.77,2.55,2.55,0,0,0-2,.77,3,3,0,0,0-.73,2.19v6.6h-3v-12h3V36a4.26,4.26,0,0,1,1.55-1.22,4.82,4.82,0,0,1,2.06-.44A4.61,4.61,0,0,1,176.83,35.64Z" fill="#0d6efd"/><path d="M188.06,34.8a4.28,4.28,0,0,1,1.59,1.37V34.46h3v12a6.37,6.37,0,0,1-.67,3,5,5,0,0,1-2,2.07,6.42,6.42,0,0,1-3.24.77,6.91,6.91,0,0,1-4.17-1.19,4.38,4.38,0,0,1-1.85-3.24h3a2.25,2.25,0,0,0,1,1.31,3.59,3.59,0,0,0,1.91.48,2.91,2.91,0,0,0,2.13-.79,3.14,3.14,0,0,0,.82-2.38V44.65a4.6,4.6,0,0,1-1.6,1.41,4.89,4.89,0,0,1-2.35.56,5.14,5.14,0,0,1-2.76-.78,5.44,5.44,0,0,1-2-2.19,7,7,0,0,1-.73-3.25,6.85,6.85,0,0,1,.73-3.22,5.34,5.34,0,0,1,2-2.16,5.26,5.26,0,0,1,2.77-.75A5,5,0,0,1,188.06,34.8Zm1.16,3.75a3.07,3.07,0,0,0-1.16-1.21,3.14,3.14,0,0,0-1.58-.42,3.07,3.07,0,0,0-1.55.41,3.19,3.19,0,0,0-1.16,1.2,3.83,3.83,0,0,0-.44,1.87,3.94,3.94,0,0,0,.44,1.89,3.26,3.26,0,0,0,1.17,1.24,2.91,2.91,0,0,0,1.54.43,3.14,3.14,0,0,0,1.58-.42,3,3,0,0,0,1.16-1.21,3.83,3.83,0,0,0,.43-1.89A3.88,3.88,0,0,0,189.22,38.55Z" fill="#0d6efd"/><rect x="3.04" y="22.5" width="35" height="35" fill="#0d6efd"/><path d="M34.14,53.5H7.89V26H34.14Zm-21.25-5H29.14V31H12.89Z" fill="#fff"/><rect x="27.61" y="33.51" width="7.67" height="12.42" fill="#0d6efd"/></svg>