<?xml version="1.0" encoding="utf-8"?>
<!-- Generator: Adobe Illustrator 23.0.4, SVG Export Plug-In . SVG Version: 6.00 Build 0)  -->
<svg version="1.1" id="Layer_1" xmlns="http://www.w3.org/2000/svg" xmlns:xlink="http://www.w3.org/1999/xlink" x="0px" y="0px"
	 viewBox="0 0 80 80" style="enable-background:new 0 0 80 80;" xml:space="preserve">
<style type="text/css">
	.st0{clip-path:url(#SVGID_2_);}
	.st1{fill:#021136;}
</style>
<g>
	<defs>
		<rect id="SVGID_1_" width="80" height="80"/>
	</defs>
	<clipPath id="SVGID_2_">
		<use xlink:href="#SVGID_1_"  style="overflow:visible;"/>
	</clipPath>
	<g id="Mask_Group_19" transform="translate(0)" class="st0">
		<path id="Path_12" class="st1" d="M65.2,27.6c0,0.6,0,1.1,0,1.7c0.1,19.9-15.9,36.2-35.8,36.3H29c-7,0-13.8-2-19.6-5.7
			c6.8,0.7,13.5-1.2,18.9-5.3c-5.5-0.1-10.3-3.7-11.9-8.8c0.8,0.1,1.6,0.2,2.4,0.2c1.1,0,2.3-0.1,3.4-0.4c-6-1.2-10.3-6.5-10.2-12.5
			v-0.2c1.8,1,3.8,1.5,5.8,1.6c-5.6-3.7-7.4-11.2-4-17.1c6.5,8,16.1,12.8,26.3,13.4c-0.2-1-0.3-1.9-0.3-2.9
			c0-7.1,5.7-12.8,12.8-12.8c3.5,0,6.9,1.5,9.3,4c2.9-0.6,5.6-1.6,8.1-3.1c-1,2.9-2.9,5.4-5.6,7c2.5-0.3,5-1,7.4-2
			C69.9,23.6,67.7,25.8,65.2,27.6L65.2,27.6z"/>
	</g>
</g>
</svg>
