<svg xmlns="http://www.w3.org/2000/svg" width="19.832" height="19.832" viewBox="0 0 19.832 19.832">
  <path id="Path_12" data-name="Path 12" d="M765.81,2658.6h0a9.916,9.916,0,1,0,9.916,9.916A9.915,9.915,0,0,0,765.806,2658.6Zm6.161,8.267c.008.116.008.231.008.347a7.532,7.532,0,0,1-7.479,7.583h-.1a7.538,7.538,0,0,1-4.093-1.2,5.495,5.495,0,0,0,3.952-1.106,2.667,2.667,0,0,1-2.491-1.848,3.246,3.246,0,0,0,.5.041,2.8,2.8,0,0,0,.7-.088,2.668,2.668,0,0,1-2.14-2.619v-.033a2.678,2.678,0,0,0,1.207.339,2.667,2.667,0,0,1-.826-3.564,7.572,7.572,0,0,0,5.5,2.788,3.047,3.047,0,0,1-.064-.61,2.668,2.668,0,0,1,4.613-1.824,5.243,5.243,0,0,0,1.688-.643,2.66,2.66,0,0,1-1.172,1.468,5.334,5.334,0,0,0,1.535-.412A5.739,5.739,0,0,1,771.971,2666.87Z" transform="translate(-755.89 -2658.603)" fill="#e3e3e3"/>
</svg>
