<svg id="Layer_1" data-name="Layer 1" xmlns="http://www.w3.org/2000/svg" viewBox="0 0 19.83 19.83"><defs><style>.cls-1{fill:#e3e3e3;}</style></defs><title>ic_footer_github</title><g id="Mask_Group_38" data-name="Mask Group 38"><path id="Path_16801" data-name="Path 16801" class="cls-1" d="M19.83,9.92A9.92,9.92,0,1,0,6.67,19.29l.11,0c.5.1.66-.21.66-.47V17c-2.76.6-3.34-1.17-3.34-1.17A2.55,2.55,0,0,0,3,14.38c-.9-.62.07-.6.07-.6a2.07,2.07,0,0,1,1.52,1,2.11,2.11,0,0,0,2.89.82,2,2,0,0,1,.63-1.32c-2.21-.25-4.52-1.1-4.52-4.9a3.83,3.83,0,0,1,1-2.67,3.54,3.54,0,0,1,.1-2.62s.83-.27,2.72,1a10,10,0,0,1,2.49-.34,9.89,9.89,0,0,1,2.48.34c1.89-1.29,2.72-1,2.72-1a3.5,3.5,0,0,1,.1,2.62,3.83,3.83,0,0,1,1,2.67c0,3.81-2.32,4.64-4.53,4.89a2.36,2.36,0,0,1,.68,1.84v2.72c0,.26.17.57.67.47h0A9.92,9.92,0,0,0,19.83,9.92Z"/></g></svg>