<svg xmlns="http://www.w3.org/2000/svg" width="19.832" height="19.832" viewBox="0 0 19.832 19.832">
  <g id="Group_13" data-name="Group 13" transform="translate(-737.89 -2642.603)">
    <path id="Path_14" data-name="Path 14" d="M746.408,2654.216a1.065,1.065,0,1,0-1.058,1.072A1.065,1.065,0,0,0,746.408,2654.216Z" fill="#e3e3e3"/>
    <path id="Path_15" data-name="Path 15" d="M749.705,2656.384a3.765,3.765,0,0,1-4.023,0,.259.259,0,0,0-.357,0l-.014.014a.252.252,0,0,0,.014.356,4.176,4.176,0,0,0,4.739,0h0l.018-.018a.25.25,0,0,0-.018-.352A.258.258,0,0,0,749.705,2656.384Z" fill="#e3e3e3"/>
    <path id="Path_16" data-name="Path 16" d="M747.81,2642.6h0a9.916,9.916,0,1,0,9.916,9.916A9.915,9.915,0,0,0,747.806,2642.6Zm5.507,11.471a2.572,2.572,0,0,1,.084.676c0,2.262-2.548,4.095-5.691,4.095s-5.678-1.832-5.678-4.095a3.047,3.047,0,0,1,.067-.667,1.461,1.461,0,0,1-.4-.293,1.424,1.424,0,0,1,2.056-1.97,7.008,7.008,0,0,1,3.68-1.156l.82-3.714a.252.252,0,0,1,.3-.192l2.63.584a1.072,1.072,0,1,1,.953,1.553,1.06,1.06,0,0,1-1.058-1.058l-2.381-.535-.748,3.369a6.946,6.946,0,0,1,3.7,1.142,1.443,1.443,0,0,1,1.024-.429,1.421,1.421,0,0,1,.644,2.69Z" fill="#e3e3e3"/>
    <path id="Path_17" data-name="Path 17" d="M750.056,2653.161a1.065,1.065,0,0,0-.014,2.13h.01a1.065,1.065,0,0,0,0-2.13Z" fill="#e3e3e3"/>
  </g>
</svg>
