<svg xmlns="http://www.w3.org/2000/svg" width="19.832" height="19.832" viewBox="0 0 19.832 19.832">
  <path id="Path_6" data-name="Path 6" d="M763.416,2618.252a9.916,9.916,0,1,0,9.916,9.916h0a9.914,9.914,0,0,0-9.912-9.916Zm4.87,6.793-1.627,7.669c-.12.544-.444.676-.9.42l-2.475-1.828-1.2,1.152a.625.625,0,0,1-.5.244l.176-2.523,4.594-4.15c.2-.176-.044-.276-.308-.1l-5.673,3.574-2.447-.764c-.532-.168-.544-.532.112-.788l9.56-3.686C768.042,2624.106,768.43,2624.373,768.286,2625.045Z" transform="translate(-753.5 -2618.252)" fill="#e3e3e3"/>
</svg>
