<svg xmlns="http://www.w3.org/2000/svg" width="19.832" height="19.832" viewBox="0 0 19.832 19.832">
  <g id="Group_12" data-name="Group 12" transform="translate(-793.415 -2640.813)">
    <path id="Path_12" data-name="Path 12" d="M803.335,2640.813h0a9.916,9.916,0,1,0,9.916,9.916A9.916,9.916,0,0,0,803.331,2640.813Zm-2.866,15.092h-2.152v-6.917h2.152Zm-1.078-7.861a1.245,1.245,0,1,1,1.246-1.244A1.245,1.245,0,0,1,799.391,2648.044Zm9.126,7.862H806.37v-3.361c0-.8-.016-1.835-1.116-1.835-1.119,0-1.3.874-1.3,1.78v3.423h-2.145v-6.925h2.061v.945h.029a2.266,2.266,0,0,1,2.035-1.116c2.174,0,2.579,1.433,2.579,3.3Z" fill="#e3e3e3"/>
  </g>
</svg>
