<svg xmlns="http://www.w3.org/2000/svg" viewBox="0 0 200 80"><title>ic_icomarks</title><path d="M15.14,54.18H8.71v-28h6.43Z" fill="#3b4c85"/><path d="M31,54.12a14.31,14.31,0,0,1-5.28-1,13.54,13.54,0,0,1-4.61-3A14,14,0,0,1,17,40.17a14.36,14.36,0,0,1,1.06-5.4,14,14,0,0,1,7.69-7.55,14.36,14.36,0,0,1,5.29-1,13.87,13.87,0,0,1,5.23,1,13.29,13.29,0,0,1,4.6,3.06l-4.55,4.55a7,7,0,0,0-2.53-1.64A7.6,7.6,0,0,0,31,32.67a8.2,8.2,0,0,0-2.86.52,7,7,0,0,0-2.48,1.64A8.05,8.05,0,0,0,24,37.31a7.51,7.51,0,0,0-.57,2.91A7.84,7.84,0,0,0,24,43.08a7.61,7.61,0,0,0,1.64,2.43A7.36,7.36,0,0,0,31,47.66a8,8,0,0,0,2.86-.52,7.38,7.38,0,0,0,2.53-1.63l4.55,4.55a13.69,13.69,0,0,1-4.6,3A14.17,14.17,0,0,1,31,54.12Z" fill="#3b4c85"/><path d="M102.54,28.34a9.21,9.21,0,0,1,6.65,2.43c1.69,1.63,2.53,4.06,2.53,7.38V50.82h-2.26V37.93a8.78,8.78,0,0,0-1.91-5.61c-1.17-1.28-3-1.91-5.5-1.91a8.42,8.42,0,0,0-4,1,10.14,10.14,0,0,0-3.49,3.21,11.83,11.83,0,0,1,.46,3.65V50.8H92.86V38.12q0-7.6-7.44-7.6a8.18,8.18,0,0,0-6.92,3.6v16.7H76.24V29.19h1.85l.44,2.2a10,10,0,0,1,7.19-3,8.78,8.78,0,0,1,8.1,4.39,15.55,15.55,0,0,1,3.81-3.33A9.18,9.18,0,0,1,102.54,28.34Z" fill="#3b4c85"/><path d="M115.27,44.61A6.86,6.86,0,0,1,116,41a6.59,6.59,0,0,1,2.15-2.48,9.83,9.83,0,0,1,3.11-1.36,12.11,12.11,0,0,1,3.65-.38A10.68,10.68,0,0,1,129.71,38a11.64,11.64,0,0,1,3.38,2.53V39.6c0-3.06-.63-5.35-1.85-6.82s-3.11-2.15-5.7-2.15a11.41,11.41,0,0,0-4.39.9A8.64,8.64,0,0,0,117.72,34l-1.23-1.91a11,11,0,0,1,4.06-2.7,13.62,13.62,0,0,1,5-.95c3.22,0,5.64.9,7.33,2.64s2.48,4.5,2.48,8.23V51h-1.85L133,48.75a11.63,11.63,0,0,1-3.59,2,15.05,15.05,0,0,1-4.61.95A11.1,11.1,0,0,1,118,50,7,7,0,0,1,115.27,44.61Zm17.87,2.15V43.27a7.61,7.61,0,0,0-3.1-3,11.15,11.15,0,0,0-5-1.52,9,9,0,0,0-2.75.22,7.09,7.09,0,0,0-2.43.9,4.78,4.78,0,0,0-1.74,1.85,5.2,5.2,0,0,0-.52,2.81,4.52,4.52,0,0,0,2.15,3.76,9.85,9.85,0,0,0,5.18,1.3,12.77,12.77,0,0,0,4.44-.73A12.46,12.46,0,0,0,133.14,46.76Z" fill="#3b4c85"/><path d="M150.31,28.48l-.46,2.2c-.22,0-.52-.05-1-.05-3.37,0-5.85,1.17-7.54,3.49v16.7h-2.27V29.19h1.8l.47,2.2a10.79,10.79,0,0,1,7.82-3A9.29,9.29,0,0,1,150.31,28.48Z" fill="#3b4c85"/><path d="M156,18.18V50.82h-2.26V18.18Zm14.8,11L160.12,40l11,10.82H168L157.18,40l10.46-10.79Z" fill="#3b4c85"/><path d="M190.21,30.6l-1.12,1.91a9.22,9.22,0,0,0-3-1.58,12,12,0,0,0-4-.74,6.27,6.27,0,0,0-3.65,1,3.27,3.27,0,0,0-1.47,2.64,3,3,0,0,0,1.58,3,14.17,14.17,0,0,0,4.11,1.36A30.4,30.4,0,0,1,188,39.6a5,5,0,0,1,2.81,2.64,7.28,7.28,0,0,1,.32,3.95,5.55,5.55,0,0,1-3.38,4.06,12,12,0,0,1-5.07,1,14.38,14.38,0,0,1-5.06-1,13.06,13.06,0,0,1-4-2.21l1.12-1.9.21.21a10,10,0,0,0,3.28,1.91,12.73,12.73,0,0,0,4.49.85,8.47,8.47,0,0,0,4.23-.79,3.58,3.58,0,0,0,2-2.54,3.24,3.24,0,0,0-2-4,20.93,20.93,0,0,0-4.61-1.31,20.16,20.16,0,0,1-5-1.58A4.9,4.9,0,0,1,174.65,34a5.68,5.68,0,0,1,2.64-4.55,8.41,8.41,0,0,1,4.8-1.23A12.31,12.31,0,0,1,190.21,30.6Z" fill="#3b4c85"/><path d="M55.15,25.94a14,14,0,1,0,14,14A14,14,0,0,0,55.15,25.94ZM61.74,41.8,63,48.94v.28a.82.82,0,0,1-.16.51.49.49,0,0,1-.44.22,1.21,1.21,0,0,1-.57-.16l-6.41-3.33L49,49.84a1.46,1.46,0,0,1-.57.17.48.48,0,0,1-.47-.22.91.91,0,0,1-.16-.52.64.64,0,0,1,.05-.27l1.23-7.2-5.18-5.07a1,1,0,0,1-.38-.68c0-.38.27-.57.79-.62l7.2-1.07,3.21-6.48a.84.84,0,0,1,.68-.58c.28,0,.52.22.68.58l3.22,6.48,7.19,1.07c.52.1.79.32.79.62a.89.89,0,0,1-.38.68Z" fill="#3b4c85"/></svg>