<svg xmlns="http://www.w3.org/2000/svg" viewBox="0 0 200 80"><title>ic_icoholder</title><path d="M79.41,53.92l19,10.94a3.25,3.25,0,0,0,1.64.43,3.46,3.46,0,0,0,1.64-.43l19-10.94A3.27,3.27,0,0,0,122,52.63h-3.63L100.57,62.87a.92.92,0,0,1-1,0L81.8,52.66H78.17A3.26,3.26,0,0,0,79.41,53.92Zm19-31.2-8.51,4.9h4.61l5.06-2.89a1.15,1.15,0,0,1,1.08,0l5.06,2.89h4.6l-8.5-4.9A3.39,3.39,0,0,0,98.38,22.72Zm-24.66,4.9V25.53a1,1,0,0,1,.5-.85L99.59,10.06a1,1,0,0,1,1,0L126,24.68a.94.94,0,0,1,.51.85v2.09h2.31V25.53a3.25,3.25,0,0,0-1.66-2.84L101.75,8.07a3.38,3.38,0,0,0-3.32,0L73.07,22.69a3.24,3.24,0,0,0-1.66,2.87v2.09l2.31,0ZM100.09,58a3.5,3.5,0,0,0,1.71-.45l8.51-4.91H105.7l-5,2.92a1.15,1.15,0,0,1-1.08,0l-5.06-2.89H89.92l8.51,4.91A3.11,3.11,0,0,0,100.09,58Zm26.37-5.33v2.09a1,1,0,0,1-.5.85L100.59,70.22a1,1,0,0,1-1,0L74.22,55.6a1,1,0,0,1-.5-.85V52.66H71.41v2.09a3.23,3.23,0,0,0,1.66,2.84L98.43,72.21a3.22,3.22,0,0,0,1.66.43,3.42,3.42,0,0,0,1.66-.43l25.36-14.62a3.25,3.25,0,0,0,1.67-2.87V52.63l-2.32,0Zm-5.69-26.3-19-10.94a3.31,3.31,0,0,0-3.28,0l-19,10.94a3.27,3.27,0,0,0-1.24,1.29H81.8L99.61,17.41a.92.92,0,0,1,1,0l17.81,10.24H122A2.92,2.92,0,0,0,120.77,26.36Z" fill="#34495e"/><path d="M26.74,49.74H24.18V30.52h2.56Zm18.42-4a.55.55,0,0,1,.38.18l1,1.11a8.38,8.38,0,0,1-2.82,2.14,9.78,9.78,0,0,1-4,.75,8.76,8.76,0,0,1-3.7-.73,7.58,7.58,0,0,1-2.82-2,9.84,9.84,0,0,1-1.84-3.1,11.82,11.82,0,0,1-.65-4,11.28,11.28,0,0,1,.68-4,8.38,8.38,0,0,1,2-3.09,9.23,9.23,0,0,1,3-2,10.12,10.12,0,0,1,3.88-.73,8.84,8.84,0,0,1,3.6.65,9.65,9.65,0,0,1,2.69,1.79l-.83,1.21a.64.64,0,0,1-.2.2c-.08.07-.18.07-.35.07a.73.73,0,0,1-.36-.12l-.45-.33-.63-.4a5.17,5.17,0,0,0-.85-.4,8.28,8.28,0,0,0-1.14-.33,8.17,8.17,0,0,0-1.51-.13,7.22,7.22,0,0,0-2.79.53,6.2,6.2,0,0,0-2.16,1.51,6.85,6.85,0,0,0-1.41,2.39,9.42,9.42,0,0,0-.5,3.15,9.76,9.76,0,0,0,.5,3.22,7.08,7.08,0,0,0,1.38,2.39,5.69,5.69,0,0,0,2.09,1.48,6.76,6.76,0,0,0,2.59.51,13.33,13.33,0,0,0,1.51-.1,6.44,6.44,0,0,0,1.26-.33,4.82,4.82,0,0,0,1.06-.55,10.2,10.2,0,0,0,1-.78A3,3,0,0,1,45.16,45.76Zm21.67-1.63a12.48,12.48,0,0,0,0-8,8.91,8.91,0,0,0-1.89-3.1A9.26,9.26,0,0,0,62,31a9.85,9.85,0,0,0-3.79-.73,9.33,9.33,0,0,0-3.8.73,8.4,8.4,0,0,0-2.95,2,9.59,9.59,0,0,0-1.89,3.1,12.06,12.06,0,0,0-.65,4,11.27,11.27,0,0,0,.65,4,8.71,8.71,0,0,0,4.84,5.13,9.68,9.68,0,0,0,3.8.73A9.16,9.16,0,0,0,62,49.26a8.4,8.4,0,0,0,2.95-2A9.54,9.54,0,0,0,66.83,44.13ZM64.41,37a10.71,10.71,0,0,1,0,6.34,6.66,6.66,0,0,1-1.36,2.37,6,6,0,0,1-2.11,1.48,7.31,7.31,0,0,1-2.77.51,7.39,7.39,0,0,1-2.77-.51,5.43,5.43,0,0,1-2.11-1.48,6.86,6.86,0,0,1-1.36-2.37,10.25,10.25,0,0,1-.48-3.17A10.44,10.44,0,0,1,51.93,37a6.58,6.58,0,0,1,1.36-2.39,6.21,6.21,0,0,1,2.11-1.51,7.5,7.5,0,0,1,5.54,0,5.83,5.83,0,0,1,2.11,1.51A7.24,7.24,0,0,1,64.41,37ZM86.35,49.74H83.76V41H73.57v8.76H71V30.52h2.59V39.1H83.76V30.52h2.59Zm21.54-5.61a12.48,12.48,0,0,0,0-8,8.76,8.76,0,0,0-1.89-3.1,9.22,9.22,0,0,0-2.94-2,9.9,9.9,0,0,0-3.8-.73,9.37,9.37,0,0,0-3.8.73,8.36,8.36,0,0,0-2.94,2,9.26,9.26,0,0,0-1.89,3.1,11.81,11.81,0,0,0-.65,4,11.27,11.27,0,0,0,.65,4,8.63,8.63,0,0,0,1.89,3.09,8.92,8.92,0,0,0,2.94,2,9.71,9.71,0,0,0,3.8.73,9.2,9.2,0,0,0,3.8-.73,8.36,8.36,0,0,0,2.94-2A9.21,9.21,0,0,0,107.89,44.13ZM105.42,37a10,10,0,0,1,.48,3.17,9.43,9.43,0,0,1-.48,3.17,6.8,6.8,0,0,1-1.35,2.37A6.24,6.24,0,0,1,102,47.17a7.24,7.24,0,0,1-2.77.51,7.34,7.34,0,0,1-2.76-.51,5.46,5.46,0,0,1-2.12-1.48,6.86,6.86,0,0,1-1.36-2.37,10.26,10.26,0,0,1-.47-3.17A10.45,10.45,0,0,1,92.94,37a6.73,6.73,0,0,1,1.36-2.39,6.25,6.25,0,0,1,2.12-1.51,7.48,7.48,0,0,1,5.53,0,5.87,5.87,0,0,1,2.12,1.51A6.44,6.44,0,0,1,105.42,37Zm9.19,10.57h8.2v2.16H112V30.49h2.57V47.55Zm26.75-3.47a12.18,12.18,0,0,0,0-7.85,8.53,8.53,0,0,0-1.89-3,8.43,8.43,0,0,0-2.94-2,10.32,10.32,0,0,0-3.8-.7h-7.07V49.74h7.07a9.93,9.93,0,0,0,3.8-.7,8.62,8.62,0,0,0,2.94-1.94A9,9,0,0,0,141.36,44.08ZM138.94,37a10.3,10.3,0,0,1,.48,3.17,10.12,10.12,0,0,1-.48,3.15,6.28,6.28,0,0,1-1.36,2.34,5.76,5.76,0,0,1-2.11,1.48,7.39,7.39,0,0,1-2.77.51h-4.5v-15h4.5a7.59,7.59,0,0,1,2.77.5,5.79,5.79,0,0,1,2.11,1.49A7,7,0,0,1,138.94,37Zm18.24-6.44v2.11H148.1V39h7.37v2H148.1V47.6h9.08v2.11H145.53V30.49h11.65Zm6.49,19.23V41.71h2a1.9,1.9,0,0,1,.78.15,1.6,1.6,0,0,1,.48.46l4.91,6.87a1.17,1.17,0,0,0,1,.55h2.26l-5.51-7.62a2.91,2.91,0,0,0-.85-.83,7.62,7.62,0,0,0,2-.76,5.71,5.71,0,0,0,1.46-1.21,4.67,4.67,0,0,0,.91-1.58,6.06,6.06,0,0,0,.3-1.91,5.48,5.48,0,0,0-.43-2.19A4.3,4.3,0,0,0,171.7,32a6.14,6.14,0,0,0-2.16-1.06,12.67,12.67,0,0,0-3.1-.35h-5.36V49.77Zm2.67-9.94h-2.69V32.55h2.82a5.29,5.29,0,0,1,3.32.86A3.15,3.15,0,0,1,170.92,36a3.78,3.78,0,0,1-.3,1.54,3.65,3.65,0,0,1-.88,1.2,4.16,4.16,0,0,1-1.44.78A5,5,0,0,1,166.34,39.83Z" fill="#34495e"/></svg>