<svg xmlns="http://www.w3.org/2000/svg" xmlns:xlink="http://www.w3.org/1999/xlink" viewBox="0 0 128 128"><defs><linearGradient id="a" x1="83.59" y1="113.21" x2="52.53" y2="83.79" gradientUnits="userSpaceOnUse"><stop offset="0" stop-color="#009cc4"/><stop offset="1" stop-color="#20c8f3"/></linearGradient><linearGradient id="b" x1="62.65" y1="135.31" x2="31.59" y2="105.88" xlink:href="#a"/><linearGradient id="c" x1="119.68" y1="121.43" x2="95.16" y2="-1.16" gradientUnits="userSpaceOnUse"><stop offset="0" stop-color="#50a7ff"/><stop offset="1" stop-color="#045ffa"/></linearGradient><linearGradient id="d" x1="100.96" y1="125.18" x2="76.44" y2="2.58" xlink:href="#c"/><linearGradient id="e" x1="16" y1="64" x2="112" y2="64" gradientUnits="userSpaceOnUse"><stop offset="0" stop-color="#003eca"/><stop offset="1" stop-color="#3a69ff"/></linearGradient><linearGradient id="f" x1="30" y1="64" x2="98" y2="64" gradientUnits="userSpaceOnUse"><stop offset="0" stop-color="#007bff"/><stop offset="0.13" stop-color="#1874ff"/><stop offset="0.28" stop-color="#2b6eff"/><stop offset="0.44" stop-color="#366aff"/><stop offset="0.6" stop-color="#3a69ff"/></linearGradient><linearGradient id="g" x1="80.19" y1="45.07" x2="94.19" y2="45.07" gradientUnits="userSpaceOnUse"><stop offset="0" stop-color="#f957cf"/><stop offset="1" stop-color="#f957cf"/></linearGradient><linearGradient id="h" x1="58.87" y1="71.11" x2="72.87" y2="71.11" xlink:href="#g"/><linearGradient id="i" x1="100.88" y1="77.11" x2="114.88" y2="77.11" xlink:href="#g"/><linearGradient id="j" x1="30.87" y1="101.12" x2="44.87" y2="101.12" xlink:href="#g"/><linearGradient id="k" x1="12.87" y1="51.11" x2="26.87" y2="51.11" xlink:href="#g"/><linearGradient id="l" x1="64.62" y1="18.45" x2="78.62" y2="18.45" xlink:href="#g"/><linearGradient id="m" x1="177.14" y1="169.86" x2="177.41" y2="169.87" gradientTransform="matrix(9.32, 0, 0, -9.32, 1586.44, 1443.15)" gradientUnits="userSpaceOnUse"><stop offset="0" stop-color="#fd7ce9"/><stop offset="1" stop-color="#f632b6"/></linearGradient><linearGradient id="n" x1="186.58" y1="167.07" x2="186.85" y2="167.08" xlink:href="#m"/><linearGradient id="o" x1="182.08" y1="167.71" x2="182.35" y2="167.73" xlink:href="#m"/><linearGradient id="p" x1="182.69" y1="173.36" x2="182.96" y2="173.38" xlink:href="#m"/><linearGradient id="q" x1="179.07" y1="164.49" x2="179.34" y2="164.51" xlink:href="#m"/><linearGradient id="r" x1="184.36" y1="170.51" x2="184.63" y2="170.52" xlink:href="#m"/></defs><title>ic_letexchange</title><path d="M5.91,64A57.57,57.57,0,0,1,21.6,24.3l3.36,4,5.69-15.48L14.4,15.67l3.39,4.07A64,64,0,0,0,4.84,88.46a3,3,0,0,0,2.73,1.82,2.82,2.82,0,0,0,1.13-.23,3,3,0,0,0,1.6-3.85A57.64,57.64,0,0,1,5.91,64Z" fill="url(#a)"/><path d="M64,122.09A57.67,57.67,0,0,1,17.46,98.78a3,3,0,1,0-4.73,3.53A63.49,63.49,0,0,0,64,128a3,3,0,0,0,0-5.91Z" fill="url(#b)"/><path d="M128,64a64,64,0,0,0-22.25-48.51A3,3,0,1,0,101.89,20a58.08,58.08,0,0,1,4.51,83.73l-3.36-4-5.69,15.48,16.25-2.81-3.39-4.07A63.45,63.45,0,0,0,128,64Z" fill="url(#c)"/><path d="M91.49,6.19A63.37,63.37,0,0,0,64,0a3,3,0,1,0,0,5.91,57.65,57.65,0,0,1,25,5.61,2.87,2.87,0,0,0,1.27.29,3,3,0,0,0,1.27-5.62Z" fill="url(#d)"/><circle cx="64" cy="64" r="48" fill="url(#e)"/><circle cx="64" cy="64" r="34" fill="url(#f)"/><path d="M62.68,73.43,32,73.38a6.74,6.74,0,0,0,0-13.47H51.62a6.74,6.74,0,1,0,0-13.47h-9.8a6.74,6.74,0,1,0,0-13.47H27.41a48.19,48.19,0,0,0-8,13.47,47.64,47.64,0,0,0-3.15,13.47C16.09,61.26,16,62.62,16,64a48.28,48.28,0,0,0,.93,9.38v.05A47.65,47.65,0,0,0,21.8,86.9H62.68a6.74,6.74,0,1,0,0-13.47Z" fill="#003eca"/><path d="M111.79,59.94a47.47,47.47,0,0,0-3.14-13.47H83.07a6.74,6.74,0,0,0,0,13.47H95.68a6.74,6.74,0,1,0,0,13.47h15.39A48.67,48.67,0,0,0,112,64C112,62.63,111.91,61.28,111.79,59.94Z" fill="#003eca"/><path d="M78.79,93.63a6.73,6.73,0,0,0,6.73,6.74h9.75A48.31,48.31,0,0,0,106.2,86.9H85.52A6.73,6.73,0,0,0,78.79,93.63Z" fill="#003eca"/><circle cx="87.19" cy="45.07" r="7" fill="url(#g)"/><circle cx="65.87" cy="71.11" r="7" fill="url(#h)"/><circle cx="107.88" cy="77.11" r="7" fill="url(#i)"/><circle cx="37.87" cy="101.12" r="7" fill="url(#j)"/><circle cx="19.87" cy="51.11" r="7" fill="url(#k)"/><circle cx="71.62" cy="18.45" r="7" fill="url(#l)"/><circle cx="19.87" cy="51.11" r="4.66" fill="url(#m)"/><path d="M19.87,52.6,18,51.51l1.84,2.6,1.84-2.6Z" fill="#fff"/><path d="M21.71,51.17l-1.84-3.06L18,51.17l1.84,1.08Z" fill="#fff"/><circle cx="107.88" cy="77.11" r="4.66" fill="url(#n)"/><path d="M107.88,78.6,106,77.52l1.84,2.59,1.84-2.59Z" fill="#fff"/><path d="M109.72,77.17l-1.84-3.06L106,77.17l1.84,1.09Z" fill="#fff"/><circle cx="65.87" cy="71.11" r="4.66" fill="url(#o)"/><path d="M67.46,70.15l-.24.14-.36.21L69,71.71V69.29Z" fill="#fff"/><path d="M65.87,71.06v3.55L69,72.83Z" fill="#fff"/><path d="M65.87,71.06l-3.08-1.78v3.55Z" fill="#fff"/><path d="M65.55,70.12a.61.61,0,0,1,.64,0l.66.38L69,69.29,66.19,67.7a.61.61,0,0,0-.64,0l-2.76,1.59,2.1,1.21Z" fill="#fff"/><circle cx="71.62" cy="18.45" r="4.66" fill="url(#p)"/><path d="M73.21,17.49l-.23.13-.37.21L74.7,19V16.62Z" fill="#fff"/><path d="M71.62,18.39V22l3.08-1.78Z" fill="#fff"/><path d="M71.62,18.39l-3.08-1.78v3.56Z" fill="#fff"/><path d="M71.3,17.45a.66.66,0,0,1,.64,0l.66.38,2.1-1.21L71.94,15a.66.66,0,0,0-.64,0l-2.76,1.59,2.1,1.21Z" fill="#fff"/><circle cx="37.87" cy="101.12" r="4.66" fill="url(#q)"/><path d="M40.61,100.4c.12-.77-.46-1.18-1.27-1.46l.26-1L39,97.75l-.25,1-.51-.12.26-1-.64-.15-.26,1-.4-.09h0l-.87-.22-.17.68.47.11a.34.34,0,0,1,.29.37l-.29,1.19.06,0-.07,0-.41,1.66a.23.23,0,0,1-.29.15l-.47-.12-.31.73.82.2.45.12-.26,1,.63.16.26-1,.51.13-.26,1,.63.16.26-1c1.08.2,1.89.11,2.23-.86a1.11,1.11,0,0,0-.48-1.49l-.1,0A1,1,0,0,0,40.61,100.4Zm-1.44,2c-.2.79-1.51.36-2,.26l.35-1.4c.43.11,1.8.32,1.6,1.14Zm.19-2c-.18.71-1.28.34-1.63.26L38,99.38c.36.09,1.51.26,1.32,1Z" fill="#fff"/><circle cx="87.19" cy="45.07" r="4.66" fill="url(#r)"/><path d="M89.94,44.35c.11-.77-.47-1.18-1.27-1.45l.26-1-.63-.16-.26,1-.5-.11.25-1-.63-.16-.26,1-.4-.1h0l-.88-.21-.17.67.47.12a.33.33,0,0,1,.29.37l-.29,1.18.06,0-.06,0-.41,1.66a.24.24,0,0,1-.3.15l-.46-.11-.31.72.82.21.45.11-.26,1.05.63.16.26-1,.5.13-.26,1,.64.16.26-1c1.08.21,1.89.12,2.23-.85a1.1,1.1,0,0,0-.49-1.49l-.09,0A1,1,0,0,0,89.94,44.35Zm-1.45,2c-.19.78-1.51.36-1.94.25l.34-1.39c.43.11,1.81.32,1.6,1.14Zm.2-2c-.18.71-1.28.35-1.64.26l.32-1.26c.35.09,1.5.25,1.32,1Z" fill="#fff"/></svg>