<svg xmlns="http://www.w3.org/2000/svg" xmlns:xlink="http://www.w3.org/1999/xlink" viewBox="0 0 128 128"><defs><linearGradient id="a" x1="8" y1="50" x2="106" y2="50" gradientUnits="userSpaceOnUse"><stop offset="0" stop-color="#007bff"/><stop offset="1" stop-color="#3a69ff"/></linearGradient><linearGradient id="b" x1="22" y1="50" x2="120" y2="50" gradientUnits="userSpaceOnUse"><stop offset="0" stop-color="#7aa4ff"/><stop offset="1" stop-color="#3a69ff"/></linearGradient><linearGradient id="c" x1="42" y1="119" x2="86" y2="119" gradientUnits="userSpaceOnUse"><stop offset="0" stop-color="#005fca"/><stop offset="1" stop-color="#3a57ff"/></linearGradient><linearGradient id="d" x1="24" y1="126" x2="104" y2="126" gradientUnits="userSpaceOnUse"><stop offset="0" stop-color="#003eca"/><stop offset="1" stop-color="#3a69ff"/></linearGradient><linearGradient id="e" x1="64.33" y1="43.73" x2="63.78" y2="62.26" gradientUnits="userSpaceOnUse"><stop offset="0.18" stop-color="#fa69a1"/><stop offset="0.68" stop-color="#fc99a3"/></linearGradient><linearGradient id="f" x1="67.62" y1="68.54" x2="63.26" y2="28.22" gradientUnits="userSpaceOnUse"><stop offset="0" stop-color="#fa849e"/><stop offset="1" stop-color="#fc99a3"/></linearGradient><linearGradient id="g" x1="81.94" y1="76.81" x2="83.1" y2="76.81" xlink:href="#a"/><linearGradient id="h" x1="44.89" y1="76.81" x2="46.05" y2="76.81" xlink:href="#a"/><linearGradient id="i" x1="52.62" y1="59.15" x2="64" y2="59.15" xlink:href="#c"/><linearGradient id="j" x1="63.99" y1="59.15" x2="75.38" y2="59.15" xlink:href="#c"/><linearGradient id="k" x1="64" y1="59.42" x2="64" y2="65.55" gradientUnits="userSpaceOnUse"><stop offset="0" stop-color="#7aa4ff"/><stop offset="1" stop-color="#62a4ff"/></linearGradient><linearGradient id="l" x1="27.41" y1="93.23" x2="100.58" y2="93.23" gradientUnits="userSpaceOnUse"><stop offset="0" stop-color="#cf30b1"/><stop offset="1" stop-color="#f957cf"/></linearGradient></defs><title>ic_lettutor</title><path d="M6,0H122a6,6,0,0,1,6,6v94a0,0,0,0,1,0,0H0a0,0,0,0,1,0,0V6A6,6,0,0,1,6,0Z" fill="#7aa4ff"/><path d="M10,8a2,2,0,0,0-2,2V90a2,2,0,0,0,2,2H22L106,8Z" fill="url(#a)"/><path d="M118,8H106L22,92h96a2,2,0,0,0,2-2V10A2,2,0,0,0,118,8Z" fill="url(#b)"/><path d="M0,100H128a0,0,0,0,1,0,0v8a6,6,0,0,1-6,6H6a6,6,0,0,1-6-6v-8A0,0,0,0,1,0,100Z" fill="#003eca"/><rect x="42" y="114" width="44" height="10" fill="url(#c)"/><rect x="24" y="124" width="80" height="4" rx="1" fill="url(#d)"/><path d="M32.13,109a2,2,0,0,1-1.42-3.4,2.07,2.07,0,0,1,2.82,0,2,2,0,0,1-1.4,3.4Z" fill="#5288e8"/><path d="M20.13,107a2,2,0,0,1,2-2h0a2,2,0,0,1,2,2h0a2,2,0,0,1-2,2h0A2,2,0,0,1,20.13,107Z" fill="#5288e8"/><path d="M12.13,109a2,2,0,0,1-1.42-3.4,2.07,2.07,0,0,1,2.82,0,2,2,0,0,1,0,2.82A1.93,1.93,0,0,1,12.13,109Z" fill="#5288e8"/><path d="M84.94,56.76l-8-1.39a6,6,0,0,1-1.53-.47H52.62a6.17,6.17,0,0,1-1.53.47l-8,1.39a9.65,9.65,0,0,0-8,9.5v18.9H92.94V66.26A9.65,9.65,0,0,0,84.94,56.76Z" fill="#003eca"/><path d="M57.06,47.38l-.81,3.21a6.43,6.43,0,0,1-3.63,4.31L64,59.45,75.38,54.9a6.43,6.43,0,0,1-3.63-4.31l-.81-3.21Z" fill="url(#e)"/><path d="M77.74,35c0,9.25-6.15,16.74-13.74,16.74S50.26,44.24,50.26,35,56.41,20.87,64,20.87,77.74,25.75,77.74,35Z" fill="url(#f)"/><path d="M62.33,18c-6.19,0-11.84,5.33-12.89,10.22-1,4.4.36,5.18-.55,8,3.15,1.21,11.35.63,14.71-2.18s4.72-6.54,5.41-6.36,4.34,9.37,10.3,7.72C79.89,18,68.73,18,62.33,18Z" fill="#003eca"/><path d="M82.52,68.72a.58.58,0,0,0-.58.58v15a.58.58,0,0,0,1.16,0v-15A.58.58,0,0,0,82.52,68.72Z" fill="url(#g)"/><path d="M45.47,68.72a.58.58,0,0,0-.58.58v15a.58.58,0,0,0,1.16,0v-15A.58.58,0,0,0,45.47,68.72Z" fill="url(#h)"/><polygon points="64 59.45 55.47 63.39 52.62 54.9 64 59.45" fill="url(#i)"/><polygon points="63.99 59.45 72.55 63.4 75.38 54.9 63.99 59.45" fill="url(#j)"/><polygon points="66.7 65.78 68.11 61.35 64 59.45 59.89 61.35 61.29 65.78 66.7 65.78" fill="url(#k)"/><polygon points="70.84 86.86 66.7 65.78 61.29 65.78 57.16 86.86 70.84 86.86" fill="#7aa4ff"/><path d="M58.2,91.49h0a7.25,7.25,0,0,1,11.58,0H98.72l-2-5.48S79.5,74.72,64,85c-15.51-10.25-32.78,1-32.78,1l-1.95,5.48Z" fill="#fff"/><path d="M58.2,91.49h0a8.84,8.84,0,0,1,11.58,0H98.72L97.25,87.4S79.5,79,64,86.62c-15.51-7.66-33.26.78-33.26.78l-1.47,4.09Z" fill="#c4bdff" opacity="0.3"/><path d="M58.2,91.49h0a13.09,13.09,0,0,1,11.58,0H98.72l-.91-2.56S79.5,83.66,64,88.44c-15.51-4.78-33.83.49-33.83.49l-.9,2.56Z" fill="#fdaeff" opacity="0.5"/><path d="M99.88,90.8H69.78a.69.69,0,0,0-.69.69,2.78,2.78,0,0,1-2.78,2.78H61.68a2.77,2.77,0,0,1-2.78-2.71v-.07a.69.69,0,0,0-.7-.69H28.1a.7.7,0,0,0,0,1.39H57.57a4.16,4.16,0,0,0,4.11,3.47h4.63a4.17,4.17,0,0,0,4.11-3.47H99.88a.7.7,0,1,0,0-1.39Z" fill="url(#l)"/><path d="M87.8,47.47h-3v-3a1,1,0,1,0-2,0v3h-3a1,1,0,1,0,0,2h3v3a1,1,0,0,0,2,0v-3h3a1,1,0,0,0,0-2Z" fill="#c4bdff"/><path d="M72.09,4.51h-3v-3a1,1,0,0,0-2,0v3h-3a1,1,0,0,0,0,2h3v3a1,1,0,1,0,2,0v-3h3a1,1,0,0,0,0-2Z" fill="#a4c9ff"/><path d="M46.39,46.11h-3v-3a1,1,0,0,0-2,0v3h-3a1,1,0,0,0,0,2h3v3a1,1,0,0,0,2,0v-3h3a1,1,0,0,0,0-2Z" fill="#a4c9ff"/><path d="M37.85,23.23a1,1,0,0,0,0-2h-3v-3a1,1,0,1,0-2,0v3h-3a1,1,0,0,0,0,2h3v3a1,1,0,0,0,2,0v-3Z" fill="#ffb8fc"/><path d="M121.53,4.26V31.75a1.14,1.14,0,0,1-1.14,1.14h-24L84.73,39.77V32.89H79.16A1.15,1.15,0,0,1,78,31.75V4.26a1.15,1.15,0,0,1,1.15-1.14h41.23A1.14,1.14,0,0,1,121.53,4.26Z" fill="#dce9fd"/><rect x="81.79" y="10.01" width="13.15" height="2" rx="0.5" fill="#fdaeff"/><rect x="98.34" y="10.01" width="19.45" height="2" rx="0.5" fill="#fdaeff"/><rect x="81.79" y="24.01" width="9.92" height="2" rx="0.5" fill="#a4c9ff"/><rect x="95.11" y="24.01" width="22.68" height="2" rx="0.5" fill="#a4c9ff"/><rect x="103.99" y="17.01" width="13.79" height="2" rx="0.5" fill="#c4bdff"/><rect x="81.77" y="17.01" width="18.82" height="2" rx="0.5" fill="#c4bdff"/></svg>