<svg xmlns="http://www.w3.org/2000/svg" xmlns:xlink="http://www.w3.org/1999/xlink" viewBox="0 0 128 128"><defs><linearGradient id="a" x1="0.49" y1="49.11" x2="89.27" y2="49.11" gradientUnits="userSpaceOnUse"><stop offset="0" stop-color="#003eca"/><stop offset="1" stop-color="#3a69ff"/></linearGradient><linearGradient id="b" x1="11.14" y1="44.88" x2="78.61" y2="44.88" gradientUnits="userSpaceOnUse"><stop offset="0" stop-color="#007bff"/><stop offset="0.22" stop-color="#1874ff"/><stop offset="0.47" stop-color="#2b6eff"/><stop offset="0.73" stop-color="#366aff"/><stop offset="1" stop-color="#3a69ff"/></linearGradient><linearGradient id="c" x1="27.55" y1="125.13" x2="62.21" y2="125.13" gradientUnits="userSpaceOnUse"><stop offset="0" stop-color="#f290c8"/><stop offset="1" stop-color="#ffa4d1"/></linearGradient><linearGradient id="d" x1="44.88" y1="125.13" x2="62.21" y2="125.13" gradientUnits="userSpaceOnUse"><stop offset="0" stop-color="#f957cf"/><stop offset="1" stop-color="#f957cf"/></linearGradient><linearGradient id="e" x1="44.88" y1="101.53" x2="68.95" y2="101.53" xlink:href="#d"/><linearGradient id="f" x1="20.81" y1="101.53" x2="68.95" y2="101.53" xlink:href="#c"/><linearGradient id="g" x1="20.81" y1="107.31" x2="68.95" y2="107.31" xlink:href="#c"/><linearGradient id="h" x1="44.88" y1="107.31" x2="68.95" y2="107.31" xlink:href="#d"/><linearGradient id="i" x1="20.81" y1="113.09" x2="68.95" y2="113.09" xlink:href="#c"/><linearGradient id="j" x1="44.88" y1="113.09" x2="68.95" y2="113.09" xlink:href="#d"/><linearGradient id="k" x1="20.81" y1="118.87" x2="68.95" y2="118.87" xlink:href="#c"/><linearGradient id="l" x1="44.88" y1="118.87" x2="68.95" y2="118.87" xlink:href="#d"/></defs><title>ic_letstarter</title><path d="M89.27,44.88a44.39,44.39,0,1,0-75.12,32,24.86,24.86,0,0,1,7.47,18v.92a2,2,0,0,0,2,2H66.15a2,2,0,0,0,2-2v-1.4a23.75,23.75,0,0,1,7.25-17.29A44.16,44.16,0,0,0,89.27,44.88Z" fill="url(#a)"/><path d="M44.07,11.13A33.75,33.75,0,1,1,11.15,45.69,33.75,33.75,0,0,1,44.07,11.13Z" fill="url(#b)"/><circle cx="83.1" cy="44.94" r="44.41" fill="#fce56e"/><path d="M95.27,37.54l-1.81,1.05-2.87,1.65,16.28,9.4V30.84Z" fill="#d7640b"/><path d="M82.93,44.58V72.23l23.94-13.82Z" fill="#e67b28"/><path d="M82.93,44.59,59,30.76V58.41Z" fill="#ffc62c"/><path d="M80.44,37.28a5,5,0,0,1,5,0l5.15,3,16.3-9.42L85.42,18.46a5,5,0,0,0-5,0L59,30.84,75.3,40.26Z" fill="#ffa414"/><g opacity="0.6"><path d="M83.07,84.09c-22.14,0-40.15-17.57-40.15-39.15S60.93,5.8,83.07,5.8s40.16,17.56,40.16,39.14S105.21,84.09,83.07,84.09Zm0-75.49c-20.59,0-37.34,16.31-37.34,36.34S62.48,81.28,83.07,81.28,120.42,65,120.42,44.94,103.67,8.6,83.07,8.6Z" fill="#ffa414"/></g><path d="M63.73,37.5h-33V35.27L24.3,39l6.43,3.71V40.47h33a1.49,1.49,0,0,0,0-3Z" fill="#fdf0f8"/><path d="M67.08,50.9l-6.42-3.71v2.22H35.8a11.35,11.35,0,0,0-8.9,4.28,11.23,11.23,0,0,0-2.23,9.5,65.13,65.13,0,0,0,2,7.23c2.34,6.73,3.62,15.63,3.62,25v2.28h3V95.47c0-9.74-1.35-19-3.79-26a61.8,61.8,0,0,1-1.93-6.89,8.26,8.26,0,0,1,1.64-7,8.39,8.39,0,0,1,6.58-3.16H60.66v2.22Z" fill="#fff"/><path d="M32.36,127.53H44.88v-4.81H27.55A4.81,4.81,0,0,0,32.36,127.53Z" fill="url(#c)"/><path d="M57.39,127.53a4.81,4.81,0,0,0,4.82-4.81H44.88v4.81Z" fill="url(#d)"/><path d="M69,101.53A1.93,1.93,0,0,0,67,99.6H44.88v3.85H67A1.93,1.93,0,0,0,69,101.53Z" fill="url(#e)"/><path d="M22.74,99.6a1.93,1.93,0,1,0,0,3.85H44.88V99.6Z" fill="url(#f)"/><path d="M22.74,105.38a1.93,1.93,0,1,0,0,3.85H44.88v-3.85Z" fill="url(#g)"/><path d="M69,107.31A1.93,1.93,0,0,0,67,105.38H44.88v3.85H67A1.93,1.93,0,0,0,69,107.31Z" fill="url(#h)"/><path d="M20.81,113.09A1.92,1.92,0,0,0,22.74,115H44.88v-3.85H22.74A1.92,1.92,0,0,0,20.81,113.09Z" fill="url(#i)"/><path d="M67,115a1.93,1.93,0,1,0,0-3.85H44.88V115Z" fill="url(#j)"/><path d="M20.81,118.87a1.92,1.92,0,0,0,1.93,1.92H44.88v-3.85H22.74A1.92,1.92,0,0,0,20.81,118.87Z" fill="url(#k)"/><path d="M67,120.79a1.93,1.93,0,1,0,0-3.85H44.88v3.85Z" fill="url(#l)"/><path d="M119.56,91.6h-3v-3a1,1,0,1,0-2,0v3h-3a1,1,0,1,0,0,2h3v3a1,1,0,0,0,2,0v-3h3a1,1,0,0,0,0-2Z" fill="#c4bdff"/><path d="M107.65,117.42h-3v-3a1,1,0,0,0-2,0v3h-3a1,1,0,0,0,0,2h3v3a1,1,0,0,0,2,0v-3h3a1,1,0,0,0,0-2Z" fill="#a4c9ff"/><path d="M89.78,101.53h-3v-3a1,1,0,1,0-2,0v3h-3a1,1,0,0,0,0,2h3v3a1,1,0,0,0,2,0v-3h3a1,1,0,1,0,0-2Z" fill="#ffb8fc"/></svg>