<svg xmlns="http://www.w3.org/2000/svg" xmlns:xlink="http://www.w3.org/1999/xlink" viewBox="0 0 96 96"><defs><clipPath id="a"><rect x="16.5" y="16.5" width="63" height="63" fill="none"/></clipPath></defs><title>ic_lsy_letstudy_community_medium</title><rect width="96" height="96" rx="30" fill="#fff"/><g clip-path="url(#a)"><path d="M26.83,34.87a2.11,2.11,0,0,0-.7-1.8L21,26.87v-.93H37L49.33,53,60.2,25.94H75.44v.93L71,31.09a1.28,1.28,0,0,0-.49,1.23v31A1.28,1.28,0,0,0,71,64.57l4.3,4.22v.93H53.71v-.93l4.45-4.32c.44-.44.44-.57.44-1.24V38.17L46.22,69.62H44.54L30.13,38.17V59.25a2.92,2.92,0,0,0,.79,2.42l5.8,7v.93H20.29v-.93l5.8-7a2.83,2.83,0,0,0,.75-2.42Z" fill="#1f5abc"/></g></svg>