<svg xmlns="http://www.w3.org/2000/svg" xmlns:xlink="http://www.w3.org/1999/xlink" viewBox="0 0 128 128"><defs><linearGradient id="a" x1="72.35" y1="12.54" x2="139.64" y2="101.36" gradientUnits="userSpaceOnUse"><stop offset="0" stop-color="#7aa4ff"/><stop offset="1" stop-color="#3a69ff"/></linearGradient><linearGradient id="b" x1="42" y1="118" x2="86" y2="118" gradientUnits="userSpaceOnUse"><stop offset="0" stop-color="#005fca"/><stop offset="1" stop-color="#3a57ff"/></linearGradient><linearGradient id="c" x1="24" y1="126" x2="104" y2="126" gradientUnits="userSpaceOnUse"><stop offset="0" stop-color="#003eca"/><stop offset="1" stop-color="#3a69ff"/></linearGradient><linearGradient id="d" x1="14.08" y1="21.25" x2="185.17" y2="157.47" gradientUnits="userSpaceOnUse"><stop offset="0" stop-color="#007bff"/><stop offset="1" stop-color="#3a69ff"/></linearGradient><linearGradient id="e" x1="33.51" y1="-3.16" x2="204.6" y2="133.06" xlink:href="#d"/><linearGradient id="f" x1="29.34" y1="19.65" x2="83.83" y2="60.87" gradientUnits="userSpaceOnUse"><stop offset="0" stop-color="#f957cf"/><stop offset="1" stop-color="#f957cf"/></linearGradient><linearGradient id="g" x1="70.32" y1="28.66" x2="19.47" y2="35.56" gradientUnits="userSpaceOnUse"><stop offset="0" stop-color="#fd7ce9"/><stop offset="1" stop-color="#f632b6"/></linearGradient><linearGradient id="h" x1="99.75" y1="44.8" x2="110.8" y2="44.8" gradientUnits="userSpaceOnUse"><stop offset="0" stop-color="#66bb6a"/><stop offset="1" stop-color="#a4d5a6"/></linearGradient><linearGradient id="i" x1="88.69" y1="44.8" x2="99.75" y2="44.8" xlink:href="#h"/><linearGradient id="j" x1="77.63" y1="23.46" x2="121.86" y2="23.46" gradientUnits="userSpaceOnUse"><stop offset="0" stop-color="#4cae4e"/><stop offset="1" stop-color="#43b943"/></linearGradient><linearGradient id="k" x1="130.18" y1="22.54" x2="85.23" y2="23.9" gradientUnits="userSpaceOnUse"><stop offset="0.35" stop-color="#4cae4e"/><stop offset="1" stop-color="#43b943"/></linearGradient></defs><title>ic_letlearn</title><path d="M81.35,9.76H124a4,4,0,0,1,4,4V98a0,0,0,0,1,0,0H81.35a0,0,0,0,1,0,0V9.76A0,0,0,0,1,81.35,9.76Z" fill="url(#a)"/><path d="M4,9.76H81.35a0,0,0,0,1,0,0V98a0,0,0,0,1,0,0H0a0,0,0,0,1,0,0V13.76A4,4,0,0,1,4,9.76Z" fill="#7aa4ff"/><rect x="42" y="112" width="44" height="11.99" fill="url(#b)"/><path d="M124,112H4a4,4,0,0,1-4-4V98H128v10A4,4,0,0,1,124,112Z" fill="#003eca"/><path d="M102,128H26a2,2,0,0,1,0-4h76a2,2,0,0,1,0,4Z" fill="url(#c)"/><path d="M81.35,8.59A8.56,8.56,0,0,0,72.8,0H12a2,2,0,0,0-2,2V87.41a2,2,0,0,0,2,2H72.8A8.56,8.56,0,0,1,81.35,98Z" fill="url(#d)"/><path d="M81.35,8.59A8.54,8.54,0,0,1,89.86,0H116a2,2,0,0,1,2,2V87.41a2,2,0,0,1-2,2H89.86A8.54,8.54,0,0,0,81.35,98Z" fill="url(#e)"/><circle cx="45.67" cy="32" r="22" fill="url(#f)"/><circle cx="45.67" cy="32" r="17" fill="url(#g)"/><polygon points="40.77 20.76 40.77 43.25 54.77 32 40.77 20.76" fill="#fff"/><path d="M69.67,71h-20a1,1,0,0,1,0-2h20a1,1,0,1,1,0,2Z" fill="#fff"/><path d="M43.67,71h-22a1,1,0,0,1,0-2h22a1,1,0,0,1,0,2Z" fill="#fff"/><path d="M69.67,63h-26a1,1,0,0,1,0-2h26a1,1,0,1,1,0,2Z" fill="#fff"/><path d="M37.67,63h-16a1,1,0,0,1,0-2h16a1,1,0,0,1,0,2Z" fill="#fff"/><path d="M53.67,79h-16a1,1,0,0,1,0-2h16a1,1,0,0,1,0,2Z" fill="#fff"/><path d="M31.67,79h-10a1,1,0,0,1,0-2h10a1,1,0,0,1,0,2Z" fill="#fff"/><path d="M99.75,27.15V57.86l10.19,4.53a.61.61,0,0,0,.86-.56V27.15Z" fill="url(#h)"/><path d="M88.69,27.15V61.83a.61.61,0,0,0,.86.56l10.2-4.53V27.15Z" fill="url(#i)"/><path d="M100.78,3.62l2-1.87a1.54,1.54,0,0,1,2.43.48l1.15,2.51a1.52,1.52,0,0,0,1.91.79l2.59-1A1.52,1.52,0,0,1,112.93,6L113,8.7a1.53,1.53,0,0,0,1.46,1.47l2.76.1a1.53,1.53,0,0,1,1.37,2.06l-1,2.58a1.54,1.54,0,0,0,.8,1.92L121,18a1.52,1.52,0,0,1,.48,2.42l-1.87,2a1.54,1.54,0,0,0,0,2.08l1.87,2a1.52,1.52,0,0,1-.48,2.42l-2.5,1.15a1.54,1.54,0,0,0-.8,1.92l1,2.58a1.53,1.53,0,0,1-1.37,2.06l-2.76.1A1.53,1.53,0,0,0,113,38.22L112.93,41a1.52,1.52,0,0,1-2.05,1.37l-2.59-1a1.52,1.52,0,0,0-1.91.79l-1.15,2.5a1.53,1.53,0,0,1-2.43.49l-2-1.87a1.5,1.5,0,0,0-2.07,0l-2,1.87a1.53,1.53,0,0,1-2.43-.49l-1.15-2.5a1.52,1.52,0,0,0-1.91-.79l-2.59,1a1.52,1.52,0,0,1-2-1.37l-.11-2.75A1.53,1.53,0,0,0,85,36.75l-2.76-.1a1.53,1.53,0,0,1-1.37-2.06l1-2.58a1.54,1.54,0,0,0-.8-1.92l-2.5-1.15A1.52,1.52,0,0,1,78,26.52l1.87-2a1.54,1.54,0,0,0,0-2.08L78,20.4A1.52,1.52,0,0,1,78.52,18L81,16.83a1.54,1.54,0,0,0,.8-1.92l-1-2.58a1.53,1.53,0,0,1,1.37-2.06l2.76-.1A1.53,1.53,0,0,0,86.45,8.7L86.56,6a1.52,1.52,0,0,1,2-1.37l2.59,1a1.52,1.52,0,0,0,1.91-.79l1.15-2.51a1.54,1.54,0,0,1,2.43-.48l2,1.87A1.5,1.5,0,0,0,100.78,3.62Z" fill="url(#j)"/><circle cx="99.75" cy="23.46" r="14.13" fill="url(#k)"/><path d="M109,20.27l-2.74-2.74a.89.89,0,0,0-1.26,0l-6.7,6.7a.89.89,0,0,1-1.25,0l-2.58-2.58a.91.91,0,0,0-1.26,0l-2.74,2.74a.89.89,0,0,0,0,1.26l6.58,6.57a.88.88,0,0,0,1.25,0L109,21.52A.89.89,0,0,0,109,20.27Z" fill="#fff"/></svg>