<svg xmlns="http://www.w3.org/2000/svg" xmlns:xlink="http://www.w3.org/1999/xlink" viewBox="0 0 170 170"><defs><clipPath id="a"><path d="M85,0A84.94,84.94,0,1,1,50.56,7.27Q54.21,5.65,58,4.37c.14-.54.22-3.06,1.81-3.43C61,.6,63.36,2.1,64.08,2.59A85.33,85.33,0,0,1,85,0Z" fill="none"/></clipPath></defs><title>ic_lettutor_schedule</title><circle cx="85" cy="85" r="85" fill="#eff4ff"/><path d="M89.3,137.31l14.34,2.6c2.4.43,2.91,2.26.87,3.1l-12.23,5c-.81.33-1.29.87-1.27,1.45l.24,8.66c0,1.45-2.82,2.29-4.84,1.41l-12-5.2a5,5,0,0,0-2.79-.26l-14.2,2.76c-2.38.46-4.65-.85-3.85-2.23l4.77-8.2a1.2,1.2,0,0,0-.45-1.61l-9-7c-1.51-1.17-.06-2.82,2.45-2.8l15,.14a4.06,4.06,0,0,0,2.51-.73l8.63-7.06c1.44-1.18,4.62-.89,5.37.5l4.5,8.28A2.8,2.8,0,0,0,89.3,137.31Z" fill="#d1ebff"/><path d="M103.08,140.69v-4.15l-7.37,1.77-8-1.45a2.65,2.65,0,0,1-1.87-1.08L81.6,128c-.71-1.3-3.68-1.58-5-.47l-8.07,6.6a3.84,3.84,0,0,1-2.35.69l-14-.13H52l-2.85-2.85v4.34l.06,0a1.22,1.22,0,0,0,.57,1.09l8.43,6.51a1.12,1.12,0,0,1,.42,1.51l-2.52,4.31-2.07-.34v4a.9.9,0,0,0,0,.4v.08h0c.28.93,2,1.62,3.71,1.28l13.28-2.58a4.65,4.65,0,0,1,2.61.24L85,157.63c1.89.82,4.56,0,4.52-1.32l-.22-8.1c0-.54.43-1.05,1.19-1.36l11.44-4.66C102.81,141.82,103.18,141.24,103.08,140.69Z" fill="#d1ebff"/><path d="M86.67,158.44h0a4.81,4.81,0,0,1-1.88-.37L73.51,153.2a4.21,4.21,0,0,0-2.33-.21L57.9,155.57c-1.81.35-3.75-.35-4.21-1.48a.41.41,0,0,1-.09-.26,1.56,1.56,0,0,1,0-.57v-3.93a.51.51,0,0,1,.16-.37.5.5,0,0,1,.39-.1l1.75.28,2.36-4c.21-.38,0-.69-.3-.89l-8.44-6.51a1.78,1.78,0,0,1-.75-1.31.34.34,0,0,1-.05-.19v-4.33a.47.47,0,0,1,.81-.34l2.7,2.7,13.92.13h0a3.29,3.29,0,0,0,2-.58l8.07-6.6a4.18,4.18,0,0,1,2.6-.8,3.55,3.55,0,0,1,3.15,1.4l4.21,7.75a2.21,2.21,0,0,0,1.54.84l7.93,1.44,7.27-1.75a.51.51,0,0,1,.41.09.49.49,0,0,1,.18.38v4.14c.14.75-.4,1.5-1.47,1.94l-11.43,4.66c-.57.23-.9.57-.9.9l.22,8.11a1.61,1.61,0,0,1-.48,1.17A4.09,4.09,0,0,1,86.67,158.44ZM72,152a5,5,0,0,1,1.9.36l11.27,4.87a3.91,3.91,0,0,0,1.51.3h0a3.16,3.16,0,0,0,2.13-.69.64.64,0,0,0,.22-.48l-.22-8.11a2,2,0,0,1,1.49-1.81l11.43-4.65c.62-.26,1-.62.88-1v-3.62l-6.78,1.62a.5.5,0,0,1-.21,0l-8-1.46a3,3,0,0,1-2.2-1.32l-4.21-7.75a2.75,2.75,0,0,0-2.32-.9,3.15,3.15,0,0,0-2,.58l-8.07,6.6a4.18,4.18,0,0,1-2.6.8L52.1,135.2a.7.7,0,0,1-.41-.14l-2-2v3a.41.41,0,0,1,.06.24.8.8,0,0,0,.38.66l8.43,6.51a1.6,1.6,0,0,1,.55,2.12l-2.52,4.32a.48.48,0,0,1-.49.23l-1.52-.25v3.47a.88.88,0,0,0,0,.28s0,0,0,0c.15.5,1.09,1,2.34,1a3.89,3.89,0,0,0,.83-.08L71,152.05a5.44,5.44,0,0,1,1-.09Z" fill="#03336e"/><path d="M87.67,132.57,101.09,135c2.25.41,2.73,2.13.81,2.9l-11.43,4.66c-.76.31-1.21.82-1.19,1.36l.22,8.1c0,1.36-2.64,2.14-4.52,1.32L73.7,148.48a4.57,4.57,0,0,0-2.61-.24l-13.28,2.57c-2.23.43-4.36-.8-3.61-2.08l4.47-7.67a1.12,1.12,0,0,0-.42-1.5l-8.44-6.51c-1.41-1.09-.05-2.64,2.3-2.62l14,.13a3.75,3.75,0,0,0,2.35-.69l8.07-6.6c1.35-1.1,4.32-.83,5,.47l4.21,7.75A2.61,2.61,0,0,0,87.67,132.57Z" fill="#0fbab8"/><path d="M86.67,154.16a4.81,4.81,0,0,1-1.88-.37l-11.28-4.87a4.21,4.21,0,0,0-2.33-.21L57.9,151.29c-1.68.32-3.53-.26-4.12-1.29a1.44,1.44,0,0,1,0-1.5l4.47-7.67c.22-.38,0-.69-.3-.89l-8.43-6.51a1.6,1.6,0,0,1-.68-1.82c.33-1,1.62-1.65,3.21-1.65l14.1.13h0a3.31,3.31,0,0,0,2-.58l8.07-6.6a4.15,4.15,0,0,1,2.59-.8A3.52,3.52,0,0,1,82,123.52l4.21,7.75a2.23,2.23,0,0,0,1.54.84l13.42,2.43c1.38.24,2.29,1,2.39,1.9.08.78-.48,1.5-1.48,1.91L90.65,143c-.56.23-.9.57-.9.9L90,152a1.66,1.66,0,0,1-.49,1.17A4.09,4.09,0,0,1,86.67,154.16ZM72,147.68a4.89,4.89,0,0,1,1.89.36l11.28,4.87a3.87,3.87,0,0,0,3.64-.39A.64.64,0,0,0,89,152l-.22-8.1a2,2,0,0,1,1.48-1.81l11.44-4.66c.6-.24.93-.59.89-.94s-.56-.86-1.61-1.05l-13.42-2.43a3.07,3.07,0,0,1-2.2-1.32L81.17,124a2.73,2.73,0,0,0-2.32-.91,3.21,3.21,0,0,0-2,.58l-8.07,6.6a4.18,4.18,0,0,1-2.6.8l-14.09-.13h0c-1.33,0-2.2.51-2.36,1-.08.25,0,.51.37.76l8.43,6.51a1.59,1.59,0,0,1,.54,2.13L54.61,149a.52.52,0,0,0,0,.56,2.73,2.73,0,0,0,2.29.9,4.67,4.67,0,0,0,.83-.08L71,147.78A5.45,5.45,0,0,1,72,147.68Z" fill="#03336e"/><g clip-path="url(#a)"><path d="M140.08,132l25.4-11.49a8.51,8.51,0,0,0-.1-15.09L85.19,62.24l-42.72,19a4,4,0,0,0,.05,7.16L117,132.15A24.11,24.11,0,0,0,140.08,132Z" fill="#d1ebff"/></g><path d="M143.85,49.37,61.22,1.61v0a1.54,1.54,0,0,0-2.35,1L44.94,80.3a3.13,3.13,0,0,0,1.7,3.41v0l83.05,48,15.18-57Z" fill="#fff"/><path d="M131,132a5.66,5.66,0,0,1-2.44-.55L46.17,83.9v0a3.5,3.5,0,0,1-1.6-3.65L58.5,2.57a1.87,1.87,0,0,1,1.09-1.39A1.91,1.91,0,0,1,61,1.11l.45.18,82.81,47.86s.36.22.64,1.24c.09.45.38,24.35.38,24.35v.06S131.69,132,131,132ZM47.1,83.58l82.35,47.54,15-56.45-1-25.07-82-47.41L61,2a1.28,1.28,0,0,0-1.13-.08,1.14,1.14,0,0,0-.65.84L45.31,80.38a2.74,2.74,0,0,0,1.51,3l.3.16Z" fill="#03336e"/><path d="M135.2,65.18l0,.2L59.88,21.08,49.43,79.33l75.37,43.81,10.4-58Z" fill="#d1ebff"/><path d="M141.88,50.57,128,128.24a3.17,3.17,0,0,0,4.7,3.34l22.42-12.94a7.21,7.21,0,0,0,3.4-8L144.9,50.49a1.55,1.55,0,0,0-3,.08Z" fill="#03336e"/><path d="M126.66,79.68l-10-5.85L119,60.67l10,5.85Zm-9.16-6.23,8.6,5,2-11.58-8.6-5Z" fill="#03336e"/><path d="M117.36,74.24l-10-5.85,2.32-13.16,10,5.85ZM108.21,68l8.6,5,2-11.58-8.6-5Z" fill="#03336e"/><path d="M108.07,68.79l-10-5.85,2.31-13.16,10,5.85Zm-9.15-6.23,8.6,5,2-11.59L101,51Z" fill="#03336e"/><path d="M98.78,63.34l-10-5.85,2.32-13.16,10,5.85Zm-9.16-6.23,8.6,5,2-11.58-8.6-5Z" fill="#03336e"/><path d="M89.48,57.9l-10-5.85,2.32-13.16,10,5.85Zm-9.15-6.24,8.6,5,2-11.58-8.6-5Z" fill="#03336e"/><path d="M80.19,52.45l-10-5.85,2.32-13.16,10,5.85ZM71,46.22l8.6,5,2-11.58-8.6-5Z" fill="#03336e"/><path d="M70.9,47l-10-5.85L63.23,28l10,5.85Zm-9.15-6.23,8.59,5,2-11.58-8.6-5Z" fill="#03336e"/><path d="M124.48,92.05l-10-5.85L116.81,73l10,5.85Zm-9.15-6.23,8.59,5,2-11.58-8.6-5Z" fill="#03336e"/><path d="M115.19,86.61l-10-5.85,2.32-13.16,10,5.85ZM106,80.37l8.6,5,2-11.58-8.6-5Z" fill="#03336e"/><path d="M105.89,81.16l-10-5.85,2.32-13.16,10,5.85Zm-9.15-6.23,8.6,5,2-11.58-8.6-5Z" fill="#03336e"/><path d="M96.6,75.71l-10-5.85L88.93,56.7l10,5.85Zm-9.15-6.23,8.6,5,2-11.58-8.59-5Z" fill="#03336e"/><path d="M87.31,70.27l-10-5.85,2.32-13.16,10,5.85ZM78.15,64l8.6,5,2-11.59-8.6-5Z" fill="#03336e"/><path d="M78,64.82,68,59l2.32-13.16,10,5.85Zm-9.15-6.23,8.6,5,2-11.58-8.6-5Z" fill="#03336e"/><path d="M68.72,59.37l-10-5.85,2.32-13.16,10,5.86Zm-9.15-6.23,8.6,5,2-11.58-8.6-5Z" fill="#03336e"/><path d="M122.3,104.42l-10-5.84,2.32-13.16,10,5.85Zm-9.15-6.23,8.6,5,2-11.58-8.6-5Z" fill="#03336e"/><path d="M113,99l-10-5.85L105.34,80l10,5.85Zm-9.16-6.24,8.6,5,2-11.58-8.6-5Z" fill="#03336e"/><path d="M103.71,93.53l-10-5.85,2.32-13.16,10,5.85ZM94.56,87.3l8.6,5,2-11.58-8.6-5.05Z" fill="#03336e"/><path d="M94.42,88.09l-10-5.85,2.32-13.16,10,5.85Zm-9.15-6.24,8.6,5.05,2-11.59-8.6-5Z" fill="#03336e"/><path d="M85.13,82.64l-10-5.85,2.31-13.16,10,5.85ZM76,76.4l8.6,5,2-11.59-8.6-5Z" fill="#03336e"/><path d="M75.84,77.19l-10-5.85,2.32-13.16,10,5.85ZM66.68,71l8.6,5,2-11.58-8.6-5Z" fill="#03336e"/><path d="M66.54,71.75l-10-5.86,2.32-13.15,10,5.85Zm-9.15-6.24,8.6,5L68,59l-8.6-5Z" fill="#03336e"/><path d="M120.12,116.8l-10-5.85,2.32-13.16,10,5.85ZM111,110.56l8.6,5,2-11.59L113,99Z" fill="#03336e"/><path d="M110.83,111.35l-10-5.85,2.31-13.16,10,5.85Zm-9.15-6.24,8.6,5,2-11.59-8.6-5Z" fill="#03336e"/><path d="M101.54,105.9l-10-5.85L93.87,86.9l10,5.84Zm-9.16-6.23,8.6,5,2-11.58-8.6-5Z" fill="#03336e"/><path d="M92.24,100.46l-10-5.86,2.32-13.15,10,5.85Zm-9.15-6.24,8.6,5,2-11.58-8.6-5Z" fill="#03336e"/><path d="M83,95,73,89.16,75.28,76l10,5.85ZM73.8,88.77l8.6,5,2-11.58-8.6-5Z" fill="#03336e"/><path d="M73.66,89.56l-10-5.85L66,70.56,76,76.4Zm-9.15-6.23,8.59,5,2-11.58-8.6-5Z" fill="#03336e"/><path d="M64.37,84.12l-10-5.85L56.7,65.11l10,5.85Zm-9.15-6.24,8.6,5,2-11.58-8.6-5Z" fill="#03336e"/><path d="M75.11,66l0,0-.06,0a.93.93,0,0,0-.83,1.66h0a1.89,1.89,0,0,1,.77,2,3.13,3.13,0,0,1-.53,1.21,2.6,2.6,0,0,1-1,.79,4.05,4.05,0,0,1-2.83-.07,3.47,3.47,0,0,1-2-2,4.57,4.57,0,0,1,0-3,4.24,4.24,0,0,1,.72-1.34,2.75,2.75,0,0,1,1.22-.79,5.32,5.32,0,0,1,3.11,0,4.29,4.29,0,0,1,1.41.68,1.63,1.63,0,0,1,.72,1.19h0a.29.29,0,0,0,.28.28.28.28,0,0,0,.2-.08.27.27,0,0,0,.09-.2,2.23,2.23,0,0,0-.89-1.68,5,5,0,0,0-1.6-.86,6.07,6.07,0,0,0-3.58-.13,3.78,3.78,0,0,0-1.64,1,5.17,5.17,0,0,0-.94,1.62,5.5,5.5,0,0,0-.1,3.67,4.87,4.87,0,0,0,1,1.66,5,5,0,0,0,1.58,1.12,6.39,6.39,0,0,0,1.83.46l.47,0h.08l.26,0h.15a3.62,3.62,0,0,0,.87-.17l.14,0a4.09,4.09,0,0,0,1.7-1.14,4.53,4.53,0,0,0,.94-1.82,4.23,4.23,0,0,0,0-2.12A3.29,3.29,0,0,0,75.11,66Z" fill="#0fbab8"/><path d="M88.85,46.67l-.08-.05a.94.94,0,0,0-1.26.41h0a.94.94,0,0,0,.42,1.26h0a1.85,1.85,0,0,1,.76,2,2.88,2.88,0,0,1-.53,1.2,2.61,2.61,0,0,1-1,.78,4,4,0,0,1-2.81-.07,3.87,3.87,0,0,1-1.21-.78,3.54,3.54,0,0,1-.78-1.21,4.34,4.34,0,0,1-.26-1.47,4.9,4.9,0,0,1,.26-1.52,1.43,1.43,0,0,1,.08-.22l0-.12.05-.1a.9.9,0,0,1,.12-.24l.18-.33.06-.1a1.08,1.08,0,0,1,.16-.2,2.66,2.66,0,0,1,1.21-.79,5.25,5.25,0,0,1,3.09,0,4.33,4.33,0,0,1,1.4.68A1.61,1.61,0,0,1,89.44,47h0a.29.29,0,0,0,.3.29A.31.31,0,0,0,90,47a2.22,2.22,0,0,0-.89-1.69,5.16,5.16,0,0,0-1.6-.86A6.07,6.07,0,0,0,84,44.31a3.41,3.41,0,0,0-1.88,1.27l-.3.47a2.21,2.21,0,0,0-.18.34l-.1.22a2.08,2.08,0,0,0-.12.3,5.57,5.57,0,0,0-.1,3.67,4.87,4.87,0,0,0,1,1.66,5.09,5.09,0,0,0,1.59,1.12l.1,0a7,7,0,0,0,.81.26l.27.06a3.52,3.52,0,0,0,.65.1l.46,0h.08l.27,0h.14a3.62,3.62,0,0,0,.87-.17l.14,0a4.12,4.12,0,0,0,1.7-1.14,4.57,4.57,0,0,0,.94-1.83,4.08,4.08,0,0,0,0-2.11A3.25,3.25,0,0,0,88.85,46.67Z" fill="#0fbab8"/><path d="M111.59,101.4a3.29,3.29,0,0,0-1.38-1.87l-.08,0a.94.94,0,1,0-.84,1.69,1.84,1.84,0,0,1,.75,2,2.88,2.88,0,0,1-.53,1.2,2.61,2.61,0,0,1-1,.78,4,4,0,0,1-2.81-.07,3.87,3.87,0,0,1-1.21-.78,3.7,3.7,0,0,1-.78-1.21,4.34,4.34,0,0,1-.26-1.47,5,5,0,0,1,.26-1.53,1.8,1.8,0,0,1,.08-.21l.06-.12,0-.1a1.15,1.15,0,0,1,.12-.25l.18-.33.07-.1a1,1,0,0,1,.15-.2A2.78,2.78,0,0,1,105.6,98a5.25,5.25,0,0,1,3.09,0,4.05,4.05,0,0,1,1.4.68,1.59,1.59,0,0,1,.71,1.16h0a.3.3,0,0,0,.3.3.29.29,0,0,0,.3-.3,2.15,2.15,0,0,0-.89-1.68,4.68,4.68,0,0,0-1.6-.86,6.07,6.07,0,0,0-3.58-.13,3.72,3.72,0,0,0-1.63,1l-.25.3-.3.47a1.54,1.54,0,0,0-.17.34l-.1.21a1.3,1.3,0,0,0-.13.3,5.53,5.53,0,0,0-.1,3.68,4.57,4.57,0,0,0,2.56,2.77l.09,0a5.92,5.92,0,0,0,.81.27l.28.06a4.63,4.63,0,0,0,.65.1l.47,0h.06l.28,0H108a3.62,3.62,0,0,0,.87-.17l.14,0a4.05,4.05,0,0,0,1.7-1.15,4.68,4.68,0,0,0,1-1.82A4.15,4.15,0,0,0,111.59,101.4Z" fill="#0fbab8"/><path d="M63.67,72.37l-.08-.05A.94.94,0,0,0,62.71,74l0,0a1.83,1.83,0,0,1,.75,2A2.87,2.87,0,0,1,63,77.2,2.64,2.64,0,0,1,62,78a4,4,0,0,1-2.8-.07,3.91,3.91,0,0,1-1.22-.78,3.67,3.67,0,0,1-.77-1.21,4.11,4.11,0,0,1-.26-1.47,4.89,4.89,0,0,1,.25-1.52.85.85,0,0,1,.09-.22.43.43,0,0,1,0-.12l0-.1a1.15,1.15,0,0,1,.12-.25l.18-.32.07-.11c0-.07.1-.13.15-.2a2.84,2.84,0,0,1,1.21-.78,5.28,5.28,0,0,1,3.1,0,4.43,4.43,0,0,1,1.4.68,1.67,1.67,0,0,1,.71,1.17h0a.28.28,0,0,0,.3.29h0a.3.3,0,0,0,.2-.08.29.29,0,0,0,.09-.21A2.19,2.19,0,0,0,64,71a5,5,0,0,0-1.6-.86A6.07,6.07,0,0,0,58.79,70a3.55,3.55,0,0,0-1.62,1,3.31,3.31,0,0,0-.25.3l-.3.48a2.11,2.11,0,0,0-.18.33l-.1.22c-.05.1-.09.2-.13.3a5.5,5.5,0,0,0-.1,3.67,4.63,4.63,0,0,0,1,1.66,4.93,4.93,0,0,0,1.59,1.12l.11,0a5.61,5.61,0,0,0,.79.26l.27.06a2.93,2.93,0,0,0,.66.1l.46,0H61a1.23,1.23,0,0,0,.27,0h.14a3.2,3.2,0,0,0,.87-.17l.14,0a4.09,4.09,0,0,0,1.7-1.14,4.63,4.63,0,0,0,.94-1.83,4.19,4.19,0,0,0,0-2.11A3.29,3.29,0,0,0,63.67,72.37Z" fill="#0fbab8"/><path d="M81.36,22.91a2.1,2.1,0,0,0-.85-1c-.35-.22-.87-.32-.94.2-.18,1.28,2.57,2,2.23,4.5-.22,1.56-1.35,1.67-2.53,1a4.81,4.81,0,0,1-1.8-2l1.07-.66a2.54,2.54,0,0,0,1,1.32c.41.25.9.3,1-.2.17-1.28-2.6-2.21-2.28-4.54.21-1.49,1.37-1.62,2.49-.94a4.23,4.23,0,0,1,1.65,1.78Z" fill="#03336e"/><path d="M86.89,26.38a2.42,2.42,0,0,0-1-1.23c-1-.57-1.78,0-2,1.25a3.32,3.32,0,0,0,1.3,3.22,1,1,0,0,0,1.28,0l.92,1.59a1.83,1.83,0,0,1-2.24,0,5.65,5.65,0,0,1-2.58-5.53c.32-2.24,1.81-2.88,3.6-1.8A4.32,4.32,0,0,1,88,26Z" fill="#03336e"/><path d="M88.94,25.65l1.26.76L89.83,29l2.45,1.48.36-2.6,1.26.76-1,7-1.26-.76.42-3-2.44-1.48-.42,3L88,32.63Z" fill="#03336e"/><path d="M95.11,29.39,99,31.74l-.2,1.42-2.63-1.59L96,32.87l2.48,1.5-.2,1.42-2.48-1.5-.2,1.42,2.77,1.68-.2,1.42-4-2.44Z" fill="#03336e"/><path d="M100.15,32.44,102,33.58a5.5,5.5,0,0,1,2.9,5.56c-.32,2.26-2,2.56-3.69,1.52l-2.06-1.24Zm.49,6.32.65.4c1.18.71,2.13.7,2.35-.89a3.29,3.29,0,0,0-1.68-3.2l-.74-.45Z" fill="#03336e"/><path d="M110.5,43.35c-.22,1.65-1.21,2.37-2.79,1.42a4.29,4.29,0,0,1-2-4.33l.59-4.29,1.26.76L107,41.14a2.3,2.3,0,0,0,.94,2.21c.66.4,1.24,0,1.36-.82l.58-4.23,1.26.76Z" fill="#03336e"/><path d="M112.31,39.8l1.26.76-.77,5.56,2.33,1.41-.2,1.42-3.59-2.17Z" fill="#03336e"/><path d="M116.64,42.42l3.89,2.35-.2,1.42L117.7,44.6l-.18,1.3L120,47.4l-.2,1.42-2.48-1.5-.2,1.42,2.77,1.68-.2,1.42-4-2.44Z" fill="#03336e"/></svg>