<svg xmlns="http://www.w3.org/2000/svg" width="96" height="96" viewBox="0 0 96 96">
  <g id="Group_2600" data-name="Group 2600" transform="translate(-719 -9448)">
    <circle id="Ellipse_436" data-name="Ellipse 436" cx="48" cy="48" r="48" transform="translate(719 9448)" fill="#021136"/>
    <path id="Path_12" data-name="Path 12" d="M-1782.423-24.286h-7.271V-47.657h7.271Zm-3.642-26.56a4.2,4.2,0,0,1-4.2-4.21,4.2,4.2,0,0,1,4.21-4.2,4.2,4.2,0,0,1,4.2,4.21h0A4.207,4.207,0,0,1-1786.065-50.846Zm30.834,26.563h-7.254V-35.638c0-2.7-.054-6.2-3.771-6.2-3.781,0-4.392,2.953-4.392,6.014v11.565h-7.247v-23.4h6.963v3.193h.1a7.66,7.66,0,0,1,6.876-3.771c7.345,0,8.714,4.842,8.714,11.15Z" transform="translate(2541.75 9534.76)" fill="#fff"/>
  </g>
</svg>
