<svg xmlns="http://www.w3.org/2000/svg" xmlns:xlink="http://www.w3.org/1999/xlink" viewBox="0 0 170 170"><defs><clipPath id="a"><circle cx="85" cy="85" r="85" fill="none"/></clipPath></defs><title>ic_lettutor_search</title><circle cx="85" cy="85" r="85" fill="#eff4ff"/><g clip-path="url(#a)"><path d="M87.35,164.33,63,150.67c2.1-1.54,3.33-3.37,3.33-5.34,0-5.44-9.28-9.86-20.74-9.86s-20.75,4.42-20.75,9.86,9.29,9.85,20.75,9.85a41.86,41.86,0,0,0,6.8-.55l26.2,14.71a7.34,7.34,0,0,0,6.6-.27C87.38,168,90,165.86,87.35,164.33Z" fill="#d1ebff"/><path d="M72.86,132.14,62.2,137.89l15.91,29.35h0l0,0c.92,1.71,4.06,1.81,7,.23s4.58-4.27,3.66-6l0,0h0Z" fill="#fff"/><path d="M81.07,169.16h0a3.65,3.65,0,0,1-3.4-1.63l-15.94-29.4a.54.54,0,0,1,.21-.71h0l10.66-5.75a.53.53,0,0,1,.71.21l15.92,29.36c1.1,2-.6,5-3.85,6.73A9.36,9.36,0,0,1,81.07,169.16ZM78.57,167l0,0c.74,1.39,3.74,1.41,6.29,0s4.22-3.83,3.45-5.27L72.65,132.85l-9.74,5.25Z" fill="#03336e"/><path d="M72.87,132.16c.93,1.71-.71,4.39-3.66,6s-6.08,1.48-7-.23.71-4.4,3.66-6S72,130.44,72.87,132.16Z" fill="#03336e"/><path d="M65.15,139.79a3.65,3.65,0,0,1-3.4-1.63c-1.08-2,.62-4.94,3.87-6.69a9.33,9.33,0,0,1,4.32-1.19,3.66,3.66,0,0,1,3.4,1.63c1.08,2-.63,4.94-3.88,6.69A9.32,9.32,0,0,1,65.15,139.79Zm4.78-8.47a8.33,8.33,0,0,0-3.81,1.07c-2.64,1.42-4.22,3.83-3.45,5.27s3.74,1.4,6.3,0,4.22-3.84,3.45-5.27a2.66,2.66,0,0,0-2.49-1.08Z" fill="#03336e"/><path d="M65.88,124.35l-6.35,3.42,4.52,8.37h0v0c.56,1,2.42,1.09,4.18.15s2.72-2.54,2.17-3.56v0h0Z" fill="#0fbab8"/><path d="M65.81,137.5h0a2.39,2.39,0,0,1-2.22-1.09L59.07,128a.52.52,0,0,1,.21-.71h0l6.35-3.42a.53.53,0,0,1,.71.21h0l4.51,8.37c.71,1.32-.34,3.2-2.38,4.3A5.85,5.85,0,0,1,65.81,137.5ZM60.24,128l4.27,7.91a1.4,1.4,0,0,0,1.3.56h0a4.72,4.72,0,0,0,2.17-.61c1.6-.86,2.32-2.19,2-2.85l-4.27-7.93Z" fill="#03336e"/><path d="M48,57.05C40.06,52.48,32.9,52,27.66,54.8c-.15.08-7.67,4.28-7.91,4.64,5.34-4,13.23-4,22,1.13,16.06,9.27,29.08,31.74,29.08,50.17,0,9.41-3.39,15.94-8.84,18.86a6.87,6.87,0,0,0,1.42-.62l5.43-3.29c5-3.09,8.16-9.47,8.16-18.47C77.05,88.78,64,66.32,48,57.05Z" fill="#d1ebff"/><path d="M62,130.12a.52.52,0,0,1-.25-1c5.53-3,8.57-9.49,8.57-18.4C70.36,92.5,57.43,70.2,41.54,61c-4.52-2.6-8.82-3.92-12.8-3.92a14.53,14.53,0,0,0-7,1.7l-1.07.65-.56.41a.53.53,0,0,1-.76-.7c.07-.11.16-.2.75-.58.37-.24.74-.47,1.12-.68,2.27-1.35,6.09-3.48,6.23-3.56a15.68,15.68,0,0,1,7.5-1.81c4.17,0,8.65,1.37,13.32,4.07,16.18,9.34,29.35,32.05,29.35,50.62,0,8.89-3,15.6-8.41,18.92l-5.45,3.3a7.26,7.26,0,0,1-1.54.67A.33.33,0,0,1,62,130.12ZM28.74,56.05c4.16,0,8.64,1.37,13.32,4.06C58.24,69.46,71.4,92.17,71.4,110.74c0,6.58-1.61,11.94-4.64,15.63l1.86-1.13c5.1-3.12,7.9-9.52,7.9-18C76.52,89,63.59,66.68,47.7,57.5c-4.51-2.6-8.82-3.92-12.8-3.92a14.44,14.44,0,0,0-7,1.68l-1.74,1a17.23,17.23,0,0,1,2.58-.19Z" fill="#03336e"/><ellipse cx="41.92" cy="93.86" rx="23.67" ry="41" transform="translate(-41.66 34.02) rotate(-30.33)" fill="#fff"/><path d="M55,131.77c-4.17,0-8.65-1.36-13.32-4.06C25.46,118.37,12.3,95.65,12.3,77.08c0-13,6.34-21.1,16.55-21.1,4.17,0,8.65,1.37,13.32,4.07,16.18,9.34,29.35,32.05,29.35,50.62C71.53,123.69,65.18,131.77,55,131.77ZM28.85,57c-9.56,0-15.5,7.68-15.5,20,0,18.24,12.93,40.54,28.82,49.72,4.51,2.6,8.82,3.92,12.8,3.92,9.56,0,15.5-7.68,15.5-20,0-18.24-12.93-40.54-28.82-49.72C37.14,58.35,32.83,57,28.85,57Z" fill="#03336e"/><path d="M46,115.7C34.4,109,25,92.89,25,79.64c0-5.38,1.56-9.43,4.17-11.93-4.48,1.82-7.33,6.69-7.33,14,0,13.25,9.37,29.4,20.91,36.07,6.86,4,12.93,3.65,16.75,0C55.88,119.25,51.14,118.7,46,115.7Z" fill="#d1ebff"/><path d="M52.35,124.3A21.61,21.61,0,0,1,41.65,121c-13-7.49-23.53-25.7-23.53-40.59,0-10.32,5.24-17,13.34-17a21.61,21.61,0,0,1,10.71,3.27c13,7.49,23.53,25.7,23.53,40.59C65.7,117.63,60.46,124.3,52.35,124.3ZM31.46,64.5c-7.58,0-12.3,6.11-12.3,15.94,0,14.56,10.32,32.36,23,39.68a20.54,20.54,0,0,0,10.18,3.13c7.59,0,12.3-6.11,12.3-15.94,0-14.56-10.32-32.36-23-39.69A20.7,20.7,0,0,0,31.47,64.5Z" fill="#03336e"/></g><circle cx="85" cy="85" r="85" fill="none"/><path d="M117.24,32.8s17.13,4.73,18.71,6.75,15.61,8.07,16.91,16.14.91,27.81.91,30.7c0,6.78-23.14,10.34-41.87-4.14-7.36-5.69-9.45-10.09-9.46-13.87C102.42,50.08,104.4,25,117.24,32.8Z" fill="#d1ebff"/><path d="M117.24,32.8s17.13,4.73,18.71,6.75,15.61,8.07,16.91,16.14.91,27.81.91,30.7c0,6.78-23.14,10.34-41.87-4.14-7.36-5.69-9.45-10.09-9.46-13.87C102.42,50.08,104.4,25,117.24,32.8Z" fill="none" stroke="#03336e" stroke-linejoin="round"/><path d="M117.24,32.8l-.13-5.46L136,28.75s-1.58,8.78,0,10.8c-1.2,3.81-7.23,9.24-15.29,6.36S116.94,32.69,117.24,32.8Z" fill="#fff" stroke="#03336e" stroke-linejoin="round"/><path d="M127.58,2.36c11.08.57,16.32,10.31,12.29,23.12s-14.75,13.49-19.72,12C110.65,34.54,109.46,1.42,127.58,2.36Z" fill="#fff" stroke="#03336e" stroke-linejoin="round"/><path d="M128.54,1.07c10,.86,16.48,8.73,12,22.7-.69,1.58.18-2.14-2.45-1.85-1.06.12-2.5,1.79-2.34,4.16.12,1.87-1.53,2.9-1.83,1.18-.68-3.79-2.36-7.13-4.37-8.06s-2.49,2.5-9.79,1a14.38,14.38,0,0,1-6.13-2.94C110.81,13.17,116.28,0,128.54,1.07Z" fill="#d1ebff" stroke="#03336e" stroke-linejoin="round"/><path d="M129.21,43.46c5.95-3.22,6.09-5.44,6.09-5.44S137,40,137.82,41c0,0-2.28,8-15.32,11.55,0,0-.45-4.17-2.15-6.54C120.35,46,123.26,46.68,129.21,43.46Z" fill="#03336e" stroke="#03336e" stroke-linejoin="round"/><path d="M115.08,31.78c.26.53,1.67,2.94,1.67,2.94,0,5.52,3.6,11.28,3.6,11.28-2.8.16-4.57,4-4.57,4-4.82-8-3-15-2.4-16.08C114.05,32.6,114.64,31.92,115.08,31.78Z" fill="#03336e" stroke="#03336e" stroke-linejoin="round"/><path d="M128.23,150.88,97.54,133.15v3.62l30.69,17.72Z" fill="#d1ebff"/><path d="M128.23,154.94a.46.46,0,0,1-.23-.06L97.31,137.16a.44.44,0,0,1-.22-.39v-3.62a.45.45,0,0,1,.45-.45.43.43,0,0,1,.22.06l30.69,17.72a.45.45,0,0,1,.23.39v3.62a.45.45,0,0,1-.45.45ZM98,136.51l29.79,17.2v-2.58L98,133.93Z" fill="#03336e"/><path d="M139.44,144.33a.58.58,0,0,1-.2.18l-11,6.36v3.62l11-6.36c.29-.17.33-.39.2-.58Z" fill="#d1ebff"/><path d="M128.23,154.94a.46.46,0,0,1-.23-.06.44.44,0,0,1-.22-.39v-3.62a.44.44,0,0,1,.22-.39l11-6.36a.54.54,0,0,1,.53-.2.45.45,0,0,1,.34.41v3.11a.8.8,0,0,1,.06.48.93.93,0,0,1-.48.6l-11,6.36A.43.43,0,0,1,128.23,154.94Zm.45-3.81v2.58l10.34-6h0a.61.61,0,0,1,0-.18v-2.39Z" fill="#03336e"/><path d="M147.71,139.62c-.56.32-1.51.1-1.59-.35a3.86,3.86,0,0,0-2.3-2.58,11.32,11.32,0,0,0-9-.05c-2,1-2.7,2.46-2.2,3.81a2.32,2.32,0,0,0,.06,1.81,4.32,4.32,0,0,1,2.14-2,11.32,11.32,0,0,1,9,0,3.88,3.88,0,0,1,2.3,2.58c.09.46,1,.68,1.6.35l11-6.36v-3.62Z" fill="#d1ebff"/><path d="M147.07,143.84a1.29,1.29,0,0,1-1.39-.87,3.46,3.46,0,0,0-2.06-2.26,10,10,0,0,0-4.36-.91,9.7,9.7,0,0,0-4.25.87,3.91,3.91,0,0,0-1.93,1.77.46.46,0,0,1-.42.27h0a.44.44,0,0,1-.41-.27,2.84,2.84,0,0,1-.12-2c-.49-1.59.45-3.19,2.47-4.2a11.76,11.76,0,0,1,9.43,0,4.31,4.31,0,0,1,2.54,2.91.9.9,0,0,0,.51.13.87.87,0,0,0,.42-.1l11-6.35a.45.45,0,0,1,.68.38v3.62a.45.45,0,0,1-.23.39l-11,6.36A1.69,1.69,0,0,1,147.07,143.84Zm-7.82-4.94a10.74,10.74,0,0,1,4.77,1,4.34,4.34,0,0,1,2.54,2.9.84.84,0,0,0,.51.14.9.9,0,0,0,.42-.1l10.79-6.23V134l-10.34,6a1.79,1.79,0,0,1-.87.22,1.3,1.3,0,0,1-1.39-.88,3.53,3.53,0,0,0-2.07-2.26,10,10,0,0,0-4.36-.91,9.7,9.7,0,0,0-4.25.87c-1.68.84-2.42,2-2,3.25a.55.55,0,0,1,0,.31,2.07,2.07,0,0,0-.12.49,5.82,5.82,0,0,1,1.69-1.23,10.71,10.71,0,0,1,4.66-1Z" fill="#03336e"/><path d="M117.63,126.44a9.2,9.2,0,0,1,4.47,1.33,3.74,3.74,0,0,1,1.46,1.66,2.54,2.54,0,0,0,0-1.82,3,3,0,0,0-1.51-3.46,9.42,9.42,0,0,0-4.47-1.33.89.89,0,0,1-.85-.44v3.39C116.66,126.07,117,126.4,117.63,126.44Z" fill="#d1ebff"/><path d="M123.56,129.88a.42.42,0,0,1-.42-.28,3.26,3.26,0,0,0-1.29-1.46,9,9,0,0,0-4.25-1.26,1.43,1.43,0,0,1-1.17-.57.81.81,0,0,1-.1-.61v-3.32a.45.45,0,0,1,.45-.44.43.43,0,0,1,.41.29.68.68,0,0,0,.46.14,9.86,9.86,0,0,1,4.69,1.4,3.46,3.46,0,0,1,1.74,3.84,3,3,0,0,1-.11,2A.48.48,0,0,1,123.56,129.88Zm-6.33-4a3.1,3.1,0,0,0,.42.08,9.69,9.69,0,0,1,4.69,1.4,4.86,4.86,0,0,1,1,.8,2.07,2.07,0,0,0-.1-.43.48.48,0,0,1,0-.29,2.53,2.53,0,0,0-1.34-2.94,8.77,8.77,0,0,0-4.25-1.26,2.5,2.5,0,0,1-.38-.06v2.56a.26.26,0,0,1,0,.15h0Z" fill="#03336e"/><path d="M147.55,128.46l1.28.74a8.66,8.66,0,0,0,3.65-1.06,3.13,3.13,0,0,0,1.9-2.83V122a3.31,3.31,0,0,1-1.9,2.53,9.22,9.22,0,0,1-4.21,1.09c-1,0-1.45.77-.72,1.19l.8.46h-.07C147.26,127.31,146.82,128,147.55,128.46Z" fill="#d1ebff"/><path d="M148.83,129.65a.46.46,0,0,1-.23-.06l-1.28-.74a1,1,0,0,1-.56-1.1,1.06,1.06,0,0,1,.46-.62,1,1,0,0,1-.46-1,1.48,1.48,0,0,1,1.5-.93,8.78,8.78,0,0,0,4-1,2.91,2.91,0,0,0,1.67-2.17.44.44,0,0,1,.46-.42.45.45,0,0,1,.43.45v3.31a3.57,3.57,0,0,1-2.12,3.22,9.22,9.22,0,0,1-3.83,1.12Zm-1.2-1.68a.71.71,0,0,0,.14.1l1.16.67a8.3,8.3,0,0,0,3.33-1,2.7,2.7,0,0,0,1.67-2.41V124a5.39,5.39,0,0,1-1.22,1,9.76,9.76,0,0,1-4.42,1.15c-.45,0-.64.19-.65.24h0a.69.69,0,0,0,.13.11l.81.46a.46.46,0,0,1,.16.62.47.47,0,0,1-.37.22c-.53,0-.72.2-.73.25Z" fill="#03336e"/><path d="M143.35,119.05a3.48,3.48,0,0,0-2.08,2.53c-.06.59-1.31.84-2,.43h0L128,115.54l-11,6.36c-.56.33-.19.87.61.92a9.42,9.42,0,0,1,4.47,1.33c2.18,1.43,2.22,3.78.07,5.2a10.6,10.6,0,0,1-10,.2,3.69,3.69,0,0,1-2-2.42c-.08-.46-1-.67-1.59-.34l-11,6.36,30.69,17.72,11-6.36c.57-.32.21-.87-.59-.92a9.49,9.49,0,0,1-4.19-1.15c-2.8-1.61-2.69-4.27.34-5.79a11.32,11.32,0,0,1,9,0,3.88,3.88,0,0,1,2.3,2.58c.08.46,1,.68,1.59.35l11-6.36-11.18-6.45c-.73-.42-.29-1.15.72-1.19a9.22,9.22,0,0,0,4.21-1.09c2.62-1.51,2.54-4-.21-5.47A10.47,10.47,0,0,0,143.35,119.05Z" fill="#0fbab8"/><path d="M128.23,151.32a.46.46,0,0,1-.23-.06L97.31,133.54a.44.44,0,0,1-.16-.61.44.44,0,0,1,.16-.17l11-6.36a1.84,1.84,0,0,1,.87-.22,1.29,1.29,0,0,1,1.38.87,3.28,3.28,0,0,0,1.77,2.11,9.46,9.46,0,0,0,4.66,1.11,9.1,9.1,0,0,0,4.91-1.29,2.69,2.69,0,0,0,1.39-2.2,2.82,2.82,0,0,0-1.46-2.26,8.83,8.83,0,0,0-4.25-1.25,1.3,1.3,0,0,1-1.28-.82.86.86,0,0,1,.48-.94l11-6.36a.45.45,0,0,1,.45,0l11.18,6.46a1.21,1.21,0,0,0,.64.15,1,1,0,0,0,.75-.23,3.91,3.91,0,0,1,2.3-2.88,11,11,0,0,1,9.35,0,3.83,3.83,0,0,1,2.36,3.16,3.64,3.64,0,0,1-2.13,3.1,9.76,9.76,0,0,1-4.42,1.15c-.45,0-.64.2-.65.25h0l.14.1L159,132.87a.45.45,0,0,1,.16.62.41.41,0,0,1-.16.16l-11,6.36a1.79,1.79,0,0,1-.87.22h0a1.31,1.31,0,0,1-1.39-.88,3.53,3.53,0,0,0-2.07-2.26,9.93,9.93,0,0,0-4.36-.91,9.7,9.7,0,0,0-4.25.87,3.23,3.23,0,0,0-2.11,2.52,3,3,0,0,0,1.8,2.48,9,9,0,0,0,4,1.09,1.27,1.27,0,0,1,1.26.82.85.85,0,0,1-.47.94l-11,6.36A.43.43,0,0,1,128.23,151.32Zm-29.8-18.17,29.8,17.2L139,144.13a.81.81,0,0,0-.37-.09,10.06,10.06,0,0,1-4.39-1.21,3.79,3.79,0,0,1-2.25-3.28,4.07,4.07,0,0,1,2.6-3.3,11.72,11.72,0,0,1,9.43,0,4.31,4.31,0,0,1,2.54,2.9.84.84,0,0,0,.51.14h0a.87.87,0,0,0,.42-.1l10.34-6-10.51-6.07a1,1,0,0,1-.56-1.09,1.46,1.46,0,0,1,1.49-.93,8.84,8.84,0,0,0,4-1,2.83,2.83,0,0,0,1.69-2.31,3,3,0,0,0-1.89-2.38,9.29,9.29,0,0,0-4.27-1,9.09,9.09,0,0,0-4.23.94,3.09,3.09,0,0,0-1.84,2.18c-.07.61-.74,1-1.64,1a2.24,2.24,0,0,1-1.07-.27l-11-6.33-10.77,6.22a.85.85,0,0,0,.38.09,9.86,9.86,0,0,1,4.7,1.4,3.69,3.69,0,0,1,1.86,3,3.57,3.57,0,0,1-1.79,3,10,10,0,0,1-5.41,1.44,10.39,10.39,0,0,1-5.1-1.23,4.13,4.13,0,0,1-2.21-2.73,1,1,0,0,0-.5-.13.87.87,0,0,0-.42.1Z" fill="#03336e"/></svg>