<svg xmlns="http://www.w3.org/2000/svg" xmlns:xlink="http://www.w3.org/1999/xlink" viewBox="0 0 96 96"><defs><clipPath id="a"><rect x="16.5" y="16.5" width="63" height="63" fill="none"/></clipPath></defs><title>ic_lsy_letstudy_community_github</title><rect width="96" height="96" rx="30" fill="#fff"/><g clip-path="url(#a)"><path d="M75.46,48.68A27.58,27.58,0,1,0,38.87,74.74l.3.1c1.38.25,1.82-.6,1.82-1.33V68.38c-7.67,1.67-9.26-3.25-9.26-3.25a7.33,7.33,0,0,0-3.06-4c-2.51-1.71.18-1.68.18-1.68a5.8,5.8,0,0,1,4.23,2.85,5.87,5.87,0,0,0,8,2.33l.05,0a5.94,5.94,0,0,1,1.75-3.69c-6.12-.7-12.56-3.06-12.56-13.63a10.73,10.73,0,0,1,2.85-7.4,9.88,9.88,0,0,1,.27-7.29s2.31-.74,7.58,2.82a26.37,26.37,0,0,1,13.81,0c5.26-3.57,7.57-2.82,7.57-2.82a9.83,9.83,0,0,1,.27,7.29,10.65,10.65,0,0,1,2.84,7.41c0,10.59-6.45,12.92-12.6,13.6a6.6,6.6,0,0,1,1.9,5.1v7.57c0,.73.45,1.59,1.84,1.32h0A27.59,27.59,0,0,0,75.46,48.68Z" fill="#1f5abc"/></g></svg>