<svg width="188" height="46" viewBox="0 0 188 46" fill="none" xmlns="http://www.w3.org/2000/svg">
<g clip-path="url(#clip0)">
<path d="M55.1322 30.881H62.0762V34.973H49.8312V13.211H55.1322V30.881ZM80.9106 26.045C80.9106 26.541 80.8796 27.0577 80.8176 27.595H68.8206C68.9033 28.6697 69.2443 29.4964 69.8436 30.075C70.4636 30.633 71.218 30.912 72.1066 30.912C73.4293 30.912 74.349 30.354 74.8656 29.238H80.5076C80.2183 30.3747 79.6913 31.3977 78.9266 32.307C78.1826 33.2164 77.2423 33.9294 76.1056 34.446C74.969 34.9627 73.698 35.221 72.2926 35.221C70.598 35.221 69.0893 34.8594 67.7666 34.136C66.444 33.4127 65.4106 32.3794 64.6666 31.036C63.9226 29.6927 63.5506 28.122 63.5506 26.324C63.5506 24.526 63.9123 22.9554 64.6356 21.612C65.3796 20.2687 66.413 19.2354 67.7356 18.512C69.0583 17.7887 70.5773 17.427 72.2926 17.427C73.9666 17.427 75.4546 17.7784 76.7566 18.481C78.0586 19.1837 79.0713 20.186 79.7946 21.488C80.5386 22.79 80.9106 24.309 80.9106 26.045ZM75.4856 24.65C75.4856 23.7407 75.1756 23.0174 74.5556 22.48C73.9356 21.9427 73.1606 21.674 72.2306 21.674C71.342 21.674 70.5876 21.9324 69.9676 22.449C69.3683 22.9657 68.9963 23.6994 68.8516 24.65H75.4856ZM93.3482 30.478V34.973H90.6512C88.7292 34.973 87.2308 34.508 86.1562 33.578C85.0815 32.6274 84.5442 31.0877 84.5442 28.959V22.077H82.4362V17.675H84.5442V13.459H89.8452V17.675H93.3172V22.077H89.8452V29.021C89.8452 29.5377 89.9692 29.9097 90.2172 30.137C90.4652 30.3644 90.8785 30.478 91.4572 30.478H93.3482ZM104.175 35.19C102.584 35.19 101.158 34.9317 99.8969 34.415C98.6362 33.8984 97.6236 33.1337 96.8589 32.121C96.1149 31.1084 95.7222 29.889 95.6809 28.463H101.323C101.406 29.269 101.685 29.889 102.16 30.323C102.635 30.7364 103.255 30.943 104.02 30.943C104.805 30.943 105.425 30.7674 105.88 30.416C106.335 30.044 106.562 29.5377 106.562 28.897C106.562 28.3597 106.376 27.9154 106.004 27.564C105.653 27.2127 105.208 26.9234 104.671 26.696C104.154 26.4687 103.41 26.2104 102.439 25.921C101.034 25.487 99.8866 25.053 98.9979 24.619C98.1092 24.185 97.3446 23.5444 96.7039 22.697C96.0632 21.8497 95.7429 20.744 95.7429 19.38C95.7429 17.3547 96.4766 15.7737 97.9439 14.637C99.4112 13.4797 101.323 12.901 103.679 12.901C106.076 12.901 108.009 13.4797 109.476 14.637C110.943 15.7737 111.729 17.365 111.832 19.411H106.097C106.056 18.7084 105.797 18.1607 105.322 17.768C104.847 17.3547 104.237 17.148 103.493 17.148C102.852 17.148 102.336 17.3237 101.943 17.675C101.55 18.0057 101.354 18.4914 101.354 19.132C101.354 19.8347 101.685 20.3824 102.346 20.775C103.007 21.1677 104.041 21.5914 105.446 22.046C106.851 22.5214 107.988 22.976 108.856 23.41C109.745 23.844 110.509 24.4744 111.15 25.301C111.791 26.1277 112.111 27.192 112.111 28.494C112.111 29.734 111.791 30.8604 111.15 31.873C110.53 32.8857 109.621 33.6917 108.422 34.291C107.223 34.8904 105.808 35.19 104.175 35.19ZM125.014 30.478V34.973H122.317C120.395 34.973 118.897 34.508 117.822 33.578C116.748 32.6274 116.21 31.0877 116.21 28.959V22.077H114.102V17.675H116.21V13.459H121.511V17.675H124.983V22.077H121.511V29.021C121.511 29.5377 121.635 29.9097 121.883 30.137C122.131 30.3644 122.545 30.478 123.123 30.478H125.014ZM145.048 17.675V34.973H139.747V32.617C139.21 33.3817 138.476 34.0017 137.546 34.477C136.637 34.9317 135.624 35.159 134.508 35.159C133.185 35.159 132.018 34.8697 131.005 34.291C129.992 33.6917 129.207 32.834 128.649 31.718C128.091 30.602 127.812 29.2897 127.812 27.781V17.675H133.082V27.068C133.082 28.2254 133.382 29.1244 133.981 29.765C134.58 30.4057 135.386 30.726 136.399 30.726C137.432 30.726 138.249 30.4057 138.848 29.765C139.447 29.1244 139.747 28.2254 139.747 27.068V17.675H145.048ZM147.802 26.293C147.802 24.5157 148.132 22.9554 148.794 21.612C149.476 20.2687 150.395 19.2354 151.553 18.512C152.71 17.7887 154.002 17.427 155.428 17.427C156.564 17.427 157.598 17.6647 158.528 18.14C159.478 18.6154 160.222 19.256 160.76 20.062V12.033H166.061V34.973H160.76V32.493C160.264 33.3197 159.551 33.981 158.621 34.477C157.711 34.973 156.647 35.221 155.428 35.221C154.002 35.221 152.71 34.8594 151.553 34.136C150.395 33.392 149.476 32.3484 148.794 31.005C148.132 29.641 147.802 28.0704 147.802 26.293ZM160.76 26.324C160.76 25.0014 160.388 23.9577 159.644 23.193C158.92 22.4284 158.032 22.046 156.978 22.046C155.924 22.046 155.025 22.4284 154.281 23.193C153.557 23.937 153.196 24.9704 153.196 26.293C153.196 27.6157 153.557 28.6697 154.281 29.455C155.025 30.2197 155.924 30.602 156.978 30.602C158.032 30.602 158.92 30.2197 159.644 29.455C160.388 28.6904 160.76 27.6467 160.76 26.324ZM187.566 17.675L176.716 43.188H171.012L174.98 34.384L167.943 17.675H173.864L177.863 28.494L181.831 17.675H187.566Z" fill="#0071F0"/>
</g>
<path d="M16.591 4.50699L0.0419922 14.062L18.51 24.724L36.978 14.062L20.429 4.50699C19.2415 3.8214 17.7785 3.8214 16.591 4.50699Z" fill="#253054"/>
<path d="M28.025 19.234L26.625 20.041L24.415 21.317L36.975 28.569V14.069L28.025 19.234Z" fill="#0058C3"/>
<path d="M18.5098 24.6639V45.9889L36.9778 35.3269L18.5098 24.6639Z" fill="#0368D9"/>
<path d="M18.51 24.667L0.0419922 14.001V35.326L18.51 24.667Z" fill="#489AF8"/>
<path d="M16.591 4.50699L0.0419922 14.062L18.51 24.724L36.978 14.062L20.429 4.50699C19.2415 3.8214 17.7785 3.8214 16.591 4.50699Z" fill="#0071F0"/>
<defs>
<clipPath id="clip0">
<rect width="140" height="44" fill="white" transform="translate(47.9092 0.973022)"/>
</clipPath>
</defs>
</svg>
