<svg xmlns="http://www.w3.org/2000/svg" xmlns:xlink="http://www.w3.org/1999/xlink" viewBox="0 0 170 170"><defs><linearGradient id="a" x1="33.12" y1="88" x2="34.12" y2="88" gradientTransform="matrix(3.85, 0, 0, -4.98, -30.39, 504.7)" gradientUnits="userSpaceOnUse"><stop offset="0" stop-color="#d6ffff"/><stop offset="0.22" stop-color="#d1ffff"/><stop offset="0.49" stop-color="#c2ffff"/><stop offset="0.77" stop-color="#abffff"/><stop offset="1" stop-color="#92ffff"/></linearGradient><linearGradient id="b" x1="33.49" y1="87.95" x2="34.49" y2="87.95" gradientTransform="matrix(3.83, 0, 0, -4.97, -25.87, 507.05)" xlink:href="#a"/><linearGradient id="c" x1="32.81" y1="88" x2="33.81" y2="88" gradientTransform="matrix(3.86, 0, 0, -4.98, -18.89, 510.98)" xlink:href="#a"/><linearGradient id="d" x1="-96.06" y1="87.83" x2="-95.06" y2="87.83" gradientTransform="matrix(3.86, 0, 0, -4.96, -33.85, 519.05)" xlink:href="#a"/><linearGradient id="e" x1="-95.6" y1="87.89" x2="-94.6" y2="87.89" gradientTransform="matrix(3.83, 0, 0, -4.96, -40.58, 516.98)" xlink:href="#a"/><linearGradient id="f" x1="-95.76" y1="87.86" x2="-94.76" y2="87.86" gradientTransform="matrix(3.84, 0, 0, -4.96, -45.44, 513.42)" xlink:href="#a"/></defs><title>ic_lettutor_join</title><circle cx="85" cy="85" r="85" fill="#eff4ff"/><path d="M94.32,148.58,58.41,127.72c-2.17-1.25-1.89-3.43.6-4.87l31.52-12.12c2.5-1.44,6.28-1.6,8.44-.35l24.13,14.14c2.17,1.25,1.89,3.43-.6,4.87l-19.74,18.84C100.26,149.67,96.48,149.83,94.32,148.58Z" fill="#d1ebff"/><path d="M92.59,145.85l-31.68-18.4a2.21,2.21,0,0,1-1.29-1.83V121.9c0-.84.63.61,1.82-.07l27.81-10.7a8.26,8.26,0,0,1,7.45-.31L118,123.3c.63.36,1.1-1.2,1.26-.7.06.16,0,3.68,0,3.85a3.05,3.05,0,0,1-1.83,2.47L100,145.54A8.26,8.26,0,0,1,92.59,145.85Z" fill="#d1ebff"/><path d="M95.83,147.06a7.16,7.16,0,0,1-3.46-.8L60.68,127.85a2.67,2.67,0,0,1-1.52-2.22v-3.76c0-.65.44-.7.57-.7a1,1,0,0,1,.48.18.93.93,0,0,0,1,.08L89.08,110.7c2.14-1.24,5.87-1.42,7.85-.28l21.29,12.48s.21-.27.3-.38.35-.47.65-.47a.53.53,0,0,1,.52.41,21.15,21.15,0,0,1,0,3.47v.52a3.48,3.48,0,0,1-2,2.88l-17.33,16.55A9.09,9.09,0,0,1,95.83,147.06ZM60.08,122.31v3.3a1.76,1.76,0,0,0,1.06,1.44l31.69,18.41c1.69,1,5,.83,7-.31l17.33-16.56c1.12-.66,1.7-1.41,1.68-2.13v-.54c0-.47,0-1.58,0-2.37a.91.91,0,0,1-1.06.14l-21.3-12.47c-1.69-1-5-.84-7,.31L61.6,122.25a1.84,1.84,0,0,1-1.52.06Z" fill="#03336e"/><path d="M92.59,142.17,60.9,123.78c-1.9-1.11-1.66-3,.54-4.3l27.81-10.7a8.26,8.26,0,0,1,7.45-.31L118,121c1.91,1.1,1.67,3-.53,4.3L100,141.87A8.26,8.26,0,0,1,92.59,142.17Z" fill="#fff"/><path d="M95.83,143.38a7,7,0,0,1-3.46-.8l-31.7-18.41a2.66,2.66,0,0,1-1.51-2.27,3.51,3.51,0,0,1,2.05-2.83l27.88-10.72c2.13-1.25,5.86-1.42,7.84-.28l21.3,12.48a2.66,2.66,0,0,1,1.51,2.26,3.5,3.5,0,0,1-2,2.83L100.36,142.2A9.09,9.09,0,0,1,95.83,143.38Zm-2.37-35.2a8.24,8.24,0,0,0-4,1L61.6,119.9a2.6,2.6,0,0,0-1.52,2,1.82,1.82,0,0,0,1.06,1.47l31.68,18.4c1.7,1,5,.84,7-.31l17.33-16.56c1.1-.64,1.68-1.39,1.68-2.1a1.81,1.81,0,0,0-1.06-1.46l-21.3-12.48a6.14,6.14,0,0,0-3-.68Z" fill="#03336e"/><path d="M116.08,121.7,96.07,110a7.78,7.78,0,0,0-7,.29L75.9,115.33a3.71,3.71,0,0,0,.41.28l29.78,17.3a5.67,5.67,0,0,0,1.42.53l8.07-7.7C117.65,124.54,117.87,122.73,116.08,121.7Z" fill="#d1ebff"/><path d="M141.76,143.19,55.59,93.41c-4.4-2.55-8-9.37-8-15.24V12.27c0-5.88,3.57-8.58,8-6L141.76,56c4.4,2.55,8,9.37,8,15.24v65.9C149.73,143,146.16,145.74,141.76,143.19Z" fill="#fff"/><path d="M144.92,144.61a7,7,0,0,1-3.4-1L55.36,93.8c-4.53-2.61-8.21-9.62-8.21-15.64V12.26c0-4.52,2.07-7.44,5.27-7.44a6.69,6.69,0,0,1,3.4,1L142,55.62c4.53,2.61,8.21,9.63,8.21,15.64v65.9C150.19,141.69,148.12,144.61,144.92,144.61ZM52.42,5.74c-2.64,0-4.35,2.56-4.35,6.53v65.9c0,5.72,3.48,12.38,7.75,14.84L142,142.8a6,6,0,0,0,2.94.9c2.64,0,4.35-2.56,4.35-6.53V71.27c0-5.72-3.48-12.37-7.75-14.84L55.36,6.64a6,6,0,0,0-2.93-.9Z" fill="#03336e"/><path d="M142.78,138.6,57.83,89.53c-3.54-2.26-5.73-6.76-5.73-11.37V11.83a1.41,1.41,0,0,1,2.13-1.21l.25.14,85,49.14c4.22,2.44,5.73,6.76,5.73,11.36v66.13a1.53,1.53,0,0,1-2.28,1.32Z" fill="#fff"/><path d="M143.72,139.37a2,2,0,0,1-1-.26l-.14-.08-85-49.11c-3.63-2.3-6-6.92-6-11.76V11.83A1.87,1.87,0,0,1,53.5,10a1.89,1.89,0,0,1,1,.26l.25.14,85,49.15c3.9,2.24,6,6.31,6,11.76v66.12A2,2,0,0,1,143.72,139.37ZM53.51,10.88a1,1,0,0,0-.95.95V78.16c0,4.54,2.16,8.84,5.52,11l85.11,49.17a1.08,1.08,0,0,0,1.47-.41,1,1,0,0,0,.13-.52V71.26c0-3.55-.95-8.34-5.5-11L54.09,11.07a1.08,1.08,0,0,0-.58-.19Z" fill="#03336e"/><path d="M146.82,53.38,60.65,3.6A5.38,5.38,0,0,0,56,2.91c-.16.07-5.19,2.69-5.34,2.78h0a5.2,5.2,0,0,1,5,.55L141.76,56c4.4,2.55,8,9.37,8,15.24v65.9c0,3.67-1.39,6.1-3.51,6.79a1.29,1.29,0,0,0,.71-.24c.09-.06,5.31-2.86,5.41-2.93,1.51-1.06,2.46-3.24,2.46-6.26V68.62C154.79,62.75,151.22,55.93,146.82,53.38Z" fill="#d1ebff"/><path d="M146.26,144.41h-.06a.46.46,0,0,1-.12-.9c2-.65,3.19-3,3.19-6.35V71.26c0-5.71-3.47-12.37-7.75-14.84L55.36,6.64a4.79,4.79,0,0,0-4.53-.53.46.46,0,0,1-.41-.83s5.17-2.71,5.4-2.8a5.86,5.86,0,0,1,5.06.72L147,53c4.53,2.62,8.21,9.63,8.21,15.64v65.9c0,3.08-.94,5.44-2.65,6.64-.07,0-.48.27-4.16,2.25l-1.3.7A1.75,1.75,0,0,1,146.26,144.41ZM53.18,4.88a7.18,7.18,0,0,1,2.64,1L142,55.63c4.52,2.61,8.2,9.63,8.2,15.63v65.91a10,10,0,0,1-1.08,4.84c1.33-.71,2.86-1.54,3-1.62,1.42-1,2.24-3.13,2.24-5.87V68.62c0-5.71-3.47-12.37-7.74-14.84L60.42,4a5,5,0,0,0-4.27-.65c-.12.06-1.61.82-3,1.54Z" fill="#03336e"/><path d="M37.69,109.4H2v1.93H2v1.33c0,5.74,8,10.4,17.85,10.4s17.85-4.65,17.85-10.4c0,0,0-1.28,0-1.33h0Z" fill="#d1ebff"/><path d="M19.84,123.49c-10.08,0-18.28-4.86-18.28-10.83v-1.25a.08.08,0,0,1,0-.07V109.4A.42.42,0,0,1,2,109H37.69a.43.43,0,0,1,.43.43v1.94a.13.13,0,0,1,0,.06c0,.28,0,1.22,0,1.26C38.12,118.63,29.92,123.49,19.84,123.49ZM2.42,111.26v1.4c0,5.5,7.81,10,17.42,10s17.42-4.47,17.42-10c0,0,0-1.25,0-1.32s0,0,0-.07v-1.44H2.42Z" fill="#03336e"/><ellipse cx="19.84" cy="109.47" rx="17.85" ry="10.4" fill="#fff"/><path d="M19.84,120.3c-10.08,0-18.28-4.86-18.28-10.83s8.2-10.82,18.28-10.82,18.28,4.85,18.28,10.82S29.92,120.3,19.84,120.3Zm0-20.79c-9.61,0-17.42,4.47-17.42,10s7.81,10,17.42,10,17.42-4.47,17.42-10S29.45,99.51,19.84,99.51Z" fill="#03336e"/><path d="M34.19,107.32v-2A19.28,19.28,0,0,0,24,88.27l-1.45-.78a.93.93,0,0,1-.39-1.26,1,1,0,0,1,.34-.36l2.43-1.47a19.29,19.29,0,0,0,9.28-16.48V62.06H5.49v5.7A19.28,19.28,0,0,0,15,84.36l2.47,1.45a.94.94,0,0,1,.32,1.29,1,1,0,0,1-.37.35l-1.49.77A19.26,19.26,0,0,0,5.49,105.34v1.87c-.22,2.29,1.17,4.62,4.21,6.38,5.64,3.25,14.75,3.27,20.35,0C33,111.89,34.41,109.59,34.19,107.32Z" fill="#fff"/><path d="M19.93,116.47h0A21.37,21.37,0,0,1,9.48,114c-3.06-1.77-4.67-4.25-4.42-6.8v-1.83A19.62,19.62,0,0,1,15.7,87.83l1.49-.78a.49.49,0,0,0,.22-.67.45.45,0,0,0-.2-.21l-2.46-1.45a19.78,19.78,0,0,1-9.69-17v-5.7a.43.43,0,0,1,.43-.43h28.7a.43.43,0,0,1,.43.43V67.9a19.85,19.85,0,0,1-9.49,16.85L22.7,86.22a.52.52,0,0,0-.17.7.55.55,0,0,0,.19.18l1.46.77a19.68,19.68,0,0,1,10.44,17.4v2c.24,2.49-1.35,4.94-4.36,6.67A21,21,0,0,1,19.93,116.47Zm-14-54v5.27A18.94,18.94,0,0,0,15.18,84l2.46,1.45a1.36,1.36,0,0,1-.06,2.39l-1.49.77A18.8,18.8,0,0,0,5.91,105.33v1.87c-.22,2.25,1.24,4.42,4,6a20.28,20.28,0,0,0,10,2.4h0a20.18,20.18,0,0,0,9.9-2.36c2.71-1.56,4.15-3.71,3.94-5.89v-2.08a18.84,18.84,0,0,0-10-16.64l-1.45-.77A1.37,1.37,0,0,1,21.75,86a1.41,1.41,0,0,1,.5-.53L24.68,84a19,19,0,0,0,9.08-16.11V62.49Z" fill="#03336e"/><path d="M34.19,109V106.7c0-6.14-4-5.89-9.15-7.7a5,5,0,0,1-3.28-4.22c-.32-3.13-.79-6.16-.8-6.7a2.24,2.24,0,0,1,1.1-2s1.7-1,2.78-1.68c1.26-.78,2.72-2.25,2.72-3.69,0-2.45-3.41-4.44-7.62-4.44s-7.62,2-7.62,4.44c0,1.41,1.56,3,3.07,3.91L17.86,86A2.26,2.26,0,0,1,19,88c0,.54-.5,3.57-.84,6.7a5,5,0,0,1-3.32,4.2c-5.23,1.82-9.33,1.6-9.33,7.84v2.16c-.2,2.07,1.24,4.15,3.95,5.72a21.37,21.37,0,0,0,10.51,2.5h0a21,21,0,0,0,10.37-2.46c2.67-1.53,4.08-3.6,3.89-5.64Z" fill="#0fbab8"/><path d="M19.94,117.58h0A21.73,21.73,0,0,1,9.22,115c-2.87-1.65-4.39-3.89-4.17-6.14v-2.11c0-5.42,3-6.29,6.9-7.4.87-.26,1.78-.52,2.73-.85a4.6,4.6,0,0,0,3-3.84c.18-1.74.42-3.46.6-4.73.13-1,.23-1.72.24-1.94a1.86,1.86,0,0,0-.91-1.64L15.17,85c-1.59-.93-3.3-2.67-3.3-4.28,0-2.73,3.54-4.87,8.06-4.87S28,78,28,80.7c0,1.55-1.47,3.15-2.92,4-1.09.67-2.79,1.68-2.79,1.68a1.85,1.85,0,0,0-.89,1.64c0,.21.1,1,.22,1.9.17,1.27.39,3,.57,4.77a4.59,4.59,0,0,0,3,3.85c.95.34,1.85.6,2.73.85,3.75,1.09,6.71,2,6.71,7.27V109c.22,2.24-1.28,4.45-4.09,6.07A21.57,21.57,0,0,1,19.94,117.58Zm0-40.89c-3.9,0-7.19,1.83-7.19,4,0,1.22,1.44,2.7,2.86,3.54l2.46,1.38A2.72,2.72,0,0,1,19.41,88c0,.26-.1,1-.25,2-.17,1.27-.41,3-.6,4.71A5.46,5.46,0,0,1,15,99.34c-1,.34-1.89.6-2.77.85-3.78,1.09-6.27,1.8-6.27,6.58v2.1c-.2,2,1.17,3.93,3.73,5.41a20.94,20.94,0,0,0,10.29,2.44h0a20.79,20.79,0,0,0,10.16-2.4c2.51-1.45,3.85-3.36,3.67-5.23v-2.38c0-4.67-2.42-5.38-6.09-6.44-.89-.26-1.8-.52-2.77-.86a5.47,5.47,0,0,1-3.57-4.58c-.18-1.76-.4-3.48-.57-4.75-.14-1-.23-1.73-.23-2a2.71,2.71,0,0,1,1.3-2.4s1.7-1,2.79-1.68,2.51-2.11,2.51-3.32c0-2.17-3.29-4-7.19-4Z" fill="#03336e"/><path d="M37.69,58.63H2v1.93H2v1.33c0,5.74,8,10.4,17.85,10.4s17.85-4.66,17.85-10.4c0,0,0-1.28,0-1.33h0Z" fill="#d1ebff"/><path d="M19.84,72.72c-10.08,0-18.28-4.86-18.28-10.83V60.64a.11.11,0,0,1,0-.08V58.63A.42.42,0,0,1,2,58.2H37.69a.43.43,0,0,1,.43.43v1.93a.15.15,0,0,1,0,.07c0,.28,0,1.22,0,1.26C38.12,67.86,29.92,72.72,19.84,72.72ZM2.42,60.49v1.4c0,5.5,7.81,10,17.42,10s17.42-4.47,17.42-10c0,0,0-1.25,0-1.32s0,0,0-.07V59.06H2.42Z" fill="#03336e"/><ellipse cx="19.84" cy="58.7" rx="17.85" ry="10.4" fill="#fff"/><path d="M19.84,69.53C9.76,69.53,1.56,64.67,1.56,58.7s8.2-10.82,18.28-10.82S38.12,52.73,38.12,58.7,29.92,69.53,19.84,69.53Zm0-20.79c-9.61,0-17.42,4.47-17.42,10s7.81,10,17.42,10,17.42-4.47,17.42-10-7.81-10-17.42-10Z" fill="#03336e"/><path d="M118.1,66.9a3.14,3.14,0,0,1,.71.55,5,5,0,0,1,1.1,1.76,4,4,0,0,1,.22,1c0,.35,0-1.52,0,16.16a2.11,2.11,0,0,1-.13.75,2.19,2.19,0,0,1-.16.3,2.28,2.28,0,0,1-.22.22,1.47,1.47,0,0,1-.28.14,1.12,1.12,0,0,1-.31,0c-.66,0-.43,0-5.81-3.09l1.64,8.13L109,82.25c-16.9-9.76-15.59-9-15.9-9.19a4.41,4.41,0,0,1-1.28-1.47,4.52,4.52,0,0,1-.4-1,3.17,3.17,0,0,1-.15-1c0-17.32,0-16,.07-16.48a1.4,1.4,0,0,1,.13-.34,1.57,1.57,0,0,1,.19-.26,1.44,1.44,0,0,1,.25-.18,1.18,1.18,0,0,1,.3-.1,1.29,1.29,0,0,1,.34,0C93.13,52.4,91.86,51.75,118.1,66.9Z" fill="#0fbab8" stroke="#03336e" stroke-linejoin="round" stroke-width="0.75"/><path d="M98,64.32a2.3,2.3,0,0,1,1.44.68,4.49,4.49,0,0,1,1.1,1.62c.32.83.47,2-.21,2.5S98.7,69,98.11,68.4C96.69,66.84,96.53,64.39,98,64.32Z" fill="url(#a)"/><path d="M104.52,67.86c1.4,1,2.13,3.25,1.37,4.2a1,1,0,0,1-1.13.3,4,4,0,0,1-2.38-4,1.1,1.1,0,0,1,.75-.93A1.71,1.71,0,0,1,104.52,67.86Z" fill="url(#b)"/><path d="M111.56,74.49a1.13,1.13,0,0,1-.72,1c-.84.25-1.75-.52-2.27-1.23a4.43,4.43,0,0,1-.79-1.79,2,2,0,0,1,.22-1.52C109.13,69.51,111.86,72.22,111.56,74.49Z" fill="url(#c)"/><path d="M77.37,62.4c.31.17-1.73-1,25,14.45a2.86,2.86,0,0,1,.4.28,4.66,4.66,0,0,1,1.57,2.61c.1.56.07-.94.07,16.57a1.84,1.84,0,0,1-.15.8,1.22,1.22,0,0,1-.17.29,1.07,1.07,0,0,1-.23.2,1,1,0,0,1-.28.13,1.24,1.24,0,0,1-.33,0c-.7-.06.46.47-16.58-9.35l-5.9,3.79L82.45,86l-4.87-2.81a3.76,3.76,0,0,1-.77-.61,4.69,4.69,0,0,1-1.26-2.68c0-.35,0,1.5,0-16.17a2.12,2.12,0,0,1,0-.44,1.52,1.52,0,0,1,.28-.65,1.07,1.07,0,0,1,.23-.2,1.17,1.17,0,0,1,.28-.13,1.24,1.24,0,0,1,.33,0A1.75,1.75,0,0,1,77.37,62.4Z" fill="#0fbab8" stroke="#03336e" stroke-linejoin="round" stroke-width="0.75"/><path d="M95.78,82.56c.65.9,1.18,2.4.56,3.29a1,1,0,0,1-.66.39,2,2,0,0,1-1.36-.52A4.39,4.39,0,0,1,92.79,83a1.7,1.7,0,0,1,.35-1.4C93.94,80.83,95.14,81.68,95.78,82.56Z" fill="url(#d)"/><path d="M89.63,78.65A4.22,4.22,0,0,1,91.23,82a1.09,1.09,0,0,1-1,1.17,1.16,1.16,0,0,1-.48-.08,3.82,3.82,0,0,1-2.08-2.22C86.88,78.81,87.93,77.41,89.63,78.65Z" fill="url(#e)"/><path d="M85.39,76.92a3.79,3.79,0,0,1,.48,1.83,1.33,1.33,0,0,1-.56,1.17c-1.34.72-3.54-1.84-3.25-3.81C82.37,74.31,84.42,75.07,85.39,76.92Z" fill="url(#f)"/></svg>