<svg xmlns="http://www.w3.org/2000/svg" xmlns:xlink="http://www.w3.org/1999/xlink" viewBox="0 0 96 96"><defs><clipPath id="a"><rect x="18" y="16.5" width="61.5" height="63" fill="none"/></clipPath></defs><title>ic_lsy_letstudy_community_twitter</title><rect width="96" height="96" rx="30" fill="#fff"/><g clip-path="url(#a)"><path d="M71.16,36.9c0,.5,0,1,0,1.48a32.27,32.27,0,0,1-32,32.48h-.43a32.35,32.35,0,0,1-17.53-5.14A23.56,23.56,0,0,0,38.14,61a11.41,11.41,0,0,1-10.67-7.91,13.93,13.93,0,0,0,2.14.17,11.69,11.69,0,0,0,3-.37,11.42,11.42,0,0,1-9.16-11.22v-.14A11.29,11.29,0,0,0,28.62,43,11.41,11.41,0,0,1,25.08,27.7,32.43,32.43,0,0,0,48.63,39.64,13.53,13.53,0,0,1,48.35,37a11.43,11.43,0,0,1,19.76-7.82,22.59,22.59,0,0,0,7.23-2.75,11.38,11.38,0,0,1-5,6.28A23,23,0,0,0,76.89,31a24.59,24.59,0,0,1-5.73,5.92Z" fill="#1f5abc"/></g></svg>