<svg xmlns="http://www.w3.org/2000/svg" xmlns:xlink="http://www.w3.org/1999/xlink" viewBox="0 0 96 96"><defs><clipPath id="a"><rect x="16.5" y="16.5" width="63" height="63" fill="none"/></clipPath></defs><title>ic_lsy_letstudy_community_discord</title><rect width="96" height="96" rx="30" fill="#fff"/><g clip-path="url(#a)"><path d="M75.71,48.17A6.16,6.16,0,0,0,69.54,42a6.25,6.25,0,0,0-4.43,1.85,30,30,0,0,0-16-4.93l3.24-14.57L62.64,26.7a4.62,4.62,0,1,0,6.68-4.2h0a4.64,4.64,0,0,0-6.22,2.06h0L51.72,22a1.09,1.09,0,0,0-1.3.83L46.88,38.93a30.41,30.41,0,0,0-15.92,5,6.16,6.16,0,0,0-8.89,8.52,6.55,6.55,0,0,0,1.73,1.27,13.22,13.22,0,0,0-.29,2.88c0,9.79,11,17.71,24.56,17.71S72.68,66.38,72.68,56.6a11.07,11.07,0,0,0-.36-2.92h0A6.17,6.17,0,0,0,75.71,48.17ZM33.22,54.36a4.62,4.62,0,0,1,4.58-4.64h0a4.61,4.61,0,1,1-4.58,4.64ZM58.33,65.2l-.08.08a18.07,18.07,0,0,1-20.5,0,1.09,1.09,0,0,1-.06-1.54l.06-.06a1.13,1.13,0,0,1,1.55,0,16.28,16.28,0,0,0,17.4,0,1.11,1.11,0,0,1,1.55,0,1.08,1.08,0,0,1,.07,1.52ZM58.2,59h-.05a4.61,4.61,0,0,1,.05-9.21h0a4.61,4.61,0,0,1,0,9.21Z" fill="#1f5abc"/></g></svg>