<svg xmlns="http://www.w3.org/2000/svg" viewBox="0 0 350 80"><title>letlearn_logo</title><path d="M104.4,54.27h13.8v6.66H96V19.05h8.4Z" fill="#0071f0"/><path d="M154.2,46.83H129.9a8.26,8.26,0,0,0,2.52,5.64,7.77,7.77,0,0,0,5.46,2,6.86,6.86,0,0,0,6.66-4h9.06a15.14,15.14,0,0,1-5.52,7.89,16.12,16.12,0,0,1-10,3.09,17.34,17.34,0,0,1-8.61-2.13,15,15,0,0,1-5.94-6,18.48,18.48,0,0,1-2.13-9,18.82,18.82,0,0,1,2.1-9.06,14.65,14.65,0,0,1,5.88-6,18.88,18.88,0,0,1,17.19-.06A14.36,14.36,0,0,1,152.37,35a17.52,17.52,0,0,1,2.07,8.61A19.82,19.82,0,0,1,154.2,46.83Zm-8.46-5.64A6.66,6.66,0,0,0,143.4,36a8.29,8.29,0,0,0-5.58-2,7.62,7.62,0,0,0-5.25,1.89A8.31,8.31,0,0,0,130,41.19Z" fill="#0071f0"/><path d="M170.34,34.59V50.67a3.18,3.18,0,0,0,.81,2.43,4,4,0,0,0,2.73.75h3.9v7.08H172.5q-10.62,0-10.62-10.32v-16h-4v-6.9h4V19.47h8.46v8.22h7.44v6.9Z" fill="#0071f0"/><path d="M192.24,54.27H206v6.66h-22.2V19.05h8.4Z" fill="#0071f0"/><path d="M242,46.83h-24.3a8.26,8.26,0,0,0,2.52,5.64,7.77,7.77,0,0,0,5.46,2,6.86,6.86,0,0,0,6.66-4h9.06a15.14,15.14,0,0,1-5.52,7.89,16.12,16.12,0,0,1-10,3.09,17.34,17.34,0,0,1-8.61-2.13,15,15,0,0,1-5.94-6,18.48,18.48,0,0,1-2.13-9,18.82,18.82,0,0,1,2.1-9.06,14.65,14.65,0,0,1,5.88-6,18.88,18.88,0,0,1,17.19-.06A14.36,14.36,0,0,1,240.21,35a17.52,17.52,0,0,1,2.07,8.61A19.82,19.82,0,0,1,242,46.83Zm-8.46-5.64A6.66,6.66,0,0,0,231.24,36a8.29,8.29,0,0,0-5.58-2,7.62,7.62,0,0,0-5.25,1.89,8.31,8.31,0,0,0-2.61,5.25Z" fill="#0071f0"/><path d="M248.25,35.25a14.73,14.73,0,0,1,5.46-6,14.54,14.54,0,0,1,7.71-2.1,13.54,13.54,0,0,1,6.51,1.5,13.21,13.21,0,0,1,4.47,3.78V27.69h8.46V60.93H272.4V56.07a12.49,12.49,0,0,1-4.47,3.87,13.68,13.68,0,0,1-6.57,1.53,14.13,14.13,0,0,1-7.65-2.16,15.12,15.12,0,0,1-5.46-6.09,19.56,19.56,0,0,1-2-9A19.24,19.24,0,0,1,248.25,35.25Zm22.95,3.81A8.46,8.46,0,0,0,268,35.7a8.66,8.66,0,0,0-4.38-1.17A8.44,8.44,0,0,0,256.05,39a10.43,10.43,0,0,0-1.23,5.19,10.78,10.78,0,0,0,1.23,5.25,8.86,8.86,0,0,0,3.24,3.45,8.23,8.23,0,0,0,4.29,1.2A8.66,8.66,0,0,0,268,52.92a8.46,8.46,0,0,0,3.24-3.36,10.77,10.77,0,0,0,1.2-5.25A10.77,10.77,0,0,0,271.2,39.06Z" fill="#0071f0"/><path d="M301.71,28.71a11.76,11.76,0,0,1,6-1.5V36h-2.22q-4,0-6,1.86t-2,6.48V60.93h-8.4V27.69h8.4v5.16A11.81,11.81,0,0,1,301.71,28.71Z" fill="#0071f0"/><path d="M341.34,31Q345,34.71,345,41.43v19.5h-8.4V42.57a8.62,8.62,0,0,0-2-6.09,7,7,0,0,0-5.4-2.13,7.19,7.19,0,0,0-5.49,2.13,8.54,8.54,0,0,0-2,6.09V60.93h-8.4V27.69h8.4v4.14A11.6,11.6,0,0,1,326,28.44a13.27,13.27,0,0,1,5.73-1.23A12.81,12.81,0,0,1,341.34,31Z" fill="#0071f0"/><path d="M75.7,58.37V21.53a3.17,3.17,0,0,0-1.58-2.74L42.21.38a3.13,3.13,0,0,0-3.16,0L7.15,18.79a3.17,3.17,0,0,0-1.58,2.74V58.37a3.17,3.17,0,0,0,1.58,2.74l31.9,18.42a3.18,3.18,0,0,0,3.16,0L74.12,61.11A3.17,3.17,0,0,0,75.7,58.37Z" fill="#0058c3"/><path d="M48.69,70l22-22L62.65,17.93,32.57,9.87l-22,22L18.61,62Z" fill="#0071f0"/><path d="M51.79,38.36l-15.92-9.2a1.85,1.85,0,0,0-2.77,1.6V49.14a1.85,1.85,0,0,0,2.77,1.6l15.92-9.19A1.84,1.84,0,0,0,51.79,38.36Z" fill="#489af8"/></svg>