<svg xmlns="http://www.w3.org/2000/svg" xmlns:xlink="http://www.w3.org/1999/xlink" viewBox="0 0 128 128"><defs><linearGradient id="a" x1="-1678.86" y1="-236.14" x2="-1661.56" y2="-236.14" gradientTransform="translate(-116.79 1706.54) rotate(90)" gradientUnits="userSpaceOnUse"><stop offset="0" stop-color="#50a7ff"/><stop offset="1" stop-color="#22d9ff"/></linearGradient><linearGradient id="b" x1="-1674.21" y1="-236.14" x2="-1666.21" y2="-236.14" gradientTransform="translate(-116.79 1706.54) rotate(90)" gradientUnits="userSpaceOnUse"><stop offset="0" stop-color="#003eca"/><stop offset="1" stop-color="#5a86ff"/></linearGradient><linearGradient id="c" x1="-1623.51" y1="-236.14" x2="-1606.21" y2="-236.14" gradientTransform="translate(-116.79 1706.54) rotate(90)" gradientUnits="userSpaceOnUse"><stop offset="0" stop-color="#50a7ff"/><stop offset="1" stop-color="#045ffa"/></linearGradient><linearGradient id="d" x1="-1618.86" y1="-236.14" x2="-1610.86" y2="-236.14" xlink:href="#b"/><linearGradient id="e" x1="-1678.86" y1="-125.44" x2="-1661.56" y2="-125.44" xlink:href="#c"/><linearGradient id="f" x1="-1674.21" y1="-125.44" x2="-1666.21" y2="-125.44" xlink:href="#b"/><linearGradient id="g" x1="-1706.54" y1="-180.6" x2="-1689.24" y2="-180.6" xlink:href="#c"/><linearGradient id="h" x1="-1701.89" y1="-180.61" x2="-1693.89" y2="-180.61" xlink:href="#b"/><linearGradient id="i" x1="-1595.84" y1="-180.6" x2="-1578.54" y2="-180.6" xlink:href="#c"/><linearGradient id="j" x1="-1591.18" y1="-180.61" x2="-1583.18" y2="-180.61" xlink:href="#b"/><linearGradient id="k" x1="-1623.51" y1="-125.44" x2="-1606.21" y2="-125.44" xlink:href="#a"/><linearGradient id="l" x1="-1618.86" y1="-125.44" x2="-1610.86" y2="-125.44" xlink:href="#b"/><linearGradient id="m" x1="16.13" y1="82.49" x2="39.34" y2="66.14" gradientUnits="userSpaceOnUse"><stop offset="0" stop-color="#cf30b1"/><stop offset="1" stop-color="#f957cf"/></linearGradient><linearGradient id="n" x1="22.26" y1="91.2" x2="45.47" y2="74.85" xlink:href="#m"/><linearGradient id="o" x1="29.49" y1="101.46" x2="52.7" y2="85.12" xlink:href="#m"/></defs><title>ic_nft_distrubuted</title><polygon points="9.88 91.68 63.81 123.35 117.75 91.68 117.75 36.32 63.81 4.65 9.88 36.32 9.88 91.68" fill="#0e58dd"/><path d="M64.57,124.64,118.51,93a1.49,1.49,0,0,0,.74-1.29V36.32a1.49,1.49,0,0,0-.74-1.29L64.57,3.36a1.48,1.48,0,0,0-1.52,0L9.12,35a1.49,1.49,0,0,0-.74,1.29V91.68A1.49,1.49,0,0,0,9.12,93l53.93,31.67A1.48,1.48,0,0,0,64.57,124.64Zm51.68-35.42L67.1,64l49.15-25.22Zm-1.61-53L65.31,61.54V7.27ZM13,36.24l49.32-29V61.54Zm-1.61,2.54L60.53,64,11.38,89.22Zm1.61,53L62.31,66.45v54.28ZM65.31,66.45l49.33,25.31-49.33,29Z" fill="#7aa4ff"/><circle cx="119.35" cy="36.32" r="8.65" fill="url(#a)"/><circle cx="119.35" cy="36.32" r="4" fill="url(#b)"/><path d="M119.35,100.32A8.65,8.65,0,1,1,128,91.68,8.65,8.65,0,0,1,119.35,100.32Z" fill="url(#c)"/><circle cx="119.35" cy="91.68" r="4" fill="url(#d)"/><circle cx="8.65" cy="36.32" r="8.65" fill="url(#e)"/><circle cx="8.65" cy="36.32" r="4" fill="url(#f)"/><path d="M63.81,17.3a8.65,8.65,0,1,1,8.65-8.65A8.66,8.66,0,0,1,63.81,17.3Z" fill="url(#g)"/><circle cx="63.81" cy="8.65" r="4" fill="url(#h)"/><path d="M63.81,128a8.65,8.65,0,1,1,8.65-8.65A8.65,8.65,0,0,1,63.81,128Z" fill="url(#i)"/><circle cx="63.81" cy="119.35" r="4" fill="url(#j)"/><path d="M8.65,100.32a8.65,8.65,0,1,1,8.65-8.64A8.64,8.64,0,0,1,8.65,100.32Z" fill="url(#k)"/><circle cx="8.65" cy="91.68" r="4" fill="url(#l)"/><circle cx="64" cy="64" r="35.98" fill="#003eca"/><path d="M33.18,36A43.71,43.71,0,0,1,75.67,23.51a.86.86,0,0,0,1-.62.84.84,0,0,0-.62-1A45.42,45.42,0,0,0,31.93,34.8a.82.82,0,0,0-.23.64A.81.81,0,0,0,32,36,.85.85,0,0,0,33.18,36Z" fill="#c2bdfc"/><path d="M99.72,121v-2.89h2.89a1,1,0,0,0,0-1.93H99.72v-2.89a1,1,0,0,0-1.93,0v2.89H94.9a1,1,0,1,0,0,1.93h2.89V121a1,1,0,1,0,1.93,0Z" fill="#c4bdff"/><path d="M107.36,9.92V7h2.9a1,1,0,0,0,0-1.93h-2.9V2.21a1,1,0,1,0-1.92,0V5.1h-2.89a1,1,0,1,0,0,1.93h2.89V9.92a1,1,0,0,0,1.92,0Z" fill="#ffb8fc"/><path d="M38.45,11.54V8.65h2.89a1,1,0,1,0,0-1.93H38.45V3.83a1,1,0,1,0-1.92,0V6.72h-2.9a1,1,0,0,0,0,1.93h2.9v2.89a1,1,0,1,0,1.92,0Z" fill="#cc9cff"/><path d="M53.1,50.37V77.63H48.42L37.91,62.83v14.8H31.68V50.37h4.67l10.52,14.8V50.37Z" fill="url(#m)"/><path d="M64,56.37v5.25H74.13v6H64v10H57.77V50.37H74.32v6Z" fill="url(#n)"/><path d="M96.32,56.37h-7V77.63H83.08V56.37h-7v-6H96.32Z" fill="url(#o)"/></svg>