<svg xmlns="http://www.w3.org/2000/svg" xmlns:xlink="http://www.w3.org/1999/xlink" viewBox="0 0 200 80"><defs><linearGradient id="a" x1="-344.88" y1="175.77" x2="-346.09" y2="177.02" gradientTransform="matrix(114.22, 0, 0, -19.94, 39580.9, 3557.98)" gradientUnits="userSpaceOnUse"><stop offset="0" stop-color="#31d0ff"/><stop offset="1" stop-color="#0271ff"/></linearGradient><linearGradient id="b" x1="-337.39" y1="181" x2="-336.33" y2="179.9" gradientTransform="matrix(28, 0, 0, -28, 9453, 5092.5)" xlink:href="#a"/><linearGradient id="c" x1="-329.92" y1="171.02" x2="-328.71" y2="169.77" gradientTransform="matrix(17, 0, 0, -14, 5620, 2425.5)" xlink:href="#a"/></defs><title>ic_top_ico_list</title><path d="M46.9,31.23H62.3v4.15H57.2V48.75H52V35.38H46.9ZM68.32,35a8.62,8.62,0,0,1,4,.87,6.33,6.33,0,0,1,2.64,2.43,7.71,7.71,0,0,1,0,7.34,6.31,6.31,0,0,1-2.64,2.45,9.64,9.64,0,0,1-8,0,6.22,6.22,0,0,1-2.65-2.45,7.63,7.63,0,0,1,0-7.34,6.24,6.24,0,0,1,2.65-2.43A8.67,8.67,0,0,1,68.32,35Zm0,4a2.18,2.18,0,0,0-1.8.83,3.93,3.93,0,0,0,0,4.39,2.21,2.21,0,0,0,1.8.83,2.19,2.19,0,0,0,1.78-.83,3.93,3.93,0,0,0,0-4.39A2.16,2.16,0,0,0,68.32,39Zm17.83-4a6.21,6.21,0,0,1,3.3.88,5.84,5.84,0,0,1,2.21,2.47A8.24,8.24,0,0,1,92.45,42a8.15,8.15,0,0,1-.76,3.63,5.59,5.59,0,0,1-2.17,2.41,6.08,6.08,0,0,1-3.25.85,5.1,5.1,0,0,1-2.17-.44,4.85,4.85,0,0,1-1.68-1.31V53.6h-5V35.15h5v1.58a4.54,4.54,0,0,1,1.63-1.3A4.69,4.69,0,0,1,86.15,35Zm-1.28,10a2.19,2.19,0,0,0,1.8-.84,3.87,3.87,0,0,0,0-4.38,2.18,2.18,0,0,0-1.8-.83,2.15,2.15,0,0,0-1.77.83,3.87,3.87,0,0,0,0,4.38A2.16,2.16,0,0,0,84.87,44.93Zm13.55-13.7h5.2V48.75h-5.2Zm20.2,6.37a6.36,6.36,0,0,0-2-1.74,4.54,4.54,0,0,0-2.21-.63,3.93,3.93,0,0,0-2.13.59,4.34,4.34,0,0,0-1.5,1.67,5.45,5.45,0,0,0,0,4.77,4.37,4.37,0,0,0,1.5,1.68,3.86,3.86,0,0,0,2.13.61,4.89,4.89,0,0,0,2.14-.55,7,7,0,0,0,2-1.5l3,3.2a10.75,10.75,0,0,1-3.43,2.48,9.59,9.59,0,0,1-8.73-.27,8.55,8.55,0,0,1-3.31-3.28,9.35,9.35,0,0,1-1.2-4.71,8.73,8.73,0,0,1,4.6-7.85,10.09,10.09,0,0,1,8.77-.32,9.49,9.49,0,0,1,3.3,2.28Zm12.23-6.7a10.21,10.21,0,0,1,4.89,1.17A8.74,8.74,0,0,1,140.4,40a9,9,0,0,1-1.24,4.69,8.68,8.68,0,0,1-3.42,3.27,10.66,10.66,0,0,1-9.79,0,8.72,8.72,0,0,1-3.41-3.27A9,9,0,0,1,121.3,40,8.76,8.76,0,0,1,126,32.07,10.17,10.17,0,0,1,130.85,30.9Zm.07,4.33a3.88,3.88,0,0,0-2.13.62,4.57,4.57,0,0,0-1.58,1.71,5.26,5.26,0,0,0,0,4.84,4.66,4.66,0,0,0,1.58,1.74,3.9,3.9,0,0,0,2.13.63,3.74,3.74,0,0,0,2.09-.63,4.38,4.38,0,0,0,1.51-1.73,5.62,5.62,0,0,0,0-4.85,4.3,4.3,0,0,0-1.5-1.71A3.69,3.69,0,0,0,130.92,35.23Zm15.45-4h5.2V44.4h7.35v4.35H146.37Zm13.78,3.92h5v13.6h-5Zm2.5-6.47a2.6,2.6,0,1,1,0,5.2,2.59,2.59,0,0,1-1.89-.73,2.75,2.75,0,0,1,0-3.75A2.59,2.59,0,0,1,162.65,28.68ZM177.2,39.75a10.56,10.56,0,0,0-4.45-1.43,1.44,1.44,0,0,0-.75.17.54.54,0,0,0-.28.49c0,.25.18.45.52.61a11.7,11.7,0,0,0,1.63.54,21,21,0,0,1,2.49.84,4.82,4.82,0,0,1,1.73,1.29,3.29,3.29,0,0,1,.73,2.21,3.87,3.87,0,0,1-1.63,3.29A7.11,7.11,0,0,1,172.85,49a12.17,12.17,0,0,1-3.44-.49,10.05,10.05,0,0,1-3-1.44L168,43.88a11.7,11.7,0,0,0,2.54,1.25,7.52,7.52,0,0,0,2.38.42,1.75,1.75,0,0,0,.83-.16.5.5,0,0,0,.3-.46c0-.26-.16-.46-.49-.62a9.6,9.6,0,0,0-1.61-.53,19.34,19.34,0,0,1-2.43-.83,4.75,4.75,0,0,1-1.7-1.27,3.3,3.3,0,0,1-.72-2.21,4,4,0,0,1,1.6-3.32,6.72,6.72,0,0,1,4.2-1.23,11.66,11.66,0,0,1,6,1.66Zm12.47,8.35a6.68,6.68,0,0,1-1.76.64,9.24,9.24,0,0,1-2.09.24,4.87,4.87,0,0,1-3.47-1.21,4.22,4.22,0,0,1-1.3-3.27V39.08h-1.88V35.85h1.88V32.07h5v3.78h3.35v3.23h-3.35v4.64a1.4,1.4,0,0,0,.3,1,1.1,1.1,0,0,0,.85.33,5.33,5.33,0,0,0,1.55-.4Z" fill-rule="evenodd" fill="url(#a)"/><rect x="3.5" y="22.5" width="35" height="35" rx="2.5" fill="none" stroke-width="2" stroke="url(#b)"/><path d="M11,33.75v-2.5H32.25v2.5Zm0,7.5v-2.5H32.25v2.5Zm0,7.5v-2.5H32.25v2.5Z" fill="url(#c)"/></svg>