<svg width="45" height="44" viewBox="0 0 45 44" fill="none" xmlns="http://www.w3.org/2000/svg">
<circle cx="22.18" cy="22" r="22" fill="#256CF6"/>
<path d="M28.215 17.9777L27.315 18.4957L25.896 19.3147L33.962 23.9727V14.6597L28.215 17.9777Z" fill="#8AB4F8"/>
<path d="M22.105 21.4668V35.1598L33.964 28.3128L22.105 21.4668Z" fill="#B0CCFA"/>
<path d="M22.109 21.4696L10.25 14.6226V28.3156L22.109 21.4696Z" fill="#DCE9FD"/>
<path d="M20.872 17.8498C21.6346 17.4094 22.5743 17.4094 23.337 17.8498L25.886 19.3218L33.963 14.6588L23.337 8.52376C22.5744 8.08323 21.6346 8.08323 20.872 8.52376L10.246 14.6588L18.323 19.3218L20.872 17.8498Z" fill="white"/>
<ellipse cx="22.68" cy="22" rx="17.5" ry="17" stroke="#8AB4F8" stroke-width="2"/>
</svg>
