<svg xmlns="http://www.w3.org/2000/svg" viewBox="0 0 380 90"><title>link_coindesk</title><path d="M36.9,66.45c1.47,0,3.46-1.35,5.34-3A8.89,8.89,0,0,1,54,76.8a8.38,8.38,0,0,1-1.37,1,8.72,8.72,0,0,1-10.55-1.26,8.89,8.89,0,0,0-6.62-2.93,8.78,8.78,0,0,0-6.1,2.76,8.72,8.72,0,0,1-10,1.81,8.85,8.85,0,0,1-5.13-8.64A8.55,8.55,0,0,1,16.62,64c4.05-4.34,4.05-8.62,0-12.89a8.88,8.88,0,0,1,0-12.22q6.07-6.46,0-12.9a9,9,0,0,1,.24-12.48,8.86,8.86,0,0,1,12.31-.12c4,3.72,8.32,4,12.4.32a9.41,9.41,0,0,1,13.31.19L55,14c2.93,3,7.44,3,10.84.47,1.79-1.35,3.44-2.88,5.75-3.32a8.87,8.87,0,1,1,3.28,17.44,8.74,8.74,0,0,1-7.91-2.49c-3.9-3.75-8.58-3.75-12.45,0a8.77,8.77,0,0,1-12.4.23l-.2-.2c-3.67-3.52-8.41-3.75-11.81-.62-4.1,3.78-4.57,8.68-1,12.75,2.43,2.78,3.6,5.83,2.43,9.41a12.32,12.32,0,0,1-2.43,3.93c-2.43,2.87-3.05,6-1.55,9.38S31.77,66.45,36.9,66.45Z" fill="#f5faff"/><path d="M253.75,35.56V11.33H260v53h-6.25V59.56A14.21,14.21,0,0,1,244.67,65a16.33,16.33,0,0,1-19.09-13c0-.09,0-.18-.05-.27-1.05-6.1-.11-11.81,4.25-16.5,5.28-5.71,14.92-6.74,21-2.32A30.1,30.1,0,0,1,253.75,35.56Zm0,11.93c0-.47-.05-1.11-.11-1.73a10.47,10.47,0,0,0-9.44-9.61c-5.92-.47-10.4,2.4-11.78,7.8a16.61,16.61,0,0,0-.41,5.21c.38,4.28,2.32,7.62,6.48,9.29,6.15,2.49,15.23-.29,15.26-11Z" fill="#f5faff"/><path d="M365.82,64.28h-9l-15.21-17v17h-6.42V11.33h6.27V45.17c4.8-4.77,9.53-9.4,14.13-14h8.88c-5.22,5.1-10.26,10-15.42,15C354.62,52.18,360.1,58.1,365.82,64.28Z" fill="#f5faff"/><path d="M293,54.77l4.81,3.66c-1,1-1.79,2-2.79,2.78-7.5,6.3-20.13,5.13-25.7-2.4-6.56-8.9-4-24.61,9.06-27.95,11.13-2.87,19.54,3.45,20.69,14,.17,1.64.2,3.28.32,5.1H272.86c-.44,3,1.55,6.36,4.81,8.15A12.46,12.46,0,0,0,286,59.52C289,59,291.06,56.94,293,54.77Zm-.5-9.85c-.38-6.48-3.95-9.82-10.17-9.61-5.09.18-9.67,4.72-9.61,9.58,6.57,0,13.13,0,19.78,0Z" fill="#f5faff"/><path d="M151.86,30.24a17.51,17.51,0,1,1-.2,0ZM141,47.56c-.09,4.92,2,8.76,5.86,10.63,5.33,2.61,11.84.7,14.5-4.24,3.08-5.72,1.32-13.43-3.75-16.36C149.9,33.14,141.16,38.38,141,47.56Z" fill="#f5faff"/><path d="M214,64.26c0-6.3,0-12.52,0-18.7a17,17,0,0,0-.33-3.63,6.82,6.82,0,0,0-6-5.72c-4-.5-7.62,1.06-9,4.49a19.88,19.88,0,0,0-1.41,6.77c-.2,5.56-.05,11.13-.05,16.79H191V31.09h6.13V35.8a11.86,11.86,0,0,1,8.26-5.33c9.24-1.47,14.83,3.75,14.92,11.81.09,7.3,0,14.62,0,22C218.14,64.26,216.1,64.26,214,64.26Z" fill="#f5faff"/><path d="M303.08,59.25l4.6-3.81c1,.79,2,1.61,3,2.32,2.9,2,6,2,9.2.76a3.72,3.72,0,0,0,2.64-3.2,3.5,3.5,0,0,0-2.29-3.58,32.4,32.4,0,0,0-4.4-1.46c-1.81-.53-3.69-.94-5.48-1.55-8-2.79-7.06-11.9-2.7-15.48,4.66-3.81,13.66-4.07,18.32-.26a31.43,31.43,0,0,1,2.52,2.64l-5,3.81a8.49,8.49,0,0,0-9.23-2.93c-1.53.41-2.85,1.17-3.08,2.93a3.37,3.37,0,0,0,2.2,3.75A51.36,51.36,0,0,0,319.05,45c1.43.44,2.92.74,4.33,1.29,3.23,1.23,5.42,3.46,5.84,7,.43,3.81-.62,7.12-3.9,9.34-4.46,3-9.44,3.14-14.48,2.06A11.5,11.5,0,0,1,303.08,59.25Z" fill="#f5faff"/><path d="M131.67,35.57c-1.58,1.47-3.14,2.87-4.4,4-2.08-1.09-3.9-2.5-5.92-3-6.21-1.61-11.43,1.84-12.75,8.14a14.11,14.11,0,0,0,.27,7.24,10.51,10.51,0,0,0,17.29,4.54l.85-.79c1.46,1.53,2.9,3,4.33,4.46-4.45,6.18-17,6.88-24,1.2-7.32-6-8-18.82-1.29-25.94C112.56,28.54,125.07,28.54,131.67,35.57Z" fill="#f5faff"/><path d="M175.68,31.09h6.16v33.2h-6.16Z" fill="#f5faff"/><path d="M174.13,19.11a4.6,4.6,0,1,1,4.63,4.58A4.59,4.59,0,0,1,174.13,19.11Z" fill="#f5faff"/><path d="M48.19,42.67a3.18,3.18,0,1,1-3.17,3A3.18,3.18,0,0,1,48.19,42.67Z" fill="#f5faff"/><path d="M73.15,48.76a3.14,3.14,0,1,1,3.19-3.11A3.15,3.15,0,0,1,73.15,48.76Z" fill="#f5faff"/><path d="M73.24,73.4A3.1,3.1,0,1,1,73,67.2h.13a3.08,3.08,0,0,1,3.25,2.89v.13a3.11,3.11,0,0,1-3.06,3.19Z" fill="#f5faff"/></svg>