<svg id="Layer_1" data-name="Layer 1" xmlns="http://www.w3.org/2000/svg" viewBox="0 0 280 60"><defs><style>.cls-1{fill:#253054;}.cls-2{fill:#8ab4f8;}.cls-3{fill:#b0ccfa;}.cls-4{fill:#dce9fd;}.cls-5{fill:#fff;}.cls-6{isolation:isolate;}</style></defs><title>logo_text</title><g id="Group_2556" data-name="Group 2556"><path id="Path_16782" data-name="Path 16782" class="cls-1" d="M23.86.83,0,14.48,26.63,29.71,53.25,14.48,29.39.83A5.57,5.57,0,0,0,23.86.83Z"/><path id="Path_16783" data-name="Path 16783" class="cls-2" d="M40.35,21.87l-2,1.15-3.19,1.82L53.25,35.2V14.48Z"/><g id="Group_2556-2" data-name="Group 2556-2"><path id="Path_16784" data-name="Path 16784" class="cls-3" d="M26.63,29.63V60.09L53.25,44.85Z"/></g><g id="Group_2557" data-name="Group 2557"><path id="Path_16785" data-name="Path 16785" class="cls-4" d="M26.63,29.63,0,14.39V44.86Z"/></g><path id="Path_16786" data-name="Path 16786" class="cls-5" d="M23.86.83,0,14.48,26.63,29.71,53.25,14.48,29.39.83A5.57,5.57,0,0,0,23.86.83Z"/></g><g id="LetStudy" class="cls-6"><g class="cls-6"><path class="cls-5" d="M76.07,38.3h11.2v5.4h-18v-34h6.81Z"/><path class="cls-5" d="M116.47,32.26H96.76a6.69,6.69,0,0,0,2,4.58,6.32,6.32,0,0,0,4.43,1.65,5.55,5.55,0,0,0,5.4-3.26H116a12.23,12.23,0,0,1-4.47,6.4,13.1,13.1,0,0,1-8.13,2.51,14.1,14.1,0,0,1-7-1.73,12.11,12.11,0,0,1-4.81-4.89,14.89,14.89,0,0,1-1.73-7.3,15.34,15.34,0,0,1,1.7-7.35A12,12,0,0,1,96.32,18a14.38,14.38,0,0,1,7.06-1.7A14.13,14.13,0,0,1,110.27,18,11.65,11.65,0,0,1,115,22.65a14.23,14.23,0,0,1,1.68,7A15.87,15.87,0,0,1,116.47,32.26Zm-6.86-4.57a5.4,5.4,0,0,0-1.9-4.21,6.74,6.74,0,0,0-4.53-1.58,6.18,6.18,0,0,0-4.25,1.53,6.7,6.7,0,0,0-2.12,4.26Z"/><path class="cls-5" d="M129.56,22.34v13a2.56,2.56,0,0,0,.66,2,3.21,3.21,0,0,0,2.21.61h3.17V43.7h-4.29q-8.61,0-8.61-8.37v-13h-3.21v-5.6h3.21V10.07h6.86v6.67h6v5.6Z"/><path class="cls-5" d="M145.84,42.83a10.44,10.44,0,0,1-4.5-3.51,9.2,9.2,0,0,1-1.7-5.4h7.3a4.71,4.71,0,0,0,1.48,3.31,5.27,5.27,0,0,0,3.68,1.22,5.65,5.65,0,0,0,3.74-1.15,3.72,3.72,0,0,0,1.37-3,3.44,3.44,0,0,0-.93-2.48A6.46,6.46,0,0,0,154,30.29c-.92-.37-2.2-.78-3.82-1.24a41.41,41.41,0,0,1-5.38-1.92,9.39,9.39,0,0,1-3.55-2.87,8.2,8.2,0,0,1-1.49-5.14,9.2,9.2,0,0,1,1.51-5.25,9.6,9.6,0,0,1,4.24-3.43,15.29,15.29,0,0,1,6.23-1.2,13.54,13.54,0,0,1,8.54,2.56,9.44,9.44,0,0,1,3.62,7.13h-7.49A3.94,3.94,0,0,0,154.9,16a5.62,5.62,0,0,0-3.68-1.14,4.75,4.75,0,0,0-3.19,1,3.71,3.71,0,0,0-1.19,3,3.06,3.06,0,0,0,.9,2.26A6.85,6.85,0,0,0,150,22.6a36.68,36.68,0,0,0,3.77,1.29,39.1,39.1,0,0,1,5.4,1.95,9.71,9.71,0,0,1,3.61,2.92,8.15,8.15,0,0,1,1.5,5.11,9.61,9.61,0,0,1-1.41,5.06,10,10,0,0,1-4.13,3.73A14.21,14.21,0,0,1,152.24,44,16.16,16.16,0,0,1,145.84,42.83Z"/><path class="cls-5" d="M178.09,22.34v13a2.56,2.56,0,0,0,.65,2A3.22,3.22,0,0,0,181,38h3.16V43.7h-4.28q-8.61,0-8.62-8.37v-13H168v-5.6h3.21V10.07h6.87v6.67h6v5.6Z"/><path class="cls-5" d="M214.49,16.74v27h-6.86V40.3a9.16,9.16,0,0,1-3.43,2.75,10.74,10.74,0,0,1-4.6,1A11.34,11.34,0,0,1,194,42.7a9.38,9.38,0,0,1-3.82-3.94,13,13,0,0,1-1.39-6.2V16.74h6.82V31.58a7,7,0,0,0,1.6,4.94,5.66,5.66,0,0,0,4.38,1.73A5.73,5.73,0,0,0,206,36.52a7,7,0,0,0,1.61-4.94V16.74Z"/><path class="cls-5" d="M221.08,22.87a11.76,11.76,0,0,1,10.74-6.57,11.48,11.48,0,0,1,5,1.14,10.15,10.15,0,0,1,3.8,3V7.69h6.91v36h-6.91v-4a9.25,9.25,0,0,1-3.56,3.21,11.11,11.11,0,0,1-5.3,1.22,11.56,11.56,0,0,1-6.23-1.75,12.3,12.3,0,0,1-4.46-4.94,16,16,0,0,1-1.63-7.33A15.7,15.7,0,0,1,221.08,22.87ZM239.7,26a6.82,6.82,0,0,0-2.63-2.72,7.11,7.11,0,0,0-7,0,7,7,0,0,0-2.61,2.7,8.54,8.54,0,0,0-1,4.21,8.76,8.76,0,0,0,1,4.26,7.19,7.19,0,0,0,2.63,2.8,6.68,6.68,0,0,0,3.48,1,7,7,0,0,0,3.55-.94,6.92,6.92,0,0,0,2.63-2.73,8.76,8.76,0,0,0,1-4.26A8.76,8.76,0,0,0,239.7,26Z"/><path class="cls-5" d="M280,16.74,263.31,56.45h-7.26L261.89,43l-10.8-26.28h7.64l7,18.83,7.06-18.83Z"/></g></g></svg>