<svg xmlns="http://www.w3.org/2000/svg" viewBox="0 0 256 256"><title>token_logo</title><circle cx="128" cy="128" r="128" fill="#256cf6"/><path d="M163.11,104.6l-5.22,3-8.26,4.77,46.93,27.09V85.29Z" fill="#8ab4f8"/><path d="M127.56,124.9v79.67l69-39.84Z" fill="#b0ccfa"/><path d="M127.56,124.9l-69-39.84v79.68Z" fill="#dce9fd"/><path d="M120.39,103.86a14.35,14.35,0,0,1,14.34,0l14.83,8.56,47-27.13L134.73,49.58a14.35,14.35,0,0,0-14.34,0L58.57,85.28l47,27.13Z" fill="#fff"/><ellipse cx="130.91" cy="128" rx="107.64" ry="104.73" fill="none"/><path d="M130.91,232.73c-59.35,0-107.64-47-107.64-104.73S71.56,23.27,130.91,23.27,238.54,70.25,238.54,128,190.26,232.73,130.91,232.73Zm0-205.19c-57,0-103.37,45.07-103.37,100.46S73.91,228.46,130.91,228.46,234.28,183.4,234.28,128,187.91,27.54,130.91,27.54Z" fill="#8ab4f8"/></svg>