<svg xmlns="http://www.w3.org/2000/svg" viewBox="0 0 500 500"><title>Artboard 1</title><path d="M183.76,237.58a67.89,67.89,0,0,1,133.47,24.8l102.82,19.1A172.7,172.7,0,0,0,80.47,218.39Z" fill="#ffcf05"/><path d="M239.27,318.36l-20,107.82A177.27,177.27,0,0,0,423.91,285.65L316.6,265.71A67.9,67.9,0,0,1,239.27,318.36Z" fill="#5ffabe"/><path d="M209.21,305.47,137,396.12c24.48,19.2,47.24,29.58,77.76,35.46l21.15-113.85A67.65,67.65,0,0,1,209.21,305.47Z" fill="#ff84aa"/><path d="M188.21,279,99,315.87a157,157,0,0,0,47.39,63l60.14-75.51A68.1,68.1,0,0,1,188.21,279Z" fill="#542fef"/><path d="M182.58,245.6,72.2,233c-3.16,30.26.66,57.49,12,85.39l102.74-42.5A67.33,67.33,0,0,1,182.58,245.6Z" fill="#5496ff"/><path d="M183.15,240.92,83.43,222.39c-.43,2.52-.87,5.37-1.25,8.3L183,242.23A8.35,8.35,0,0,1,183.15,240.92Z" fill="#e24359"/><circle cx="249.74" cy="249.86" r="46.71" fill="#256cf6"/><path d="M261.49,241.32l-1.9,1.1-3,1.74L273.7,254V234.27Z" fill="#8ab4f8"/><path d="M248.52,248.72V277.8l25.18-14.54Z" fill="#b0ccfa"/><path d="M248.52,248.73l-25.18-14.54v29.07Z" fill="#dce9fd"/><path d="M245.9,241.05a5.22,5.22,0,0,1,5.24,0l5.41,3.12,17.15-9.9-22.56-13a5.22,5.22,0,0,0-5.24,0l-22.56,13,17.15,9.9Z" fill="#fff"/><ellipse cx="249.74" cy="249.86" rx="39.28" ry="38.21" fill="none"/><path d="M249.74,291c-23.28,0-42.22-18.47-42.22-41.16s18.94-41.17,42.22-41.17S292,227.16,292,249.86,273,291,249.74,291Zm0-79.38c-21.66,0-39.28,17.14-39.28,38.22s17.62,38.21,39.28,38.21S289,270.93,289,249.86s-17.6-38.22-39.26-38.22Z" fill="#8ab4f8"/><circle cx="87.75" cy="227.4" r="4.5" fill="#cff" opacity="0.3" style="isolation:isolate"/><circle cx="87.75" cy="227.4" r="3.38" fill="#cff" opacity="0.3" style="isolation:isolate"/><circle cx="87.75" cy="227.4" r="2.25" fill="#cff"/><line x1="86.08" y1="227.47" x2="19.23" y2="227.4" fill="none" stroke="#cff" stroke-linecap="round" stroke-miterlimit="10"/><g style="isolation:isolate"><path d="M20,209v-2.58h4.82V221H21.89V209Z" fill="#fff"/><path d="M28.1,207.64a3.65,3.65,0,1,1-.89,2.38A3.17,3.17,0,0,1,28.1,207.64ZM29.27,210c0,1,.37,1.58,1.1,1.58a1,1,0,0,0,.84-.39,2,2,0,0,0,.3-1.19q0-1.56-1.14-1.56C29.64,208.46,29.27,209,29.27,210Zm10.78-3-7.86,14H29.47l7.84-14Zm-3.17,8.59a3.17,3.17,0,0,1,2.29-.85,3.1,3.1,0,0,1,2.27.85,3.73,3.73,0,0,1,0,4.79,3.11,3.11,0,0,1-2.27.86,3.37,3.37,0,0,1-2.29-5.65ZM38,218c0,1.05.38,1.58,1.14,1.58s1.12-.53,1.12-1.58-.37-1.56-1.12-1.56S38,217,38,218Z" fill="#fff"/></g><g style="isolation:isolate"><g style="isolation:isolate"><path d="M24.82,239.41H21.53l-.7,2H19.38l3.14-8.53h1.35L27,241.45H25.52Zm-2.89-1.14h2.5l-1.24-3.63h0Z" fill="#cff"/><path d="M29.38,233.56H28v-1.25h1.42Zm0,7.89H28v-6.34h1.42Z" fill="#cff"/></g><g style="isolation:isolate"><path d="M34.2,236.41l-.67,0a1.28,1.28,0,0,0-.7.17,1.15,1.15,0,0,0-.43.49v4.4H31v-6.34h1.3l.09.89h0a2,2,0,0,1,.61-.74,1.4,1.4,0,0,1,.86-.27l.28,0,.23.05Z" fill="#cff"/></g><g style="isolation:isolate"><path d="M34.88,238.37a4.19,4.19,0,0,1,.64-2.46,2.27,2.27,0,0,1,2.76-.72,2.23,2.23,0,0,1,.69.58h0v-3.46h1.43v9.14H39.18l-.12-.77a2,2,0,0,1-1.72.89,2.16,2.16,0,0,1-1.82-.83,3.6,3.6,0,0,1-.64-2.25Zm1.42.12a2.58,2.58,0,0,0,.33,1.41,1.19,1.19,0,0,0,1.08.51,1.47,1.47,0,0,0,.76-.19,1.43,1.43,0,0,0,.51-.55V236.9a1.5,1.5,0,0,0-.51-.55,1.35,1.35,0,0,0-.75-.19,1.14,1.14,0,0,0-1.08.6,3.26,3.26,0,0,0-.34,1.61Z" fill="#cff"/></g><g style="isolation:isolate"><path d="M45.16,236.41l-.67,0a1.28,1.28,0,0,0-.7.17,1.15,1.15,0,0,0-.43.49v4.4H41.94v-6.34h1.3l.09.89h0a2,2,0,0,1,.61-.74,1.4,1.4,0,0,1,.86-.27l.28,0,.23.05Z" fill="#cff"/></g><g style="isolation:isolate"><path d="M45.84,238.22a3.44,3.44,0,0,1,.76-2.33,2.65,2.65,0,0,1,2.14-.9,2.7,2.7,0,0,1,2.15.89,3.49,3.49,0,0,1,.76,2.34v.12a3.45,3.45,0,0,1-.76,2.34,3,3,0,0,1-4.29,0,3.45,3.45,0,0,1-.76-2.34Zm1.42.12a2.8,2.8,0,0,0,.36,1.52,1.4,1.4,0,0,0,2.25,0,2.74,2.74,0,0,0,.37-1.52v-.12a2.69,2.69,0,0,0-.37-1.5,1.23,1.23,0,0,0-1.13-.58,1.21,1.21,0,0,0-1.12.58,2.78,2.78,0,0,0-.36,1.5Z" fill="#cff"/><path d="M58.45,238.49a3.6,3.6,0,0,1-.64,2.25,2.43,2.43,0,0,1-2.77.64,1.77,1.77,0,0,1-.7-.55h0v3.06H52.9v-8.78h1.27l.09.76A2,2,0,0,1,56,235a2.12,2.12,0,0,1,1.84.92,4.19,4.19,0,0,1,.64,2.46ZM57,238.37a3.22,3.22,0,0,0-.35-1.6,1.19,1.19,0,0,0-1.11-.61,1.34,1.34,0,0,0-1.25.72v2.87a1.41,1.41,0,0,0,.49.51,1.64,1.64,0,0,0,.78.17,1.21,1.21,0,0,0,1.09-.52,2.49,2.49,0,0,0,.35-1.42Z" fill="#cff"/></g></g><circle cx="355.49" cy="187.39" r="4.5" fill="#cff" opacity="0.3" style="isolation:isolate"/><circle cx="355.49" cy="187.39" r="3.38" fill="#cff" opacity="0.3" style="isolation:isolate"/><circle cx="355.49" cy="187.39" r="2.25" fill="#cff"/><polyline points="355.46 187.46 419.03 82.76 487.69 82.76" fill="none" stroke="#cff" stroke-linecap="round" stroke-miterlimit="10"/><g style="isolation:isolate"><path d="M431.27,64.79h-6.48v3.42a3,3,0,0,1,1.2-.85,4.2,4.2,0,0,1,1.66-.33,4.5,4.5,0,0,1,2.62.7,4.07,4.07,0,0,1,1.48,1.79,5.87,5.87,0,0,1,.46,2.33,5.21,5.21,0,0,1-1.31,3.7,4.87,4.87,0,0,1-3.73,1.4,5.49,5.49,0,0,1-3.64-1.14,4.26,4.26,0,0,1-1.54-3h2.72a2.16,2.16,0,0,0,.81,1.28,2.59,2.59,0,0,0,1.61.48,2.16,2.16,0,0,0,1.78-.74,3,3,0,0,0,.6-2A2.64,2.64,0,0,0,428.9,70a2.35,2.35,0,0,0-1.79-.65,2.26,2.26,0,0,0-1.4.42,2.3,2.3,0,0,0-.8,1.12h-2.68V62.33h9Z" fill="#fff"/><path d="M435.6,64.05a5.37,5.37,0,0,1,8.3,0,10.06,10.06,0,0,1,1.25,5.42,10.22,10.22,0,0,1-1.25,5.46,5.34,5.34,0,0,1-8.3,0,10.22,10.22,0,0,1-1.25-5.46A10.06,10.06,0,0,1,435.6,64.05ZM442.2,67a3.41,3.41,0,0,0-.76-1.65,2.55,2.55,0,0,0-3.38,0A3.41,3.41,0,0,0,437.3,67a13.41,13.41,0,0,0-.19,2.49,15.21,15.21,0,0,0,.18,2.55,3.16,3.16,0,0,0,.76,1.66,2.61,2.61,0,0,0,3.4,0,3.16,3.16,0,0,0,.76-1.66,15.21,15.21,0,0,0,.18-2.55A13.41,13.41,0,0,0,442.2,67Z" fill="#fff"/><path d="M447.84,63.57A3.65,3.65,0,1,1,447,66,3.17,3.17,0,0,1,447.84,63.57ZM449,66c0,1,.37,1.58,1.1,1.58a1,1,0,0,0,.84-.39,2,2,0,0,0,.3-1.19q0-1.56-1.14-1.56C449.38,64.39,449,64.91,449,66Zm10.78-3-7.86,14h-2.72l7.84-14Zm-3.17,8.59a3.17,3.17,0,0,1,2.29-.85,3.1,3.1,0,0,1,2.27.85,3.73,3.73,0,0,1,0,4.79,3.11,3.11,0,0,1-2.27.86,3.37,3.37,0,0,1-2.29-5.65Zm1.13,2.39c0,1,.38,1.58,1.14,1.58S460,75,460,73.93s-.37-1.56-1.12-1.56S457.75,72.89,457.75,73.93Z" fill="#fff"/></g><g style="isolation:isolate"><g style="isolation:isolate"><path d="M427.47,90H424.8v7.39h-1.42V90h-2.66V88.85h6.75Z" fill="#cff"/></g><g style="isolation:isolate"><path d="M427.81,94.15a3.44,3.44,0,0,1,.76-2.33,2.65,2.65,0,0,1,2.14-.9,2.7,2.7,0,0,1,2.15.89,3.49,3.49,0,0,1,.76,2.34v.12a3.45,3.45,0,0,1-.76,2.34,3,3,0,0,1-4.29,0,3.45,3.45,0,0,1-.76-2.34Zm1.42.12a2.8,2.8,0,0,0,.36,1.52,1.4,1.4,0,0,0,2.25,0,2.74,2.74,0,0,0,.37-1.52v-.12a2.69,2.69,0,0,0-.37-1.5,1.23,1.23,0,0,0-1.13-.58,1.21,1.21,0,0,0-1.12.58,2.78,2.78,0,0,0-.36,1.5Z" fill="#cff"/></g><g style="isolation:isolate"><path d="M436.94,94.61h-.65v2.77h-1.41V88.24h1.41v5.23h.62L438.5,91h1.66l-2.07,2.9,2.34,3.44h-1.65Z" fill="#cff"/></g><g style="isolation:isolate"><path d="M443.75,97.5a2.77,2.77,0,0,1-2.16-.87,3.24,3.24,0,0,1-.79-2.27v-.24a3.4,3.4,0,0,1,.78-2.31,2.57,2.57,0,0,1,2-.89,2.51,2.51,0,0,1,2,.77,3.1,3.1,0,0,1,.66,2.09v.84h-4a2.16,2.16,0,0,0,.46,1.27,1.41,1.41,0,0,0,1.14.47,3,3,0,0,0,1-.14,3.1,3.1,0,0,0,.79-.4l.42,1a2.74,2.74,0,0,1-.93.51A4.17,4.17,0,0,1,443.75,97.5Zm-.17-5.43a1.07,1.07,0,0,0-.87.41,2.26,2.26,0,0,0-.44,1.1h2.55v-.15a1.54,1.54,0,0,0-.3-1A1.13,1.13,0,0,0,443.58,92.07Z" fill="#cff"/><path d="M448.67,91l.08.88h0a2.2,2.2,0,0,1,.78-.74,2.06,2.06,0,0,1,1.06-.27,2,2,0,0,1,1.55.59,2.69,2.69,0,0,1,.55,1.89v4h-1.43v-4a1.43,1.43,0,0,0-.29-1,1.23,1.23,0,0,0-.9-.29,1.49,1.49,0,0,0-.75.18,1.63,1.63,0,0,0-.54.51v4.6h-1.42V91Z" fill="#cff"/><path d="M461.93,95.19a1.14,1.14,0,0,0-.38-.88,3.8,3.8,0,0,0-1.41-.6,6.23,6.23,0,0,1-2.22-1,2,2,0,0,1-.75-1.63,2.08,2.08,0,0,1,.84-1.71,3.54,3.54,0,0,1,2.21-.65,3.33,3.33,0,0,1,2.28.75,2.35,2.35,0,0,1,.85,1.85h-1.43a1.39,1.39,0,0,0-.43-1.07,1.89,1.89,0,0,0-1.28-.4,1.86,1.86,0,0,0-1.21.34,1.09,1.09,0,0,0-.41.88,1,1,0,0,0,.44.81,5.26,5.26,0,0,0,1.52.61,5,5,0,0,1,2.1,1,2.13,2.13,0,0,1,.7,1.67,2,2,0,0,1-.84,1.7,3.66,3.66,0,0,1-2.25.62,4,4,0,0,1-2.36-.69,2.3,2.3,0,0,1-1-2h1.43a1.33,1.33,0,0,0,.52,1.16,2.33,2.33,0,0,0,1.41.38,2.08,2.08,0,0,0,1.24-.31A1,1,0,0,0,461.93,95.19Z" fill="#cff"/><path d="M468.41,97.38a3,3,0,0,1-.11-.4c0-.13-.05-.27-.07-.41a2.78,2.78,0,0,1-.78.67,2.07,2.07,0,0,1-1,.26,2.11,2.11,0,0,1-1.5-.5,1.88,1.88,0,0,1-.53-1.41,1.66,1.66,0,0,1,.72-1.44,3.57,3.57,0,0,1,2.05-.5h1v-.56a1,1,0,0,0-.29-.78,1.19,1.19,0,0,0-.86-.28,1.32,1.32,0,0,0-.81.23.76.76,0,0,0-.29.61h-1.42a1.72,1.72,0,0,1,.71-1.37,2.91,2.91,0,0,1,1.9-.58,2.78,2.78,0,0,1,1.81.56,2,2,0,0,1,.67,1.62v2.82a6.06,6.06,0,0,0,.05.76,3.6,3.6,0,0,0,.18.7Zm-1.68-1a1.82,1.82,0,0,0,.88-.21,1.51,1.51,0,0,0,.59-.52V94.54h-1.06a1.44,1.44,0,0,0-1,.3.92.92,0,0,0-.34.73.75.75,0,0,0,.22.58A1,1,0,0,0,466.73,96.35Z" fill="#cff"/><path d="M472.64,97.38h-1.43V88.24h1.43Z" fill="#cff"/><path d="M477,97.5a2.75,2.75,0,0,1-2.16-.87,3.24,3.24,0,0,1-.79-2.27v-.24a3.4,3.4,0,0,1,.78-2.31,2.55,2.55,0,0,1,2-.89,2.48,2.48,0,0,1,2,.77,3.05,3.05,0,0,1,.67,2.09v.84h-4a2.16,2.16,0,0,0,.46,1.27,1.41,1.41,0,0,0,1.14.47,3,3,0,0,0,1-.14,3.1,3.1,0,0,0,.79-.4l.42,1a2.74,2.74,0,0,1-.93.51A4.17,4.17,0,0,1,477,97.5Zm-.17-5.43a1.07,1.07,0,0,0-.87.41,2.17,2.17,0,0,0-.44,1.1H478v-.15a1.54,1.54,0,0,0-.3-1A1.13,1.13,0,0,0,476.78,92.07Z" fill="#cff"/></g></g><circle cx="320.07" cy="368.11" r="4.5" fill="#cff" opacity="0.3" style="isolation:isolate"/><circle cx="320.07" cy="368.11" r="3.38" fill="#cff" opacity="0.3" style="isolation:isolate"/><circle cx="320.07" cy="368.11" r="2.25" fill="#cff"/><polyline points="320.04 368.18 359.62 429.93 486.41 429.93" fill="none" stroke="#cff" stroke-linecap="round" stroke-miterlimit="10"/><g style="isolation:isolate"><path d="M366.58,419.8q1.92-1.6,3.06-2.67a12.51,12.51,0,0,0,1.9-2.23,4.11,4.11,0,0,0,.76-2.28,2.44,2.44,0,0,0-.48-1.6,1.8,1.8,0,0,0-1.48-.58,1.85,1.85,0,0,0-1.54.67,2.91,2.91,0,0,0-.56,1.83h-2.72A4.93,4.93,0,0,1,367,409.3a4.85,4.85,0,0,1,3.43-1.24,4.74,4.74,0,0,1,3.5,1.21,4.31,4.31,0,0,1,1.22,3.19,5.78,5.78,0,0,1-.84,3,11.71,11.71,0,0,1-1.92,2.47c-.72.7-1.66,1.54-2.82,2.53h5.9v2.32h-9.88v-2.08Z" fill="#fff"/><path d="M387,410.8H380.5v3.42a3,3,0,0,1,1.2-.85,4.2,4.2,0,0,1,1.66-.33,4.5,4.5,0,0,1,2.62.7,4.07,4.07,0,0,1,1.48,1.79,5.87,5.87,0,0,1,.46,2.33,5.21,5.21,0,0,1-1.31,3.7,4.87,4.87,0,0,1-3.73,1.4,5.49,5.49,0,0,1-3.64-1.14,4.26,4.26,0,0,1-1.54-3h2.72a2.16,2.16,0,0,0,.81,1.28,2.59,2.59,0,0,0,1.61.48,2.16,2.16,0,0,0,1.78-.74,3,3,0,0,0,.6-2,2.64,2.64,0,0,0-.61-1.89,2.35,2.35,0,0,0-1.79-.65,2.26,2.26,0,0,0-1.4.42,2.3,2.3,0,0,0-.8,1.12h-2.68v-8.56h9Z" fill="#fff"/><path d="M390.63,409.58a3.65,3.65,0,1,1-.89,2.38A3.17,3.17,0,0,1,390.63,409.58ZM391.8,412c0,1.05.37,1.58,1.1,1.58a1,1,0,0,0,.84-.39A2,2,0,0,0,394,412q0-1.56-1.14-1.56C392.17,410.4,391.8,410.92,391.8,412Zm10.78-3-7.86,14H392l7.84-14Zm-3.17,8.59a3.17,3.17,0,0,1,2.29-.85,3.1,3.1,0,0,1,2.27.85,3.73,3.73,0,0,1,0,4.79,3.11,3.11,0,0,1-2.27.86,3.37,3.37,0,0,1-2.29-5.65Zm1.13,2.39c0,1.05.38,1.58,1.14,1.58s1.12-.53,1.12-1.58-.37-1.56-1.12-1.56S400.54,418.9,400.54,419.94Z" fill="#fff"/></g><g style="isolation:isolate"><g style="isolation:isolate"><path d="M370.15,441.21a1.11,1.11,0,0,0-.38-.88,3.74,3.74,0,0,0-1.4-.6,6.07,6.07,0,0,1-2.22-1,2,2,0,0,1-.76-1.63,2,2,0,0,1,.84-1.7,3.48,3.48,0,0,1,2.21-.66,3.3,3.3,0,0,1,2.28.75,2.37,2.37,0,0,1,.85,1.85h-1.42a1.4,1.4,0,0,0-.44-1.07,2.27,2.27,0,0,0-2.48-.06,1.07,1.07,0,0,0-.42.88,1,1,0,0,0,.45.81,5.14,5.14,0,0,0,1.52.61,5.14,5.14,0,0,1,2.1,1,2.18,2.18,0,0,1,.7,1.67,2,2,0,0,1-.84,1.7,3.69,3.69,0,0,1-2.26.62,4.05,4.05,0,0,1-2.36-.69,2.29,2.29,0,0,1-1-2h1.42a1.34,1.34,0,0,0,.53,1.16,2.3,2.3,0,0,0,1.4.38,2.08,2.08,0,0,0,1.24-.31A1,1,0,0,0,370.15,441.21Z" fill="#cff"/><path d="M374.51,435.52v1.54h1.14v1.06h-1.14v3.5a.8.8,0,0,0,.14.56.51.51,0,0,0,.4.16l.27,0a1,1,0,0,0,.25-.06l.15,1.05a2.37,2.37,0,0,1-.47.15,2.6,2.6,0,0,1-.56.06,1.55,1.55,0,0,1-1.19-.45,2.08,2.08,0,0,1-.42-1.45v-3.5h-.87v-1.06h.87v-1.54Z" fill="#cff"/></g><g style="isolation:isolate"><path d="M380,438.36l-.67,0a1.28,1.28,0,0,0-.7.17,1.22,1.22,0,0,0-.43.49v4.4h-1.42v-6.34H378l.09.89h0a2,2,0,0,1,.61-.74,1.4,1.4,0,0,1,.86-.27l.28,0,.23.05Z" fill="#cff"/></g><g style="isolation:isolate"><path d="M384.7,443.4a2.92,2.92,0,0,1-.1-.4,2.7,2.7,0,0,1-.07-.41,2.62,2.62,0,0,1-.78.67,2.1,2.1,0,0,1-1,.26,2.13,2.13,0,0,1-1.51-.5,1.91,1.91,0,0,1-.52-1.41,1.66,1.66,0,0,1,.72-1.44,3.57,3.57,0,0,1,2-.5h1v-.56a1,1,0,0,0-.29-.78,1.19,1.19,0,0,0-.86-.28,1.32,1.32,0,0,0-.81.23.76.76,0,0,0-.29.61h-1.42a1.69,1.69,0,0,1,.71-1.37,2.91,2.91,0,0,1,1.9-.58,2.8,2.8,0,0,1,1.81.56,2,2,0,0,1,.67,1.62v2.82a6.06,6.06,0,0,0,.05.76,3.6,3.6,0,0,0,.18.7Zm-1.67-1a1.82,1.82,0,0,0,.88-.22,1.51,1.51,0,0,0,.59-.52v-1.08h-1.06a1.44,1.44,0,0,0-1,.3.93.93,0,0,0-.35.73.75.75,0,0,0,.23.58A1,1,0,0,0,383,442.38Z" fill="#cff"/><path d="M389.11,435.52v1.54h1.14v1.06h-1.14v3.5a.86.86,0,0,0,.14.56.51.51,0,0,0,.4.16l.27,0a1,1,0,0,0,.25-.06l.15,1.05a2.17,2.17,0,0,1-.47.15,2.6,2.6,0,0,1-.56.06,1.52,1.52,0,0,1-1.18-.45,2.08,2.08,0,0,1-.42-1.45v-3.5h-.88v-1.06h.88v-1.54Z" fill="#cff"/><path d="M394.06,443.52a2.75,2.75,0,0,1-2.16-.87,3.24,3.24,0,0,1-.79-2.27v-.24a3.4,3.4,0,0,1,.78-2.31,2.55,2.55,0,0,1,2-.89,2.48,2.48,0,0,1,2,.77,3.05,3.05,0,0,1,.67,2.09v.84h-4a2.23,2.23,0,0,0,.46,1.27,1.43,1.43,0,0,0,1.14.47,3.15,3.15,0,0,0,1-.14,3.1,3.1,0,0,0,.79-.4l.41,1a2.6,2.6,0,0,1-.92.51A4.17,4.17,0,0,1,394.06,443.52Zm-.17-5.43a1.07,1.07,0,0,0-.87.41,2.17,2.17,0,0,0-.45,1.1h2.56v-.15a1.54,1.54,0,0,0-.3-1A1.15,1.15,0,0,0,393.89,438.09Z" fill="#cff"/><path d="M397.43,440.32a4.19,4.19,0,0,1,.65-2.46,2.13,2.13,0,0,1,1.85-.92,2,2,0,0,1,1,.24,2,2,0,0,1,.72.68l.12-.8H403v6.21a2.58,2.58,0,0,1-.75,2,3,3,0,0,1-2.14.72,4.24,4.24,0,0,1-1-.14,4.12,4.12,0,0,1-1-.37l.3-1a5.1,5.1,0,0,0,.82.31,3.43,3.43,0,0,0,.86.11,1.45,1.45,0,0,0,1.14-.41,1.67,1.67,0,0,0,.37-1.16v-.49h0a1.77,1.77,0,0,1-.69.56,2.06,2.06,0,0,1-.93.19,2.19,2.19,0,0,1-1.84-.84,3.55,3.55,0,0,1-.65-2.24Zm1.42.12a2.54,2.54,0,0,0,.34,1.4,1.2,1.2,0,0,0,1.09.52,1.41,1.41,0,0,0,.78-.19,1.28,1.28,0,0,0,.5-.55v-2.77a1.43,1.43,0,0,0-.51-.55,1.35,1.35,0,0,0-.75-.19,1.17,1.17,0,0,0-1.1.61,3.19,3.19,0,0,0-.35,1.6Z" fill="#cff"/><path d="M406,435.51h-1.42v-1.25H406Zm0,7.89h-1.42v-6.34H406Z" fill="#cff"/><path d="M410.19,442.38a1.36,1.36,0,0,0,.9-.3,1,1,0,0,0,.36-.78h1.34a2,2,0,0,1-.75,1.58,2.76,2.76,0,0,1-1.83.64,2.65,2.65,0,0,1-2.16-.89,3.46,3.46,0,0,1-.73-2.29v-.21a3.5,3.5,0,0,1,.73-2.3,3,3,0,0,1,4-.23,2.23,2.23,0,0,1,.71,1.73h-1.34a1.18,1.18,0,0,0-1.26-1.24,1.18,1.18,0,0,0-1.13.57,3,3,0,0,0-.31,1.47v.21a3,3,0,0,0,.31,1.48A1.17,1.17,0,0,0,410.19,442.38Z" fill="#cff"/><path d="M417.07,443.4v-8.53h2.68a3.76,3.76,0,0,1,2.76,1,3.64,3.64,0,0,1,1,2.69v1.13a3.59,3.59,0,0,1-1,2.7,3.85,3.85,0,0,1-2.83,1Zm1.42-7.39v6.25h1.14a2.34,2.34,0,0,0,1.87-.68,2.76,2.76,0,0,0,.6-1.88v-1.14a2.69,2.69,0,0,0-.59-1.87,2.26,2.26,0,0,0-1.8-.68Z" fill="#cff"/></g><g style="isolation:isolate"><path d="M427.68,443.52a2.75,2.75,0,0,1-2.16-.87,3.24,3.24,0,0,1-.79-2.27v-.24a3.4,3.4,0,0,1,.78-2.31,2.57,2.57,0,0,1,2-.89,2.51,2.51,0,0,1,2,.77,3.1,3.1,0,0,1,.66,2.09v.84h-4a2.16,2.16,0,0,0,.46,1.27,1.41,1.41,0,0,0,1.14.47,3,3,0,0,0,1-.14,3.1,3.1,0,0,0,.79-.4l.42,1a2.74,2.74,0,0,1-.93.51A4.17,4.17,0,0,1,427.68,443.52Zm-.17-5.43a1.07,1.07,0,0,0-.87.41,2.26,2.26,0,0,0-.44,1.1h2.55v-.15a1.54,1.54,0,0,0-.3-1A1.13,1.13,0,0,0,427.51,438.09Z" fill="#cff"/><path d="M433.32,441.26l.12.55h0l.12-.55,1.26-4.2h1.47l-2.25,6.34h-1.24l-2.26-6.34H432Z" fill="#cff"/></g><g style="isolation:isolate"><path d="M440,443.52a2.77,2.77,0,0,1-2.16-.87,3.24,3.24,0,0,1-.79-2.27v-.24a3.4,3.4,0,0,1,.78-2.31,2.57,2.57,0,0,1,2-.89,2.51,2.51,0,0,1,2,.77,3.1,3.1,0,0,1,.66,2.09v.84h-4a2.16,2.16,0,0,0,.46,1.27,1.41,1.41,0,0,0,1.14.47,3,3,0,0,0,1-.14,3.1,3.1,0,0,0,.79-.4l.42,1a2.74,2.74,0,0,1-.93.51A4.17,4.17,0,0,1,440,443.52Zm-.17-5.43a1.07,1.07,0,0,0-.87.41,2.26,2.26,0,0,0-.44,1.1H441v-.15a1.54,1.54,0,0,0-.3-1A1.13,1.13,0,0,0,439.79,438.09Z" fill="#cff"/><path d="M445.11,443.4h-1.42v-9.14h1.42Z" fill="#cff"/><path d="M446.44,440.17a3.44,3.44,0,0,1,.76-2.33,2.65,2.65,0,0,1,2.14-.9,2.68,2.68,0,0,1,2.15.89,3.49,3.49,0,0,1,.77,2.34v.12a3.5,3.5,0,0,1-.76,2.34,3,3,0,0,1-4.3,0,3.45,3.45,0,0,1-.76-2.34Zm1.42.12a2.8,2.8,0,0,0,.36,1.52,1.41,1.41,0,0,0,2.26,0,2.83,2.83,0,0,0,.36-1.52v-.12a2.78,2.78,0,0,0-.36-1.5,1.25,1.25,0,0,0-1.14-.58,1.21,1.21,0,0,0-1.12.58,2.78,2.78,0,0,0-.36,1.5Z" fill="#cff"/><path d="M459.05,440.44a3.66,3.66,0,0,1-.63,2.25,2.44,2.44,0,0,1-2.78.64,1.84,1.84,0,0,1-.7-.55h0v3H453.5v-8.78h1.27l.1.76a1.93,1.93,0,0,1,.72-.65,2.07,2.07,0,0,1,1-.23,2.1,2.1,0,0,1,1.83.92,4.19,4.19,0,0,1,.64,2.46Zm-1.41-.12a3.11,3.11,0,0,0-.36-1.6,1.19,1.19,0,0,0-1.1-.61,1.38,1.38,0,0,0-.76.19,1.35,1.35,0,0,0-.5.53v2.87a1.36,1.36,0,0,0,.5.51,1.6,1.6,0,0,0,.77.17,1.23,1.23,0,0,0,1.1-.52,2.55,2.55,0,0,0,.35-1.42Z" fill="#cff"/><path d="M461.6,437.06l.07.8h0a2.07,2.07,0,0,1,.76-.68,2.34,2.34,0,0,1,1.09-.24,2,2,0,0,1,1.07.28,1.69,1.69,0,0,1,.66.85,2.29,2.29,0,0,1,.77-.83,2.07,2.07,0,0,1,1.13-.3,1.9,1.9,0,0,1,1.52.64,3.08,3.08,0,0,1,.54,2v3.82h-1.42v-3.83a1.73,1.73,0,0,0-.28-1.14,1,1,0,0,0-.83-.32,1.21,1.21,0,0,0-.78.24,1.37,1.37,0,0,0-.46.67c0,.06,0,.11,0,.15s0,.08,0,.12v4.11h-1.43v-3.83a1.73,1.73,0,0,0-.28-1.12,1,1,0,0,0-.84-.34,1.46,1.46,0,0,0-.73.16,1.23,1.23,0,0,0-.48.48v4.65H460.3v-6.34Z" fill="#cff"/><path d="M473.45,443.52a2.78,2.78,0,0,1-2.16-.87,3.28,3.28,0,0,1-.79-2.27v-.24a3.36,3.36,0,0,1,.79-2.31,2.54,2.54,0,0,1,2-.89,2.5,2.5,0,0,1,2,.77,3.1,3.1,0,0,1,.67,2.09v.84h-4a2.16,2.16,0,0,0,.46,1.27,1.43,1.43,0,0,0,1.14.47,3.15,3.15,0,0,0,1-.14,3,3,0,0,0,.78-.4l.42,1a2.74,2.74,0,0,1-.93.51A4.13,4.13,0,0,1,473.45,443.52Zm-.16-5.43a1.08,1.08,0,0,0-.88.41,2.26,2.26,0,0,0-.44,1.1h2.55v-.15a1.54,1.54,0,0,0-.3-1A1.12,1.12,0,0,0,473.29,438.09Z" fill="#cff"/><path d="M478.37,437.06l.09.89h0a2.1,2.1,0,0,1,.77-.74,2.06,2.06,0,0,1,1.06-.27,2,2,0,0,1,1.56.59,2.74,2.74,0,0,1,.54,1.89v4H481v-4a1.43,1.43,0,0,0-.29-1,1.23,1.23,0,0,0-.9-.29,1.44,1.44,0,0,0-1.28.69v4.6h-1.43v-6.34Z" fill="#cff"/><path d="M485.57,435.52v1.54h1.15v1.06h-1.15v3.5a.8.8,0,0,0,.15.56.48.48,0,0,0,.39.16l.28,0a.94.94,0,0,0,.24-.06l.16,1.05a2.37,2.37,0,0,1-.47.15,2.67,2.67,0,0,1-.56.06,1.54,1.54,0,0,1-1.19-.45,2.08,2.08,0,0,1-.42-1.45v-3.5h-.87v-1.06h.87v-1.54Z" fill="#cff"/></g></g><circle cx="203.3" cy="404.25" r="4.5" fill="#cff" opacity="0.3" style="isolation:isolate"/><circle cx="203.3" cy="404.25" r="3.38" fill="#cff" opacity="0.3" style="isolation:isolate"/><circle cx="203.3" cy="404.25" r="2.25" fill="#cff"/><polyline points="203.26 404.32 221.96 470.73 338.57 470.73" fill="none" stroke="#cff" stroke-linecap="round" stroke-miterlimit="10"/><g style="isolation:isolate"><path d="M236.46,454a3.64,3.64,0,0,1,.55-2,3.83,3.83,0,0,1,1.66-1.42,7.19,7.19,0,0,1,5.42,0,3.83,3.83,0,0,1,1.66,1.42,3.64,3.64,0,0,1,.55,2,3.46,3.46,0,0,1-.54,1.93,3.74,3.74,0,0,1-1.44,1.29,3.92,3.92,0,0,1,1.72,1.4,3.83,3.83,0,0,1,.62,2.18,4.08,4.08,0,0,1-.69,2.37,4.46,4.46,0,0,1-1.89,1.55,6.51,6.51,0,0,1-2.7.54,6.43,6.43,0,0,1-2.69-.54,4.49,4.49,0,0,1-1.88-1.55,4.08,4.08,0,0,1-.69-2.37,3.88,3.88,0,0,1,.62-2.19,3.77,3.77,0,0,1,1.72-1.39A3.42,3.42,0,0,1,236.46,454Zm3.07,5a2,2,0,0,0-.71,1.66,2.1,2.1,0,0,0,.69,1.63,2.66,2.66,0,0,0,1.87.63,2.58,2.58,0,0,0,1.86-.64,2.15,2.15,0,0,0,.68-1.62,2,2,0,0,0-.7-1.65,3.2,3.2,0,0,0-3.69,0Zm3.46-6.14a2.29,2.29,0,0,0-1.61-.54,2.25,2.25,0,0,0-1.59.54,2,2,0,0,0-.59,1.54,1.82,1.82,0,0,0,.61,1.44,2.55,2.55,0,0,0,3.15,0,1.86,1.86,0,0,0,.62-1.45A2,2,0,0,0,243,452.86Z" fill="#fff"/><path d="M249.45,451.54a3.65,3.65,0,1,1-.89,2.38A3.17,3.17,0,0,1,249.45,451.54Zm1.17,2.38c0,1.05.37,1.58,1.1,1.58a1,1,0,0,0,.84-.39,2,2,0,0,0,.3-1.19q0-1.56-1.14-1.56C251,452.36,250.62,452.88,250.62,453.92Zm10.78-3-7.86,14h-2.72l7.84-14Zm-3.17,8.59a3.17,3.17,0,0,1,2.29-.85,3.1,3.1,0,0,1,2.27.85,3.73,3.73,0,0,1,0,4.79,3.11,3.11,0,0,1-2.27.86,3.37,3.37,0,0,1-2.29-5.65Zm1.13,2.39c0,1.05.38,1.58,1.14,1.58s1.12-.53,1.12-1.58-.37-1.56-1.12-1.56S259.36,460.86,259.36,461.9Z" fill="#fff"/></g><g style="isolation:isolate"><g style="isolation:isolate"><path d="M242,478h-2.67v7.39h-1.42V478h-2.66v-1.14H242Z" fill="#cff"/></g><g style="isolation:isolate"><path d="M245.28,485.48a2.77,2.77,0,0,1-2.16-.87,3.24,3.24,0,0,1-.79-2.27v-.24a3.4,3.4,0,0,1,.78-2.31,2.57,2.57,0,0,1,2-.89,2.51,2.51,0,0,1,2,.77,3.1,3.1,0,0,1,.66,2.09v.84h-4a2.16,2.16,0,0,0,.46,1.27,1.41,1.41,0,0,0,1.14.47,3,3,0,0,0,1-.14,3.1,3.1,0,0,0,.79-.4l.42,1a2.74,2.74,0,0,1-.93.51A4.17,4.17,0,0,1,245.28,485.48Zm-.17-5.43a1.07,1.07,0,0,0-.87.41,2.26,2.26,0,0,0-.44,1.1h2.55v-.15a1.54,1.54,0,0,0-.3-1A1.13,1.13,0,0,0,245.11,480.05Z" fill="#cff"/><path d="M252.73,485.36a3,3,0,0,1-.11-.4c0-.13-.05-.27-.07-.41a2.51,2.51,0,0,1-.78.67,2.07,2.07,0,0,1-1,.26,2.11,2.11,0,0,1-1.5-.5,1.88,1.88,0,0,1-.53-1.41,1.66,1.66,0,0,1,.72-1.44,3.57,3.57,0,0,1,2-.5h1v-.56a1,1,0,0,0-.29-.78,1.19,1.19,0,0,0-.86-.28,1.32,1.32,0,0,0-.81.23.76.76,0,0,0-.29.61h-1.42a1.72,1.72,0,0,1,.71-1.37,2.91,2.91,0,0,1,1.9-.58,2.78,2.78,0,0,1,1.81.56,2,2,0,0,1,.67,1.62v2.82a6.06,6.06,0,0,0,.05.76,3.6,3.6,0,0,0,.18.7Zm-1.68-1a1.82,1.82,0,0,0,.88-.21,1.51,1.51,0,0,0,.59-.52v-1.08h-1.06a1.44,1.44,0,0,0-1,.3.92.92,0,0,0-.34.73.75.75,0,0,0,.22.58A1,1,0,0,0,251.05,484.33Z" fill="#cff"/><path d="M256.74,479l.08.8h0a2.15,2.15,0,0,1,.76-.68,2.34,2.34,0,0,1,1.09-.24,2,2,0,0,1,1.07.28,1.69,1.69,0,0,1,.66.85,2.29,2.29,0,0,1,.77-.83,2.07,2.07,0,0,1,1.13-.3,1.9,1.9,0,0,1,1.52.64,3.08,3.08,0,0,1,.54,2v3.82H263v-3.83a1.73,1.73,0,0,0-.28-1.14,1,1,0,0,0-.83-.32,1.23,1.23,0,0,0-.78.24,1.35,1.35,0,0,0-.45.67v.15a.49.49,0,0,1,0,.12v4.11h-1.43v-3.83a1.73,1.73,0,0,0-.28-1.12,1,1,0,0,0-.83-.34,1.5,1.5,0,0,0-.74.16,1.23,1.23,0,0,0-.48.48v4.65h-1.42V479Z" fill="#cff"/><path d="M272.68,485.36a3,3,0,0,1-.11-.4c0-.13-.05-.27-.07-.41a2.4,2.4,0,0,1-.78.67,2.07,2.07,0,0,1-1,.26,2.11,2.11,0,0,1-1.5-.5,1.88,1.88,0,0,1-.53-1.41,1.66,1.66,0,0,1,.72-1.44,3.57,3.57,0,0,1,2.05-.5h1v-.56a1,1,0,0,0-.29-.78,1.19,1.19,0,0,0-.86-.28,1.32,1.32,0,0,0-.81.23.76.76,0,0,0-.29.61H268.8a1.7,1.7,0,0,1,.72-1.37,2.88,2.88,0,0,1,1.89-.58,2.76,2.76,0,0,1,1.81.56,2,2,0,0,1,.68,1.62v2.82a4.62,4.62,0,0,0,.05.76,3.57,3.57,0,0,0,.17.7Zm-1.68-1a1.82,1.82,0,0,0,.88-.21,1.51,1.51,0,0,0,.59-.52v-1.08h-1.06a1.45,1.45,0,0,0-1,.3.92.92,0,0,0-.34.73.72.72,0,0,0,.23.58A1,1,0,0,0,271,484.33Z" fill="#cff"/><path d="M276.68,479l.08.89h0a2.2,2.2,0,0,1,.78-.74,2,2,0,0,1,1.06-.27,2,2,0,0,1,1.55.59,2.74,2.74,0,0,1,.54,1.89v4h-1.42v-4a1.47,1.47,0,0,0-.29-1,1.24,1.24,0,0,0-.91-.29,1.47,1.47,0,0,0-.74.18,1.54,1.54,0,0,0-.54.51v4.6h-1.42V479Z" fill="#cff"/><path d="M281.92,482.28a4.27,4.27,0,0,1,.64-2.46,2.12,2.12,0,0,1,1.84-.92,2,2,0,0,1,.92.2,2,2,0,0,1,.69.58h0v-3.46h1.42v9.14h-1.23l-.11-.77a2,2,0,0,1-1.72.89,2.19,2.19,0,0,1-1.83-.83,3.66,3.66,0,0,1-.64-2.25Zm1.43.12a2.58,2.58,0,0,0,.33,1.41,1.18,1.18,0,0,0,1.07.51,1.51,1.51,0,0,0,.77-.19,1.6,1.6,0,0,0,.51-.55v-2.77a1.69,1.69,0,0,0-.51-.55,1.41,1.41,0,0,0-.76-.19,1.16,1.16,0,0,0-1.08.6,3.38,3.38,0,0,0-.33,1.61Z" fill="#cff"/><path d="M296.81,483.32h-3.29l-.7,2h-1.45l3.14-8.53h1.35l3.1,8.53h-1.45Zm-2.89-1.14h2.5l-1.24-3.63h0Z" fill="#cff"/><path d="M299.59,482.28a4.27,4.27,0,0,1,.64-2.46,2.29,2.29,0,0,1,2.77-.72,2.09,2.09,0,0,1,.68.58h0v-3.46h1.43v9.14H303.9l-.12-.77a2,2,0,0,1-1.72.89,2.19,2.19,0,0,1-1.83-.83,3.66,3.66,0,0,1-.64-2.25Zm1.43.12a2.58,2.58,0,0,0,.33,1.41,1.18,1.18,0,0,0,1.07.51,1.35,1.35,0,0,0,1.28-.74v-2.77a1.59,1.59,0,0,0-.51-.55,1.39,1.39,0,0,0-.75-.19,1.14,1.14,0,0,0-1.08.6,3.26,3.26,0,0,0-.34,1.61Z" fill="#cff"/><path d="M308.86,483.22l.12.55h0l.12-.55,1.26-4.2h1.47l-2.25,6.34h-1.24L306.09,479h1.47Z" fill="#cff"/><path d="M314.25,477.47h-1.42v-1.25h1.42Zm0,7.89h-1.42V479h1.42Z" fill="#cff"/><path d="M319.41,483.64a.67.67,0,0,0-.27-.55,3.05,3.05,0,0,0-1.06-.38,4.35,4.35,0,0,1-1.73-.68,1.43,1.43,0,0,1-.57-1.2,1.71,1.71,0,0,1,.66-1.37,2.72,2.72,0,0,1,1.79-.56,2.79,2.79,0,0,1,1.86.57,1.81,1.81,0,0,1,.67,1.45h-1.41a.87.87,0,0,0-.3-.67,1.12,1.12,0,0,0-.82-.28,1.18,1.18,0,0,0-.79.23.71.71,0,0,0-.27.57.63.63,0,0,0,.25.53,3,3,0,0,0,1,.35,4.42,4.42,0,0,1,1.79.68,1.48,1.48,0,0,1,.56,1.23,1.68,1.68,0,0,1-.69,1.4,3.12,3.12,0,0,1-1.87.52,2.86,2.86,0,0,1-2-.63,1.93,1.93,0,0,1-.71-1.49H317a1,1,0,0,0,.39.81,1.68,1.68,0,0,0,.92.24,1.56,1.56,0,0,0,.86-.2A.68.68,0,0,0,319.41,483.64Z" fill="#cff"/><path d="M321.83,482.13a3.44,3.44,0,0,1,.76-2.33,2.64,2.64,0,0,1,2.14-.9,2.7,2.7,0,0,1,2.15.89,3.49,3.49,0,0,1,.76,2.34v.12a3.45,3.45,0,0,1-.76,2.34,3,3,0,0,1-4.29,0,3.45,3.45,0,0,1-.76-2.34Zm1.42.12a2.8,2.8,0,0,0,.36,1.52,1.4,1.4,0,0,0,2.25,0,2.82,2.82,0,0,0,.37-1.52v-.12a2.77,2.77,0,0,0-.37-1.5,1.23,1.23,0,0,0-1.13-.58,1.2,1.2,0,0,0-1.12.58,2.78,2.78,0,0,0-.36,1.5Z" fill="#cff"/></g><g style="isolation:isolate"><path d="M332.11,480.32l-.67,0a1.25,1.25,0,0,0-.7.17,1.22,1.22,0,0,0-.43.49v4.4h-1.42V479h1.3l.09.89h0a2,2,0,0,1,.61-.74,1.4,1.4,0,0,1,.86-.27l.28,0,.23.05Z" fill="#cff"/></g><g style="isolation:isolate"><path d="M335.37,482.82l.15.66h0l1.4-4.46h1.56l-2.63,7.3a3.18,3.18,0,0,1-.7,1.13,1.72,1.72,0,0,1-1.3.47l-.38,0-.39-.09.16-1.1.21,0h.22a.79.79,0,0,0,.59-.19,2.27,2.27,0,0,0,.4-.68l.24-.58L332.61,479h1.56Z" fill="#cff"/></g></g><circle cx="147.17" cy="361.21" r="4.5" fill="#cff" opacity="0.3" style="isolation:isolate"/><circle cx="147.17" cy="361.21" r="3.38" fill="#cff" opacity="0.3" style="isolation:isolate"/><circle cx="147.17" cy="361.21" r="2.25" fill="#cff"/><polyline points="147.14 361.28 101.37 425.94 45.24 425.94" fill="none" stroke="#cff" stroke-linecap="round" stroke-miterlimit="10"/><g style="isolation:isolate"><path d="M45.75,409.19a3.64,3.64,0,0,1,.55-2A3.83,3.83,0,0,1,48,405.8a7.19,7.19,0,0,1,5.42,0A3.83,3.83,0,0,1,55,407.22a3.64,3.64,0,0,1,.55,2,3.46,3.46,0,0,1-.54,1.93,3.74,3.74,0,0,1-1.44,1.29,3.92,3.92,0,0,1,1.72,1.4A3.83,3.83,0,0,1,56,416a4.08,4.08,0,0,1-.69,2.37,4.46,4.46,0,0,1-1.89,1.55,6.51,6.51,0,0,1-2.7.54,6.43,6.43,0,0,1-2.69-.54,4.49,4.49,0,0,1-1.88-1.55,4.08,4.08,0,0,1-.69-2.37A3.88,3.88,0,0,1,46,413.8a3.77,3.77,0,0,1,1.72-1.39A3.42,3.42,0,0,1,45.75,409.19Zm3.07,5a2,2,0,0,0-.71,1.66,2.1,2.1,0,0,0,.69,1.63,2.66,2.66,0,0,0,1.87.63,2.58,2.58,0,0,0,1.86-.64,2.15,2.15,0,0,0,.68-1.62,2,2,0,0,0-.7-1.65,3.2,3.2,0,0,0-3.69,0Zm3.46-6.14a2.29,2.29,0,0,0-1.61-.54,2.25,2.25,0,0,0-1.59.54,2,2,0,0,0-.59,1.54,1.82,1.82,0,0,0,.61,1.44,2.55,2.55,0,0,0,3.15,0,1.86,1.86,0,0,0,.62-1.45A2,2,0,0,0,52.28,408.07Z" fill="#fff"/><path d="M58.74,406.75a3.65,3.65,0,1,1-.89,2.38A3.17,3.17,0,0,1,58.74,406.75Zm1.17,2.38c0,1.05.37,1.58,1.1,1.58a1,1,0,0,0,.84-.39,2,2,0,0,0,.3-1.19q0-1.56-1.14-1.56C60.28,407.57,59.91,408.09,59.91,409.13Zm10.78-3-7.86,14H60.11l7.84-14Zm-3.17,8.59a3.17,3.17,0,0,1,2.29-.85,3.1,3.1,0,0,1,2.27.85,3.73,3.73,0,0,1,0,4.79,3.11,3.11,0,0,1-2.27.86,3.37,3.37,0,0,1-2.29-5.65Zm1.13,2.39c0,1.05.38,1.58,1.14,1.58s1.12-.53,1.12-1.58-.37-1.56-1.12-1.56S68.65,416.07,68.65,417.11Z" fill="#fff"/></g><g style="isolation:isolate"><g style="isolation:isolate"><path d="M47,432l2.47,6.61L52,432h1.84v8.53H52.4v-2.91l.15-3.75h0L50,440.57H49l-2.54-6.64h0l.15,3.73v2.91H45.18V432Z" fill="#cff"/><path d="M59.33,440.57a3,3,0,0,1-.11-.4c0-.13,0-.27-.07-.41a2.4,2.4,0,0,1-.78.67,2.07,2.07,0,0,1-1,.26,2.11,2.11,0,0,1-1.5-.5,1.88,1.88,0,0,1-.53-1.41,1.66,1.66,0,0,1,.72-1.44,3.57,3.57,0,0,1,2-.5h1v-.56a1,1,0,0,0-.29-.78,1.19,1.19,0,0,0-.86-.28,1.32,1.32,0,0,0-.81.23.76.76,0,0,0-.29.61H55.45a1.7,1.7,0,0,1,.72-1.37,2.88,2.88,0,0,1,1.89-.58,2.78,2.78,0,0,1,1.81.56,2,2,0,0,1,.67,1.62v2.82a6.06,6.06,0,0,0,.05.76,4.5,4.5,0,0,0,.18.7Zm-1.68-1a1.82,1.82,0,0,0,.88-.21,1.51,1.51,0,0,0,.59-.52v-1.08H58.06a1.44,1.44,0,0,0-1,.3.92.92,0,0,0-.34.73.75.75,0,0,0,.22.58A1,1,0,0,0,57.65,439.54Z" fill="#cff"/><path d="M65.26,435.53l-.67,0a1.25,1.25,0,0,0-.7.17,1.15,1.15,0,0,0-.43.49v4.4H62v-6.34h1.3l.09.89h0a2,2,0,0,1,.6-.74,1.45,1.45,0,0,1,.87-.27l.28,0,.23.05Z" fill="#cff"/></g><g style="isolation:isolate"><path d="M68.39,437.8h-.65v2.77H66.33v-9.14h1.41v5.23h.62L70,434.23h1.66l-2.07,2.9,2.34,3.44H70.23Z" fill="#cff"/></g><g style="isolation:isolate"><path d="M75.2,440.69a2.75,2.75,0,0,1-2.16-.87,3.24,3.24,0,0,1-.79-2.27v-.24A3.4,3.4,0,0,1,73,435a2.57,2.57,0,0,1,2-.89,2.51,2.51,0,0,1,2,.77,3.1,3.1,0,0,1,.66,2.09v.84h-4a2.16,2.16,0,0,0,.46,1.27,1.41,1.41,0,0,0,1.14.47,3,3,0,0,0,1-.14,3.1,3.1,0,0,0,.79-.4l.42,1a2.74,2.74,0,0,1-.93.51A4.17,4.17,0,0,1,75.2,440.69ZM75,435.26a1.07,1.07,0,0,0-.87.41,2.26,2.26,0,0,0-.44,1.1h2.55v-.15a1.54,1.54,0,0,0-.3-1A1.13,1.13,0,0,0,75,435.26Z" fill="#cff"/><path d="M80.52,432.69v1.54h1.15v1.06H80.52v3.5a.8.8,0,0,0,.15.56.48.48,0,0,0,.39.16l.28,0a1,1,0,0,0,.25-.06l.15,1.05a2.37,2.37,0,0,1-.47.15,2.6,2.6,0,0,1-.56.06,1.54,1.54,0,0,1-1.19-.45,2.08,2.08,0,0,1-.42-1.45v-3.5h-.87v-1.06h.87v-1.54Z" fill="#cff"/><path d="M84.27,432.68H82.85v-1.25h1.42Zm0,7.89H82.85v-6.34h1.42Z" fill="#cff"/><path d="M87.15,434.23l.08.89h0a2.1,2.1,0,0,1,.77-.74,2.06,2.06,0,0,1,1.06-.27,2,2,0,0,1,1.56.59,2.74,2.74,0,0,1,.54,1.89v4H89.75v-4a1.43,1.43,0,0,0-.29-1,1.23,1.23,0,0,0-.9-.29,1.49,1.49,0,0,0-.75.18,1.63,1.63,0,0,0-.54.51v4.6H85.85v-6.34Z" fill="#cff"/><path d="M92.4,437.49a4.19,4.19,0,0,1,.65-2.46,2.15,2.15,0,0,1,1.85-.92,2,2,0,0,1,1,.24,2,2,0,0,1,.72.68l.12-.8H98v6.21a2.58,2.58,0,0,1-.75,2,3,3,0,0,1-2.14.71,4.21,4.21,0,0,1-1-.13,4.12,4.12,0,0,1-1-.37l.31-1a4.67,4.67,0,0,0,.81.31A3.49,3.49,0,0,0,95,442a1.45,1.45,0,0,0,1.14-.41,1.67,1.67,0,0,0,.37-1.16v-.49h0a1.87,1.87,0,0,1-.7.56,2.42,2.42,0,0,1-2.77-.65,3.55,3.55,0,0,1-.65-2.24Zm1.43.12a2.46,2.46,0,0,0,.34,1.4,1.19,1.19,0,0,0,1.09.52,1.4,1.4,0,0,0,.77-.19,1.28,1.28,0,0,0,.5-.55V436a1.49,1.49,0,0,0-.5-.55,1.41,1.41,0,0,0-.76-.19,1.17,1.17,0,0,0-1.1.61,3.2,3.2,0,0,0-.34,1.6Z" fill="#cff"/></g></g><circle cx="104.13" cy="278.57" r="4.5" fill="#cff" opacity="0.3" style="isolation:isolate"/><circle cx="104.13" cy="278.57" r="3.38" fill="#cff" opacity="0.3" style="isolation:isolate"/><circle cx="104.13" cy="278.57" r="2.25" fill="#cff"/><polyline points="104.09 278.64 74.49 312.17 4.45 312.17" fill="none" stroke="#cff" stroke-linecap="round" stroke-miterlimit="10"/><g style="isolation:isolate"><path d="M6,295.41a3.64,3.64,0,0,1,.55-2A3.83,3.83,0,0,1,8.16,292a6.29,6.29,0,0,1,2.71-.53,6.29,6.29,0,0,1,2.71.53,3.83,3.83,0,0,1,1.66,1.42,3.64,3.64,0,0,1,.55,2,3.46,3.46,0,0,1-.54,1.93,3.74,3.74,0,0,1-1.44,1.29,3.92,3.92,0,0,1,1.72,1.4,3.83,3.83,0,0,1,.62,2.18,4.08,4.08,0,0,1-.69,2.37,4.46,4.46,0,0,1-1.89,1.55,6.51,6.51,0,0,1-2.7.54,6.43,6.43,0,0,1-2.69-.54,4.49,4.49,0,0,1-1.88-1.55,4.08,4.08,0,0,1-.69-2.37A3.88,3.88,0,0,1,6.23,300,3.77,3.77,0,0,1,8,298.63,3.42,3.42,0,0,1,6,295.41Zm3.07,5a2,2,0,0,0-.71,1.66A2.1,2.1,0,0,0,9,303.72a2.66,2.66,0,0,0,1.87.63,2.58,2.58,0,0,0,1.86-.64,2.15,2.15,0,0,0,.68-1.62,2,2,0,0,0-.7-1.65,2.78,2.78,0,0,0-1.84-.59A2.81,2.81,0,0,0,9,300.43Zm3.46-6.14a2.29,2.29,0,0,0-1.61-.54,2.25,2.25,0,0,0-1.59.54,2,2,0,0,0-.59,1.54,1.82,1.82,0,0,0,.61,1.44,2.29,2.29,0,0,0,1.57.54,2.27,2.27,0,0,0,1.58-.55,1.86,1.86,0,0,0,.62-1.45A2,2,0,0,0,12.48,294.29Z" fill="#fff"/><path d="M18.94,293a3.17,3.17,0,0,1,2.29-.86,3.25,3.25,0,1,1,0,6.5A3.36,3.36,0,0,1,18.94,293Zm1.17,2.38c0,1,.37,1.58,1.1,1.58a1,1,0,0,0,.84-.39,2,2,0,0,0,.3-1.19q0-1.56-1.14-1.56C20.48,293.79,20.11,294.31,20.11,295.35Zm10.78-3-7.86,14H20.31l7.84-14Zm-3.17,8.59a3.17,3.17,0,0,1,2.29-.85,3.1,3.1,0,0,1,2.27.85,3.73,3.73,0,0,1,0,4.79,3.11,3.11,0,0,1-2.27.86,3.37,3.37,0,0,1-2.29-5.65Zm1.13,2.39c0,1.05.38,1.58,1.14,1.58s1.12-.53,1.12-1.58-.37-1.56-1.12-1.56S28.85,302.29,28.85,303.33Z" fill="#fff"/></g><g style="isolation:isolate"><g style="isolation:isolate"><path d="M6.81,323.56v3.23H5.38v-8.53H8.72a3.15,3.15,0,0,1,2.22.72,2.75,2.75,0,0,1,0,3.86,3.15,3.15,0,0,1-2.22.72Zm0-1.15H8.72A1.59,1.59,0,0,0,9.91,322a1.52,1.52,0,0,0,.39-1.08,1.55,1.55,0,0,0-.39-1.09,1.52,1.52,0,0,0-1.19-.43H6.81Z" fill="#cff"/></g><g style="isolation:isolate"><path d="M16.7,326.79c0-.13-.07-.27-.1-.4a2.7,2.7,0,0,1-.07-.41,2.78,2.78,0,0,1-.78.67,2.1,2.1,0,0,1-1,.26,2.09,2.09,0,0,1-1.5-.5,1.88,1.88,0,0,1-.53-1.41,1.66,1.66,0,0,1,.72-1.44,3.57,3.57,0,0,1,2.05-.5h1v-.56a1,1,0,0,0-.29-.78,1.19,1.19,0,0,0-.86-.28,1.32,1.32,0,0,0-.81.23.76.76,0,0,0-.29.61H12.83a1.69,1.69,0,0,1,.71-1.37,2.91,2.91,0,0,1,1.9-.58,2.78,2.78,0,0,1,1.81.56,2,2,0,0,1,.67,1.62v2.82a6.06,6.06,0,0,0,0,.76,3.6,3.6,0,0,0,.18.7Zm-1.67-1a1.82,1.82,0,0,0,.88-.21,1.51,1.51,0,0,0,.59-.52V324H15.44a1.44,1.44,0,0,0-1,.3.93.93,0,0,0-.35.73.75.75,0,0,0,.23.58A1,1,0,0,0,15,325.76Z" fill="#cff"/></g><g style="isolation:isolate"><path d="M22.63,321.75l-.67,0a1.28,1.28,0,0,0-.7.17,1.15,1.15,0,0,0-.43.49v4.4H19.41v-6.34h1.3l.09.89h0a2,2,0,0,1,.61-.74,1.4,1.4,0,0,1,.86-.27l.28,0,.23,0Z" fill="#cff"/></g><g style="isolation:isolate"><path d="M25.52,318.91v1.54h1.15v1.05H25.52V325a.8.8,0,0,0,.15.56.47.47,0,0,0,.39.16l.28,0a.94.94,0,0,0,.24-.06l.16,1.05a2.37,2.37,0,0,1-.47.15,2.67,2.67,0,0,1-.56.06,1.54,1.54,0,0,1-1.19-.45A2.08,2.08,0,0,1,24.1,325V321.5h-.87v-1.05h.87v-1.54Z" fill="#cff"/><path d="M29,320.45l.08.88h0a2.2,2.2,0,0,1,.78-.74,2,2,0,0,1,1.06-.27,2,2,0,0,1,1.55.59,2.74,2.74,0,0,1,.54,1.89v4H31.64v-4a1.47,1.47,0,0,0-.29-1,1.23,1.23,0,0,0-.9-.29,1.49,1.49,0,0,0-.75.18,1.63,1.63,0,0,0-.54.51v4.6H27.74v-6.34Z" fill="#cff"/><path d="M37.27,326.91a2.75,2.75,0,0,1-2.16-.87,3.24,3.24,0,0,1-.79-2.27v-.24a3.4,3.4,0,0,1,.78-2.31,2.55,2.55,0,0,1,2-.89,2.48,2.48,0,0,1,2,.77,3.05,3.05,0,0,1,.67,2.09V324h-4a2.23,2.23,0,0,0,.46,1.27,1.43,1.43,0,0,0,1.14.47,3.15,3.15,0,0,0,1-.14,3.1,3.1,0,0,0,.79-.4l.41,1a2.6,2.6,0,0,1-.92.51A4.17,4.17,0,0,1,37.27,326.91Zm-.17-5.43a1.07,1.07,0,0,0-.87.41,2.17,2.17,0,0,0-.45,1.1h2.56v-.15a1.54,1.54,0,0,0-.3-1A1.15,1.15,0,0,0,37.1,321.48Z" fill="#cff"/><path d="M44.12,321.75l-.67,0a1.25,1.25,0,0,0-.7.17,1.09,1.09,0,0,0-.43.49v4.4H40.9v-6.34h1.3l.09.89h0a2.06,2.06,0,0,1,.61-.74,1.45,1.45,0,0,1,.87-.27l.28,0,.23,0Z" fill="#cff"/><path d="M48.74,325.07a.66.66,0,0,0-.27-.55,2.93,2.93,0,0,0-1.06-.38,4.29,4.29,0,0,1-1.73-.68,1.43,1.43,0,0,1-.57-1.21,1.71,1.71,0,0,1,.66-1.36,2.69,2.69,0,0,1,1.78-.56,2.84,2.84,0,0,1,1.87.57,1.81,1.81,0,0,1,.67,1.45H48.67a.87.87,0,0,0-.29-.67,1.13,1.13,0,0,0-.83-.28,1.2,1.2,0,0,0-.79.23.73.73,0,0,0-.26.57.63.63,0,0,0,.25.53,3,3,0,0,0,1,.35,4.31,4.31,0,0,1,1.78.68,1.46,1.46,0,0,1,.57,1.23,1.66,1.66,0,0,1-.7,1.4,3.07,3.07,0,0,1-1.87.52,2.83,2.83,0,0,1-2-.63,1.93,1.93,0,0,1-.71-1.49h1.38a.92.92,0,0,0,.39.81,1.66,1.66,0,0,0,.92.24,1.58,1.58,0,0,0,.86-.2A.68.68,0,0,0,48.74,325.07Z" fill="#cff"/><path d="M52.82,321.24h0a2.2,2.2,0,0,1,.75-.68,2.09,2.09,0,0,1,1-.24,2,2,0,0,1,1.58.62,2.94,2.94,0,0,1,.56,2v3.86H55.31v-3.87a1.65,1.65,0,0,0-.29-1.09,1.16,1.16,0,0,0-.9-.33,1.6,1.6,0,0,0-.75.17,1.49,1.49,0,0,0-.55.48v4.64H51.4v-9.14h1.42Z" fill="#cff"/><path d="M59.73,318.9H58.31v-1.25h1.42Zm0,7.89H58.31v-6.34h1.42Z" fill="#cff"/><path d="M66.88,323.83a3.6,3.6,0,0,1-.64,2.25,2.44,2.44,0,0,1-2.78.64,1.74,1.74,0,0,1-.69-.55h0v3.06H61.32v-8.78H62.6l.09.76a1.93,1.93,0,0,1,.72-.65,2.07,2.07,0,0,1,1-.23,2.12,2.12,0,0,1,1.84.92,4.19,4.19,0,0,1,.64,2.46Zm-1.42-.12a3.11,3.11,0,0,0-.36-1.6,1.17,1.17,0,0,0-1.1-.61,1.41,1.41,0,0,0-.76.19,1.33,1.33,0,0,0-.49.53v2.86a1.3,1.3,0,0,0,.49.52,1.6,1.6,0,0,0,.77.17,1.22,1.22,0,0,0,1.1-.52,2.57,2.57,0,0,0,.35-1.42Z" fill="#cff"/><path d="M71.68,325.07a.66.66,0,0,0-.27-.55,2.79,2.79,0,0,0-1.06-.38,4.35,4.35,0,0,1-1.73-.68,1.43,1.43,0,0,1-.57-1.21,1.69,1.69,0,0,1,.67-1.36,2.67,2.67,0,0,1,1.78-.56,2.79,2.79,0,0,1,1.86.57,1.81,1.81,0,0,1,.68,1.45H71.62a.9.9,0,0,0-.29-.67,1.14,1.14,0,0,0-.83-.28,1.18,1.18,0,0,0-.79.23.7.7,0,0,0-.26.57.65.65,0,0,0,.24.53,3.08,3.08,0,0,0,1,.35,4.36,4.36,0,0,1,1.79.68,1.45,1.45,0,0,1,.56,1.23,1.68,1.68,0,0,1-.69,1.4,3.1,3.1,0,0,1-1.87.52,2.86,2.86,0,0,1-2-.63,1.92,1.92,0,0,1-.7-1.49h1.37a1,1,0,0,0,.4.81,1.63,1.63,0,0,0,.92.24,1.52,1.52,0,0,0,.85-.2A.65.65,0,0,0,71.68,325.07Z" fill="#cff"/></g></g></svg>