<svg xmlns="http://www.w3.org/2000/svg" viewBox="0 0 500 500"><title>token_distribution_chart</title><path d="M183.76,237.58a67.89,67.89,0,0,1,133.47,24.8l102.82,19.1A172.7,172.7,0,0,0,80.47,218.39Z" fill="#ffcf05"/><path d="M239.27,318.36l-20,107.82A177.26,177.26,0,0,0,423.91,285.65L316.6,265.71A67.9,67.9,0,0,1,239.27,318.36Z" fill="#5ffabe"/><path d="M209.21,305.47,137,396.12c24.48,19.2,47.24,29.58,77.76,35.46l21.15-113.85A67.6,67.6,0,0,1,209.21,305.47Z" fill="#ff84aa"/><path d="M188.21,279,99,315.87a157,157,0,0,0,47.39,63l60.14-75.51A68.13,68.13,0,0,1,188.21,279Z" fill="#542fef"/><path d="M182.58,245.6,72.2,233c-3.16,30.26.66,57.49,12,85.39l102.74-42.5A67.43,67.43,0,0,1,182.58,245.6Z" fill="#5496ff"/><path d="M183.15,240.92,83.43,222.39c-.43,2.52-.87,5.37-1.25,8.3L183,242.23C183,241.79,183.08,241.36,183.15,240.92Z" fill="#e24359"/><circle cx="249.74" cy="249.86" r="46.71" fill="#256cf6"/><path d="M261.49,241.32l-1.9,1.1-3,1.74L273.7,254V234.27Z" fill="#8ab4f8"/><path d="M248.52,248.72V277.8l25.18-14.54Z" fill="#b0ccfa"/><path d="M248.52,248.73l-25.18-14.54v29.07Z" fill="#dce9fd"/><path d="M245.9,241.05a5.22,5.22,0,0,1,5.24,0l5.41,3.12,17.15-9.9-22.56-13a5.22,5.22,0,0,0-5.24,0l-22.56,13,17.15,9.9Z" fill="#fff"/><ellipse cx="249.74" cy="249.86" rx="39.28" ry="38.21" fill="none"/><path d="M249.74,291c-23.28,0-42.22-18.47-42.22-41.16s18.94-41.17,42.22-41.17S292,227.16,292,249.86,273,291,249.74,291Zm0-79.38c-21.66,0-39.28,17.14-39.28,38.22s17.62,38.21,39.28,38.21S289,270.93,289,249.86,271.4,211.64,249.74,211.64Z" fill="#8ab4f8"/><circle cx="87.75" cy="227.4" r="4.5" fill="#cff" opacity="0.3"/><circle cx="87.75" cy="227.4" r="3.38" fill="#cff" opacity="0.3"/><circle cx="87.75" cy="227.4" r="2.25" fill="#cff"/><line x1="86.08" y1="227.47" x2="19.23" y2="227.4" fill="none" stroke="#cff" stroke-linecap="round" stroke-miterlimit="10"/><text transform="translate(19.23 221.02)" font-size="20" fill="#fff" font-family="Poppins-SemiBold, Poppins" font-weight="600">1%</text><text transform="translate(19.23 241.45)" font-size="12" fill="#cff" font-family="Roboto-Medium, Roboto" font-weight="500">Ai<tspan x="11" y="0" letter-spacing="-0.01em">r</tspan><tspan x="15.16" y="0">d</tspan><tspan x="21.96" y="0" letter-spacing="-0.01em">r</tspan><tspan x="26.12" y="0">op</tspan></text><circle cx="355.49" cy="187.39" r="4.5" fill="#cff" opacity="0.3"/><circle cx="355.49" cy="187.39" r="3.38" fill="#cff" opacity="0.3"/><circle cx="355.49" cy="187.39" r="2.25" fill="#cff"/><polyline points="355.46 187.46 419.03 82.76 487.69 82.76" fill="none" stroke="#cff" stroke-linecap="round" stroke-miterlimit="10"/><text transform="translate(420.41 76.95)" font-size="20" fill="#fff" font-family="Poppins-SemiBold, Poppins" font-weight="600">50%</text><text transform="translate(420.41 97.38)" font-size="12" fill="#cff" font-family="Roboto-Medium, Roboto" font-weight="500"><tspan letter-spacing="-0.04em">T</tspan><tspan x="6.91" y="0">o</tspan><tspan x="13.71" y="0" letter-spacing="-0.01em">k</tspan><tspan x="19.87" y="0">en Sale</tspan></text><circle cx="320.07" cy="368.11" r="4.5" fill="#cff" opacity="0.3"/><circle cx="320.07" cy="368.11" r="3.38" fill="#cff" opacity="0.3"/><circle cx="320.07" cy="368.11" r="2.25" fill="#cff"/><polyline points="320.04 368.18 359.62 429.93 486.41 429.93" fill="none" stroke="#cff" stroke-linecap="round" stroke-miterlimit="10"/><text transform="translate(364.64 422.96)" font-size="20" fill="#fff" font-family="Poppins-SemiBold, Poppins" font-weight="600">25%</text><text transform="translate(364.64 443.4)" font-size="12" fill="#cff" font-family="Roboto-Medium, Roboto" font-weight="500">St<tspan x="11.34" y="0" letter-spacing="-0.01em">r</tspan><tspan x="15.5" y="0">ategic D</tspan><tspan x="59.57" y="0" letter-spacing="-0.01em">ev</tspan><tspan x="71.85" y="0">elopment</tspan></text><circle cx="203.3" cy="404.25" r="4.5" fill="#cff" opacity="0.3"/><circle cx="203.3" cy="404.25" r="3.38" fill="#cff" opacity="0.3"/><circle cx="203.3" cy="404.25" r="2.25" fill="#cff"/><polyline points="203.26 404.32 221.96 470.73 338.57 470.73" fill="none" stroke="#cff" stroke-linecap="round" stroke-miterlimit="10"/><text transform="translate(234.96 464.92)" font-size="20" fill="#fff" font-family="Poppins-SemiBold, Poppins" font-weight="600">8%</text><text transform="translate(234.96 485.36)" font-size="12" fill="#cff" font-family="Roboto-Medium, Roboto" font-weight="500"><tspan letter-spacing="-0.04em">T</tspan><tspan x="6.85" y="0">eam and Adviso</tspan><tspan x="93.18" y="0" letter-spacing="0.01em">r</tspan><tspan x="97.56" y="0">y</tspan></text><circle cx="147.17" cy="361.21" r="4.5" fill="#cff" opacity="0.3"/><circle cx="147.17" cy="361.21" r="3.38" fill="#cff" opacity="0.3"/><circle cx="147.17" cy="361.21" r="2.25" fill="#cff"/><polyline points="147.14 361.28 101.37 425.94 45.24 425.94" fill="none" stroke="#cff" stroke-linecap="round" stroke-miterlimit="10"/><text transform="translate(44.25 420.13)" font-size="20" fill="#fff" font-family="Poppins-SemiBold, Poppins" font-weight="600">8%</text><text transform="translate(44.25 440.57)" font-size="12" fill="#cff" font-family="Roboto-Medium, Roboto" font-weight="500">Mar<tspan x="21.32" y="0" letter-spacing="-0.01em">k</tspan><tspan x="27.48" y="0">eting</tspan></text><circle cx="104.13" cy="278.57" r="4.5" fill="#cff" opacity="0.3"/><circle cx="104.13" cy="278.57" r="3.38" fill="#cff" opacity="0.3"/><circle cx="104.13" cy="278.57" r="2.25" fill="#cff"/><polyline points="104.09 278.64 74.49 312.17 4.45 312.17" fill="none" stroke="#cff" stroke-linecap="round" stroke-miterlimit="10"/><text transform="translate(4.45 306.35)" font-size="20" fill="#fff" font-family="Poppins-SemiBold, Poppins" font-weight="600">8%</text><text transform="translate(4.45 326.79)" font-size="12" fill="#cff" font-family="Roboto-Medium, Roboto" font-weight="500"><tspan letter-spacing="-0.01em">P</tspan><tspan x="7.69" y="0">a</tspan><tspan x="14.21" y="0" letter-spacing="0.01em">r</tspan><tspan x="18.63" y="0">tnerships</tspan></text></svg>